<svg width="536" height="276" xmlns="http://www.w3.org/2000/svg"
  xmlns:xlink="http://www.w3.org/1999/xlink">
  <defs>
    <path id="a" d="M0 .9h605v281H0z" />
  </defs>
  <g transform="translate(0 -.2)" fill="none" fill-rule="evenodd" opacity=".5">
    <mask id="b" fill="#fff">
      <use xlink:href="#a" />
    </mask>
    <path
      d="m575.3-89.2.4-32.9-341.1 268-107.8-46.7L-8 192.4V224l135.2-94.4L235 176.5 575.3-89.2ZM127.2 71.5 235 118.2 489.2-79.3l.4-33L235 88.2 127.2 41.3m0-27.3L235 60.8l240.2-193.9.4-32.9L235 30.6 127.2-16v30Zm0-57.9L235 3l161.3-124.5.4-32.9L234.6-27.2 126.8-74M-8 249.8v31.7l135.2-94.7L235 233.6l441-342.1.3-33-441.3 345L127.2 157-8 249.8Z"
      fill="#FFF" fill-rule="nonzero" mask="url(#b)" />
    <path
      d="m-8 166.2 135.2-94.3V41.7L-8 134.5v31.7M127.2-16.1-8 77v31.7l135.2-94.3m0-88.4L-8 19v31.7l135.2-94.3"
      fill="#868686" fill-rule="nonzero" mask="url(#b)" />
  </g>
</svg>
