<svg width="1459" height="759" xmlns="http://www.w3.org/2000/svg">
  <g fill-rule="nonzero" fill="none">
    <path
      d="m1259 3.5 1-85.9-641.8 498L337 293.5-15 536.6v82.8L338 373.2l281.4 122L1259 3.5ZM337.9 221.1l281.4 122 421-324.8 1-85.8-422 332-281.4-122m0-71.4 281.4 122 421-324.8 1-85.8-422 332-281.4-122m0-72.5L619.3 42.1l421-324.8 1-85.9-423 332-281.4-122M-15 686.6v82.8L338 522l281.4 122.1L1468-7.5l1-85.9-849.8 659-281.4-121-352.8 242Z"
      fill="#FFF" />
    <path
      d="M-14.9 468.3 338 222.1v-78.6L-15 385.5v82.8M338-7.5-15 235.5v82.8L338 72.1m0-230.7L-15 84.5v82.8L338-79"
      fill="#868686" />
  </g>
</svg>
