<svg width="238" height="76" xmlns="http://www.w3.org/2000/svg">
  <defs>
    <linearGradient x1="89.4%" y1="52.4%" x2="12.8%" y2="48%" id="a">
      <stop stop-color="#801096" stop-opacity="0" offset="0%" />
      <stop stop-color="#801096" offset="100%" />
    </linearGradient>
    <linearGradient x1="89.4%" y1="52.5%" x2="12.8%" y2="48%" id="b">
      <stop stop-color="#801096" stop-opacity="0" offset="0%" />
      <stop stop-color="#801096" offset="100%" />
    </linearGradient>
    <linearGradient x1="89.4%" y1="52.5%" x2="12.8%" y2="48%" id="c">
      <stop stop-color="#801096" stop-opacity="0" offset="0%" />
      <stop stop-color="#801096" offset="100%" />
    </linearGradient>
    <linearGradient x1="89.4%" y1="52.5%" x2="12.8%" y2="48%" id="d">
      <stop stop-color="#801096" stop-opacity="0" offset="0%" />
      <stop stop-color="#801096" offset="100%" />
    </linearGradient>
  </defs>
  <g fill="none" fill-rule="evenodd" opacity=".7">
    <path fill="url(#a)" transform="scale(-1 1) rotate(8 1.3 -3328.4)"
      d="m84.1 34.2 324.8 1 .3 84.4-324.8-1z" />
    <path fill="url(#b)" transform="scale(-1 1) rotate(15 4.7 -1305.6)"
      d="m2.5 21.1 374.1 2.1.5 97.8L3 118.9z" />
    <path fill="url(#c)" transform="scale(-1 1) rotate(25 6.2 -941.2)"
      d="m72.5 40.6 326 2.8.7 84.1-325.9-2.8z" />
    <path fill="url(#d)" transform="scale(-1 1) rotate(9 2.1 -2315.2)"
      d="m32.2 9.1 324.9 1.1.3 84.5-324.9-1.2z" />
  </g>
</svg>
