<svg width="230" height="76" xmlns="http://www.w3.org/2000/svg">
  <defs>
    <linearGradient x1="100%" y1="50%" x2="-5.8%" y2="50%" id="a">
      <stop stop-color="#186CEA" stop-opacity="0" offset="0%" />
      <stop stop-color="#186CEA" offset="100%" />
    </linearGradient>
    <linearGradient x1="92.2%" y1="35.3%" x2="-4.4%" y2="35.3%" id="b">
      <stop stop-color="#186CEA" stop-opacity="0" offset="0%" />
      <stop stop-color="#186CEA" offset="100%" />
    </linearGradient>
    <linearGradient x1="89.4%" y1="52.5%" x2="12.8%" y2="48%" id="c">
      <stop stop-color="#186CEA" stop-opacity="0" offset="0%" />
      <stop stop-color="#186CEA" offset="100%" />
    </linearGradient>
    <linearGradient x1="89.4%" y1="52.5%" x2="12.8%" y2="48%" id="d">
      <stop stop-color="#186CEA" stop-opacity="0" offset="0%" />
      <stop stop-color="#186CEA" offset="100%" />
    </linearGradient>
  </defs>
  <g fill="none" fill-rule="evenodd">
    <path fill="url(#a)" opacity=".8" transform="scale(-1 1) rotate(8 5.3 -3271.2)"
      d="m84.1 34.2 324.8 1 .3 84.4-324.8-1z" />
    <path fill="url(#b)" opacity=".7" transform="scale(-1 1) rotate(15 8.7 -1275.2)"
      d="m2.5 21.1 374.1 2.1.5 97.8L3 118.9z" />
    <path fill="url(#c)" opacity=".7" transform="scale(-1 1) rotate(25 10.2 -923.2)"
      d="m72.5 40.6 326 2.8.7 84.1-325.9-2.8z" />
    <path fill="url(#d)" opacity=".7" transform="scale(-1 1) rotate(9 6.1 -2264.4)"
      d="m32.2 9.1 324.9 1.1.3 84.5-324.9-1.2z" />
  </g>
</svg>
