<svg xmlns="http://www.w3.org/2000/svg" viewBox="0 0 14 14">
  <path fill="#fff"
    d="M13.4729 9.6145C13.8313 8.7922 14 7.9277 14 7v-.0422c0-.9277-.1687-1.7921-.5271-2.6144-.3584-.8223-.8434-1.5181-1.4548-2.1295-.6115-.6115-1.3494-1.0753-2.2139-1.4338-.8434-.3584-1.771-.527-2.7831-.527-.991 0-1.9187.1686-2.7832.527-.8433.3585-1.6024.8434-2.2349 1.4548C1.3705 2.8464.8855 3.5633.5271 4.3855.1687 5.2078 0 6.0723 0 7v.0422c0 .9277.1687 1.7921.5271 2.6144.3584.8223.8434 1.5181 1.4548 2.1295.6115.6115 1.3494 1.0753 2.2139 1.4338.8434.3584 1.771.527 2.7831.527.991 0 1.9187-.1686 2.7832-.527.8433-.3585 1.6024-.8434 2.2349-1.4548.6325-.6115 1.1385-1.3284 1.4759-2.1506Zm-1.9151-3.9403L8.9553 7.7605l.9248 3.2909L7.1916 9.094 4.503 11.0514l.9248-3.2909-2.6025-2.0863 3.2693-.086 1.097-3.2478 1.0969 3.2478 3.2693.086Z" />
</svg>
