<svg width="143" height="32" xmlns="http://www.w3.org/2000/svg">
	<g fill-rule="nonzero" fill="none">
		<path
			d="M142.857 18.2v-4.257h-8.514V.629h-4.886V18.2h13.4Zm-15.4-5.229c.486-1.114.714-2.285.714-3.542V9.37c0-1.257-.228-2.428-.714-3.542a9.247 9.247 0 0 0-1.971-2.886c-.829-.829-1.829-1.457-3-1.943-1.143-.486-2.4-.714-3.772-.714-1.343 0-2.6.228-3.771.714-1.143.486-2.172 1.143-3.029 1.971a8.987 8.987 0 0 0-2 2.915C109.43 7 109.2 8.17 109.2 9.429v.057c0 1.257.229 2.428.714 3.543a9.247 9.247 0 0 0 1.972 2.885c.828.829 1.828 1.457 3 1.943 1.143.486 2.4.714 3.771.714 1.343 0 2.6-.228 3.772-.714 1.142-.486 2.171-1.143 3.028-1.971a8.565 8.565 0 0 0 2-2.915Zm-2.828-5.428-3.458 2.771 1.229 4.372-3.571-2.6-3.572 2.6 1.229-4.372-3.457-2.771 4.342-.114 1.458-4.315 1.457 4.315 4.343.114Zm-20.943-2.657h5.285V.629H93.543v4.257h5.286V18.2h4.885V4.886h-.028ZM87.657 18.2h4.914V.629h-4.885V18.2h-.029ZM86.2 9.6c.371-.8.571-1.686.571-2.743V6.8c0-.971-.171-1.829-.514-2.6A5.206 5.206 0 0 0 84.8 2.257a6.354 6.354 0 0 0-2.314-1.2C81.57.771 80.57.63 79.457.63h-7.543V18.2H76.8v-5.029h2.4c1.086 0 2.086-.142 3.029-.4.942-.257 1.742-.657 2.4-1.2.657-.542 1.2-1.2 1.571-1.971Zm-4.314-2.543c0 .714-.257 1.257-.743 1.686-.486.4-1.172.628-2.057.628H76.77V4.686h2.286c.886 0 1.572.2 2.086.6.486.4.743.971.743 1.743v.028ZM66.229 18.2h5.228L63.971.486h-4.685L51.8 18.2h5.114l1.257-3.143h6.772l1.286 3.143Zm-2.686-6.914H59.6l1.971-5 1.972 5ZM40.886 9.4v-.057c0-.629.114-1.229.314-1.8a4.5 4.5 0 0 1 .857-1.486 4.12 4.12 0 0 1 1.314-1 4.154 4.154 0 0 1 1.686-.371c.857 0 1.572.171 2.172.543.6.371 1.142.857 1.657 1.514l3.314-3.2c-.371-.543-.486-.686-.971-1.143-.486-.457-1.058-.829-1.658-1.171a8.515 8.515 0 0 0-2.028-.743 10.995 10.995 0 0 0-2.457-.257c-1.343 0-2.572.228-3.715.714a8.282 8.282 0 0 0-2.914 1.943c-.828.828-1.457 1.8-1.943 2.914a9.372 9.372 0 0 0-.714 3.571v.058c0 1.314.229 2.514.714 3.628.486 1.114 1.115 2.086 1.943 2.886.8.8 1.772 1.457 2.886 1.886a9.208 9.208 0 0 0 3.543.685c.971 0 1.857-.114 2.628-.314a9.313 9.313 0 0 0 2.115-.829 7.41 7.41 0 0 0 1.685-1.257c.486-.485.943-1 1.372-1.571l-3.657-2.6c-.258.314-.543.6-.829.857a6.684 6.684 0 0 1-.886.686 3.27 3.27 0 0 1-1.028.428c-.372.115-.8.143-1.257.143-.629 0-1.172-.114-1.686-.371a3.747 3.747 0 0 1-1.314-1 4.5 4.5 0 0 1-.858-1.486 5.799 5.799 0 0 1-.285-1.8ZM39.857 31.743h1v-8.657H44.2V22.2h-7.714v.886h3.343v8.657h.028Zm17 0-2.343-3.257c.686-.229 1.229-.6 1.629-1.115.371-.514.571-1.142.571-1.885 0-1.029-.343-1.829-1.028-2.4-.686-.572-1.657-.886-2.857-.886h-3.572v9.543h1v-3.029h2.572c.257 0 .514 0 .771-.028l2.171 3.057h1.086Zm-4.086-3.886H50.23v-4.771h2.542c.943 0 1.658.2 2.172.628.486.4.743 1 .743 1.772 0 .743-.257 1.343-.743 1.771-.514.4-1.229.6-2.172.6ZM69.6 31.743h1.057L66.286 22.2h-1l-4.372 9.543h1.057l1.143-2.543h5.315l1.171 2.543Zm-6.086-3.372 2.286-5.114 2.286 5.114h-4.572Zm12.143 3.372h3.886c1 0 1.886-.2 2.657-.6a4.458 4.458 0 0 0 1.8-1.686c.429-.714.629-1.543.629-2.486 0-.914-.2-1.742-.629-2.485a4.458 4.458 0 0 0-1.8-1.686c-.771-.4-1.657-.6-2.657-.6h-3.886v9.543Zm1-.857v-7.8h2.829c.828 0 1.571.171 2.2.485a3.75 3.75 0 0 1 1.457 1.372c.343.6.514 1.257.514 2.028 0 .772-.171 1.429-.514 2.029a3.38 3.38 0 0 1-1.457 1.371c-.629.343-1.372.486-2.2.486h-2.829v.029Zm14.686 0v-3.543h4.943v-.857h-4.943v-3.4h5.514V22.2h-6.543v9.543h6.743v-.886h-5.714v.029Zm14.143.943c.771 0 1.428-.115 1.971-.343.543-.229.943-.543 1.2-.943.257-.4.4-.829.4-1.314 0-.572-.143-1.029-.457-1.372a2.7 2.7 0 0 0-1.086-.771c-.428-.172-1-.343-1.685-.515-.6-.142-1.058-.285-1.4-.4a2.19 2.19 0 0 1-.886-.542c-.229-.229-.343-.543-.343-.915 0-.514.2-.914.629-1.257.428-.314 1.057-.486 1.885-.486.429 0 .886.058 1.343.2.457.143.886.343 1.286.6l.343-.8c-.372-.257-.829-.457-1.343-.628a6.013 6.013 0 0 0-1.6-.229c-.772 0-1.429.115-1.972.343-.514.229-.914.543-1.171.943-.257.4-.371.829-.371 1.314 0 .6.142 1.057.457 1.4.314.343.657.6 1.085.772.429.171 1 .343 1.715.514.6.143 1.057.286 1.4.4.343.114.628.286.857.514.228.229.343.543.343.915 0 .485-.2.914-.629 1.228-.428.314-1.057.457-1.914.457-.6 0-1.2-.114-1.772-.314-.571-.2-1.028-.486-1.371-.829l-.4.772c.343.371.857.686 1.514.886.572.285 1.257.4 1.972.4Z"
			fill="#243054" />
		<path
			d="m29.114 15.114.029-2.371-11.657 9.171-7.772-3.371L0 25.257v2.286l9.743-6.8 7.771 3.371 11.6-9ZM9.743 16.543l7.771 3.371 11.629-8.971.028-2.372-11.657 9.172-7.771-3.372m0-1.971 7.771 3.371L29.143 6.8l.028-2.371L17.514 13.6l-7.771-3.371m0-2 7.771 3.371 11.629-8.971.028-2.372L17.486 9.43 9.714 6.057m.029 16.657L0 29.4v2.286l9.743-6.829 7.771 3.372 11.629-8.972.028-2.371-11.657 9.171-7.771-3.343Z"
			fill="#D40017" />
		<path
			d="m0 23.371 9.743-6.8V14.4L0 21.086v2.285M9.743 10.23 0 16.943v2.286l9.743-6.8m0-6.372L0 12.771v2.286l9.743-6.8"
			fill="#243054" />
	</g>
</svg>
