<svg width="159" height="36" xmlns="http://www.w3.org/2000/svg">
	<g fill-rule="nonzero" fill="none">
		<path
			d="M158.945 20.344V15.61h-9.467V.807h-5.432v19.537h14.899Zm-17.123-5.814c.54-1.239.794-2.541.794-3.939v-.063c0-1.398-.254-2.7-.794-3.94a10.28 10.28 0 0 0-2.192-3.208c-.92-.921-2.033-1.62-3.335-2.16-1.271-.54-2.669-.794-4.194-.794-1.493 0-2.89.254-4.193.794-1.27.54-2.414 1.27-3.367 2.192a9.993 9.993 0 0 0-2.224 3.24c-.54 1.239-.794 2.541-.794 3.94v.063c0 1.397.254 2.7.794 3.939a10.28 10.28 0 0 0 2.192 3.208c.921.922 2.033 1.62 3.336 2.16 1.27.54 2.668.795 4.193.795 1.493 0 2.89-.254 4.193-.794 1.27-.54 2.415-1.271 3.368-2.192a9.523 9.523 0 0 0 2.223-3.24Zm-3.145-6.035-3.844 3.081 1.366 4.86-3.97-2.89-3.971 2.89 1.366-4.86-3.844-3.081 4.828-.128 1.62-4.796 1.62 4.796 4.83.128ZM115.392 5.54h5.877V.807h-17.155V5.54h5.877v14.804h5.433V5.54h-.032ZM97.57 20.344h5.464V.807h-5.432v19.537h-.032Zm-1.62-9.562c.413-.89.636-1.874.636-3.05V7.67c0-1.08-.191-2.034-.572-2.891a5.789 5.789 0 0 0-1.62-2.16 7.065 7.065 0 0 0-2.574-1.335C90.804.966 89.692.807 88.453.807h-8.387v19.537H85.5v-5.591h2.668c1.207 0 2.32-.16 3.367-.445 1.049-.286 1.938-.73 2.669-1.334a6.514 6.514 0 0 0 1.747-2.192Zm-4.797-2.828c0 .795-.286 1.398-.826 1.875-.54.445-1.302.699-2.287.699h-2.573v-5.21h2.541c.985 0 1.748.222 2.32.667.54.445.825 1.08.825 1.938v.031Zm-17.408 12.39h5.813L71.235.648h-5.21l-8.323 19.696h5.687l1.397-3.495h7.53l1.429 3.495Zm-2.986-7.688h-4.384l2.192-5.56 2.192 5.56ZM45.567 10.56v-.063c0-.699.127-1.366.35-2.001.222-.636.54-1.176.953-1.652a4.58 4.58 0 0 1 1.46-1.112 4.619 4.619 0 0 1 1.875-.413c.953 0 1.747.19 2.414.603.668.413 1.271.953 1.843 1.684l3.685-3.558c-.413-.603-.54-.762-1.08-1.27-.54-.509-1.176-.922-1.843-1.303A9.468 9.468 0 0 0 52.97.648a12.225 12.225 0 0 0-2.732-.286c-1.493 0-2.86.254-4.13.794a9.209 9.209 0 0 0-3.24 2.16c-.921.922-1.62 2.002-2.16 3.24a10.42 10.42 0 0 0-.795 3.972v.063c0 1.461.255 2.796.795 4.035.54 1.239 1.239 2.319 2.16 3.208a9.22 9.22 0 0 0 3.208 2.097c1.24.508 2.542.762 3.94.762a11.7 11.7 0 0 0 2.922-.35c.858-.222 1.652-.54 2.35-.92a8.238 8.238 0 0 0 1.875-1.398c.54-.54 1.049-1.112 1.525-1.747l-4.066-2.891c-.286.35-.604.667-.921.953-.318.286-.636.54-.985.762-.35.223-.73.381-1.144.477-.413.127-.89.159-1.398.159-.699 0-1.302-.128-1.874-.413-.572-.255-1.048-.636-1.461-1.112a5.004 5.004 0 0 1-.953-1.652 6.448 6.448 0 0 1-.318-2.002ZM44.423 35.402h1.112v-9.626h3.717v-.985h-8.577v.985h3.717v9.626h.031Zm18.902 0L60.72 31.78c.763-.254 1.366-.667 1.81-1.239.414-.572.636-1.27.636-2.097 0-1.143-.381-2.033-1.143-2.668-.763-.635-1.843-.985-3.177-.985h-3.971v10.61h1.112v-3.367h2.859c.286 0 .572 0 .858-.032l2.414 3.4h1.207Zm-4.543-4.32h-2.827v-5.306h2.827c1.049 0 1.843.222 2.415.699.54.445.826 1.112.826 1.97 0 .825-.286 1.493-.826 1.969-.572.445-1.366.667-2.415.667Zm18.711 4.32h1.176l-4.86-10.61h-1.113l-4.86 10.61h1.175l1.271-2.828h5.909l1.302 2.828Zm-6.766-3.749 2.541-5.686 2.542 5.686h-5.083Zm13.501 3.749h4.32c1.112 0 2.097-.223 2.955-.668a4.956 4.956 0 0 0 2.001-1.874c.477-.794.699-1.715.699-2.764 0-1.016-.222-1.937-.699-2.763a4.956 4.956 0 0 0-2.001-1.875c-.858-.444-1.843-.667-2.955-.667h-4.32v10.61Zm1.112-.954v-8.672h3.145c.921 0 1.747.19 2.446.54.699.381 1.239.89 1.62 1.525.381.667.572 1.398.572 2.255 0 .858-.19 1.589-.572 2.256a3.759 3.759 0 0 1-1.62 1.525c-.699.38-1.525.54-2.446.54H85.34v.031Zm16.328 0V30.51h5.496v-.953h-5.496v-3.78h6.131v-.985h-7.274v10.61h7.497v-.984h-6.354v.031Zm15.725 1.049c.858 0 1.589-.127 2.192-.381.604-.255 1.048-.604 1.334-1.049.286-.444.445-.921.445-1.461 0-.635-.159-1.144-.508-1.525a3.001 3.001 0 0 0-1.207-.858c-.477-.19-1.112-.38-1.875-.571a17.895 17.895 0 0 1-1.556-.445 2.436 2.436 0 0 1-.985-.604c-.254-.254-.381-.603-.381-1.016 0-.572.222-1.017.699-1.398.476-.35 1.175-.54 2.096-.54.477 0 .985.063 1.493.222.509.16.985.382 1.43.667l.381-.89c-.413-.285-.921-.507-1.493-.698a6.686 6.686 0 0 0-1.779-.254c-.858 0-1.588.127-2.192.381-.572.254-1.016.604-1.302 1.048a2.61 2.61 0 0 0-.413 1.462c0 .667.158 1.175.508 1.556.35.382.73.667 1.207.858.477.19 1.112.381 1.906.572.667.159 1.176.318 1.557.445s.699.317.953.571c.254.255.381.604.381 1.017a1.63 1.63 0 0 1-.699 1.366c-.476.35-1.175.508-2.128.508a5.983 5.983 0 0 1-1.97-.35c-.635-.222-1.144-.54-1.525-.92l-.444.857c.38.413.953.763 1.683.985.636.318 1.398.445 2.192.445Z"
			fill="#FFF" />
		<path
			d="m32.763 16.963.032-2.624-12.902 10.15-8.602-3.73-10.752 7.43v2.53l10.783-7.526 8.602 3.732 12.84-9.962Zm-21.44 1.582 8.601 3.731 12.87-9.93.032-2.624-12.902 10.15-8.602-3.73m0-2.183 8.602 3.732 12.87-9.93.032-2.625-12.902 10.152-8.602-3.732m0-2.214 8.602 3.732 12.87-9.93.032-2.625L19.893 10.67 11.29 6.94m.031 18.436L.54 32.775v2.53l10.783-7.558 8.602 3.732 12.87-9.93.032-2.625-12.902 10.151-8.602-3.7Z"
			fill="#D40017" />
		<path
			d="m.54 26.103 10.782-7.527v-2.403L.54 23.573v2.53m10.783-14.547L.54 18.987v2.53l10.783-7.526m0-7.052L.54 14.37v2.53l10.783-7.526"
			fill="#243054" />
	</g>
</svg>
