<svg width="225" height="208" xmlns="http://www.w3.org/2000/svg">
	<g fill-rule="nonzero" fill="none">
		<path
			d="M224.542 179.315v-8.92H206.7v-27.901h-10.238v36.821h28.08ZM192.27 168.36c1.018-2.335 1.497-4.79 1.497-7.424v-.12c0-2.635-.48-5.09-1.497-7.424a19.376 19.376 0 0 0-4.131-6.047c-1.737-1.737-3.832-3.054-6.287-4.072-2.395-1.017-5.029-1.496-7.903-1.496-2.814 0-5.448.479-7.903 1.496-2.395 1.018-4.55 2.395-6.346 4.132-1.796 1.736-3.173 3.771-4.191 6.106-1.018 2.335-1.497 4.79-1.497 7.425v.12c0 2.634.479 5.088 1.497 7.423a19.376 19.376 0 0 0 4.13 6.047c1.737 1.737 3.833 3.054 6.287 4.072 2.395 1.017 5.03 1.496 7.903 1.496 2.814 0 5.449-.479 7.904-1.496 2.394-1.018 4.55-2.395 6.346-4.131 1.796-1.737 3.233-3.772 4.19-6.107Zm-5.927-11.376-7.245 5.808 2.575 9.16-7.484-5.448-7.484 5.448 2.574-9.16-7.244-5.808 9.1-.24 3.054-9.04 3.053 9.04 9.1.24Zm-43.886-5.568h11.076v-8.921h-32.33v8.92h11.075v27.901h10.239v-27.9h-.06Zm-33.588 27.9h10.298v-36.821H108.93v36.821h-.06Zm-3.054-18.021c.779-1.677 1.198-3.533 1.198-5.748v-.12c0-2.035-.36-3.831-1.078-5.448-.719-1.617-1.736-2.994-3.053-4.071a13.315 13.315 0 0 0-4.85-2.515c-1.916-.599-4.012-.898-6.346-.898H75.88v36.821h10.238v-10.537h5.03c2.275 0 4.37-.3 6.346-.838 1.976-.54 3.652-1.378 5.03-2.515 1.376-1.138 2.514-2.515 3.292-4.131Zm-9.04-5.329c0 1.497-.54 2.635-1.557 3.533-1.018.838-2.455 1.317-4.31 1.317h-4.85v-9.82h4.79c1.855 0 3.292.42 4.37 1.258 1.018.838 1.557 2.036 1.557 3.652v.06Zm-32.81 23.35h10.956l-15.686-37.12h-9.819l-15.686 37.12h10.717l2.634-6.586h14.19l2.694 6.586Zm-5.628-14.489h-8.262l4.13-10.477 4.132 10.477Zm-47.478-3.951v-.12c0-1.317.24-2.575.658-3.772a9.43 9.43 0 0 1 1.796-3.113c.779-.898 1.677-1.557 2.755-2.096 1.077-.479 2.275-.778 3.532-.778 1.796 0 3.293.36 4.55 1.137 1.258.779 2.395 1.797 3.473 3.174l6.945-6.706c-.778-1.138-1.018-1.437-2.036-2.395s-2.215-1.736-3.472-2.455a17.844 17.844 0 0 0-4.251-1.556c-1.557-.36-3.293-.54-5.15-.54-2.813 0-5.388.48-7.782 1.498-2.395.958-4.43 2.335-6.107 4.07-1.737 1.737-3.054 3.773-4.072 6.108a19.64 19.64 0 0 0-1.496 7.484v.12c0 2.754.479 5.268 1.496 7.603 1.018 2.335 2.335 4.37 4.072 6.047a17.377 17.377 0 0 0 6.047 3.952c2.335.958 4.79 1.437 7.424 1.437 2.035 0 3.891-.24 5.508-.659a19.515 19.515 0 0 0 4.43-1.736 15.527 15.527 0 0 0 3.533-2.635 30.602 30.602 0 0 0 2.874-3.292l-7.664-5.449A16.495 16.495 0 0 1 26.187 168a14.007 14.007 0 0 1-1.856 1.437 6.854 6.854 0 0 1-2.156.898c-.778.24-1.676.3-2.634.3-1.317 0-2.455-.24-3.532-.779-1.078-.479-1.976-1.197-2.754-2.095a9.43 9.43 0 0 1-1.797-3.113 12.152 12.152 0 0 1-.598-3.772ZM56.588 206.884h1.695v-14.672h5.666v-1.501H50.874v1.501h5.666v14.672h.048Zm28.812 0-3.97-5.52c1.162-.387 2.082-1.017 2.76-1.889.63-.871.968-1.936.968-3.195 0-1.744-.581-3.1-1.743-4.068-1.162-.969-2.809-1.501-4.842-1.501H72.52v16.173h1.694v-5.133h4.359c.435 0 .871 0 1.307-.048l3.68 5.181h1.84Zm-6.924-6.585h-4.31v-8.087h4.31c1.598 0 2.808.339 3.68 1.065.823.678 1.259 1.695 1.259 3.003 0 1.259-.436 2.275-1.26 3.002-.87.678-2.081 1.017-3.68 1.017Zm28.521 6.585h1.792l-7.409-16.173h-1.695l-7.409 16.173h1.792l1.937-4.31h9.007l1.985 4.31Zm-10.314-5.714 3.874-8.667 3.874 8.667h-7.748Zm20.58 5.714h6.586c1.694 0 3.195-.339 4.503-1.017a7.555 7.555 0 0 0 3.05-2.857c.727-1.21 1.066-2.614 1.066-4.212 0-1.55-.339-2.954-1.065-4.213a7.555 7.555 0 0 0-3.051-2.857c-1.308-.678-2.809-1.017-4.503-1.017h-6.586v16.173Zm1.695-1.452v-13.22h4.794c1.404 0 2.663.29 3.728.823 1.066.581 1.889 1.356 2.47 2.324.581 1.017.872 2.131.872 3.439 0 1.307-.291 2.42-.872 3.438a5.73 5.73 0 0 1-2.47 2.324c-1.065.581-2.324.823-3.728.823h-4.794v.049Zm24.89 0v-6.005h8.377v-1.453h-8.378v-5.762h9.346v-1.501h-11.089v16.173h11.428v-1.5h-9.685v.048Zm23.97 1.598c1.307 0 2.42-.194 3.34-.582.92-.387 1.598-.92 2.034-1.597.436-.678.678-1.405.678-2.228 0-.968-.242-1.743-.775-2.324-.484-.581-1.113-1.017-1.84-1.308-.726-.29-1.695-.58-2.857-.871a27.278 27.278 0 0 1-2.373-.678 3.713 3.713 0 0 1-1.5-.92c-.388-.388-.582-.92-.582-1.55 0-.872.34-1.55 1.066-2.13.726-.533 1.791-.824 3.196-.824.726 0 1.5.097 2.275.34a8.944 8.944 0 0 1 2.18 1.016l.58-1.356c-.629-.436-1.404-.775-2.275-1.065a10.191 10.191 0 0 0-2.712-.387c-1.307 0-2.421.193-3.341.58-.872.388-1.55.92-1.986 1.599-.435.678-.63 1.404-.63 2.227 0 1.017.243 1.792.776 2.373.532.58 1.113 1.017 1.84 1.307.726.29 1.695.581 2.905.872 1.017.242 1.792.484 2.373.678a3.647 3.647 0 0 1 1.453.871c.387.388.58.92.58 1.55 0 .823-.338 1.55-1.065 2.082-.726.533-1.791.775-3.244.775a9.12 9.12 0 0 1-3.002-.533c-.969-.339-1.744-.823-2.325-1.404l-.678 1.308c.582.629 1.453 1.162 2.567 1.5.968.485 2.13.679 3.341.679Z"
			fill="#243054" />
		<path
			d="m172.89 62.831.12-10.012-49.218 38.723L90.98 77.307l-41.015 28.349v9.65L91.1 86.596l32.812 14.235 48.977-38ZM91.1 68.863l32.812 14.235 49.098-37.88.12-10.012-49.218 38.723L91.1 59.695m0-8.324 32.812 14.235 49.098-37.879.12-10.012-49.218 38.723L91.1 42.203m0-8.444 32.812 14.234 49.098-37.878.12-10.013-49.338 38.723L90.98 24.591m.12 70.329-41.135 28.228v9.65L91.1 103.967l32.812 14.235 49.098-37.879.12-10.012-49.218 38.723L91.1 94.92Z"
			fill="#D40017" />
		<path
			d="M49.965 97.694 91.1 68.984v-9.169L49.965 88.044v9.65M91.1 42.204 49.965 70.551v9.65L91.1 51.492m0-26.901L49.965 52.939v9.651L91.1 33.88"
			fill="#243054" />
	</g>
</svg>
