<svg xmlns="http://www.w3.org/2000/svg" width="159" height="36">
	<g fill="none">
		<path fill="#fff"
			d="M158.94 20.34v-4.73h-9.46V.81h-5.43v19.53h14.9ZM115.4 5.54h5.88V.81H104.1v4.73h5.9v14.8h5.43V5.54h-.03Zm-17.82 14.8h5.46V.81H97.6v19.53h-.03Zm-1.62-9.56a7.1 7.1 0 0 0 .64-3.05v-.06c0-1.08-.2-2.03-.58-2.9a5.79 5.79 0 0 0-1.62-2.15 7.07 7.07 0 0 0-2.57-1.34 11.18 11.18 0 0 0-3.37-.47h-8.38v19.53h5.43v-5.59h2.67a13 13 0 0 0 3.37-.44 7.03 7.03 0 0 0 2.66-1.34 6.51 6.51 0 0 0 1.75-2.19Zm-4.8-2.83c0 .8-.28 1.4-.82 1.88-.54.44-1.3.7-2.29.7h-2.57V5.32H88c.98 0 1.75.22 2.32.67.54.44.82 1.08.82 1.93v.03Zm-17.4 12.4h5.8L71.25.64h-5.21l-8.33 19.7h5.69l1.4-3.5h7.53l1.43 3.5Zm-3-7.7h-4.38l2.2-5.55 2.19 5.56Zm-25.18-2.09v-.06a6 6 0 0 1 .35-2c.22-.64.54-1.18.95-1.66a4.58 4.58 0 0 1 1.46-1.1 4.62 4.62 0 0 1 1.88-.42c.95 0 1.74.19 2.4.6.68.41 1.28.95 1.85 1.69l3.69-3.56c-.42-.6-.54-.76-1.08-1.27a9.58 9.58 0 0 0-1.85-1.3 9.47 9.47 0 0 0-2.25-.83 12.22 12.22 0 0 0-2.73-.29c-1.5 0-2.86.26-4.13.8a9.2 9.2 0 0 0-3.24 2.16c-.92.92-1.62 2-2.16 3.24a10.42 10.42 0 0 0-.8 3.97v.06a9.95 9.95 0 0 0 2.96 7.24 9.22 9.22 0 0 0 3.2 2.1 10.25 10.25 0 0 0 3.95.76 11.7 11.7 0 0 0 2.92-.35c.86-.22 1.65-.54 2.35-.92a8.24 8.24 0 0 0 1.87-1.4c.54-.53 1.05-1.1 1.53-1.74l-4.07-2.9a8.78 8.78 0 0 1-.92.96 7.6 7.6 0 0 1-.98.76 4.84 4.84 0 0 1-2.54.64c-.7 0-1.3-.13-1.88-.41a4.18 4.18 0 0 1-1.46-1.12 5 5 0 0 1-.95-1.65 6.45 6.45 0 0 1-.32-2ZM44.42 35.4h1.12v-9.62h3.71v-.99h-8.57v.99h3.71v9.62h.03Zm18.9 0-2.6-3.62a3.7 3.7 0 0 0 1.81-1.24c.41-.57.64-1.27.64-2.1 0-1.14-.38-2.03-1.15-2.66a4.87 4.87 0 0 0-3.17-.99h-3.97V35.4h1.1v-3.37h2.87c.28 0 .57 0 .85-.03l2.42 3.4h1.2Zm-4.54-4.32h-2.82v-5.3h2.82c1.05 0 1.85.22 2.42.7.54.44.82 1.1.82 1.97a2.5 2.5 0 0 1-.82 1.96c-.58.45-1.37.67-2.42.67ZM77.5 35.4h1.18L73.8 24.8h-1.1l-4.86 10.6H69l1.27-2.83h5.91l1.3 2.83Zm-6.76-3.75 2.54-5.68 2.54 5.68h-5.08Zm13.5 3.75h4.32c1.11 0 2.1-.22 2.95-.67a4.96 4.96 0 0 0 2-1.87c.48-.8.7-1.72.7-2.76 0-1.02-.22-1.94-.7-2.77a4.96 4.96 0 0 0-2-1.87 6.34 6.34 0 0 0-2.95-.67h-4.32V35.4Zm1.11-.95v-8.67h3.14c.93 0 1.75.19 2.45.54.7.38 1.24.89 1.62 1.52.38.67.57 1.4.57 2.26a4.4 4.4 0 0 1-.57 2.25 3.76 3.76 0 0 1-1.62 1.53c-.7.38-1.52.54-2.45.54h-3.14v.03Zm16.33 0V30.5h5.5v-.95h-5.5v-3.78h6.13v-.99h-7.28V35.4h7.5v-.98h-6.35v.03Zm15.72 1.05c.86 0 1.6-.13 2.2-.38.6-.26 1.04-.6 1.33-1.05.28-.45.44-.92.44-1.46a2.2 2.2 0 0 0-.5-1.53 3 3 0 0 0-1.21-.86 15.4 15.4 0 0 0-1.88-.57 17.9 17.9 0 0 1-1.55-.44 2.44 2.44 0 0 1-.99-.6 1.43 1.43 0 0 1-.38-1.02c0-.57.22-1.02.7-1.4a3.5 3.5 0 0 1 2.1-.54 5 5 0 0 1 1.49.22 6 6 0 0 1 1.43.67l.38-.9c-.41-.28-.92-.5-1.5-.69a6.69 6.69 0 0 0-1.77-.25 5.6 5.6 0 0 0-2.2.38 2.9 2.9 0 0 0-1.3 1.05 2.61 2.61 0 0 0-.4 1.46c0 .66.15 1.17.5 1.55.35.39.73.67 1.2.86.48.2 1.12.38 1.91.57a17.97 17.97 0 0 1 1.56.45c.38.13.7.32.95.57.26.25.38.6.38 1.02a1.63 1.63 0 0 1-.7 1.36c-.47.35-1.17.51-2.12.51a5.98 5.98 0 0 1-1.97-.35 4 4 0 0 1-1.53-.92l-.44.86c.38.41.95.76 1.68.98.64.32 1.4.45 2.2.45Z"
		/>
		<path fill="#ef8818"
			d="M132.18 1.6a3.49 3.49 0 0 1 .78.43s.44-.25 1.1-.35c.84-.13 2.04 0 3.1 1.25l.01-.01c.16-.06.9-.33 1.71-.28l.13.01c.22.03.44.08.66.16h.02l.04.02.05.02.08.04a2 2 0 0 1 .34.2l.05.04.12.1.07.06.06.06.06.06a.56.56 0 0 1 .04.05l.03.04a1.6 1.6 0 0 1 .1.12l.08.13a2.8 2.8 0 0 1 .17.3l.06.1a14.2 14.2 0 0 1 .12.26l.1.22.06.13.02.04.33.76.11.3.32.91.1.32.05.18.13.5.04.18.04.15v.04l.04.17.03.16.04.18a10.24 10.24 0 0 1 .05.31l.02.1v.1l.05.27.02.2c0 .1.02.19.03.29v.13l.03.36v.19a.26.26 0 0 1 0 .04l.01.06v.65a13.01 13.01 0 0 1-.65 3.75 7.38 7.38 0 0 1-.43 1.05l-.08.14-.24.4-.08.12-.09.12-.01.01-.07.1-.05.06-.04.05-.06.07-.03.04a.31.31 0 0 1-.02.02l-.01.01-.07.07-.08.09a4 4 0 0 1-.15.14l-.05.05-.1.09-.09.07a.07.07 0 0 1 0 .01l-.08.06-.03.02a.4.4 0 0 1-.05.04 1.1 1.1 0 0 1-.08.06l-.03.02-.03.03a3.86 3.86 0 0 1-.2.12l-.02.02-.09.05-.1.06-.04.02-.05.03-.08.04a.21.21 0 0 1-.03.02l-.1.04a3.53 3.53 0 0 1-.14.06l-.02.01a4.37 4.37 0 0 1-.44.17h-.02l-.15.05-.07.02-.07.02a2.93 2.93 0 0 1-.2.05h-.04a3.79 3.79 0 0 0-.05.02l-.1.02-.07.01a.58.58 0 0 0-.02 0l-.06.01h-.04a4.83 4.83 0 0 1-.32.05l-.2.01a5.45 5.45 0 0 1-1.2-.04h-.02l-.23.12a1.48 1.48 0 0 1-.1.05l-.06.03a3.8 3.8 0 0 1-.54.2l-.29.07-.2.04a3.83 3.83 0 0 1-1.34-.02l-.13-.03-.13-.03a2.09 2.09 0 0 1-.13-.03 5.72 5.72 0 0 1-.21-.08 2.22 2.22 0 0 1-.14-.05l-.07-.03a3.59 3.59 0 0 1-.14-.07l-.07-.03-.14-.08-.07-.04a4.46 4.46 0 0 1-.5-.34l-.07-.05a.2.2 0 0 0-.03.01l-.03.02c-.44.24-.86.39-1.26.46a3.65 3.65 0 0 1-.74.06 4.08 4.08 0 0 1-2.4-.86.25.25 0 0 0-.01-.02l-.06-.04v-.01l-.02-.02H127a4.2 4.2 0 0 1-.23 0 6.08 6.08 0 0 1-.26-.03h-.03a7.28 7.28 0 0 1-.36-.06l-.08-.01a4.42 4.42 0 0 0-.07-.02l-.16-.03a2.02 2.02 0 0 1-.08-.02l-.08-.02h-.04l-.12-.04-.1-.03a5.25 5.25 0 0 1-.26-.1h-.05l-.14-.06a4.6 4.6 0 0 1-.18-.08l-.1-.04-.18-.1a3.53 3.53 0 0 1-.1-.05l-.09-.05a3.83 3.83 0 0 1-.1-.05l-.09-.06-.08-.06-.06-.03-.04-.03a4.94 4.94 0 0 1-.46-.36l-.07-.07a4 4 0 0 1-.28-.27 7.73 7.73 0 0 1-.17-.2 2.98 2.98 0 0 1-.08-.1l-.07-.1a4.52 4.52 0 0 1-.29-.43 4.81 4.81 0 0 1-.28-.54l-.06-.14-.05-.15a6.6 6.6 0 0 1-.32-1.12 13.01 13.01 0 0 1 .43-6.23 14.47 14.47 0 0 1 .83-2.04 18.9 18.9 0 0 1 1.66-2.73 3.9 3.9 0 0 1 .26-.31 2.36 2.36 0 0 1 .94-.6l.08-.04.12-.03h.06a3.16 3.16 0 0 1 .2-.04h.04l.08-.02h.1a1.98 1.98 0 0 1 .21 0h.07a4.2 4.2 0 0 1 1.75.54l.05.04.03-.02.11-.1a3.23 3.23 0 0 1 3.37-.5Zm-7.72 7.16s1.25 6.4 1.38 6.45c.12.05 2.68-1.1 2.68-1.1l1.46 1.45 1.35-1.18 1.7 1.44 1.68-1.18s2.34 1.55 2.47 1.52c.13-.03 2.42-6.13 2.42-6.13l-.3.28-3.15 2.88-1.25-1.34-1.62 1.1-1.49-1.58-1.57 1.32-1.42-1.35-1.46 1.1-2.62-3.35Zm7.35-.22-1.12 2.22 2.19.18-.16-.35-.75-1.7-.16-.35Zm2.95-2.14c-1.1.97-.96 2.76.22 3.47.38.23.89.35 1.5.28 2.43-.28 3.17-2.67 2.6-3.63-.16-.26-.48-.44-.89-.56-1.09-.32-2.78-.14-3.43.44Zm-4.62-.4c-.54-.67-2.18-1.13-3.31-1-.42.04-.77.17-.96.4-.73.85-.4 3.34 1.96 4.02.59.17 1.1.13 1.52-.03 1.28-.5 1.7-2.25.8-3.39Z"
		/>
		<path fill="#c23131"
			d="m32.76 16.96.04-2.62-12.9 10.15-8.6-3.73L.53 28.19v2.53l10.78-7.53 8.6 3.74 12.84-9.97Zm-21.44 1.59 8.6 3.73 12.87-9.93.04-2.63-12.9 10.15-8.6-3.73m0-2.18 8.6 3.73 12.86-9.93.04-2.62-12.9 10.15-8.6-3.73m0-2.22 8.6 3.73 12.86-9.93.04-2.62-12.94 10.15-8.6-3.73m.03 18.44L.54 32.78v2.52l10.78-7.55 8.6 3.73 12.87-9.93.04-2.63-12.9 10.15-8.6-3.7Z"
		/>
		<path fill="#186cea"
			d="m.54 26.1 10.78-7.52v-2.4L.54 23.57v2.52m10.78-14.54L.54 18.99v2.53l10.78-7.53m0-7.05L.54 14.37v2.53l10.78-7.53"
		/>
	</g>
</svg>
