<svg xmlns="http://www.w3.org/2000/svg" width="159" height="36">
	<g fill="none">
		<path fill="#fff"
			d="M159 20.3v-4.7h-9.5V.8H144v19.5h15Zm-17.2-5.8c.6-1.2.8-2.5.8-4 0-1.4-.2-2.7-.8-4a10.3 10.3 0 0 0-2.2-3.1 10.6 10.6 0 0 0-7.5-3 10.8 10.8 0 0 0-7.6 3 10 10 0 0 0-2.2 3.3 9.7 9.7 0 0 0-.8 3.9c0 1.5.3 2.8.8 4a10.3 10.3 0 0 0 2.2 3.2 10.6 10.6 0 0 0 7.5 3 10.8 10.8 0 0 0 7.6-3 9.5 9.5 0 0 0 2.2-3.3Zm-3.1-6-3.9 3 1.4 5-4-3-4 3 1.4-5-3.8-3 4.8-.1 1.6-4.8 1.6 4.8 4.9.1Zm-23.3-3h5.9V.8H104v4.7h5.9v14.8h5.4V5.5ZM97.6 20.3h5.4V.8h-5.4v19.5Zm-1.7-9.5a7 7 0 0 0 .7-3v-.1c0-1.1-.2-2-.6-3a5.8 5.8 0 0 0-1.6-2 7 7 0 0 0-2.6-1.4c-1-.3-2.1-.5-3.3-.5H80v19.5h5.4v-5.5h2.7c1.2 0 2.3-.2 3.3-.5s2-.7 2.7-1.3a6.5 6.5 0 0 0 1.8-2.2ZM91.2 8c0 .7-.3 1.4-.9 1.8-.5.5-1.3.7-2.3.7h-2.5V5.3H88c1 0 1.8.2 2.3.7.6.4.9 1 .9 2ZM73.7 20.3h5.9L71.2.6H66l-8.3 19.7h5.7l1.4-3.5h7.5l1.4 3.5Zm-3-7.6h-4.3L68.6 7l2.2 5.6Zm-25.1-2.1v-.1c0-.7 0-1.4.3-2a5 5 0 0 1 1-1.7 4.6 4.6 0 0 1 1.4-1 4.6 4.6 0 0 1 2-.5c.9 0 1.7.2 2.3.6a7 7 0 0 1 1.9 1.7L58 4l-1-1.2c-.6-.5-1.2-1-1.9-1.3A9.5 9.5 0 0 0 53 .6a12.2 12.2 0 0 0-2.8-.2c-1.5 0-2.8.2-4 .8a9.2 9.2 0 0 0-3.3 2.1c-1 1-1.7 2-2.2 3.3a10.4 10.4 0 0 0-.8 4 10 10 0 0 0 3 7.2A9.2 9.2 0 0 0 46 20c1.2.5 2.5.8 4 .8a11.7 11.7 0 0 0 2.8-.4c.9-.2 1.7-.5 2.4-.9a8.2 8.2 0 0 0 1.9-1.4l1.5-1.7-4-3a8.8 8.8 0 0 1-2 1.8l-1.1.5-1.4.1a4 4 0 0 1-1.9-.4c-.6-.2-1-.6-1.5-1a5 5 0 0 1-1-1.7 6.4 6.4 0 0 1-.2-2Zm-1.2 24.8h1.1v-9.6h3.8v-1h-8.6v1h3.7v9.6Zm19 0-2.7-3.6c.8-.3 1.4-.7 1.8-1.3.4-.5.7-1.2.7-2 0-1.2-.4-2-1.2-2.7-.7-.7-1.8-1-3.2-1h-4v10.6H56V32h3.7l2.4 3.4h1.2Zm-4.6-4.3H56v-5.3h2.8c1 0 1.8.2 2.4.7.5.4.8 1 .8 2a3 3 0 0 1-.8 2c-.6.4-1.4.6-2.4.6Zm18.7 4.3h1.2l-4.9-10.6h-1.1l-4.9 10.6H69l1.3-2.8h5.9l1.3 2.8Zm-6.8-3.7 2.6-5.7 2.5 5.7h-5Zm13.5 3.7h4.3c1.2 0 2.1-.2 3-.7a5 5 0 0 0 2-1.8c.5-.8.7-1.8.7-2.8 0-1-.2-2-.7-2.8a5 5 0 0 0-2-1.8c-.9-.5-1.8-.7-3-.7h-4.3v10.6Zm1.1-1v-8.6h3.2c1 0 1.7.2 2.4.5.7.4 1.3 1 1.7 1.5a5.6 5.6 0 0 1 0 4.6 3.8 3.8 0 0 1-1.7 1.5 5 5 0 0 1-2.4.5h-3.2Zm16.4 0v-3.9h5.5v-1h-5.5v-3.7h6.1v-1h-7.3v10.6h7.5v-1h-6.3Zm15.7 1.1c.9 0 1.6-.1 2.2-.4.6-.2 1-.6 1.3-1 .3-.5.5-1 .5-1.5 0-.6-.2-1.1-.5-1.5a3 3 0 0 0-1.3-.9c-.4-.2-1-.4-1.8-.5a17.9 17.9 0 0 1-1.6-.5 2.4 2.4 0 0 1-1-.6c-.2-.3-.3-.6-.3-1 0-.6.2-1 .7-1.4.4-.4 1.1-.6 2-.6l1.5.3 1.5.6.4-.9a6 6 0 0 0-1.5-.6 6.7 6.7 0 0 0-1.8-.3c-.9 0-1.6.1-2.2.4-.6.2-1 .6-1.3 1a2.6 2.6 0 0 0-.4 1.5c0 .7.1 1.2.5 1.5.3.4.7.7 1.2.9l1.9.6 1.5.4c.3.1.7.3 1 .6.3.2.4.6.4 1a1.6 1.6 0 0 1-.7 1.4 4 4 0 0 1-2.1.5 6 6 0 0 1-2-.4 4 4 0 0 1-1.5-.9l-.5.9c.4.4 1 .7 1.7 1a5 5 0 0 0 2.2.4Z" />
		<path fill="#c23131"
			class="flag-red-area"
			d="M32.8 17v-2.7l-13 10.2-8.5-3.7L.5 28.2v2.5l10.8-7.5 8.6 3.7 12.9-10Zm-21.5 1.5 8.6 3.8 12.9-10V9.7L20 20l-8.7-4m0-2.1 8.6 3.7 12.9-10V5.2L20 15.3l-8.6-3.7m0-2.3 8.6 3.8L32.8 3V.5l-13 10.2-8.5-3.8m0 18.5L.5 32.8v2.5l10.8-7.6 8.6 3.8 12.9-10V19L20 29.1l-8.6-3.7Z" />
		<path fill="#186cea"
			class="flag-red-area"
			d="m.5 26.1 10.8-7.5v-2.4L.5 23.6V26m10.8-14.5L.5 19v2.5L11.3 14m0-7L.5 14.3v2.5l10.8-7.5" />
	</g>
</svg>
