<svg width="220" height="220" xmlns="http://www.w3.org/2000/svg">
    <g transform="translate(.6)" fill="none" fill-rule="evenodd">
        <circle fill="#1D1E23" cx="109.6" cy="109.6" r="109.6" />
        <path
            d="M111.3 40.5a39.8 39.8 0 0 1 39.8 37.6 29.6 29.6 0 0 1 33.9 29.6 30 30 0 0 1-30 30h-.2l16.6 17a11.6 11.6 0 0 1 0 16.5 11.6 11.6 0 0 1-16.6 0l-21.3-21.8a5 5 0 0 1-.7-1 6 6 0 0 1-1-.6l-1.8-2c-.9-.8-1.6-1.9-2.1-3a32.4 32.4 0 0 1-37.2-5.1h-26a35.9 35.9 0 1 1 0-71.8c3.1 0 7.7 2 10.6 2.7 5.5-15.5 18.7-28 36-28Zm35 96.1-1.1 1-8 8 2.3 2.2 19.4 19.9a6.3 6.3 0 1 0 9-9l-19.5-19.9-1.1-1.1-1-1Zm-6-5a6.3 6.3 0 0 0-6.8 10.1l.3.4 1.9 1.9 6.3-6.3 2.6-2.7-1.9-1.8c0-.2-.2-.2-.3-.3-.6-.6-1.4-1-2.1-1.2Zm-27.4-45.1a27.3 27.3 0 1 0 13.3 51.2l.4-.3a27.4 27.4 0 0 0-13.7-51Zm0 8.7a18.6 18.6 0 0 1 13.2 31.8l-.3.2a18.5 18.5 0 0 1-26-.2 18.5 18.5 0 0 1 0-26.4c3.3-3.3 8-5.4 13.1-5.4Zm12.3 23a1.6 1.6 0 1 0 0 3 1.6 1.6 0 1 0 0-3Zm-11.1-18c-.8-.4-1.7 0-2 .8-.4.8 0 1.7.8 2 5 2.2 9 6.7 10.3 12.2a1.6 1.6 0 1 0 3-.7c-1.5-6.5-6.1-11.8-12.1-14.3Z"
            fill="#3B404B" fill-rule="nonzero" />
    </g>
</svg>
