<svg width="60" height="37" xmlns="http://www.w3.org/2000/svg"
  xmlns:xlink="http://www.w3.org/1999/xlink">
  <defs>
    <path
      d="M.8 37v-6h.8v.6l.3-.3a1.2 1.2 0 0 1 1-.4 1.7 1.7 0 0 1 1.6 1l.3 1.2c0 .5-.1.9-.3 1.2-.1.4-.4.6-.6.8-.3.2-.6.3-1 .3l-.6-.1-.4-.4-.2-.3V37h-1Zm.8-3.9.1.8.4.6.6.2.7-.2.4-.6.1-.8-.1-.8-.4-.5a1 1 0 0 0-.7-.2 1 1 0 0 0-.6.2l-.4.5-.1.8Zm6 2.3a1.9 1.9 0 0 1-1.8-1c-.2-.4-.3-.8-.3-1.3 0-.4.1-.8.3-1.1a1.9 1.9 0 0 1 1.7-1.1c.5 0 .8 0 1.1.3.3.1.6.4.7.8.2.3.3.7.3 1.1 0 .5-.1.9-.3 1.2a1.9 1.9 0 0 1-1.8 1Zm0-.7.6-.2.4-.6.1-.8-.1-.7c0-.3-.2-.5-.4-.6a1 1 0 0 0-.7-.2 1 1 0 0 0-.6.2c-.2.1-.3.3-.4.6l-.1.7.1.8c0 .2.2.4.4.6l.6.2Zm3.7.6-1.2-4.4h.8l.9 3.2.9-3.2h.9l.8 3.2 1-3.2h.8l-1.3 4.4H14l-.8-3.2H13l-.9 3.2h-.9Zm6.2-2.6h2.3c0-.2 0-.4-.2-.6a1 1 0 0 0-1-.5c-.2 0-.4 0-.5.2-.2 0-.4.2-.4.4l-.2.4v.1Zm0 .7c0 .2 0 .5.2.7 0 .2.2.3.4.4l.6.2h.5l.3-.3.3-.3.8.1c-.1.2-.2.5-.4.6l-.6.4-.9.2c-.4 0-.8-.1-1-.3-.4-.2-.6-.4-.8-.8-.2-.3-.2-.7-.2-1.2 0-.4 0-.8.2-1.1.2-.4.4-.6.7-.8a2.1 2.1 0 0 1 1.8-.2 1.7 1.7 0 0 1 1 1c.2.3.2.7.2 1v.4h-3Zm4 1.9v-4.4h.9v.7l.4-.5c.2-.2.5-.2.7-.2h.4v.8h-.1a3.7 3.7 0 0 0-.4 0H23a1 1 0 0 0-.5 1v2.6h-.8Zm3.6-2.6h2.3l-.1-.6a1 1 0 0 0-1-.5c-.2 0-.4 0-.6.2-.2 0-.3.2-.4.4l-.2.4v.1Zm0 .7c0 .2 0 .5.2.7 0 .2.2.3.4.4l.7.2h.4l.3-.3.3-.3.8.1c0 .2-.2.5-.4.6-.1.2-.3.3-.6.4l-.8.2c-.5 0-.8-.1-1.2-.3-.3-.2-.5-.4-.7-.8l-.2-1.2c0-.4 0-.8.2-1.1.2-.4.4-.6.7-.8A2.1 2.1 0 0 1 27 31a1.7 1.7 0 0 1 1 1c.2.3.2.7.2 1v.4h-3Zm5.7 2a1.7 1.7 0 0 1-1.6-1L29 33c0-.4 0-.8.2-1.2l.7-.8 1-.2.6.1.4.3.2.3v-2.1h.9v5.8H32v-.7l-.3.3a1.2 1.2 0 0 1-1 .5Zm.2-.7.6-.2.4-.6.1-.8-.1-.8c0-.2-.2-.4-.4-.5a1 1 0 0 0-.6-.2 1 1 0 0 0-.6.2l-.4.5-.2.8c0 .3 0 .6.2.8 0 .2.2.4.4.6l.6.2Zm5.4.6v-5.8h.8v2.1l.3-.3a1.2 1.2 0 0 1 1-.4 1.7 1.7 0 0 1 1.6 1l.3 1.2c0 .5-.1.9-.3 1.2-.1.4-.4.6-.6.8-.3.2-.6.3-1 .3l-.6-.1-.4-.4-.2-.3h-.1v.7h-.8Zm.8-2.2.1.8.4.6.6.2.7-.2.4-.6v-1.6l-.4-.5a1 1 0 0 0-.7-.2 1 1 0 0 0-.6.2l-.4.5-.1.8Zm4.5 3.8a1.9 1.9 0 0 1-.6 0l.2-.8h.6c.2 0 .3-.2.4-.5l.1-.2-1.6-4.5h1l1 3.4L44 31h.9L43 36l-.3.6-.5.3-.6.1Z"
      id="a" />
  </defs>
  <g fill="none" fill-rule="evenodd">
    <path
      d="m52.7 25.4 6.5 9.8h-5.7c-.2 0-.4-.2-.6-.4l-6.8-10 3.5-3.5a11 11 0 0 0 3.4-6A8.7 8.7 0 1 0 38 20l4.7 5.2h-6.3l-.5-.2a14 14 0 0 1-4.6-15.1C33.1 4.4 38 .6 44 .5A13 13 0 0 1 56.6 8a13 13 0 0 1-1.8 14.7l-2 2.3v.3l-.1.1ZM4.8 8.8 1.2 6C4 1.5 9.2-.3 14 1.6a7.5 7.5 0 0 1 3 11.7c-1.5 1.8-3.4 3.2-5.1 4.7-1 1-2.2 1.7-3.2 2.8h10v4.5H1v-4.2c0-.2 6.8-5.6 9.8-8.1.7-.6 1.3-1.3 1.8-2 .9-1.5.8-3.4-.2-4.4-1-1-3.1-1.3-4.5-.3-1.1.7-2 1.6-3 2.5h-.1Zm18-.6h4.7v17.1h-4.7V8.2Zm0-7.8h4.7v4.2h-4.7V.4Z"
      fill="#FFF" />
    <g fill-rule="nonzero">
      <use fill="#000" xlink:href="#a" />
      <use fill="#A2A2A2" xlink:href="#a" />
    </g>
  </g>
</svg>
