<svg version="1.1" id="Layer_1" xmlns="http://www.w3.org/2000/svg" x="0" y="0"
	viewBox="0 0 223 368.3" style="enable-background:new 0 0 223 368.3" xml:space="preserve">
	<style>.st0{fill:#d0d0d0}</style>
	<path class="st0" d="M12.1 158.3h2.4l.7.7-1 1.2-1.9.2-2.5 1.3-3.7-.1 2.2-.9.3-1.1 2.5-.3 1-1zm8.3-1.7 1.3.5h.9l.5 1.2.3-.6.9.2 1.1 1.5v.5l-4.2 1.9-2.4-.1-1-.5-1.1.7h-2l-1.1-1.4 4.7-.5 2.1-3.4zm5.4-.1 1 .1.7.7v1l-1.3.1-.9-1.1.5-.8zm2.5.3 1.3-.1-.1 1-1.1.6-.1-1.5zm.3 2.2 3.4-.1.2 1.1-1.3.1-.3-.5-.8.6-.4-.6-.9-.2.1-.4zm166.3 7.6 2.1.1-1 1.9-1.1-.1-.4-.8.5-1.3m-1.1-2.9.6-1.3-.2-2.3 2.4-.5 4.5 4.4 1.3 3.4 1.9 1.6.3 5.1h-1.4l-1.3-2.3-3.1-2.4h-.6l1.1 2.8 1.7.2.2 2.1-.9.1-4.1-4.4-.1-.9 1.9-1v-1l-.5-.8-1.6-.6-1.7-1.3 1.4.1.5-.4-.6-.9-.6.5-1.1-.2zm-3.6-9.1 1.3.1 2.4 2.5-.2.8-.8-.1-.1 1.8.5.5v1.5l-.8.3-.4 1.2-.8-.4-.4-2.2 1.1-1.4-2.1-2.2.1-1.2.2-1.2zm1.5-1.5 1.9.2 2.5.1 3.4 3.2-.2.5-1.1.6-1.1-.2-.1-.7-1.2-1.6-.3.7 1 1.3-.2 1.2-.8-.1-1.3.2-.1-1.7-2.6-2.8.2-.9zm-12.7-8.9.9-.4h1.6l.7-.5 4.1 2.2.1 1.5-.5.5h-.8l-1.4-.7 1.1 1.3h1.8l.5 2h-.9l-2.2-1.5-1.1-.2.6 1.3.1.9.8-.6 1.7 1.2 1.3-.1-.2.8 1.9 4.3v3.4l.4 2.1-.8.3-1.2-2-.5-1.5-1.6-1.6-.2-2.7-.6-1.7h-.7l.3 1.1v.5l-1.4 1 .1-3.3-1.6-1.6-1.3-2.3-1.2-1.2.2-2.5zm7.2-2.3 1.1 1.8 2.4-.1 1 2.1-.6.6 2 3.2v1.3l-1.2.8v.7l-2 1.9-.5-1.4-.1-1.3.6-.7v-1.1l-1.5-1.9-.5-3.7-.9-1.5.2-.7zm-56.7-18.3-4 4.1v1.6l2.1-.8.8-1.9 2.2-2.4-1.1-.6zM98 140v.6l1.8 1.2.2-1.4.6.9 3.5.1.7-.6.2-1.8-.5-.7h-1.4v-.8l.4-.6v-.4l-1.5-.3-3.3 3.6-.7.2zm-8.1 6.2 1.5 5.8h2.1l2.4-2.5.3 1.2 6.3-4 .7-1-1-1.1v-.7l.5-1.3-.9-.1-2 1v-1.2l-2.7-.6-2.4.3-.2 3.4-.8-2-1.5-.1-1 .6-1.3 2.3zm-2.2 8.2.1-.7 2.1-1.3.6.3 1.3.2 1.3 1.2-2.2-.2-.4-.6-1 .6-1.8.5zm-5.2 3.3-1.1.8 1.5 1.4.8-.7-.1-1.3-1.1-.2zm-6.3-7.9 1.4.1.4.6-1.8.1v-.8zm-13.9 11.9v.5l.7.1-.1-.6h-.6zm-.4-3.2-1 1v.5l.7 1.1 1-1-.7-.1v-1.5zm-2-.8-.3 1-1.3.1-.4.2v1.3l-.5.9h.6l.7-.9.8-.1.9-1 .2-1.3-.7-.2zm-4.4-2-.2 1.8 1.4.8 1.2-.6v-1l1.7-.3-.1-.6-.9-.2-.7.6-.9-.5h-1.5zm-4.9-.1 1 .7-.3 1.2-1.4-1.1.7-.8zm-4.2 1.3 1.4.1-.7.8-.7-.9zm-3.5 3 1.8 1.1-1.7.1-.1-1.2zm-25.4-31.2 1.2.6-.8.6-.4-1.2zm-.7-6.3.4 1.2.8-1.2h-1.2zm24.3-19.3 1.5-.1.9.4 1.1-.5 1.3-.1 1.6.8.8 1.9-.1.9-1.2 2-2.4-.2-2.1-1.8-1-.4-1.1-2 .7-.9zM20 88.7l.1 1.9 2 2v.5l-.8-.2-1.7-.8-.3-1.1-.3-1.6 1-.7zm18.3-23.3v1.2l1.9 1.8h2.3l.6 1.1v1.6l2.1 1.9 1.8 1.2-.1.7-.7 1.1-1.4-1.2-2.1.1-.8-.8L41 72l-1.5-2.2-2.6-.1-1-.7 1-2.1 1.4-1.5zm16.8-4.5h1l.1 1.1h-1l-.1-1.1zm16.2 19.7.9.1v1.2l-1.7-.5.8-.8zm127.8 77.7-1.2.4-.1 1.1h1.2l.1-1.5zm-157.6-4.5-1.3-.4-4.1.6-2.8 1.4-.1 1.9 1.9.7 1.5-.9 1.7-.1 4.7 1.4.1-1.3-1.6-1.1v-2.2zm2.1 2.3-.4-1.4 1.2.2.1 1.4h1.8l.4-2.5.3 2.4 2.5-.1 3.2-3.3.8.1-.7 1.3 1.4.9 4.2-.2 2.6-1.2 1.4-.1.3 1.5.6-.5.4-1.4 5.9.2 1.9-1.6-1.3-1.1.6-1.2 2.6.2-.2-1.2 2.5.2.7-1.1 1.1.2 4.6-1.9.2-1.7 5.6-2.4 2-1.9 1.2-.6 1.3.8 2.3-.9 1.1-1.9.5-1.3 1.7-.9 1.5-.7.4-1.4-1.1-1.7-2.2-.2-.2-1.3.8-1.6 1.4-.2 1.3-1.5 1.9-.1 3.4-3.2.4-1.4 1.5-2.3 3.8-4.1 2.5-.9 1.9-.9 2.1.8 1.4 2.6h-1.5l-1.4-1.5-3 2-1.7.1-.2 3.1-3.1 4.9.6 2h2.3l-.6 1-1.4.1-2.4 1.8v.9l1.9 1 3.4-.6 1.4-1.7 1.4.1 3-1.7.5-2.3 1.6-.1 6.3.8 1-1.1 1-4.5-1.6 1.1.6-2.2-1.6-1.4.8-1.5.1 1.5h3.4l.7-1 1.6-.1-.3 1.7 1.9.1-1.9 1.3 4.1 1.1-3.5.4-1.3 1.2.9 1.4 4.6-1.7 2.3 1.7.7-.9.6 1.4 4 2.3h2.9l3.9-.5 4.3 1.1 2 1.9 4.5.4 1.8-1.5.8 2.4-1.8.7 1.2 1.2 7.4 3.8 1.4 2.5 5.4 4.1 3.3-2-.6-2.2-3.5-2 3.1 1.2.5-.7.9 1.3v2.7l2.1-.6 2.1 1.8-2.5-9.8 1.2 1.3 1.4 6 2.2 2.5 2.4-.4 1.8 3.5h.9l.6 5.6 3.4.5 1.6 2.2 1.8 1.1.4 2.8-1.8 2.6 2.9 1.6 1.2-2.4-.2 3.1-.8.9 1.4 1.7.7-2.4-.2-1.2.8.2.6 2.3-1 1.4.6 2.6.5.4.3-1.6.7.6-.3 2 1.2.2-.4.9 1.7-.1v-1h-1l.1-1.7-.8-.6 1.7-.3.5-.8v-1.6l.5 1.3-.6 1.8 1.2 3.9 1.8.1 2.2-4.2.1-1.9-1.3-4-.1-1.2.5-1.2-.7-.7-1.7.1-2.5-2H207l-2-1.4h-1.5l-.5-1.6-1.4-.3-.2-1.5-1-.5.1-1.7-5.1-7.4-1.8-1.5v-1.2l-4.3-3.5-.7-1.1-1.6-2-1.9-.6v-2.2l-1.2-1.3-1.7-.7-2.1 1.3-1.6 2.1-.4 2.4-1.5.1-2.5 2.7-.8-.3v-2.5l-2.4-2.2-2.3-2-.5-2-2.5-1.3.2-2.2-2.8-.1-.7 1.1h-1.2l-.7-.7-1.2.8-1.8-1.2V39.1l-6.9-4.1-1.8-.5-2.2 1.1-2.2.1-2.3-1.6-4.3-.6-5.8-3.6-5.7-.4-2 .5-.2-1.8-1.8-.7 1.1-1-.2-.9-3.2-1.1h-2.4l-.4.4-.9-.6.1-2.6-.8-.9-2.5 2.9-.8-.1v-.8l1.7-.8v-.8l-1.9-2.4-1.1-.1-4.5 3.1h-3.9l.4-.9-1.8-.1-5.2 3.4h-1.8l-.6-.8-2.7 1.5-3.6 3.7-2.8 2.7-1.5 1.2-2.6.1-2.2-.4-2.3-1.3-2.8 3.9-.1 2.4 2.6 2.4 2.1 4.5.2 5.3 2.9 2 3.4.4.7.8-1.5 2.3.7 2.7-1.7-2.6v-2.4l-1.5-.3.1 1.2.7 2.1 2.9 3.7h-1.4l-2.2 1.1-6.2-2.5-.1-2 1.4-1.3v-1.4l-2.1-.5-2.3.2-4.8.2 1.5 2.3-1.9-1.8-8.4 1.2-.8 1.5 4.9 4.7-.8 1.4-.3 2-.7.8-.1 1.9 4.4 3.6 4.1.2 4.6 1.9h2l.8-.6 3.8.1.1-.8 1.2 1.1.1 2-2.5-.1.1 3.3.5 3.2-2.9 2.7-1.9-.1-2-.8-1 .1-3.1 2.1-1.7.2-1.4-2.8h-3.1l-2.2 2-.5 1.8-3.3 1.8-5.3 4.3-.3 3.1.7 2.2 1 1.2 1-.4.9 1-.8.6-1.5.9 1.1 1.5-2.6 1.1.8 2.2L53 108l.8 4.1 4 1.5 2.6-.8 1.7-1.1.5 2.1.3 4.4-1.9 1.4v4.4l-.6.9h-1.7l1.7 1.2 2.1-.1.4-1 4.6-.6 2 2.6 1.3-.7 1.3 5.1 1 .5 1-.7.1-2.4.9-1 .7 1.1.2 1.6 1.6.4 4.7-1.2.2 1.2-2 1.1-1.6 1.7-2.8 7-4.3 2-1.4 1.5-.3 1.4-1-.6-9.3 3.3-1.8 4.1-1.3-.4.5-1.1-1.5-1.4-3.5-.2-5.3 3.2-2.2 1.3h-2.3l-.5 2.4 1.7-.1zM143.1 298.4l-.2 3.2 1.7 1.9.1 1.2-4.8 4.5-.1 1.2 1.9 3.2 1.7 4.2v2.6l-.5 1.2.1 3.4 4.1 2.1 1.1 1.1 1.2-1.1 2.1-3.6 4.5-2.9 3.3-.5 2.5-1 1.7-1.2 3.2-3.5-2.8-1.1-1.4-1.4.1-1.7-.5-.6h-2l.2-2.5-.7-1.2-2.6-2.3-4.5-1.9-2.8-.2-3.3-2.7-1.2-.6-2.1.2zm-15.3-17-1.1 1.5-.1 1.7 2.7 2.4 1.9.5.6 1 .4 3 3.6.2 5.3-2.6-.1-2.5-1.4-.5-3.5-2.6-1.8-.3-2.9 1.3-1.5-2.7-2.1-.4zm-1.5 11.5.9-1.4 2.5-.3.6 1.8-4-.1zm-7-8.7 1.7 4 3.1-.6.3-2-1.4-1.5-3.7.1zm-4.1-6.7-1.1 2.4h5l4.8 1.6 2.5-1.6.2-1.5-4.8.2-6.6-1.1zm-16-10.6-1.9 2.1-2.9.6.8 2.2 2.2 2.8.1 1 2.1-.3 2.3.1 1.7 1.2 3.5-.8v-.7l-1-.8-.5-2.1-.8-.3-.5 1-1.2-1.3.2-1.4-1.8-3.3-1.1-.7-1.2.7zm-31.8-12.4-4.2 2.9.2 2.3 2.4 1.2 1.9 1.3 2.7.4 2.6-2.2-.2-1.9.8-1.7v-1.4l-1-.9h-5.2zm-10.8 4.8-.3 1.2-1.9.9-.6 1.8 1 .8 1.1-1.5 1.9-.6.4-2.6h-1.6z" />
</svg>
