<svg width="32" height="32" xmlns="http://www.w3.org/2000/svg"><path d="M29.96 23.811v5.992H2V23.81c.468 0 .91-.073 1.326-.218.416-.146.723-.289.92-.43.198-.14.443-.335.734-.584.312-.281.58-.479.804-.593.223-.115.517-.172.881-.172s.653.057.866.172c.213.114.486.312.82.593.3.26.545.457.733.593.187.135.488.275.904.42.417.146.864.22 1.342.22.468 0 .91-.076 1.326-.227.417-.15.718-.291.905-.421.188-.13.437-.325.75-.585.218-.198.387-.338.506-.422a2.099 2.099 0 0 1 1.163-.343c.364 0 .658.057.881.172.224.114.492.312.804.593.291.25.536.444.733.585.198.14.505.283.92.429.417.145.859.218 1.327.218.468 0 .91-.073 1.326-.218.416-.146.723-.289.92-.43.198-.14.443-.335.734-.584.312-.281.58-.479.804-.593.223-.115.517-.172.881-.172.354 0 .642.057.866.172.224.114.492.312.804.593.29.25.535.444.733.585.198.14.504.283.92.429.416.145.859.218 1.327.218Zm0-4.993v2.996c-.364 0-.653-.057-.866-.172-.214-.114-.487-.312-.82-.592-.301-.26-.546-.458-.733-.593-.187-.136-.489-.276-.905-.422a3.986 3.986 0 0 0-1.326-.218c-.478 0-.926.073-1.342.218-.416.146-.717.286-.905.422-.187.135-.431.333-.733.593-.229.197-.4.338-.515.42a1.905 1.905 0 0 1-.484.235c-.208.073-.436.11-.686.11-.364 0-.658-.058-.882-.173-.223-.114-.491-.312-.803-.592-.302-.26-.546-.458-.733-.593-.188-.136-.49-.276-.905-.422a4.034 4.034 0 0 0-1.342-.218c-.468 0-.91.075-1.326.226-.416.151-.718.291-.905.421-.188.13-.437.326-.75.586a5.664 5.664 0 0 1-.506.42 2.099 2.099 0 0 1-1.163.344c-.364 0-.658-.057-.881-.172-.224-.114-.492-.312-.804-.592-.291-.25-.535-.445-.733-.586-.198-.14-.505-.283-.92-.429a3.986 3.986 0 0 0-1.327-.218c-.478 0-.926.073-1.342.218-.416.146-.717.286-.905.422-.187.135-.431.333-.733.593-.312.28-.58.478-.803.592-.224.115-.518.172-.882.172v-2.996c0-.832.291-1.539.874-2.122a2.889 2.889 0 0 1 2.122-.873h21.968c.832 0 1.54.291 2.122.873.582.583.874 1.29.874 2.122ZM7.012 8.282c.184-.696.733-1.611.99-1.94.036-.074.145-.074.182 0 .22.329.806 1.244.989 1.94a2.36 2.36 0 0 0 1.062-1.977c0-.916-1.135-2.38-1.721-3.113-.22-.256-.586-.256-.77 0-.622.733-1.72 2.197-1.72 3.113-.073.842.366 1.574.988 1.977Zm.074.879a.734.734 0 0 0-.733.732v4.211H9.87v-4.21a.734.734 0 0 0-.733-.733h-2.05Zm8.019-.879c.183-.696.732-1.611.988-1.94.037-.074.147-.074.184 0 .22.329.805 1.244.988 1.94a2.36 2.36 0 0 0 1.062-1.977c0-.916-1.135-2.38-1.72-3.113-.22-.256-.587-.256-.77 0-.622.733-1.721 2.197-1.721 3.113-.073.842.366 1.574.989 1.977Zm.073.879a.734.734 0 0 0-.732.732v4.211h3.515v-4.21a.734.734 0 0 0-.732-.733h-2.051Zm8.02-.879c.182-.696.731-1.611.988-1.94.036-.074.146-.074.183 0 .22.329.806 1.244.989 1.94a2.36 2.36 0 0 0 1.061-1.977c0-.916-1.135-2.38-1.72-3.113-.22-.256-.587-.256-.77 0-.622.733-1.72 2.197-1.72 3.113-.074.842.33 1.574.988 1.977Zm.036.879a.734.734 0 0 0-.733.732v4.211h3.516v-4.21a.734.734 0 0 0-.732-.733h-2.051Z" fill="#000" fill-rule="nonzero"/></svg>