<svg width="32" height="32" xmlns="http://www.w3.org/2000/svg"><path d="M18.9 27a5 5 0 0 0 2.8 1.3 3 3 0 1 1-5.7 0c1-.1 2-.6 2.9-1.3Zm4-6.5a3 3 0 1 1-3.6 2 4.8 4.8 0 0 0 3.6-2Zm-7.3.8c.5.5 1 .8 1.7 1a5 5 0 0 0 .4 3.1 3 3 0 0 1-5-2.8c1-.1 2-.6 2.9-1.3Zm3.3-6.6a3 3 0 1 1 0 5.9 3 3 0 0 1 0-6Zm-4.5.9a5 5 0 0 0-.1 3.9v.2a3 3 0 0 1-5-2 3 3 0 0 1 5-2.1Zm11.8-.8a3 3 0 0 1 0 5.7 4.8 4.8 0 0 0-2.5-1.9 5 5 0 0 0 0-2c1-.3 1.9-1 2.5-1.8Zm-2.6-5.4a3 3 0 0 1-.7 5.4 5 5 0 0 0-3.6-2 3 3 0 0 1 4.3-3.3Zm-6 .4c-.4 1-.5 2.1-.3 3.2a5 5 0 0 0-1.7 1 5 5 0 0 0-2.9-1.3 3 3 0 0 1 5-2.9ZM20.9.3a1 1 0 0 1 1.4 1.4 8 8 0 0 0-2.4 5.6v.3a5 5 0 0 0-1 .7 5 5 0 0 0-8 4.8 10 10 0 0 1-7.2-2 10 10 0 0 1 14.3-4.7A9.9 9.9 0 0 1 20.8.2Z" fill="#000" fill-rule="nonzero"/></svg>