<svg width="32" height="32" xmlns="http://www.w3.org/2000/svg"><path d="M24.9 19.4a3.8 3.8 0 1 0 0 7.5 3.8 3.8 0 0 0 0-7.5Zm0 4.8a1 1 0 1 1 0-2 1 1 0 0 1 0 2Zm3.4-12.3h-2.7v-1.7c0-.6.2-1.2.5-1.7.2-.2.2-.6 0-.8l-1-1a.7.7 0 0 0-1 0c-.8 1-1.3 2.2-1.3 3.5v1.7h-4.3L16 6.3a2 2 0 0 0-2-1.2H8.6a2 2 0 0 0-2 2v6.3a1 1 0 0 0-1.3 0L4 14.8a1 1 0 0 0 0 1.3l.2.2-.5 1.2h-.3a1 1 0 0 0-1 1v1.9c0 .5.5.9 1 .9h.3l.5 1.2-.2.2a1 1 0 0 0 0 1.4l1.3 1.3c.4.4 1 .4 1.3 0l.3-.2 1.2.5v.3c0 .5.4 1 1 1h1.8c.5 0 1-.5 1-1v-.3l1.2-.5.2.2c.3.4 1 .4 1.3 0l1.3-1.3c.4-.4.4-1 0-1.4l-.2-.2.5-1.2h.3c.5 0 1-.4 1-1v-.2h3.4a5 5 0 0 1 6.3-1.5l2.2-2.2c.2-.3.4-.6.4-1v-2.1c0-.8-.7-1.4-1.4-1.4Zm-18.4 11a3.4 3.4 0 1 1 0-6.9 3.4 3.4 0 0 1 0 6.8Zm.9-11H9.2v-4h4.5l1.8 4h-4.7Z" fill="#000" fill-rule="nonzero"/></svg>