<svg width="32" height="32" xmlns="http://www.w3.org/2000/svg"><path d="M6 24.3c.5 0 1 .4 1 1v5.1c0 .6-.5 1-1 1H1a1 1 0 0 1-1-1v-5.1c0-.6.4-1 1-1h5Zm12.5 0c.5 0 1 .4 1 1v5.1c0 .6-.5 1-1 1h-5a1 1 0 0 1-1-1v-5.1c0-.6.5-1 1-1h5Zm12.5 0c.6 0 1 .4 1 1v5.1c0 .6-.4 1-1 1h-5a1 1 0 0 1-1-1v-5.1c0-.6.5-1 1-1h5Zm-14.8-8.8v3.2h12.6V23H28v-3.5H16.2V23h-.9v-3.5H3.8V23h-1v-4.4h12.5v-3.2h1Zm-.4-15c3.6 0 6.6 3.1 6.6 7 0 3.7-3 6.8-6.6 6.8-3.7 0-6.6-3.1-6.6-6.9 0-3.8 3-6.8 6.6-6.8Zm.4 2.2h-.7v.8c-.4 0-.7.2-1 .3-.4.2-.8.4-1 .8a2 2 0 0 0-.4 1.2c0 .5.2 1 .6 1.3.3.2.7.5 1.2.6h.2l.3.2V10H15l-.5-.5-.2-.5V9H13c0 .5.1.9.3 1.2.3.4.6.7 1 .8.3.2.7.3 1.1.3v.9h.8v-.9c.4 0 .8-.1 1.1-.3.4-.2.7-.4 1-.8.2-.3.3-.7.3-1.1 0-.4 0-.6-.2-.9a2 2 0 0 0-.5-.6l-.7-.4-.5-.2-.3-.1h-.2V4.6l.6.2.4.7v.1h1.3a2 2 0 0 0-.4-1.1c-.2-.4-.5-.6-.9-.8a3 3 0 0 0-1-.3v-.8Zm.4 5.5.5.4.2.5-.2.5-.5.4-.4.1v-2l.4.1Zm-1.1-3.5v2l-.2-.1a2 2 0 0 1-.4-.2 1 1 0 0 1-.3-.3l-.1-.4c0-.2 0-.4.2-.5 0-.2.2-.3.4-.4h.4Z" fill="#000" fill-rule="nonzero"/></svg>