<svg width="32" height="32" xmlns="http://www.w3.org/2000/svg"><path d="M5.2 1.4c.5-.2 1.2 0 1.7 0h18.8c.4 0 1-.2 1.4.1.2.3.3.6.3 1V23.2l-.1 1.3c-.2.3-.6.4-.9.6l-1.8 1-5.3 2.9-1.8 1c-.4.2-.7.5-1.1.6-.7.1-1.2-.3-1.7-.6l-3.5-1.8-4.6-2.6-1.2-.6-.6-.5c-.2-.3-.2-.8-.2-1.2V3.6c0-.7-.2-2 .6-2.2Zm20.5 1.5H6.3v20.7c.2.3.8.5 1.1.7l2.9 1.6 3.8 2 1.2.7c.2.1.4.3.7.3l.6-.2 1.5-.9 5.5-3 1.5-.8c.2-.1.5-.2.6-.4V3Zm-9.6 1.7-.7 2c-.1.4-.3.7-.3 1.1h-3.3l.6.5 1.3 1c.2 0 .5.3.6.5.1.3-.1.7-.2 1-.2.6-.6 1.4-.7 2.1l2-1.3c.1-.2.5-.5.7-.5.3 0 .6.4.8.5.6.4 1.2 1 1.9 1.3-.1-.8-.5-1.5-.7-2.2-.1-.3-.3-.7-.2-.9 0-.2.4-.4.6-.5l1.2-1c.3-.1.5-.2.7-.5H17c-.1-.7-.4-1.3-.6-2L16 4.6m-6.7 8.1V16.5l.5.3 1 .5 3.6 2 1 .6.6.2c.3 0 .8-.4 1.1-.6l2.8-1.6 1.9-1 .7-.4v-3.8c-.6.2-1.2.6-1.8 1L18 15.1l-1.3.6-.7.3-.6-.3-1.2-.6-2.9-1.5c-.6-.3-1.2-.8-1.9-1m0 5.6V22l1 .5 1.8 1 2.5 1.4c.4.2.9.6 1.3.7l.5-.2 1-.6 3.7-2 1-.5.4-.3v-3.7c-.7.2-1.4.6-2 1l-2.8 1.4-1.2.7-.6.2-.5-.2-1.2-.6L11 19c-.5-.3-1-.6-1.5-.7Z" fill="#000" fill-rule="nonzero"/></svg>