<svg width="32" height="32" xmlns="http://www.w3.org/2000/svg"><path d="M29 26.8c.2 0 .5.2.5.5v1.5c0 .2-.2.5-.4.5H3a.5.5 0 0 1-.5-.4v-1.5c0-.3.2-.5.4-.6H29ZM7 15.6c.3 0 .5.2.5.4v9.4c0 .3-.2.5-.4.5H5a.5.5 0 0 1-.6-.4V16c0-.2.2-.5.4-.5H7Zm6.7 0c.3 0 .5.2.5.4v9.4c0 .3-.2.5-.4.5h-2.1a.5.5 0 0 1-.6-.4V16c0-.2.2-.5.4-.5h2.1Zm13.4 0c.2 0 .5.2.5.4v9.4c0 .3-.2.5-.4.5H25a.5.5 0 0 1-.5-.4V16c0-.2.2-.5.4-.5H27Zm-6.7 0c.3 0 .5.2.5.5v9.3c0 .3-.2.5-.5.5h-2a.5.5 0 0 1-.6-.5V16c0-.3.2-.5.5-.5ZM17.9 3.3l.2.1 11 9.1c1.1 1 1 1.7-.4 1.8H3.5c-1.4 0-1.8-.8-.7-1.7L14 3.3c1.1-.9 2.9-1 4-.1ZM16 7.8a2.1 2.1 0 1 0 0 4.2 2.1 2.1 0 0 0 0-4.2Z" fill="#000" fill-rule="nonzero"/></svg>