<svg width="32" height="32" xmlns="http://www.w3.org/2000/svg"><path d="M11 14.7c.8 0 1.3.5 1.3 1.2v12.5c0 .7-.5 1.3-1.2 1.3H3.3c-.7 0-1.3-.6-1.3-1.3V16c0-.7.6-1.2 1.3-1.2Zm11.5-8v.4c4.4 2.8 7.5 9.7 7.5 15 0 6.4-4.8 6.6-11 6.7h-1a42 42 0 0 1-4.8-.2c.2-.2.4-.4.4-.7V14.8c0-.6-.4-1-.9-1H9c1.3-2.7 3-5.1 5.2-6.5l.2-.2v-.4h8ZM4.3 26.6a.8.8 0 1 0 0 1.5.8.8 0 0 0 0-1.5Zm2.9 0a.8.8 0 1 0 0 1.5.8.8 0 0 0 0-1.5Zm2.8 0a.8.8 0 1 0 0 1.5.8.8 0 0 0 0-1.5Zm-5.7-2.9a.8.8 0 1 0 0 1.6.8.8 0 0 0 0-1.6Zm2.9 0a.8.8 0 1 0 0 1.6.8.8 0 0 0 0-1.6Zm2.8 0a.8.8 0 1 0 0 1.6.8.8 0 0 0 0-1.6Zm9.3-13.6h-1.6v1.7c-1.8.3-2.9 1.5-2.9 3.1 0 1.7 1.3 2.6 3 3.3 1.3.4 1.9.8 1.9 1.5s-.7 1.1-1.7 1.1-1.9-.3-2.6-.7h-.2l-.5 2c.6.3 1.6.6 2.6.7h.3v1.7h1.7v-1.8c1.9-.3 3-1.7 3-3.2 0-1.7-.8-2.6-2.8-3.4-1.5-.5-2-1-2-1.5s.3-1 1.4-1a5 5 0 0 1 2.3.6l.6-2c-.5-.2-1.2-.5-2.2-.5h-.3V10Zm-15 10.8a.8.8 0 1 0 0 1.6.8.8 0 0 0 0-1.6Zm2.9 0a.8.8 0 1 0 0 1.6.8.8 0 0 0 0-1.6Zm2.8 0a.8.8 0 1 0 0 1.6.8.8 0 0 0 0-1.6Zm0-4.7H4.4c-.4 0-.7.3-.7.7v2c0 .5.3.8.7.8H10c.4 0 .7-.3.7-.7v-2c0-.5-.3-.8-.7-.8Zm4.6-13.9h7.6c1.4 0 2.5-.2 2.6 1v.2l-2.3 3.2h-8l-2.3-3.2c0-1.4 1-1.2 2.4-1.2Z" fill="#000" fill-rule="nonzero"/></svg>