<svg width="32" height="32" xmlns="http://www.w3.org/2000/svg"><path d="M13.065 3C5.86 3 0 8.861 0 16.065S5.86 29.13 13.065 29.13c3.321 0 6.407-1.191 8.665-3.295.03-.029.48-.521.48-.567 0-2.166 1.159-3.701 2.282-4.235V9.737c0-.056-.054-.097-.081-.145C22.157 5.657 17.915 3 13.065 3Zm-.54 17.081c.074.221-.57.866-.626.902-.055.037-1.252-.626-1.455-.718-.202-.092-.663-1.584-.663-1.584l-.442-.423s-1.013-.756-1.105-.792c-.092-.037-.276-1.455-.335-1.584-.06-.13-.457-.535-.567-.608-.111-.074-.166-1.326-.166-1.326s.055-.719.423-1.253c.369-.534.35-1.455.24-1.639-.11-.184-.833.083-.833.083s-.558-.277-.614-.24l-.373-.694s-2.225-.158-2.189-.214c0 0 3.545-5.641 10.902-4.797h.128c.4.03.767.03.976.4.04.073.789.729.77.729H14.55l-.423.368 1.862 1.112c-.255.07-.773.231-1.122.341a2.162 2.162 0 0 0-.649.334l-.736.552-.684.976.997.737s1.16.884 1.216.92c.055.038.295-.736.295-.736l-.074-1.786.552.184.81-.074s.811.626.903.7c.092.074.46.866.46.866-.01.123-.097.8.06.825.031.005.061-.009.089-.022.28-.136.545-.294.812-.452.126-.075.397-.315.55-.315.055 0-.24.664-.276.719-.03.043-.719 1.192-1.012 1.68a2.125 2.125 0 0 1-.312.402l-.96.975.332.571-.802.949c-.067.08-.14.154-.218.224l-.86.761s-.939.221-.994.221c-.055 0-.755.166-.755.166s-1.326-.129-1.51.57c-.184.7.35 1.769.424 1.99Zm9.784-3.416c.168-.037-.446.782-.484.912-.037.13-.67.781-.67.781l-1.042.13a2.186 2.186 0 0 1 1.959-1.795c.118-.01.204-.02.237-.028Zm-5.928 3.271-.488-.722c-.039-.059.195-.313.195-.313s1.856-.273 2.032-.254c.176.02.469.567.469.567s-.645.84-.86.84c-.214 0-1.348-.118-1.348-.118Zm.494 2.535s-.223.093-.447.205c-.223.112-.502.205-.54.13-.037-.074-.204-.186-.502-.409a5.385 5.385 0 0 0-.893-.521c-.205-.093-.67-.447-.745-.614-.047-.108.187-.428.224-.596.037-.167-.019-.667.093-.612.111.054.353-.092.595 0 .242.091.614.277.689.426.074.149.26.484.465.614.205.13.577.28.558.521-.018.242.28.559.28.559l.223.297ZM28.58 3.846c.525.303.864.841.917 1.438l.008.164v16.5a4.11 4.11 0 1 1-3.902.111l.204-.11V5.448a1.849 1.849 0 0 1 2.773-1.602Zm-.924 19.867a2.002 2.002 0 0 0-2 2 2 2 0 1 0 2-2Zm-4.593-2.683c-2.853 5.151-5.824 4.923-5.824 4.923-1.014-.449-1.268-.957-1.19-1.054.078-.098.723-.626.919-.9.195-.273 1.21-1.425 1.21-1.425l-.312-.625.873-.516c.274-.162.58-.262.898-.293l.85-.083c.05-.005.1-.008.151-.01l1.37-.036s1.244-.322 1.055.02Z" fill="#000" fill-rule="nonzero"/></svg>