<svg width="32" height="32" fill="none" xmlns="http://www.w3.org/2000/svg"><path d="M30.458 14.461c-.51 0-.96.245-1.24.626-.15-.058-.316-.115-.489-.18-.36-.1-.737-.237-1.129-.323-.395-.083-.787-.195-1.171-.234-.108-.01-.205-.025-.313-.04a10.172 10.172 0 0 0-.507-1.887c.069-.086.133-.18.209-.27.165-.197.29-.438.442-.66.208-.346.388-.698.528-1.007.31.043.64-.047.874-.288a1.028 1.028 0 0 0 0-1.452 1.026 1.026 0 0 0-1.47 1.43c-.191.245-.414.51-.658.766-.137.126-.266.259-.4.378a10.196 10.196 0 0 0-1.875-2.581c-.004-.004-.011-.008-.015-.015.022-.025.04-.043.061-.072.202-.266.471-.506.723-.769.255-.263.546-.485.805-.715.119-.094.234-.18.349-.266.6.56 1.549.55 2.135-.036a1.54 1.54 0 1 0-2.178-2.179c-.36.36-.5.852-.425 1.316-.161.072-.32.144-.485.223-.327.18-.69.352-1.028.571-.334.22-.694.417-.992.658-.079.072-.169.13-.252.194a10.173 10.173 0 0 0-1.689-.977c-.014-.112-.036-.227-.047-.342-.025-.251-.104-.514-.158-.776a8.185 8.185 0 0 0-.338-1.097 1 1 0 0 0 .42-.808 1.024 1.024 0 1 0-2.049 0c0 .557.44.999.982 1.017.044.313.076.654.083 1.013-.003.19 0 .378-.01.554a10.403 10.403 0 0 0-3.174-.503c0-.03 0-.058-.004-.09-.05-.33-.025-.69-.036-1.057-.007-.366.043-.73.061-1.075.022-.15.04-.295.054-.431a1.544 1.544 0 0 0 1.488-1.535C17.54.694 16.85 0 15.998 0c-.852 0-1.538.69-1.542 1.542 0 .507.248.953.63 1.233-.058.154-.116.32-.18.492-.1.36-.241.737-.324 1.13-.083.395-.197.787-.234 1.171-.01.108-.025.208-.04.313-.642.108-1.271.277-1.886.506-.09-.068-.183-.136-.277-.204-.194-.166-.431-.299-.654-.446a9.853 9.853 0 0 0-1.006-.529 1.03 1.03 0 0 0-.288-.877 1.03 1.03 0 0 0-1.452.004 1.022 1.022 0 0 0 1.423 1.47c.245.187.514.414.762.658.13.133.263.262.381.395a10.73 10.73 0 0 0-2.573 1.88l-.011.019-.072-.062c-.273-.201-.507-.474-.773-.722-.262-.255-.485-.546-.715-.805-.093-.119-.183-.23-.27-.345a1.541 1.541 0 0 0-.032-2.14c-.6-.6-1.578-.6-2.178 0-.6.601-.6 1.579 0 2.18.36.359.852.499 1.319.43.068.151.144.31.22.475.179.324.352.69.567 1.028.223.335.417.694.662.992.075.083.132.166.194.252a10.64 10.64 0 0 0-.978 1.693c-.108.014-.223.036-.341.047-.252.025-.514.097-.777.15-.391.098-.776.22-1.092.342a1.033 1.033 0 0 0-.81-.424 1.032 1.032 0 0 0-1.027 1.028 1.022 1.022 0 0 0 2.042.04c.309-.04.65-.076 1.006-.08.194.004.377 0 .557.012a10.391 10.391 0 0 0-.496 3.17c-.029.007-.061.007-.09.01-.334.048-.694.022-1.06.033-.363.004-.73-.043-1.075-.061a36.92 36.92 0 0 1-.431-.054 1.544 1.544 0 0 0-1.535-1.488A1.546 1.546 0 0 0 0 16c0 .848.69 1.538 1.542 1.542.51-.004.956-.248 1.233-.63.154.058.323.116.492.177.36.104.74.24 1.129.323.395.083.787.198 1.172.234.107.015.208.03.312.043.108.64.277 1.273.504 1.891-.069.087-.133.18-.205.27-.162.197-.295.435-.442.661a9.755 9.755 0 0 0-.529 1 1.044 1.044 0 0 0-.877.287 1.035 1.035 0 0 0 .004 1.456 1.027 1.027 0 0 0 1.473-1.43c.19-.242.414-.515.658-.767.137-.125.266-.258.403-.373.474.923 1.1 1.797 1.876 2.577.003.004.01.007.014.014-.022.03-.04.047-.061.072-.201.267-.478.507-.726.77-.255.259-.546.485-.801.719-.123.09-.237.18-.349.266a1.538 1.538 0 1 0 .036 2.214 1.53 1.53 0 0 0 .431-1.32c.159-.071.313-.147.478-.218.328-.184.69-.356 1.028-.572.338-.227.698-.417.992-.662.083-.071.165-.132.252-.194a10.18 10.18 0 0 0 1.69.975c.014.107.035.223.046.341.025.252.1.518.154.78.097.396.22.777.342 1.096-.248.191-.424.471-.42.813 0 .56.46 1.02 1.024 1.024.564 0 1.028-.463 1.028-1.028 0-.553-.439-.995-.985-1.014a8.868 8.868 0 0 1-.083-1.013c.007-.194 0-.378.011-.557 1.031.334 2.103.503 3.174.503 0 .029 0 .061.007.086.047.338.018.694.032 1.06.008.367-.043.73-.06 1.079l-.055.428A1.538 1.538 0 0 0 15.998 32a1.544 1.544 0 0 0 1.542-1.542c0-.507-.248-.956-.629-1.233.057-.159.115-.324.18-.493.1-.363.237-.74.323-1.132.083-.392.198-.788.234-1.172.01-.104.025-.201.04-.309a10.281 10.281 0 0 0 1.89-.507c.083.068.18.133.27.209.197.165.435.294.657.438.346.212.694.392 1.003.532-.043.313.05.64.288.877a1.026 1.026 0 0 0 1.448-1.452 1.03 1.03 0 0 0-1.423-.021c-.24-.191-.51-.414-.766-.659-.125-.136-.258-.265-.373-.402.927-.47 1.8-1.096 2.577-1.873.007-.003.01-.007.018-.014.025.021.046.04.068.057.27.205.51.479.773.727.258.255.485.546.719.808.09.116.18.227.265.342-.567.6-.557 1.546.03 2.131a1.54 1.54 0 1 0 2.178-2.178c-.36-.36-.852-.5-1.316-.428-.068-.15-.147-.309-.22-.474-.183-.327-.355-.69-.571-1.029-.223-.334-.42-.693-.661-.991a3.099 3.099 0 0 1-.194-.252c.384-.54.711-1.107.977-1.69.108-.014.227-.036.342-.046.252-.025.517-.1.78-.159a8.774 8.774 0 0 0 1.096-.338c.19.248.474.42.809.42a1.026 1.026 0 0 0 1.024-1.024 1.023 1.023 0 0 0-1.02-1.024c-.55 0-1 .438-1.021.985-.31.04-.654.075-1.007.079-.201-.003-.384 0-.564-.01.334-1.032.503-2.104.503-3.175.032 0 .061 0 .09-.003.334-.05.69-.022 1.06-.033.363-.01.726.04 1.075.058l.428.054a1.542 1.542 0 0 0 1.542 1.484 1.539 1.539 0 1 0-.003-3.077h-.001Zm-17.76 2.653a2.156 2.156 0 0 1-3.048.008 2.158 2.158 0 0 1 3.052-3.052 2.159 2.159 0 0 1-.004 3.044Zm6.035 3.796a1.256 1.256 0 1 1-1.779-1.773 1.256 1.256 0 0 1 1.78 1.773Zm.388-7.656a1.815 1.815 0 0 1-2.563 0 1.818 1.818 0 0 1 0-2.563 1.818 1.818 0 0 1 2.563 0 1.818 1.818 0 0 1 0 2.563Z" fill="#000"/></svg>