<svg width="32" height="32" xmlns="http://www.w3.org/2000/svg"><path d="M29 3.5h-1.2c-.4 0-.7.3-.7.7V5h-1.7a2.6 2.6 0 0 0-2.3-1.4h-2.6c-3.7 0-6.6 3-6.6 6.6l4-1.3.5.6c.5.5 1.2.7 1.9.7H23c1 0 1.9-.5 2.3-1.3h1.7v.7c0 .4.3.6.7.6H29c.3 0 .6-.2.6-.6V4.2c0-.4-.3-.7-.6-.7Zm-9.4 8h4.1l.5 14.3a2.6 2.6 0 0 1-5 .2v-.2l.4-14.4ZM5.8 24c.1-.2.3-.2.4-.2h4a.4.4 0 0 1 .4.6l-2 4.3-.4.2c-.1 0-.3 0-.4-.2l-2-4.3V24Zm0-13h4.5c.2 0 .3.2.4.4V21.2a1.3 1.3 0 0 1-1.2 1.3H6.8a1.3 1.3 0 0 1-1.3-1.2V11.5c0-.2.2-.4.4-.4Zm-.7-6 .6.1a2.6 2.6 0 0 1 5 .6v3.6c0 .3-.2.4-.4.5H5.8a.4.4 0 0 1-.4-.4V6.6h-.4c-.5 0-.8.4-.9.8v6.6c0 .4-.4.8-.8.8a.8.8 0 0 1-.9-.7V7.6c0-1.4 1.2-2.5 2.6-2.5Z" fill="#000" fill-rule="nonzero"/></svg>