<svg width="32" height="32" xmlns="http://www.w3.org/2000/svg"><path d="M27.2 6.4c1.4 0 1.5.8 1.5 1.2v.2c0 .8-.7 1-1.4 1h-.5c.4.3.8 1 .9 1.3l4.2 8s.2.5 0 .9a6.3 6.3 0 0 1-10.6-.1c-.2-.4 0-.7 0-1a1428.9 1428.9 0 0 0 5-9h-7.1v20.9c0 1.8-2.7 2-3 .1V18.5h-.5v11.3c0 2-2.8 2-3 .1V8.8h-7l.8 1.3 4.2 8s.2.5 0 .9a6.3 6.3 0 0 1-10.6-.1c-.2-.4 0-.7 0-1a1428.9 1428.9 0 0 0 5-9h-.4c-1 0-1.8-.4-1.8-1.3s.7-1.2 1.6-1.2h22.6Zm-22 4.3-3.5 6.6c0 .2-.1.4 0 .4H9c.3 0 .2-.3.1-.5l-3.5-6.5c0-.3-.3 0-.3 0Zm21.2 0-3.5 6.6c0 .2-.1.4 0 .4H30.2c.3 0 .2-.3 0-.5l-3.4-6.5c-.1-.3-.3 0-.3 0Zm2.3-3.1c0 .2 0 .3 0 0ZM16 .7a2.5 2.5 0 1 1 0 5.1 2.5 2.5 0 0 1 0-5Z" fill="#000" fill-rule="nonzero"/></svg>