<svg width="32" height="32" xmlns="http://www.w3.org/2000/svg"><path d="M14 30.5h4c-.3.9-1 1.5-2 1.5-.9 0-1.6-.6-2-1.4v-.1h4Zm5.4-1.8c.3 0 .6.3.6.7 0 .3-.2.5-.5.6h-7a.6.6 0 0 1-.5-.5v-.2c0-.3.2-.5.5-.5h7Zm0-1.7c.3 0 .6.3.6.6 0 .4-.2.6-.5.7h-7a.6.6 0 0 1-.5-.5v-.2c0-.3.2-.5.5-.6h7ZM16 7.3c4.6 0 8.4 4 8.4 8.8a9 9 0 0 1-3.2 7c-.7.6-1.2 1.8-1.2 3h-8a4.1 4.1 0 0 0-1.6-3.4A9 9 0 0 1 7.6 16c0-4.9 3.8-8.8 8.4-8.8Zm0 3.3-.5.1-.1.5v.7c-1.4.2-2.2 1.2-2.2 2.4 0 1.3 1 2 2.3 2.5 1 .3 1.4.7 1.4 1.2s-.5.8-1.2.8c-.9 0-1.7-.3-2.2-.6l-.4 1.6a5 5 0 0 0 2.2.6v.7c0 .1 0 .3.2.4l.4.2h.1c.2 0 .3 0 .4-.2l.2-.4v-.8c1.5-.3 2.3-1.3 2.3-2.5s-.6-2-2.2-2.6c-1-.4-1.5-.7-1.5-1.1 0-.4.2-.8 1-.8 1 0 1.6.3 2 .5l.3-1.6c-.4-.2-1-.4-1.9-.4v-.6l-.1-.5a.6.6 0 0 0-.4-.1Zm14.7 4.9c.3 0 .5.2.6.5v.2c0 .3-.3.5-.5.5h-4c-.3 0-.5-.2-.5-.6 0-.3.2-.5.5-.6h3.9Zm-25.5 0c.3 0 .5.3.5.6s-.2.6-.5.6H1.3a.6.6 0 0 1-.6-.5V16c0-.2.3-.4.5-.5h4Zm24-7.5v.2c.2.2 0 .5-.1.7H29l-3.3 2c-.3.2-.7.1-.8-.2-.2-.3-.1-.6.1-.8h.1l3.3-2c.3-.2.6-.2.8 0ZM3.5 7.8l3.4 2c.3.2.4.6.2 1-.1.2-.4.3-.7.2L3 9a.6.6 0 0 1-.3-.8V8l.1-.1c.2-.2.5-.3.7-.2Zm20-5.7h.1l.1.1c.2.2.3.5.2.7V3l-2 3.5c-.1.3-.5.4-.8.2A.6.6 0 0 1 21 6v-.1l2-3.5c0-.3.4-.4.6-.3Zm-14.4.2 2 3.6c.2.3 0 .7-.2.8-.3.2-.6.1-.8-.1L8 3c-.1-.3 0-.6.2-.8h.2c.2-.2.5-.1.6.1ZM16 0h.1c.2 0 .4.3.5.5v4.1c0 .4-.3.7-.6.7a.6.6 0 0 1-.6-.5V.7c0-.4.3-.7.6-.7Z" fill="#000" fill-rule="nonzero"/></svg>