<svg width="32" height="32" xmlns="http://www.w3.org/2000/svg"><path d="M0 22.4h3.2c.9 0 1.6-.7 1.6-1.6V9.6H0v12.8Zm2.4-3.2c.4 0 .8.4.8.8 0 .5-.4.8-.8.8a.8.8 0 0 1-.8-.8c0-.4.4-.8.8-.8Zm15-12.8c-.4 0-.7.2-1 .4l-5 4.5a2 2 0 0 0 0 2.9c.6.6 1.9.8 2.7 0l4-3.6c.4-.3.9-.3 1.2 0 .3.4.3.9 0 1.2L17.8 13l7.3 5.9.4.4V9.6a11 11 0 0 0-7.7-3.2h-.5Zm-.7 7.7-1.5 1.4a3.6 3.6 0 1 1-4.9-5.3l4.2-3.8H14a11 11 0 0 0-7.7 3.2v11.2h1l4.4 4.1c1.4 1.1 3.4 1 4.5-.5l1 .8c.7.6 2 .5 2.6-.3l1.5-1.9.3.2c.7.6 1.7.5 2.3-.2l.4-.6c.6-.7.5-1.7-.2-2.2L16.7 14Zm10.5-4.5v11.2c0 .9.7 1.6 1.6 1.6H32V9.6h-4.8Zm2.4 11.2a.8.8 0 0 1-.8-.8.8.8 0 1 1 .8.8Z" fill="#000" fill-rule="nonzero"/></svg>