<svg width="32" height="32" xmlns="http://www.w3.org/2000/svg"><path d="M16.7 3.5h4.5c.2 0 .7 0 1.1.4.5.5.6.8.6 1.2v3.5h5.4c.3 0 .6.3.6.7v18.5c0 .4-.3.7-.6.7H3.7a.7.7 0 0 1-.6-.7V9.3c0-.4.3-.7.6-.7h5.4V5.1c0-.1 0-.5.3-1 .3-.4.7-.6 1.4-.6h1Zm1.2 9.2h-3.8c-.4 0-.7.3-.7.7V16h-2.7c-.4 0-.6.3-.6.6v4c0 .3.2.6.6.6h2.7V24c0 .3.3.6.7.6h3.8c.4 0 .7-.3.7-.6v-2.7h2.7c.4 0 .6-.3.6-.7v-3.9c0-.3-.2-.6-.6-.6h-2.7v-2.7c0-.4-.3-.7-.7-.7Zm-6.4-7.2c-.2 0-.4 0-.4.3v2.8h9.8V6s0-.4-.4-.4h-9Z" fill="#000" fill-rule="nonzero"/></svg>