<svg width="32" height="32" xmlns="http://www.w3.org/2000/svg"><path d="M4 22.8h24c.7 0 1.2.5 1.2 1.1 0 .6-.4 1-1 1.2h-.7v3.4c0 .5-.4 1-1 1h-21c-.5 0-1-.4-1-1V25h-.6c-.6 0-1-.5-1-1.2 0-.6.3-1 .9-1.1h24.3Zm12-8.5c3.5 0 6.7 2.3 8 5.6 0 .3 0 .6-.2.8-.1.2-.3.4-.5.4H18c-.1 0-.2 0-.2-.2l-1.1-5-.2-.2h-.9c-.1 0-.2 0-.3.2l-1 5-.2.2H8.8a.8.8 0 0 1-.6-.4.9.9 0 0 1-.1-.8 8.5 8.5 0 0 1 7.9-5.6Zm0-11.9c3 0 5.4 2.5 5.4 5.5S19 13.4 16 13.4c-3 0-5.4-2.4-5.4-5.5 0-3 2.4-5.5 5.4-5.5Z" fill="#000" fill-rule="nonzero"/></svg>