<svg width="32" height="32" xmlns="http://www.w3.org/2000/svg"><path d="M19.532 14.342c-1.205-.46-7.482.754-8.823 1.083C5.455 16.721.696 19.465 1.774 26.3c1.205-2.228 3.042-3.979 5.113-5.407.294-.202 1.012-1.042 1.412-1.382 3.022-2.556 7.604-4.029 11.01-4.925.066-.086.142-.167.223-.243Zm-.74 1.301c-3.219.891-7.243 2.283-9.92 4.546-2.643 2.237-3.959 5.37-1.767 9.805.941-2.506 2.384-4.91 4.11-6.95 1.195-3.098 4.723-5.503 7.527-7 .005-.138.02-.27.05-.4Zm.087 1.341c-2.516 1.372-5.801 3.625-6.854 6.434-.967 2.825.395 5.032 2.404 6.92.486-1.26.88-2.536 1.22-3.842-.005-.936.207-1.939.577-2.941.709-1.939 2.005-3.918 3.397-5.497a2.517 2.517 0 0 1-.744-1.074Zm2.328.755c.876 0 1.58-.703 1.58-1.58 0-.87-.704-1.573-1.58-1.573-.87 0-1.58.703-1.58 1.574 0 .875.72 1.579 1.58 1.579Zm-.795.764c-3.31 3.695-7.046 10.94.694 12.043-2.506-3.695-1.513-8.266.486-11.941-.395.06-.8.025-1.18-.102Zm2.501-.41c-1.74 2.83-3.042 6.515-2.08 9.805 1.083-1.792 2.642-3.897 4.49-4.97-1.134-.173-2-.603-2.926-1.681-.385-.44.288-1.023.668-.582 1.31 1.523 6.247 2.986 6.094-.608-.709-.086-1.3.066-1.964.284-.557.177-.835-.668-.278-.85.713-.233 1.366-.396 2.12-.34a6.908 6.908 0 0 0-.131-.536c-.47-.096-.84-.375-1.124-.906-.273-.522.517-.937.79-.415.147.278.319.415.531.45.248.04.582-.02.998-.152-.37-.952-1.372-2.258-2.207-2.84a.438.438 0 0 1-.218-.384c0-.79-.329-1.53-.724-2.197-1.68.693-2.43 1.382-3.736 2.55.886 1.236.396 2.243-.303 3.372Zm-.339-3.994c1.59-1.402 2.334-2.09 4.4-2.895L25.96 9.79c-2.1.826-3.467 1.985-4.626 3.903.456.02.88.167 1.24.405Zm-4.596-.724a4.79 4.79 0 0 1 .132-.784C11.59 11.674 3.03 10.444 1 18.796a60.405 60.405 0 0 1 2.9-1.295c3.66-2.941 9.542-3.61 14.078-4.126Zm.415-1.645a8.916 8.916 0 0 1 .855-1.604C12.713 8.08 5.115 4.846 1.172 12.93c1.15-.283 2.318-.48 3.493-.623 3.933-2.05 9.506-1.184 13.728-.577Zm1.417-2.364c.355-.44.75-.86 1.17-1.24-3.022-2.1-6.997-3.614-10.671-3.948-3.533-.32-6.93.47-9.101 3.163 1.195.112 2.384.223 3.579.35 4.53-2.253 10.493.283 15.024 1.675Zm1.888-1.822c.39-.289.785-.527 1.175-.709-2.683-2.759-5.842-4.784-9.223-5.528-2.663-.582-5.473-.37-8.302.912 1.139.066 4.515.541 5.244 1.093 3.807.385 7.983 2.01 11.106 4.232Zm-2.824 5.786c.521.025.966.121 1.407.395 1.266-2.248 2.739-3.685 5.143-4.678l-1.27-1.706c-2.618.572-5.027 3.726-5.28 5.989Z" fill="#000" fill-rule="nonzero"/></svg>