<svg width="32" height="32" xmlns="http://www.w3.org/2000/svg"><path d="M25.154 20.839c.51 0 .923.413.923.923v2.77c0 1.529-1.24 2.768-2.77 2.768h-3.692a2.77 2.77 0 0 1-2.215-1.108l-1.107-1.476a.453.453 0 0 0-.37-.185.453.453 0 0 0-.37.185l-1.108 1.477a2.768 2.768 0 0 1-2.214 1.107H8.539c-1.53 0-2.77-1.24-2.77-2.769v-2.769c0-.51.414-.923.924-.923Zm-.052-5.188 3.296 1.977a.922.922 0 0 1-.475 1.715h-24a.922.922 0 0 1-.553-1.662l2.707-2.03h19.025ZM13.712 4.395a4.297 4.297 0 0 0 4.42 0 2.763 2.763 0 0 1 2.36-.231c.784.28 1.393.89 1.673 1.673a.74.74 0 0 1 .035.126l1.673 8.191H7.203l2.463-8.27c.295-.83.904-1.44 1.688-1.72a2.761 2.761 0 0 1 2.359.23Z" fill="#000" fill-rule="nonzero"/></svg>