<svg width="32" height="32" xmlns="http://www.w3.org/2000/svg"><path d="M16.6 22.5c.7 0 1.3.6 1.3 1.3V26h2.8v4.5H2V26h3v-2.2c0-.7.5-1.3 1.2-1.3Zm-.1-17 4 4.2-1.4 1.5L26 18l.7-.7c.4-.4 1-.4 1.5 0L30 19c.4.4.4 1.1 0 1.5v.1l-3.2 3.3c-.5.4-1.1.4-1.6 0l-1.7-1.6c-.4-.4-.4-1.1 0-1.6l.7-.7-6.9-6.8-1.4 1.4-4.2-4.1 1.5-1.5L15 7.1l1.5-1.5Zm-5.8 5.7.1.1 4 4c.5.4.5 1.1.1 1.6l-1.6 1.6c-.5.5-1.1.5-1.6.1l-4-4c-.5-.5-.5-1.1-.2-1.6l.1-.1 1.6-1.6c.4-.4 1-.4 1.5 0Zm9.7-10 .1.1 4 4c.5.5.5 1.1.1 1.6L23 8.7c-.5.4-1.1.4-1.6 0l-4-4c-.5-.5-.5-1.1-.2-1.6h.1L19 1.2c.4-.4 1-.4 1.5 0Z" fill="#000" fill-rule="nonzero"/></svg>