<svg width="32" height="32" xmlns="http://www.w3.org/2000/svg"><path d="M28.05 23.657V32H4v-8.343h24.05ZM16.06 25.1c-.45 0-.81.356-.863.766l-.006.103v3.753c0 .452.382.835.868.835a.848.848 0 0 0 .828-.732l.007-.103V25.97c0-.486-.348-.869-.835-.869Zm-8.724 0c-.449 0-.809.356-.862.766l-.006.103v3.753c0 .452.382.835.868.835a.848.848 0 0 0 .828-.732l.007-.103V25.97c0-.486-.348-.869-.835-.869Zm4.31 0c-.45 0-.81.356-.862.766l-.007.103v3.753c0 .452.382.835.869.835a.848.848 0 0 0 .827-.732l.007-.103V25.97c0-.486-.348-.869-.834-.869Zm8.792 0c-.449 0-.81.356-.862.766l-.006.103v3.753c0 .452.382.835.868.835a.848.848 0 0 0 .828-.732l.006-.103V25.97c0-.486-.347-.869-.834-.869Zm4.31 0c-.45 0-.81.356-.862.766l-.007.103v3.753c0 .452.382.835.869.835a.848.848 0 0 0 .827-.732l.007-.103V25.97c0-.486-.348-.869-.834-.869Zm-.87-7.314c.485.097.879.613.877 1.076l-.007.105v3.893c-.217-.031-.598.02-1.119.008l-.202-.008v-2.786c0-.486-.382-.886-.824-.886-.42 0-.814.34-.872.776l-.007.11v2.786c-.655-.03-1.413.017-2.229.009l-.412-.01v-2.785c0-.452-.417-.886-.869-.886-.449 0-.81.34-.862.776l-.007.11v2.786h-2.64v-2.786a.875.875 0 0 0-.87-.886c-.449 0-.81.34-.862.776l-.007.11v2.786c-.834.03-1.617-.017-2.305-.01l-.336.01v-2.786c0-.486-.38-.886-.825-.886a.879.879 0 0 0-.871.776l-.007.11v2.786c-.556.03-.975-.02-1.232-.008l-.088.008v-3.893c0-.416.296-.982.751-1.148l.117-.033H23.88ZM16.026 8.75c4.703 0 7.568 3.744 7.775 7.823l.01.24H8.24c.104-4.24 2.989-8.063 7.785-8.063Zm0-7.75c.66 0 1.216.556 1.216 1.216V5.38c.695.348 1.286 1.077 1.286 1.98 0 .244.034.557.104.87a10.307 10.307 0 0 0-2.572-.348c-.764 0-1.633.07-2.571.348.069-.313.139-.626.139-.87 0-.868.52-1.563 1.181-1.91V2.215c0-.66.556-1.216 1.217-1.216Z" fill="#000" fill-rule="nonzero"/></svg>