<svg width="32" height="32" xmlns="http://www.w3.org/2000/svg"><path d="m16.268 4.26 1.58 1.58-2.09 2.091 2.642 2.642-.799.799L14.96 8.73l-1.957 1.957 2.64 2.642-.8.798-2.639-2.642-1.956 1.957 2.64 2.643-.8.798-2.64-2.641-1.956 1.957 2.64 2.641-.798.799-2.64-2.64-.373.372a5.45 5.45 0 0 0-.715 6.827L2 27.805V31l5.204-5.204a5.457 5.457 0 0 0 6.83-.715L25.56 13.553l1.58 1.58 1.598-1.597L24.1 8.898l2.595-2.596 2.108 2.108L30.4 6.813 24.586 1 22.99 2.597l2.108 2.109L22.503 7.3l-4.637-4.639-1.598 1.598Z" fill="#000" fill-rule="nonzero"/></svg>