<svg width="32" height="32" xmlns="http://www.w3.org/2000/svg"><path d="M15.1 18h.2l1.8.8c1 .5 2.2.7 3.5.7a2.8 2.8 0 0 1 2.8 2.7v.5l3.7-.7c1.2-.3 2.3.3 2.7 1.4.4 1.2-.2 2.4-1.2 3h-.2l-7.7 3.1a5.7 5.7 0 0 1-4 .1h-.2l-5-2 .1-.3v-.1l1.1-5.9c.2-.9.1-1.7-.1-2.6l-.1-.3 1.1-.5h1.5Zm-12-1.6 5.5.8c.7.1 1.3.5 1.7 1.1.5.7.7 1.6.6 2.5v.2l-1 5.9a2.9 2.9 0 0 1-2.6 2.4H3a1 1 0 0 1-1-.8V17.2a1 1 0 0 1 .8-1h.2ZM20 12v3.2c1.6.3 2.9 1.4 3.4 2.9 1.8.3 3.2 1.5 3.7 3.1l-2.7.6v-.5c0-1.6-1.4-2.8-2.9-2.7h-.3c-1.1 0-2.2-.3-3.2-.8l-1.7-.7c-.3-.2-.6-.2-.9-.2.7-.9 1.7-1.5 2.7-1.7V12H20ZM12.9 2c2.5 0 4.9 1.5 6.1 3.7A7.1 7.1 0 0 1 25 2H28.3c.5 0 1 .4 1 1 0 3.8-3.1 6.9-7 7H16c-3.9 0-7-3.2-7-7 0-.6.3-1 .8-1H13Z" fill="#000" fill-rule="nonzero"/></svg>