<svg width="32" height="32" fill="none" xmlns="http://www.w3.org/2000/svg"><path fill-rule="evenodd" clip-rule="evenodd" d="M31.947 3.939c0 .318-.214.531-.534.531H30.13v14.355h1.336c.32 0 .534.266.534.532v.053c0 1.488-1.175 2.658-2.671 2.658H18.27l5.93 7.071c.107.16.16.425.054.585-.107.213-.268.319-.481.319h-2.831c-.16 0-.321-.107-.428-.213l-2.831-3.615v4.253a.534.534 0 0 1-.534.532H14.85a.487.487 0 0 1-.373-.16.48.48 0 0 1-.16-.372v-4.2l-2.832 3.615c-.107.107-.267.213-.428.213h-2.83c-.214 0-.375-.16-.482-.319a.568.568 0 0 1 .054-.585l5.93-7.124H2.67C1.175 22.068 0 20.898 0 19.41v-.053c0-.266.267-.532.534-.532h.962V4.47H.534A.534.534 0 0 1 0 3.94v-.054c0-1.488 1.175-2.658 2.671-2.658h26.605a2.673 2.673 0 0 1 2.67 2.658v.054ZM16.46 6.658c.174-.261.348-.435.61-.435.261 0 .523 0 .697.174l4.006 3.476 3.484-4.084c.349-.348.871-.435 1.22-.087.348.348.435.869.087 1.217L22.47 11.61c-.348.347-.871.434-1.22.086l-3.832-3.215-2.7 4.171c-.174.261-.522.435-.784.435-.087 0-.261-.087-.435-.174-.436-.26-.523-.782-.262-1.216l3.223-5.04Zm-9.445 9.358h8.547c.385 0 .769.382.769.763s-.384.762-.769.762H6.246a.767.767 0 0 1-.768-.762V6.56a.767.767 0 0 1 1.538 0V8.24h.922c.384 0 .769.381.769.762 0 .382-.385.763-.769.763h-.923v1.067h.923c.384 0 .769.382.769.763s-.385.762-.769.762h-.923v.992h.923c.384 0 .769.38.769.762 0 .381-.385.763-.769.763h-.923v1.143Z" fill="#000" /></svg>
