<svg width="32" height="32" xmlns="http://www.w3.org/2000/svg"><path d="M16 3.1h-4.8c-2.3 0-4 1.9-4 3.8v14c0 2 1.5 3.5 3 3.8l-4.5 6.7h2.6l3.3-4.7h8.8l3.3 4.7h2.6l-4.6-6.7c1.6-.3 3-1.9 3-3.8V7c0-2-1.6-3.8-3.9-3.8H16Zm-1.9.9h3.8c.3 0 .6.2.6.6v1.1c0 .3-.2.6-.6.6h-3.8a.6.6 0 0 1-.6-.6V4.6c0-.4.3-.6.6-.6Zm-2.8 3h9.4c1.3 0 2 1 2 2v2.6c0 1.2-1 2-2 2h-9.4c-1 0-2-.8-2-2V9c0-1 .7-2 2-2Zm-.2 12.2a1.7 1.7 0 1 1 0 3.4 1.7 1.7 0 0 1 0-3.4Zm9.8 0a1.7 1.7 0 1 1 0 3.4 1.7 1.7 0 0 1 0-3.4ZM14.6.6a1 1 0 1 1 0 2.1 1 1 0 0 1 0-2.1Zm2.8 0a1 1 0 1 1 0 2.1 1 1 0 0 1 0-2.1Z" fill="#000" fill-rule="nonzero"/></svg>