<svg width="32" height="32" xmlns="http://www.w3.org/2000/svg"><path d="M11.6 20.5c1.2 1.2 2.8 2 4.6 2 1.8 0 3.3-.7 4.5-2 4.5.7 8 5 8 9.6v.3H3.3c0-4.8 3.7-9.4 8.4-10ZM18 1.7c6 .8 3.3 7 6.8 9.6h.1-1.4c0 .8-.3 1.2-.6 1.7l-.6 1.3c-.5 1.6-1.4 3.1-2.5 4.3-1 1-2.3 1.7-3.6 1.7-1.3 0-2.6-.7-3.6-1.7-1.1-1.1-2-2.7-2.5-4.2L9.5 13c-.3-.5-.6-1-.6-1.6H7.3l.1-.1c3.6-2.6.7-9.1 7.4-9.7H18Zm4.5 9.7H9.9l.5 1 .8 1.6a9.6 9.6 0 0 0 2.2 3.8 4 4 0 0 0 2.8 1.4c1 0 2-.6 2.8-1.4 1-1 1.8-2.4 2.3-3.8.2-.8.5-1.2.7-1.6l.5-1Z" fill="#000" fill-rule="nonzero"/></svg>