<svg width="32" height="32" xmlns="http://www.w3.org/2000/svg"><path d="M25 16.5c1.9 0 3.3 1.5 3.4 3.3v2.6c0 .8-.3 1.6-.8 2.2.1.5.5.8 1 1 1.5.4 2.9 1.8 3.4 3.6 0 .4 0 .7-.3 1a1 1 0 0 1-.8.4H19.3c-.3 0-.7-.2-.9-.5-.2-.2-.3-.5-.2-.9a4.3 4.3 0 0 1 3.2-3.6c.4-.2.8-.5.9-1-.4-.5-.8-1.2-.8-2V20c0-2 1.5-3.5 3.4-3.5Zm-18.2 0c1.8 0 3.3 1.5 3.4 3.3v2.6c0 .8-.4 1.6-.8 2.2.1.5.4.8.9 1 1.6.4 3 1.8 3.3 3.6.1.4 0 .7-.2 1a1 1 0 0 1-.8.4H1c-.4 0-.7-.1-.8-.5a1 1 0 0 1-.3-.9 4.3 4.3 0 0 1 3.2-3.6c.5-.2.8-.5 1-1-.5-.5-.8-1.2-.8-2V20c0-2 1.4-3.5 3.4-3.5ZM24 1.4c1 0 1.9.8 1.9 1.9v8c0 1.1-.9 2-1.9 2h-5.4L14 16.5v-3.2h-1.5c-1 0-1.9-.9-1.9-2v-8c0-1 .8-2 1.9-2Zm-2.6 6.5h-6.7c-.4 0-.6.3-.6.6s.3.6.6.6h6.7c.3 0 .6-.3.6-.6 0-.4-.3-.6-.6-.6Zm-3-2.7h-3.7c-.4 0-.6.3-.6.6s.3.6.6.6h3.8c.3 0 .5-.3.5-.6s-.2-.6-.5-.6Z" fill="#000" fill-rule="nonzero"/></svg>