<svg width="32" height="32" fill="none" xmlns="http://www.w3.org/2000/svg"><path fill-rule="evenodd" clip-rule="evenodd" d="M31.26 6.307a.3.3 0 0 1 .267.436l-5.01 9.85c-.143.281-.567.18-.567-.136V9.873h-3.485a.3.3 0 0 1-.273-.423L26.384.177c.133-.294.573-.2.573.123v6.007h4.302ZM6.334 17.356h1.09c.126 0 .21-.084.252-.21 1.132-3.16 3.984-5.52 7.38-5.9.125 0 .251-.126.251-.295v-1.01c0-.17-.125-.296-.335-.296-.704.093-1.407-.093-2.11-.28-.89-.235-1.78-.47-2.67-.141-.21.084-.461-.084-.461-.337v-3.58c0-.212.125-.422.335-.506.936-.337 1.873-.041 2.803.252.819.258 1.633.515 2.438.337v-.716c0-.38.294-.674.671-.674.377 0 .671.295.671.674v6.278c0 .168.126.253.252.295 3.563.295 6.498 2.696 7.672 5.94.042.127.168.212.252.212h.88c.168 0 .294.126.294.295v1.01a.287.287 0 0 1-.294.296H6.294A.287.287 0 0 1 6 18.705v-1.011c.042-.211.168-.338.335-.338ZM4 19.988a1 1 0 0 0-1 1V31a1 1 0 0 0 1 1h8.314v-8.547a1 1 0 0 1 1-1h5.28a1 1 0 0 1 1 1V32H28a1 1 0 0 0 1-1V20.988a1 1 0 0 0-1-1H4Z" fill="#000"/></svg>