<svg width="40" height="40" xmlns="http://www.w3.org/2000/svg">
  <path
    d="M34.8 4.2h-2.9V2.6a2.6 2.6 0 0 0-5.3 0v1.6H13.3V2.6c0-1.4-1.2-2.6-2.6-2.6A2.6 2.6 0 0 0 8 2.6v1.6H5.2A4.8 4.8 0 0 0 .4 9v2.4h39.2V9c0-2.7-2.1-4.8-4.8-4.8ZM.4 35.2c0 2.6 2.1 4.8 4.8 4.8h29.6c2.7 0 4.8-2.2 4.8-4.8V13.3H.4v21.9ZM26 21.5c0-.5.4-.8.9-.8h3.9c.5 0 .8.4.8.8v2.6c0 .5-.4.8-.8.8h-4a.8.8 0 0 1-.8-.8v-2.6Zm0 7.7c0-.5.4-.8.9-.8h3.9c.5 0 .8.4.8.8v2.6c0 .5-.4.8-.8.8h-4a.8.8 0 0 1-.8-.8v-2.6Zm-9-7.7c0-.5.5-.8.9-.8h4c.4 0 .8.4.8.8v2.6c0 .5-.4.8-.9.8h-4a.8.8 0 0 1-.7-.8v-2.6Zm0 7.7c0-.5.5-.8.9-.8h4c.4 0 .8.4.8.8v2.6c0 .5-.4.8-.9.8h-4a.8.8 0 0 1-.7-.8v-2.6Zm-8.9-7.7c0-.5.4-.8.9-.8h4c.4 0 .7.4.7.8v2.6c0 .5-.4.8-.8.8H9a.8.8 0 0 1-.8-.8v-2.6Zm0 7.7c0-.5.4-.8.9-.8h4c.4 0 .7.4.7.8v2.6c0 .5-.4.8-.8.8H9a.8.8 0 0 1-.8-.8v-2.6Z"
    fill="#000" fill-rule="nonzero" />
</svg>
