<svg width="14" height="14" xmlns="http://www.w3.org/2000/svg">
    <path
        d="M13.47289 9.614458C13.83133 8.792169 14 7.927711 14 7v-.042169c0-.927711-.16867-1.792168-.52711-2.614457-.35843-.82229-.84337-1.518073-1.45482-2.129519-.61144-.611445-1.3494-1.075301-2.21385-1.433734C8.96084.421687 8.03313.253012 7.02108.253012c-.99096 0-1.91867.168675-2.78313.527109-.84337.358433-1.60241.843373-2.23494 1.454819S.88554 3.563253.52711 4.385542C.16867 5.207831 0 6.072289 0 7v.042169c0 .927711.16867 1.792168.52711 2.614457.35843.82229.84337 1.518073 1.45482 2.129519.61144.611445 1.3494 1.075301 2.21385 1.433734.84338.358434 1.77109.527109 2.78314.527109.99096 0 1.91867-.168675 2.78313-.527109.84337-.358433 1.60241-.843373 2.23494-1.454819s1.13855-1.328313 1.4759-2.150602Zm-1.91509-3.94026L8.95526 7.760534l.92487 3.290819-2.68858-1.957284-2.68858 1.957284.92487-3.290819L2.8253 5.674198l3.26931-.086035 1.09694-3.247802 1.09694 3.247802 3.26931.086035Z"
        fill="#FFF" fill-rule="nonzero" />
</svg>
