<svg width="43" height="45" xmlns="http://www.w3.org/2000/svg">
  <path
    d="m5.514 20.432 6.45 13.778-.88.44c-3.811 1.758-8.355.146-10.114-3.665-1.759-3.811-.147-8.355 3.665-10.114l.88-.44Zm.806-.44 6.45 13.851c6.669-3.517 15.903-5.936 24.99-4.104A7911.821 7911.821 0 0 0 25.522 3.43c-4.47 8.209-12.239 13.705-19.201 16.563Zm36.277 7.255L30.505 1.377c-.367-.733-1.246-1.1-1.98-.733L26.328 1.67c-.22.073-.367.22-.513.366l13.265 28.362c.22 0 .366-.073.586-.146l2.199-1.026c.733-.293 1.099-1.246.733-1.98v.001Zm-22.572 4.544a55.209 55.209 0 0 0-6.523 2.639l9.454 9.673c.367.367.953.514 1.466.293l3.884-1.832a1.222 1.222 0 0 0 .366-1.979l-8.647-8.794Z"
    fill="#FFF" fill-rule="nonzero" />
</svg>
