<svg width="40" height="40" xmlns="http://www.w3.org/2000/svg">
  <g fill="#000" fill-rule="evenodd">
    <path
      d="M25.6 7.2V6c0-3.3-2.5-6-5.6-6a5.9 5.9 0 0 0-5.7 6l.1 1.2c-.4.4-.5 1.2-.2 1.9.3.6.8 1 1.2 1.2 1 2 2.7 3.6 4.6 3.6 2 0 3.6-1.6 4.6-3.6A2 2 0 0 0 25.8 9c.3-.7.2-1.5-.2-2ZM20 12.5c-1.6 0-3.2-2-3.9-4-.3-3.5 4.6-.8 5.4-3.8.5 0 2.1.8 2.6 3-.6 2.4-2.3 4.8-4.1 4.8Z"
      fill-rule="nonzero" />
    <path
      d="m19 17.4-.3 2.6 1.3 4 1.3-4-.3-2.6c1.3-.3 1.3-1.3 1.2-1.8-.2-.7-1.3-.8-2.2-.8-1 0-2 .1-2.2.8-.1.5-.2 1.5 1.2 1.8Z" />
    <path
      d="M31.3 27c-.3-5.4-1-8.3-1-8.3-.2-1.2-1.2-2-2.4-2-1.9-1.5-4.3-2-4.3-2l-3.6 11-3.6-11s-2.4.5-4.3 2c-1.2 0-2.2.8-2.3 2 0 0-.8 3-1.1 8.2h22.6ZM34.7 28.5H5.3a1.8 1.8 0 0 0 0 3.6l1.5 3V40h26.4v-4.9l1.6-3a1.8 1.8 0 0 0-.1-3.6Z" />
  </g>
</svg>
