<svg width="40" height="40" xmlns="http://www.w3.org/2000/svg">
  <path
    d="M25.7 11.4c-.8 0-1.4-.6-1.4-1.4V0H5.7C5 0 4.3.6 4.3 1.4v37.2c0 .8.6 1.4 1.4 1.4h28.6c.8 0 1.4-.6 1.4-1.4V11.4h-10Zm1.4 20H13c-.8 0-1.5-.6-1.5-1.4 0-.8.7-1.4 1.5-1.4H27c.8 0 1.5.6 1.5 1.4 0 .8-.7 1.4-1.5 1.4Zm0-5.7H13c-.8 0-1.5-.6-1.5-1.4 0-.8.7-1.4 1.5-1.4H27c.8 0 1.5.6 1.5 1.4 0 .8-.7 1.4-1.5 1.4Zm0-5.7H13c-.8 0-1.5-.6-1.5-1.4 0-.8.7-1.5 1.5-1.5H27c.8 0 1.5.7 1.5 1.5S27.9 20 27 20Zm8.6-11.4h-7.1c-.8 0-1.5-.7-1.5-1.5V0l8.6 8.6Z"
    fill="#000" fill-rule="nonzero" />
</svg>
