<svg xmlns="http://www.w3.org/2000/svg" width="37" height="37">
  <path fill="#000" fill-rule="nonzero"
    d="m26.602 26.495 6.881 10.502c-2.15 0-4.09.015-6.026-.02-.225-.004-.517-.235-.66-.443-2.412-3.474-4.805-6.961-7.27-10.544 1.237-1.267 2.474-2.52 3.696-3.787 1.75-1.817 3.248-3.748 3.648-6.377.74-4.887-2.645-9.639-7.574-10.495-5.05-.875-9.92 2.494-10.777 7.454-.527 3.058.28 5.726 2.356 8.013 1.622 1.787 3.26 3.56 5.082 5.546-2.428 0-4.609.005-6.79-.012-.151-.002-.316-.151-.451-.26-4.753-3.819-6.76-10.375-4.909-16.028C5.733 4.162 10.952.126 17.244.004c6.13-.117 10.798 2.65 13.468 8.174 2.666 5.52 1.883 10.821-1.941 15.635-.652.822-1.358 1.6-2.035 2.4-.045.053-.063.128-.134.282Z" />
</svg>
