<svg width="11" height="10" xmlns="http://www.w3.org/2000/svg">
  <path
    d="M6 0a5 5 0 1 0 0 10A5 5 0 0 0 6 0Zm.4 8.2-.5.2c-.2 0-.4 0-.5-.2a.7.7 0 0 1-.2-.5c0-.2 0-.4.2-.5.1-.2.3-.2.5-.2s.4 0 .5.2c.2.1.2.3.2.5s0 .3-.2.5Zm1.4-4a3 3 0 0 1-.6.7l-.3.3c-.3.3-.4.5-.4.8a.3.3 0 0 1-.3.3h-.3c-.3 0-.6-.3-.6-.6l.1-.4.6-.8.6-.6v-.5c0-.5-.1-.7-.6-.7-.2 0-.4 0-.6.2-.2.2-.4.6-.8.6S3.9 3 4 2.8l.5-.7c.3-.3.8-.5 1.5-.5.6 0 1.1.2 1.5.5.3.3.5.7.5 1.3 0 .2 0 .5-.2.7Z"
    fill="#000" fill-rule="nonzero" />
</svg>
