<svg xmlns="http://www.w3.org/2000/svg" width="20" height="20">
    <path fill="#000" fill-rule="nonzero"
        d="M15.711 5.024a1.103 1.103 0 1 1-2.206 0 1.103 1.103 0 0 1 2.206 0Zm3.5 4.976v.014l-.063 3.996a5.514 5.514 0 0 1-5.451 5.452l-4.01.062h-.014l-3.995-.063A5.515 5.515 0 0 1 .226 14.01L.164 10v-.014L.227 5.99A5.514 5.514 0 0 1 5.678.538l4.01-.062h.014l3.995.063a5.514 5.514 0 0 1 5.452 5.451l.062 4.01Zm-1.773 0-.062-3.982a3.75 3.75 0 0 0-3.706-3.706L9.687 2.25l-3.982.062A3.749 3.749 0 0 0 2 6.018L1.938 10l.061 3.982a3.749 3.749 0 0 0 3.706 3.706l3.982.062 3.983-.062a3.75 3.75 0 0 0 3.706-3.706L17.438 10Zm-2.86 0a4.89 4.89 0 1 1-9.781 0 4.89 4.89 0 0 1 9.781 0Zm-1.774 0a3.117 3.117 0 1 0-6.233 0 3.117 3.117 0 0 0 6.233 0Z" />
</svg>
