<svg width="11" height="11" xmlns="http://www.w3.org/2000/svg">
  <g fill="none" fill-rule="evenodd">
    <path
      d="M7.3 2.4a9 9 0 0 1 3.3 5.8c0 2.4-2.8 2.8-4.8 2.8-2.6 0-5.3 0-5.3-2.7 0-2 1.7-4.7 3.3-6h3.5ZM5.9 3.9h-.7v.7c-.9.2-1.3.7-1.3 1.3 0 .7.5 1 1.3 1.3.6.2.9.3.9.6s-.3.5-.8.5-1-.2-1.2-.4l-.3.9c.3.1.8.3 1.3.3v.7H6V9c.8-.1 1.3-.6 1.3-1.3 0-.6-.3-1-1.2-1.3-.7-.2-1-.4-1-.6 0-.2.2-.4.7-.4l1 .2.3-.8L6 4.6v-.7ZM4.1.1c.6 0 2.4 0 3 .2.5.1.8.2 1 .6 0 .2-.3.6-1 1.1h-3c-.7-.6-1-1-1-1.4 0-.6.5-.5 1-.5Z"
      fill="#55BC62" fill-rule="nonzero" />
  </g>
</svg>
