<svg width="14" height="16" xmlns="http://www.w3.org/2000/svg">
  <g fill="#000" fill-rule="nonzero">
    <path
      d="M10.914 8.216a3.38 3.38 0 1 1-6.761 0 3.38 3.38 0 0 1 6.76 0ZM6.816 1.52v1.227a.717.717 0 1 0 1.435 0V1.52a.717.717 0 1 0-1.435 0ZM7.533 12.987a.717.717 0 0 0-.717.717v1.228a.717.717 0 1 0 1.435 0v-1.228a.717.717 0 0 0-.718-.717ZM13.65 10.928l-1.041-.526a.719.719 0 0 0-.648 1.281l1.04.526a.717.717 0 0 0 .648-1.28ZM13.002 4.679l-1.04.526a.718.718 0 0 0 .647 1.28l1.04-.525a.718.718 0 0 0-.647-1.281ZM1.133 10.928l1.04-.526a.719.719 0 0 1 .648 1.281l-1.04.526a.717.717 0 0 1-.648-1.28ZM1.78 4.679l1.041.526a.718.718 0 0 1-.648 1.28l-1.04-.525a.718.718 0 0 1 .648-1.281Z" />
  </g>
</svg>
