<svg xmlns="http://www.w3.org/2000/svg" width="15" height="15">
  <path
    d="M8.527 9.986A3.713 3.713 0 0 1 5.884 8.89a.826.826 0 0 1 1.169-1.168c.394.393.917.61 1.474.61a2.07 2.07 0 0 0 1.474-.61l2.199-2.2a2.087 2.087 0 0 0 0-2.947 2.087 2.087 0 0 0-2.949 0l-.94.94a.826.826 0 0 1-1.17-1.168l.942-.94a3.741 3.741 0 0 1 5.285 0 3.741 3.741 0 0 1 0 5.285L11.17 8.89a3.714 3.714 0 0 1-2.643 1.095Z" />
  <path
    d="M4.274 14.239a3.713 3.713 0 0 1-2.642-1.095 3.741 3.741 0 0 1 0-5.285L3.83 5.66a3.742 3.742 0 0 1 5.285 0 .826.826 0 0 1-1.168 1.17 2.087 2.087 0 0 0-2.948 0L2.8 9.027a2.087 2.087 0 0 0 1.474 3.56 2.07 2.07 0 0 0 1.474-.611l.941-.941a.826.826 0 0 1 1.169 1.168l-.941.941a3.713 3.713 0 0 1-2.643 1.095Z" />
</svg>
