<svg xmlns="http://www.w3.org/2000/svg" width="20" height="18">
    <path fill="#000" fill-rule="nonzero"
        d="M18.362 12.928a9.539 9.539 0 0 1-5.753 5.139c1.158-1.05 2.084-2.716 2.63-4.753l.098-.386h3.025Zm-14.324 0c.526 2.217 1.494 4.027 2.732 5.139a9.52 9.52 0 0 1-5.585-4.78l-.172-.36h3.025Zm9.714 0c-.625 2.322-1.78 4.076-3.133 4.64l-.17.065v-4.705h3.303Zm-4.826 0v4.704c-1.372-.464-2.557-2.143-3.226-4.417l-.081-.287h3.307Zm9.973-6.347a9.52 9.52 0 0 1 .092 4.456l-.088.367h-3.284a17.51 17.51 0 0 0 .056-4.341l-.06-.482H18.9Zm-4.826 0c.123.8.185 1.61.186 2.419 0 .644-.04 1.287-.12 1.926l-.066.478H10.45V6.58h3.623Zm-5.148 0v4.823H5.3a15.85 15.85 0 0 1-.066-4.342l.066-.481h3.626Zm-5.169 0a18.145 18.145 0 0 0-.061 4.344l.057.479H.472a9.52 9.52 0 0 1-.084-4.457l.088-.366h3.28ZM12.61-.067A9.52 9.52 0 0 1 18.182 4.7l.172.358h-3.02c-.53-2.205-1.494-4.011-2.725-5.124Zm-2.16.435c1.368.46 2.55 2.136 3.218 4.403l.081.286H10.45V.367Zm-1.523 0v4.69H5.623C6.274 2.645 7.497.847 8.926.367ZM6.762-.067c-1.23 1.113-2.194 2.919-2.724 5.124H1.021A9.524 9.524 0 0 1 6.76-.067Z" />
</svg>
