<svg xmlns="http://www.w3.org/2000/svg" width="20" height="14">
    <path fill="#000" fill-rule="nonzero"
        d="M18.814 2.4A2.387 2.387 0 0 0 17.156.742C15.67.344 9.696.344 9.696.344s-5.96-.008-7.46.398A2.387 2.387 0 0 0 .578 2.4a24.823 24.823 0 0 0-.414 4.608c-.005 1.54.134 3.077.414 4.592a2.387 2.387 0 0 0 1.658 1.657c1.483.399 7.46.399 7.46.399s5.96 0 7.46-.399a2.387 2.387 0 0 0 1.658-1.657c.274-1.515.407-3.052.397-4.592a24.808 24.808 0 0 0-.397-4.608ZM7.789 9.86V4.148l4.973 2.86-4.973 2.85Z" />
</svg>
