<svg xmlns="http://www.w3.org/2000/svg" width="444.8" height="389">
	<path fill="white" fill-rule="evenodd"
		d="m408 368-3-1a864 864 0 0 1-48-48c-3-3-3-5-9-17a261 261 0 0 0-8-16l-8-4a447 447 0 0 0-44-19l-12-2c-6 0-8-1-10-3l-9-7-9-8c-3-1-3-2-12-2h-11l-2 2-1 3-3 7-6 6-11 4a3411 3411 0 0 1-14 3l-3-3v-3l1-8 4-5 5-8-1-1c-1-1-2-1-5 1-6 3-8 4-17 13a1560 1560 0 0 1-17 15v4l-1 5-17 14-18 15c-3 3-5 3-17 8a1434 1434 0 0 1-63 19 254 254 0 0 1-27 2l-1-2v-3l5-3 6-1c6 0 7 0 13-3 9-3 9-3 15-3s7 0 13-4l23-12 15-8 3-2 4-7 7-13 3-5-2-2c-1-1-2-1-7 1-7 2-8 2-11 0l-4-6c-3-5-5-7-8-8l-5 1-6-1c-3-2-3-4-1-9l2-5-2-7-4-5-11-2-6-3-5-6-2-6 2-6 1-6-2-8-2-7 1-3 2-2a202 202 0 0 1 16-11l4-4 6-4c2 0 3 1 6 4l5 3c2 0 3-1 6-4l7-4 4-1c3 0 4 0 5-2 3-2 3-2 4-10l1-9-3-2c-1-1-1-1-5 2l-7 2-12-3-8-3c-3-1-8-5-10-8l-2-5 1-3 1-7-3-6-2-5 2-4 2-1a944 944 0 0 1 31-2c2 1 2 2 1 6v5l4 3 9 2 4-2 1-2 1-4 2-10-2-4-4-3-4-3c-3-3-3-3-4-10l-2-8c0-2-1-5-3-6l-4-7c-1-2 0-4 1-6 1-1 3-3 5-3h7l5 2 7-2 4-3c2-2 3-2 4-5 2-5 5-7 8-9a636 636 0 0 1 27-11l7 1c5 2 6 2 10 0l5-1h2l9 4a465 465 0 0 1 14 7v6l1 1c2 2 3 3 5 3h21a293 293 0 0 1 27 12l6-3c2-2 3-2 5-2s3 2 10 9a991 991 0 0 1 10 15 6156 6156 0 0 1 1 186l3 3 1 1h16l2 1c3 1 4 2 10 10l8 9c2 1 4 2 6 1a193 193 0 0 0 15-8c2-1 3 0 6 1l18 24a1415 1415 0 0 0 25 30l13 6 10 4 1 2 3 3v20l-4 4-18 8h-4z" />
</svg>
