<svg xmlns="http://www.w3.org/2000/svg" width="100" height="100"><path d="m57.9.3-2.6.3-2.5.3-2.6.3-2.6.3-2.6.3-2.6.2-2.5.3-2.6.3-2.6.3-2.6.2-2.5.3-2.6.3-2.6.2-2.6.3-2.6.2h-.7l.2.6.4.8.5.5.5.3h.3v36.5l-.1 2.7V62l-.1 1.6V67.4l.3 1.9.2 1.8.3 1.9.3 1.9.3 1.8.3 1.9.5 3.7.3 1.8.3 1.9.3 1.9.3 1.8.3 1.9.3 1.8.5 3.8.4-.2.4-.2h.3l.4.3h.1V97l.1-.1v-.2l.5.2 1 .1.6.2-.1.4v.2h.9v.2h.1l.2-.1v-.3l.1-1.4-.1-.9v-1.5l.2-.3V92.7l.2-.3.1-.2v-1l.2-.2v-.5l.2-.2v-.5l-.1-.3h.2l.1.2.1.2v.6H31.5l.4.2.2.2.7 1.5.2.4v.3l-.2.2-.1.4-.1.4v.4l.2.2.1.2v.2l.1.3.1.2.1.1.2.2.1.1.2.1H34.2l.2-.4H34.7v.7l-.1.2.2.2.9.7.2.6-.4.4-.8.3-.6.3h-.7l-.4-.3H33v.2h-.2l-.7.3-.3.2-.2.2h.5l1.5-.4 2.1-.3 2.3-.5 1-.6.4-.8h-.1l-.2.2h-.4v-.5l-.2-.2v-.4l.2.1.3.3.1.1v.2h.8l.2-.4v-.2l.3-.2.4-.1.2-.3.1-.3.2-.4.6-.8V94h.2-.3l-.1-.2h-.2l-.1-.2v-.2h.1l-.4-.9-.1-.3V92l.3-.6v-1.8l-.2-.1-1.5-.7-.2-.2-.3-.3-.4-.6-.2-.1-.9-.7-.2-.3-.2-.2v-.2l-.1-.1v-.5l.3-.8v-.1l-.1-1v-.2l.8-.1 2.7-.3 2.8-.3 2.7-.3 2.7-.4 2.7-.3 2.7-.3L57 81l2.7-.3 2.7-.3 2.7-.4 2.7-.3 2.7-.4 2.7-.3 2.7-.4 2.7-.4 2.7-.3v-.1l.2-.1v-.4l-.2-.2-.4-1-.5-.7-.6-.6h-.3l-.3-.3V73.4l-.3-.4v-.4l.2-.3v-2.5l.2-.5-.2-.5v-.5l.1-.4.1-.5v-.2l-.3-.4v-.1l-.1-.6V66l-.3-.4-.7-.7-.2-.3-.7-2.2-.2-.3v-.7l.1-.3v-.7l.3-.8.4-.8v-.1l.1-.3v-.6l-.2-.4v-.5l.1-.4V55.5l.2-.7v-.2h.2l.2-.1.2-.2.3-.1.2-.2-.3-.1v-.2l.3-.1h.4l.1-.2V53l.2-.1.1-.2V52.4h-.2l-.1-.2-.2-.1-.8-.4-.4-.3-.1-.3.3-.5-.1-.2V49.5l-.2-.3-.2-.3-.1-.3-.2-.6-.1-.2-.2-.3-1.4-1.4v-.3l-.3-.2-.1-.2v-.6l-.3-.4-.2-.6-.2-.3-.2-.1V42.8l-.4-.3h-.1l-.2-.2V42l-.1-.6-.7-1.4v-.2l-.3-.7v-.5l-.2-.5-.3-.7-.3-.9-.3-1-.4-1.2-.4-1.3-.4-1.5-.5-1.5-.5-1.6-.5-1.7-.6-1.7-.5-1.8-.6-1.8-.6-1.9-.5-1.8-.6-1.8-.6-1.8-.5-1.7-.5-1.7-.5-1.6-.5-1.6-.4-1.4-.4-1.3-.4-1.2-.3-1-.3-1-.2-.6-.2-.6V.1l-.1-.1-2.6.3zM29.9 99l-.1.1-.2.1h-.2l-1 .2-1.6.4-.2.2 3.8-.6h.1l.2-.1v-.1l-.7-.3H30z" fill="white" fill-rule="evenodd"/></svg>