<svg xmlns="http://www.w3.org/2000/svg" width="100" height="100"><path d="m87 4-5.4.5-5.4.4-5.5.5-5.4.4-5.4.4-5.4.4L49 7l-5.5.4-5.4.4-5.5.3-5.4.3-5.4.4-5.4.3-5.5.3-5.4.3-5.4.2.6 3.4.6 3.4.6 3.4.6 3.4.6 3.3.6 3.4.7 3.4L5 37l.1 5.3.2 5.4.1 5.3.2 5.3.1 5.4L6 69l.2 5.3.1 5.3.4.1.2.5.1.4.5.4.5.1.5-.1v.2l-.3.2.2.3h.4l.4-.2.4.2.2-.2.1-.4.2-.3h.4l1 .4.3-.2.2-.2.3-.1.7.3.4.1h.5l.3-.3.6.5.4.1h.2v1.7l.2 3 .2 2.8.2 3 .2 2.9 3.7-.2 3.7-.2 3.6-.3L31 94l3.7-.2 3.7-.2 3.7-.3 3.6-.2 3.7-.3 3.7-.2 3.7-.3 3.6-.3 3.7-.3 3.7-.2 3.7-.3 3.6-.3h.3v-2.9l.5-.2.4-.2.2-.2.1-.4v-.4l-.3-.8-.2-1.3-.1-.3-.3-.2-.6-.1h-.3l-.3-.5.2-.6.7-1v-2.4l-.8-.6-.5-.3-.3-.1-.4-.2-.3-.4-.2-.4.3-.2h.5l.5-.1.3-.3.1-.5v-.6l-.4-.3-.9-.4-.4-.4v-.2l.3-.2.4-.3.7-1.1.1-.2.2-.1.3-.5.2-.2h.3l.5-.1h.2l.2-.6-.1-.5-.3-.4-.2-.8.4-.6.2-.6-.4-.6-.3-.2h-.3L75 67v-.5l1.1-.4 1.1-.6.5-.1h.5l.4-.2.3-.2.2-.4-.1-1-1.6-.6v-.7l.2-.2 1-.8.3-.1.2-.2.7-1.9v-.1h.2l.2-.1.4.1h.2l.1-.3.3-.5v-.5l-.3-.5v-.7l.3.2H82.4l.4-.3.8-.5.6-.7v-3.7l-.5-1.6v-1l.4-1 .2-.5.3-.1.4.2h.4l.4-.2.2-.2.3-.3-.2-.5-.2-.5-.2-.4.2-.3 2.2-1 .9-.8.6-.9v-1l-.8-.7-.2-.4.2-.2h.4l.4-.3.7-.5.3-.3.2-.4v-.9l.2-.5h1.5l.4-.6-.1-1-.3-1-.5-1.2-.2-.5v-1.6l.2-.4 1-1 .2-.4.2-.4.1-.5v-1l.2-.3.5-.1.5-.2.4-.1.2-.4-.3-.5-.4-.5v-.5l.3-.3.4-.4v-.3l-.7-.7-.3-.5v-.5l.2-.3 3-1.6 1-1.2-.1-.4-.6-.3-.6-.2.2-.5.3-.4.3-.2h.5l.6.3.3.1v-.5l-.3-.7-.5-.5-.5-.6v-.1l-3 .3-2.7.3-2.8.4-2.9.3-1.4.2h-.1v-.2H85v-.3l.6-1.4.2-.3.3-.6.2-.3.1-.2.2-.1v-.1l.5-.1.2-.2.1-.1v-.1l.1-.2v-.5l.1-.2h.1l.2-.2.3-.2.5-.2.6-.4v-.1l.1-.1v-.1l.1-.2V10l.1-.2h.1l.5-.2.1-.1h.1v-.2h.1V9l.1-.1V8.6l-.1-.7V6.6h-.2v-.1l-.1-.1h-.1l-.7-.4-.1-.1v-.1l-.1-.1v-.2l-.1-.3V5l-.1-.1h-.2v-.1l-.1-.1-.2-.5-.2-.2v-.1z" fill="white" fill-rule="evenodd"/></svg>


