<svg width="100" height="51" xmlns="http://www.w3.org/2000/svg"><path d="M61.0753516.89804c-.1855681.0781501-.8102368.5857307-1.3958869 1.1225793-1.1420161 1.0444453-1.4349217 1.1811314-1.7961301.7808883-.0975868-.1073375-.2146749-.1952382-.2537097-.1952382-.127016 0-.4098487.6051674-.4197605.8785557-.0097506.2439591-.029268.2439591-.800325.2439591-.7126661 0-.8200036.0293485-1.1420161.2733076-.4197605.3221737-.4491896.5368647-.1268548.917655.1364604.165809.2439591.4489478.2732271.7320223l.0585521.4685458h-.3514578c-.2634764 0-.4783126-.1074181-.9078237-.4392778-.5954007-.4684653-.8100918-.4880633-.9078237-.0878202-.0779083.3025757-.6635584.5661328-1.4446884.6539529-.800325.0975868-.8588772.1366216-.8588772.5563659 0 .2928251-.0585521.4295111-.2927444.6149181-.1855682.1660508-.2929056.3416104-.2929056.5076612 0 .2147556-.2246029.5954007-.897912 1.5617765-.0488659.0585521-.2245223-.07815-.4490284-.3416104l-.3808064-.4295111-.7027543.1366216c-.5954007.1268549-.7321029.1952382-.8687889.4196799-.1365411.2148361-.1365411.3026563-.0389542.4587952.1756402.2928251.1463722.4783126-.1269354.6052481-.1366861.0585521-.2439591.1854069-.2439591.2830583 0 .1171042-.0977319.2050049-.2636215.2439591-.3611278.0879007-.5173474.2147555-.5173474.4295111 0 .107418-.0975868.1952381-.2537903.2342729-.1562034.0390347-.2343535.1269354-.2245223.2342729.0487854.3026563-.107418.5856501-.4686264.8590384-.2829133.2146749-.4489479.2634764-.7709765.2440396-.6539528-.0391153-.7613709.205005-.7515397 1.7081488.0096862.6638001-.0293485 1.2299167-.07815 1.2689515-.0487854.029268-.1562035.1854875-.2441042.3513771-.136541.2635571-.136541.3025757.0195174.478232.0879007.0975869.2147556.1854876.2830583.1854876.0586327 0 .2342729.1269354.3710396.2733077.2439591.2539514.2634764.3318598.2050049.7028993-.0879813.5172668-.6443472 1.2004876-.9566897 1.1517022-.1562034-.0195173-.2146749-.1268548-.2829938-.5172667-.0391153-.2635571-.1268548-.5368647-.1854875-.6052481-.0489466-.0683027-.3904925-.2537097-.7517009-.4196798-.3513771-.1660508-.771057-.4587792-.9370272-.6345161l-.2928251-.341691-.3123424.3025757c-.1757208.1563646-.322093.3515222-.322093.4198249 0 .0780695-.1660508.205005-.3612084.2929057-.8589577.3805645-1.5618571.771057-1.8058162 1.0150161-.2927445.2732271-.3708945.7028994-.1268549.7028994.156139 0 .1854876.2732271.0879007.6539528-.0684639.2636215-.6248459.3904925-.9175904.2050049-.1562034-.0975868-.2342729-.0975868-.3904925 0-.1072569.0586327-.3319404.1170237-.5075806.1170237-.1660507 0-.3904925.07815-.4880632.1660507-.1658896.1463723-.1952382.1463723-.4490285-.0975868-.156139-.1463723-.3903313-.2636215-.5270174-.2636215-.1953187 0-.2733076.07815-.4001625.3904924-.0781501.214675-.2343535.4196799-.332021.4490285-.3512965.1073375-.4391972.1951576-.5660521.556366-.1562034.4491091-.1757208.478232-.3513771.4099293-.2343535-.0879007-.4198411-.4684008-.4783126-.9761265l-.0487854-.4879826-.5271786-.1854876c-.4978299-.1854875-.5466153-.1854875-.8101723-.029268-.3708946.2147556-.741773.1268549-.8686278-.2050049-.0782307-.1951576-.0586327-.2830583.1171042-.4684653.165809-.1758014.1854876-.2539514.0975869-.4197605-.0878202-.1562034-.205005-.2050049-.5466154-.2050049-.3806451 0-.4490285.0391153-.6442828.3513772-.2147555.341691-.2244417.3515383-.6832369.3027368-.3612084-.0488659-.6051675 0-1.0835445.1853264-.3416104.1366861-.663639.312423-.7222556.3903313-.0586327.0782951-.1658896.1366861-.2245223.1366861-.0586327 0-.2830583.0879813-.4979105.1953187-.4879827.2537098-.5660522.2440397-.7027544-.0487853-.1268548-.2929056-.3123424-.3123424-.4880632-.0585521-.0780695.0975868-.2440396.2050049-.3708945.2244417-.1756402.0196785-.3026563.1463722-.4490285.4686264-.1562034.3122618-.292825.4489479-.4880632.5075806-.156139.0389542-.3025757.0389542-.3416104 0-.029268-.0391153-.1171043-.4881438-.1854876-.9956438-.0975868-.7224167-.1756402-.9858932-.3513771-1.2006488-.1268549-.1562034-.234273-.322093-.234273-.3708945 0-.2439591-.3612083-.0195174-.9858932.5953201-.3806451.3710396-.7516202.683237-.819923.683237-.1463722 0-.4001625-.2244417-.4587952-.4001625-.029268-.0780695-.1463722-.0877396-.3611278-.0389542-.292825.0584715-.3025756.0779889-.1659702.2342729.1366861.1464528.1171849.185407-.1854069.4293661-.3221736.2539514-.3612084.2636215-.7516203.1563646-.2342729-.0684639-.4880632-.1953188-.5661327-.2831389-.0879007-.0879007-.2636215-.1953188-.4099937-.2244417-.1562035-.0391153-.2733077-.1563646-.3123425-.312423-.0975868-.3904925-.3611277-.2929056-.8883063.3415298-.5173473.6149987-.7808077.7517009-1.0248473.556366-.0879007-.0779083-.2635571-.1073375-.4392779-.0682222-.4684653.0975869-1.5129912.6149181-1.5129912.7613709 0 .2049244-.4294466.3513772-.6734702.2244417-.292825-.1658896-.2733882.0879007.0390348.4587953.1366216.1660507.2440397.341691.2440397.4003237 0 .136541-.3318598.3024306-.6246849.3024306-.1659701 0-.3319403.1172493-.5174118.341691-.1951576.2439591-.3512965.341691-.5368647.341691-.3513771 0-.5856501.3512965-.5075.7417729.0390347.2147556.0096862.3318598-.1074181.4294466-.1463722.1269355-.2245223.0781501-.74185349-.4684652-.32209304-.3318598-.64428278-.6051675-.72225556-.6051675-.0879007 0-.26362151.1952382-.40999374.4295111-.18548756.3025757-.34161041.4489479-.53686471.4880633-.19523819.0390347-.32209304.1463722-.41976049.3708945-.21475555.5270174-.89799249 1.2201661-1.53250853 1.5618571-.32209304.1658896-.74177294.4781514-.93702724.6832369-.19523818.2048438-.40999373.3708946-.47831259.3708946-.17572081 0-.2830583.3025756-.36112779 1.0250085-.03911532.3708139-.13668607.6539528-.25379029.7808077-.11718482.1268548-.19523819.3415298-.19523819.5466153 0 .3122618-.03911532.3612084-.43927785.556366-.24403967.1171042-.55644655.2146749-.69306815.2146749-.12677428 0-.45871465.1171043-.73202231.2538709-.341691.1658896-.62476541.2343535-.87855571.2244417-.29282504-.029268-.43919727.0195174-.6442022.2244418-.15613897.1367666-.38072574.3026562-.51734734.3711201L0 31.7235769l.34161041.1268549c.5075806.1855681.68330141.1660507.68330141-.058391 0-.2732271.31234241-.2538709.76137089.0487854.19523819.1366216.49782997.2439591.66371957.2439591.19523819 0 .38072574.0879813.53692918.2537097.23419234.2538709.24403967.2538709 1.27863765.1855681l1.04444531-.0683027.40024311.3221736c.39049248.3122618.39049248.3221736.39049248.9662147 0 .3612083.02920354.6736313.05855212.7126661.02920353.029268.34161041-.0487854.68323694-.185407.35145774-.127016.72233615-.2343535.83944038-.2343535.11718481 0 .44902848.185407.74185352.4000819.46854585.3612084.56613271.4004043.90782371.341691.30257567-.0487853.46846527-.0096055.77105702.1562841l.3807258.2244417.4587952-.4391167c.2440397-.2441042.5954813-.6638646.7808883-.9371078.1951576-.3026563.5173473-.624846.8296736-.8297543l.5075806-.3220124.3513772.2049243c.3318597.1951576.3514577.2341924.4197604.839521.0878201.8783945.1366216 1.0052494.5173474 1.2396029.2829938.1756402.4294466.1951576.849191.1463722.6344354-.0780695.9955632.0487854 1.2299167.4295111l.1756403.2929057.3904924-.2538709c.205005-.1366216.4295111-.312423.49783-.400082.0780695-.0977319.2049244-.1172492.3806452-.0782306.1952381.0487854.2440396.1073375.2050049.2733882-.0293486.1071764.0097506.3415299.0976674.5171862.1463723.3026563.1658896.312423.4879827.2244417.4001625-.1071763 1.1517828-.0681577 1.1420966.0684639-.0098312.0487854-.0391153.2343535-.0683027.4099938l-.0586327.312423.6930681-.0196786c.4783126-.0097506.7027543.0196786.7321029.0975869.0292035.0782306-.0293486.127016-.1366861.127016-.4099292.0097506-.4295111.1463722-.0683027.5661327.3513772.4099938.3513772.4099938.1562034.5856501-.2050049.1658896-.4099937.9371078-.4099937 1.5129912 0 .1756402.0779889.61491805.1659702.98589316.1464528.56613271.2244417.71266611.4880632.87839454.3123424.20508551.3220125.22460289.3220125.91759045 0 .46854586-.0584716.83952097-.156139 1.05419594-.1562034.33194037-.1562034.35145774.0683027.58565008.3513772.37097511 1.4349217 1.07371331 2.0303385 1.30806682.2928251.10733748.6929876.33194037.8979925.49782997.2733883.21467497.4587953.28299383.8004057.28299383.2537903 0 .4783932.05855211.5466959.13676665.0584715.07806949.3025757.18540697.527098.23419234.3025756.07806949.4587952.1951576.5953201.41959932l.1854875.31242299.205005-.25370971c.1171042-.1366216.419841-.40999374.6930681-.59540071.4587952-.33194037.5369292-.35145774 1.2201661-.35145774.556366 0 .8101724.04878537 1.0444453.1951576.2829939.16605077.3025113.21483614.2537098.55636596-.0584716.41992165-.2440397.66386462-.6345161.86878897-.3415298.17564023-.3513771.45879522-.0389541.85903833.136686.18540698.2537903.5075806.2929056.8393598.1171042.9078237.1171042.9078237.4977494.65395283.2636215-.1658896.3415298-.28299383.3415298-.51718618 0-.24395908.0586327-.33194037.2734688-.41976048.1463723-.06830274.4391167-.28313888.663639-.4783126.341691-.30265625.4295917-.47831259.5856501-1.0737133.1758014-.68338199.1758014-.73218348.0098312-1.00541057-.2342729-.40999374-.214675-.52709797.1268549-.77121822.2440396-.17564023.2929056-.27322709.2929056-.59525566 0-.36120837.1171042-.49797502.2440397-.28313888.029268.04878537.2927444.09758686.5759639.09758686.5562209 0 .7808883.15613897 1.0150161.70289936.0586327.15597781.1562035.27322709.205005.27322709.0391153 0 .107418.12685485.136686.28313888.0683028.3317792.7907356.81984242 1.3568522.91742928.5075806.07806949.7710571-.1658896 1.2396835-1.13226542.4586341-.96637582.7320223-1.27879882 1.4054925-1.59106065.4587952-.20492434.5466959-.29290562.6638002-.64420219.0682221-.22444172.3513771-.71266611.6246042-1.07387448.2636215-.3610472.6638002-.94685845.8786363-1.29815502l.3903313-.63443545h.5466959c.4783126 0 .556366-.029268.6734702-.23435351.0683834-.12685486.3612084-.40984868.6442828-.61477308.2830583-.2050855.527098-.4099937.527098-.4490284 0-.0487854-.0878201-.2050855-.1855682-.3514578-.1853263-.2538709-.1853263-.2929056-.0389541-.8198424.0877395-.3028174.2148361-.556366.2830583-.556366.0683027 0 .2537903-.1074986.4099937-.2441041.1658896-.1367667.4099938-.2439591.556366-.2439591.1757208 0 .4196799-.1367666.692907-.3906375.2734688-.2439591.5175729-.3903313.6833014-.3903313.2832194 0 .7028993-.2929057.8591189-.6053287.1268549-.2535485.9077431-.5368647 1.0542765-.3903313.0779083.0779083.1951576.0683028.3903313-.0388736.2341924-.1271771.2636215-.1759625.1660508-.2930667-.0586327-.0780695-.0975869-.156139-.0782951-.1758014.0196785-.0193562.5663744-.3511354 1.2105605-.7416279 1.3568522-.8200036 1.4640446-.9078237 1.3568522-1.0933919-.0487854-.0683027-.0684639-.2146749-.0487854-.3122618.0096056-.0975869-.0295903-.2829938-.0879812-.4002431l-.1172493-.2244417-.3317792.1951576c-.2733883.1561389-.5661327.2049243-1.5325086.2441041-1.8644489.0780695-2.3426647-.1367666-2.5184017-1.1224987-.0877395-.4783126-.1463722-.5955618-.4001625-.7419341-.6053286-.3610472-.9663758-.7515397-.8980731-.9761264.0391153-.1073375.0683028-.214675.0781501-.2246029.0097506-.0096056.2342729.0391959.4977494.1172493.263557.0879813.5565271.1268548.654114.0879813.1560584-.0489466.1463722-.068464-.0586327-.2636216-.1562035-.1367666-.2634765-.3708139-.3025757-.6541139l-.0683027-.4391167.4783126.5075806c.5172667.5563659.58565.58565.8492715.3903313.1658896-.1266937.1658896-.1463723.0193562-.4391167-.2537097-.497975-.2146749-.6053286.2635571-.6053286.556366 0 1.0836251-.2928251 1.1225793-.6148375l.0292679-.2539515.3610472.2342729c.1953994.1269355.4881439.2636215.6345161.3025757.1465334.0294292.3319404.175882.4002431.3221736.1951576.3610472.2246029.9371078.0683027 1.1226599-.0780694.0876589-.1854069.429366-.243959.7612903l-.1073375.5954007-.4685459.156139-.4783932.1658896.1854876.2246028c.1660508.2050856.2441041.2246029.6442022.1658896.4197605-.0683027.4589564-.0975868.5565271-.4392778.0487854-.1951576.2047632-.4684008.3415298-.5954007.1367667-.1268549.2441042-.3122618.2441042-.4098487 0-.1074987.1951576-.6539528.4488834-1.2298523.3612084-.8493522.5174924-1.1129092.8785557-1.4154849.2341924-.2050049.4295111-.4295111.4295111-.4879826 0-.0683833.1171043-.3709751.2634765-.6735508.2246029-.4587952.312423-.556366.527098-.556366.2929056-.0098312 1.1519439-.4393584 1.3373509-.6734702.0587133-.0879007.1171042-.3027368.1171042-.4783931 0-.2537903.0585521-.3513772.2929056-.4684653.156139-.0781501.4490285-.1465334.6637196-.1465334.3904925 0 .6053286-.136541.6053286-.3806452 0-.2634764.4195994-.6734702.7416279-.7222555.2538709-.0487854.3516028-.0098312.5856501.2341117l.2735494.2832195.2829939-.263557c.1561389-.1562035.458634-.4783126.6734702-.7321029l.3904924-.4685459-.2343535-.292825c-.1171042-.1659702-.3317792-.4295917-.4490285-.5856501-.1266936-.1660508-.3220124-.2929056-.4295111-.2929056-.1658896 0-.4195993-.0975869-1.3272779-.5465348-.0684639-.0391959.3610472-.6443472.5368647-.7712182.0975868-.0683028.3999208-.1560584.6635584-.2048438.7614515-.1075792 1.6203286-.9274216 1.4643508-1.3959675-.0782306-.2341923-.8980731-.6929876-1.3568522-.7515397-.5370097-.0781339-.8395209-.5174118-.9078237-1.3177368-.0487853-.5368647-.0390347-.5760445.2634765-.859119l.3221736-.2927444-.3317792-.0487854c-1.1324266-.1757208-1.5617765-.1463722-2.2059787.1463722l-.6443473.2830583-.4684008-.4392778c-.3807257-.3610472-.5370097-.4391167-.8396821-.4391167-.2049243 0-.6539528-.1269354-.9954988-.2831389-.3514577-.1562034-.683382-.263557-.7515397-.2342729-.0782306.029268-.2636215-.0878201-.4296722-.2439591l-.2831389-.292825.2343535-.0586327c.1367667-.0390348.312423-.1951576.3904925-.3513772.0879813-.1659702.1951576-.2733077.2343535-.2440397.0487854.0292036.4295111.0975869.8491265.156139.5173474.0683028.839521.1658896.9759814.2929056.1758014.1658091.2636215.1756403.7224168.0878202.2831388-.0487854.7907356-.0976675 1.1224986-.0976675.5466154 0 .6150793-.0195174.7126661-.2341923.1268549-.2733883.6442022-.6931488.9956439-.7907356.1366216-.0390348.3807257-.1463723.5464541-.2440397.2735495-.156139.3807258-.1659702.9273411-.0585521.341691.0683833.8980731.263557 1.2299974.4295111.4781514.2440397.8297542.3416104 1.5812939.4196799.7712182.0879007 1.08348.1757208 1.4739564.4002431.4880632.2733077.5075806.3025757.4587952.6442828-.0294292.1952382-.127016.5660521-.2148361.8198424-.156139.4393585-.156139.4686265.0196785.7321029.1657284.2342729.1852458.4392779.1756402 1.3958064-.0099118.9566896.029123 1.2104799.2244417 1.7570147l.2343535.634516-.2052305.1366861c-.1266937.0780695-.2047632.2341117-.2047632.4001625 0 .2148361.058391.2927445.2927445.3806452.2537097.0878201.3612083.0586327.7808077-.205005l.4784737-.2929056.5856501.1953188c.6442022.2146749.9662147.1855681 1.7083099-.1953188.3023501-.1560584.4195993-.1754952.6440411-.0779083.2148361.0877395.3807257.0682221.8883063-.0975869.3415298-.1172492.6931487-.2734688.7712182-.341691.1756402-.1562034 1.200407-.3417715 1.8838051-.3417715.4002431 0 .5075806-.0487854.7517009-.3220125.2829938-.3025757.2927444-.3319404.2341923-.9956438-.0684639-.7712182.0585521-.9957244.4685459-.8979925.771057.1951576 1.1713001.3025757 1.7179155.4783126l.6246848.2050049.4587952-.4587952c.3807258-.3710396.5074194-.5954813.7027543-1.2006488.1855682-.5954007.2735495-.7517008.4783126-.8198424.5466154-.1854875.712505-.341691.8200036-.7125855.0878201-.3221736.1756402-.4003237.5466154-.5466959.2441041-.0975869.7809688-.205005 1.1909625-.2440397.7222556-.0585521.7515397-.0780695.8100918-.3416104.0683028-.3220931.4684008-.5954007 1.0932307-.7516203.4587952-.1171042.4781515-.0975868.741773.4196799l.1561389.3123424.4490285-.1561389c.4392779-.1366861.4589564-.1366861.6637196.0585521.2052305.2147555.2052305.2147555.0196785.3612083-.2244417.1659702-.2244417.1659702.5758834.5856501.3220124.1562035.4392778.3123424.6637195.8297542l.2733883.634432-.7028994.6441251-.6929875.6442828.2829938.2636215c.156284.1366216.3904925.3513772.527098.4684653.127016.1268548.4099937.341691.6248459.4880632l.4002432.2733077.2927444-.2733077c.4099937-.3806452.7905744-.6051513 1.0249279-.6051513.2439591 0 .7808077-.2635571.7808077-.3806452 0-.0489465.1855682-.1074181.4197605-.1366861 1.0346786-.1269354 1.3373509-.2634764 1.5812939-.7125855.1463722-.2733077.2343535-.3319404.5075806-.3319404.49783 0 .7419341-.165809.6734702-.4489479-.0779083-.3025756.0878201-.6246042.3221736-.6246042.0975869 0 .2537097-.0879813.3610472-.2050049.1562841-.1660508.2538709-.1953188.6053287-.1465334.2343535.029268.5466153.1171848.6832369.2050049.1463722.0780695.4392778.1854876.6443472.2342729.4488835.1171043.6928264-.0195173 1.4542779-.800325l.4783126-.4881438.8686278.0585521c.8004862.0487854.9079849.0391153 1.2885495-.185407.2244417-.1269354.5565271-.2342729.7321834-.2342729.3122619 0 .3122619 0 .3122619-.4783126 0-.312423.0489465-.49783.1366216-.5270174.1171042-.0487854.1758014-.2929056.3223348-1.5325891.0291229-.3025757.1559778-.5661327.3804195-.849191.2636215-.3221736.3319403-.4880632.3319403-.8394404 0-.4001625-.0390347-.4685459-.4488834-.8101724l-.4392778-.3807257v-.6930682c0-.3805645.0487853-.8101724.116943-.9467778.0879813-.205005.0879813-.3319404-.0487853-.6539529-.1951576-.4978299-.1951576-.4880632.0391959-.4880632.1073375 0 .2732271-.1171848.3612083-.2733077.0975869-.1464528.2636215-.3319403.370814-.4295111.2538709-.2049243.2050859-.2342729-.4195993-.2929056-.4784738-.0487854-.5272592-.0292035-.7028994.2148361-.1171042.1659702-.3221736.2927445-.5367035.3317792-.2050856.0391154-.3418522.1270161-.3418522.205005 0 .0879007-.0975869.1464528-.2439591.1464528-.1268549 0-.341691.0487854-.4685458.1073375-.4195994.1855681-2.2157294-.2537903-2.2157294-.5466154 0-.1073375-.1073375-.1463722-.3807257-.1463722-.3317792 0-.3903314.029268-.4490285.263557-.029268.1464529-.2341924.4197605-.4587952.6051675-.214675.1757208-.4976689.49783-.6245237.7028188-.1271772.2147555-.2831389.3806451-.3418522.3806451-.0585521 0-.2244417-.1268548-.3610472-.292825l-.2538709-.2829938-.4195993.7808076c-.3514577.6735508-.4199216.8785557-.4199216 1.3471016 0 .4391973.0391959.6051675.1953187.7417729.2831389.2538709.2537098.7418536-.0585521 1.1128287-.2244417.2732271-.3122618.3025756-.7808076.3025756-.2927445 0-.6638647-.0683833-.8200036-.1464528-.2439591-.1268548-.2927445-.2147555-.2927445-.5173473 0-.5173473-.0975869-.8004056-.2733883-.8004056-.0780694 0-.458634-.0878202-.8395209-.205005-.4684008-.1366216-.7614515-.2830583-.9078237-.4587146-.1951576-.2537903-.214675-.2537903-.3903313-.0879007-.2636215.2245223-.5466154.2050049-.8785557-.0585521-.1463723-.1269355-.3904925-.2635571-.5368648-.3025757-.1463722-.0293486-.3220124-.1562034-.3805645-.2733882l-.1074987-.2049244-.1366216.2342729c-.0683027.1268549-.1367666.5368647-.1367666.9175099-.0096056.9566091-.1071764 1.0737133-.5368647.5954813-.214675-.2440397-.3415299-.4880632-.3415299-.6540334 0-.1951576-.0583909-.2929056-.2148361-.341691-.1268549-.0390348-.2732271-.1366216-.331618-.2145944-.0783758-.1171848-.1463723-.1171848-.312423-.0294292-.1562841.0879007-.3221737.0879007-.6051675.0098312-.49783-.1366216-.6443472-.4099937-.5077418-.9077431.0587133-.2050049.0780695-.3612083.0587133-.3612083-.1465334 0-.624846.322093-.9078237.614918-.2538709.2733883-.4295111.3612084-.8102368.4099938-.400082.0586327-.5856501.1562034-1.0052494.5368647-.4296723.3904119-.6150793.4880632-1.2202467.6246848-.7809689.1757208-1.024928.1854876-1.6985593.0976675-.4098487-.0586327-.4586341-.0878202-.5464542-.4197605-.0487854-.1952382-.0975869-.5075806-.0975869-.7028188 0-.4001625.1268549-.478232.8003251-.478232.3317792 0 .3805646-.0391153.5466153-.4197605.2246029-.4879826.1562841-.6638002-.3807257-.9761264-.4586341-.2634765-.6734702-.1756403-.6734702.2733076 0 .1854876-.0487854.3416104-.1073375.3416104-.2050855 0-.7614515-.4001625-.8200036-.5855695-.029268-.0976674-.214675-.3221736-.4099937-.4880632l-.341691-.3025757-.1852458.3025757c-.1367667.2244417-.2343535.2928251-.3711202.2440397-.116943-.0293486-.2049243 0-.2340312.0878201-.0782306.2147555-.5467765.0390347-.898073-.3318598-.1562841-.1659702-.312423-.2929056-.3612084-.2929056-.0390347 0-.0780695.341691-.0780695.7613709 0 .7321029-.0097506.7712182-.2929056.9761264-.3317792.2537903-.3805646.2537903-.6246848.0683028-.185407-.1464528-.185407-.1464528.029268-.3806452l.2148361-.2245223-.3514577-.3123424c-.2244418-.1951576-.4488835-.3025757-.6344355-.3025757-.2636215 0-.2929056.0292036-.2929056.2928251 0 .1659702.0780695.5270174.1756402.8101724.2148361.6442022.1756402.8784751-.185407 1.1908175-.3610472.3026562-.7320223.3221736-.8004862.0487854-.0388736-.1463723-.1366216-.1951576-.3512966-.1951576-.2831388 0-.3026562.0195979-.3026562.3416104 0 .7418535-.3904925 1.0933112-.8980731.819923-.1951576-.1074181-.1951576-.1562035-.1364604-1.2396029.0388736-.6149987.1071763-1.2006488.1658896-1.2983162.0487853-.0975869.0878201-.3122618.0878201-.478232 0-.4099938-.2537097-.4880632-.5173474-.1659702-.2831388.3221736-.5661327.4587952-.9860543.4587952-.3220125 0-.3511354.019598-.3511354.2928251 0 .2440396-.0391959.292825-.2343535.292825-.1367667 0-.2733883-.0390347-.3026563-.0976674-.0878201-.1463723-.341691-1.6690496-.341691-2.0790433 0-.3904925-.1268548-.4685459-.2829938-.1757208-.1463722.263557-.9566091.6442022-1.1127481.5174118-.0587132-.048866-.2831388-.1464528-.487902-.1952382-.3418522-.0975869-.3612084-.0879007-.4199217.1268548-.029268.1366861-.2537097.3611278-.5368647.5368648-.2634764.1756402-.5661327.4587146-.6832369.6442827-.1756402.2829939-.2538709.3317792-.4685459.2928251-.1366216-.029268-.4392778-.0781501-.6638646-.1074181l-.4195993-.0683027v-.5075806c0-.4783126.0390347-.546696.6442022-1.3275036.683382-.8589578.8102368-1.1811314.8198424-2.0303385C61.73891.6833489 61.6610017.6442497 61.0753516.89804Z" fill="#FFF" fill-rule="nonzero"/></svg>