<svg xmlns="http://www.w3.org/2000/svg" width="100" height="100"><path d="M27 .3v.3l-.1.6-.1.8-.1.9-.2 1-.1 1-.1 1.2-.2 1-.1 1.2-.2 1v.9l-.2.7v1l-.1.1-.1.7V13l-.4.3-.3.3-.2.5-.2.6-.3.7-.5.2h-1l-.3-.2-.2-.3-.2-.2v-.2l-.3-.7v-.2l-.1-.2-.2-.1v-.1h-.6l-.4.1h-.5l-.1-.2-.1-.1h-.1l-.7-.4h-.5l-.8.2-.4.2-.5.1-.1.1-.1.1v.2l-.1.2V14.5l-.1.1-.3.2v.9l.2.4.4.8v.5l-.3.4v.2l-.2.9v.8l.3 1.2v.3l-.1.3v.7l-.4.7.1.7.2.8.3 1v2.9l-.2.7H15.8l-.2.1H15.3v.4l.2.3v.4l-.4.3v3l.2.1.2.1v.3l.2.2v1l.3.2.4.1.6 2h.1v1l.2.1.1.2v.4l.2.2-.1.2-.1.2v.4l.1.2h.3l.1.1.1.2.3.2v.1l.2.3 1 1h.3v.2l.2.2.4.3V43.6l-.1.2-.5.3-.5.4-.5.5h-.3l-1.5.8h-.5l-.2.3-.2.3-.2.6-.2.3-.2.2-.3.2-.6.3-.2.2-.1.4v.4l.3.3v.1l-.1.2-.3.1V51h.1v.5l-.2.1v.2l.2.3-.1.2-.2.2-.2.2-.1.4v.5l-.1.1h-.2V54.7h-.1l-.2.3-.3.2-.2.2-.2.3-.6 1h-.3l-.3.1H10.4v.2l.1.3.1.1V57.6l-.2.2-.2.4v.2l.4.6V60.8l-.4.6v.6l.2.6.5.3 1.3.2.4.4.3.6v.5l-.1.2v1.4l-.2.2-.5.3-.2.2-.1.2v.3l-.1.3-.2.2H11l-1.3-.4-.6.3v.2l-.2.4-.2.3-.2.2-.1.1-.4.3-.3.5v.6l-.3.7-.2.1.6.3 5.3 2.8 5.3 2.8 5.3 2.7 5.4 2.7 5.4 2.7 5.4 2.7 5.4 2.7 5.4 2.6.7.4.7.3.6.4.7.3.7.3.7.4.7.3.7.4.3.1.8.2.8.1h.6l.6.1h.6l.6.1h.6l.6.2h1.2l.6.1h.6l.6.1h.5l.6.2H67l.6.1h.6l.6.1h.6l.6.1h.6l.6.1h.5l.6.1h.6l.6.2h1.2l.6.1h.6l.6.1h.6l.6.1h.6l.5.1h.6l.6.1h.6l.6.1h.6l.6.1h.6l.6.1H84.4l.2-2.9.3-2.8.2-3 .2-2.8.3-2.9.2-2.8.2-2.9.3-2.9.2-2.8.2-2.9.3-2.9.2-2.8.2-3 .3-2.8.2-2.9.3-2.8.2-2.9.2-2.9.3-2.8.2-2.9.2-2.9.3-2.8.2-2.9.2-2.9.3-2.8.2-2.9.2-2.8.3-2.9.2-2.9.3-2.8.2-2.9.2-2.8-2-.2-2-.2-2-.2-2.1-.1-2-.2-2-.2-2.1-.2-2-.2-2-.2-2-.2-2.1-.2-2-.2-2-.2-2.1-.2-2-.2-2-.2-2-.2-2.1-.2-2-.2-2-.3-2.1-.2-2-.2-2-.3-2-.2-2.1-.2-2-.3-2-.2-2-.3L33 1l-2-.3-2-.2-2-.3z" fill="white" fill-rule="evenodd"/></svg>