<svg xmlns="http://www.w3.org/2000/svg" width="100" height="100"><path d="M23.6.3v.2l-.2.8v.1l-.3.4-.3.2.2.2.3.3.3.4V3l-.1.2v.4l.1.1v.6l.1.1-.1.2V5.6l-.1.2-.3.5-.1.5-.3.6-.2.3-.2.3-.1.1v.1l-.1.2V8.7l.1.4v.4l-.8 1.3-.4.4-.1.2h.1l.2-.2.4-.5.4.1h.1l-.1.2-.2.1H21.6l-.2.1-.2.3-.1.1-.1.4-.1.1h-.2v-.4l-.2.2-.2.2-.1.2v.1l-.1.1-.3.4-.1.1-.2.3v.2l-.1.1v.2l-.2.1v1.3l-.1.5V16h.2l.7 1.1.4.4v.1l.3.5v.4l.2.1.2.3.7 1.7v1h.2v.5l-.1.7v.6h-.1l-.1.3-.2.4-.2.6-.2.3v.7l.1.3v.7h.1l.2.8-.1.4v.6l-.2.1h-.1l-.1.2v.6l.5.7.3.4V30.8l.2.1.2.3.2.3 1 1.9.1.3.8.6.2.3v.6l.2.2-.1.5v.1l.1-.2.4.4v.4l.2.4.3.6.2.4v.5-.2l-.2-.2-.1-.3v-.4l-.4-.5v-.1.8l-.4.9-.3.3-.1.1.2.1h.1l.1-.2h.1v-.1h.2v-.1l-.1-.2h.1l.1-.1.1.3.2.2.4.3.1.2v.4h.2l.1.2h.1l.1.4h.2V40l.4.5.2.3.2.2v.1l.2.1.2.1H28v-.4H28l.1-.2v.2h.2V40.6l-.2-.2-.1-.2h.1V40l.2-.1h.2v-.2l-.2-.1v-1h.7l.2-.3.7.6.1.2v.2h.2l.2.1.3.3h.4l.3-.2.1-.1.1-.2.1-.1h.5v.2l-.2.2.3.2.4.1v.1h-.1v.1H34l.2-.2.3-.3v.2l-.1.2h-.1l-.2.2H33.7V40.4h.5l.1-.1v-.1l.2-.2h.6l.1.1.5.6.1.1.1.2.1.2h-.1l-.1-.2-.1-.1v-.2h-.2l-.2-.1-.2-.3V40h-.6v.2h-.1v.1H34v.2l.2.1H34l-.3-.2-.9-.2-.3-.2-1-.3h-.1l-.4.1H30.7l-.2-.3H30l-.5.2h-.4l-.1.2-.1.1H28.7l.1.5.3.1.2.3v.4l-.2.4v.2h.1l.1.1.4.3h.1l-.3.1.1.1v.2H30v.2l.1.4.1 1.1v.2l.1.2h.2l.1.1V45.4h.2l-.1.2h-.4v-.2l-.2-.1V44.9h-.2v-.1l-.1-.1h-.3V44.4l-.1-.1h-.1V44h-.3l-.2-.2v-.1h-.2v-.1l-.1-.1V43.1l.1-.7h.1l.1-.1h-.1v-.8H27.7l-.2.3v1.2l-.2.2-.2.2v.7l.1.1h.2V45.3l.2.1v.7l-.1.4-.2.3v.7l.2.3v.1l.1.2v.1l.5.5.3.6.2.3.5.5h.1l.2.1h.5v.1H30.7l.2.1.1.3.3 1 .1.2-.2.6h.2v.2H31l-.2.5-.1.1-.1.2-.2.1h-.2l-.2-.2h-.2l-.2.1-.2.4h.1l.1.1h.1V54.3h-.1V56.6l.1.1.1.1v.2l.1.2.3.2.6.6.2.3.3.7V59.5h.2l.2.1.1.1.1.1v.2l.1.1V61l.1.2.2.3.2.3v.1l.3.2v.7l.2.6h.2l.4.4h.2l.2.4.2.5.2.3.1.4.2.2.2.2.5.2.2.1V66.3l.1.2v.2l.1.2v.2h-.2v-.2l-.3.5v.6l.1.2.5.3.1.2h.5l.2.2.2.2v1l-.2.4-.3.5-.1.2v.1l.2.3v.1l.1.1V72.1l-.2.4-.1.2v.1l.1.2v.5l-.1.1-.1.1-.1.2-.1.3h-.1V74.6l.3.1.2.1h.2l.2.3.2.4v.4H38.3l1.1.2h.4l.3.3h.4l.5.2.7.5h.6l.1.1.2.2.1.1h.4v-.1h.8l.2.1.1.2.5.3.2.2.8 1H46v.1h.2v.8l.1.1v.2l.2.1.3.4.2.2h.2-.2v-.1h.2l.6.6.8.3.3.1.3.2.1.2h.2l.2-.1H50.8l.1.1h.5l.2.2.2.3.2.5.1.5.1.4V84.8l-.1.1-.2.1v.2l.1.2h.1l.1.1H52.5v.2h.2v.1h.2l.1-.1.1-.3h.2l.1-.1.2.2h.5l.2.1.9 1.3.2.2.9.7.3.3.2.5.2.1.3.3.1.1.4.6.7.6.8 1.8.3 1 .1.4V93.8l.1 1v.2l-.1.1-.1.1-.1.1v.2l.1.4V96.2l-.2.4v.1l.1.2v.1l.2-.4h.4l.2.2h.1l.1.3.1.2v.2h-.2v-.1l-.1-.2V97l-.1-.1v-.1l-.2-.1h-.2v.1h.2l.1.2.1.3.1.3v.7l.6.1h1.2l.6.1h1.2l.6.1h.6l.5.1h1.2l.6.1h1.2l.6.1h1.2l.6.1h1.2l.6.1h1.7l.6.1h1.2l.6.1H78.7l.6.1h.3l.4-.3.8.3h.4V99l.1-.2v-.2h.2l.3-.2.1-.1V97l-.1-.3-.3-.2-.7-.2-.3-.1-.2-.4v-.3l.3-.4v-1.1l-.2-.3v-.1l.1-.3h.1V93l-.1-.2v-.1h.7l.1-.1.4-.5v-.3h.2l.2-.2v-.1h.1V91h.1V91l.1-.1v-.5h.2l.1-.2V89.6l.1-.1-.1-.2v-.5l.2-.2v-.4h-.1v-.4l.2-.1.3-.2h.2l.1-.2.1-.2.1-.4.2-.1v-.2h.4l.9-.5h.1l.3-.3.3-.2.3-.2v-.4l-.2-.2v-.1l-.1-.1-.1-.1-.6-.6-.1-.1-.2-.2v-.1H84.6V83l-.1-.1V82.7h.1v-.4l-.1-.1-.1-.1-.1-.2v-.4l-.4-1.1-.2-.1-.1-.1-.1-.2V79.4l-.1-.1h-.1l-.2-.1v-1.3L82 76.3l-1.3-1.5-1.3-1.6-1.2-1.6-1-1.3-1.1-1.4-1-1.4-1.1-1.3-1-1.4-1.1-1.4-1-1.3-1.1-1.4-1.2-1.5-1.2-1.5-1.2-1.5-1.2-1.5-1.2-1.6-1.2-1.5-1.1-1.5-1.2-1.5-1.5-1.8-1.5-1.9-1.5-1.8-1.5-1.8-1.4-1.8-1.5-1.9-1.5-1.8-1.4-1.8v-.2l.1-.5.3-1.7.3-1.7.3-1.7.3-1.7.4-1.7.3-1.7.3-1.7.3-1.7.3-1.7.3-1.7.3-1.7.3-1.7.3-1.7.3-1.7.4-1.7.3-1.7-1.9-.3-1.9-.4-1.8-.3-1.9-.4-1.8-.3-1.9-.4-1.9-.4-1.8-.3-1.9-.4-1.8-.4-1.9-.4-1.8-.4-1.9-.4-1.8-.4-1.9-.4-1.8-.4h-.3v.2zM28.4 41v.1-.1zm.3.5.1.2V41.3v.1zm-4.9.2zm13.3 38h-.5v.1H36.9l.2.2h.5v-.1l-.1-.1h-.1v-.1h-.1v-.2h-.1l-.1.1zm3.6.4h-.1v.1l.1.1v.1l.2.1v.2l-.1.2.1.2.3.2H43.5v-.1l.1-.2-.2-.2H43l-.3.2h-.2l-.6-.4H42l-.4-.1h-.1L41 80h-.2zm-2.8.1.2.2.1.2.1.3v.2h.1l.1.2.2.2h.2v-.1h.4l.5-.1.1-.1V81l.2-.3h-.4v-.6l-.2.1H38zm6.4 1.2h.2l.1.1h.1-.1l-.1-.1h-.2zm2.3 5.5h-.1v.1h.2v-.1zm3.5.8v.2h.2l.2.2h.1l.2.1v1l.2.1h.6l.3.2.1.1h.1v-.2l-.3-.7v-.2l-.7-.3H51l-.5-.5h-.2l-.2-.1v.1zm-8 .7.2.2.2.2h.6v-.2l-.3-.2-.2-.2-.1-.1H42v.3zm7.2 3.5.1.3.1.2v.4l.3.5.1.4.2.1.1.2H51l-.3-.3-.2-.1-.2-.5-.3-.3-.2-.2V92h-.1v-.2h-.1l-.1-.1h-.1v.1z" fill="white" fill-rule="evenodd"/></svg>