<svg xmlns="http://www.w3.org/2000/svg" width="100" height="100"><path d="m5.4 15.3-.2 2.1-.2 2.1-.1 2.2-.2 2.1-.2 2.2-.2 2.1-.1 2.2-.2 2.1-.2 2.2-.2 2.1-.2 2.1-.1 2.2L3 43l-.2 2.2-.2 2.1-.1 2.2-.2 2.1-.2 2.2L2 56 2 58.2l-.2 2.2-.2 2.1-.2 2.2-.1 2.1L1 69 .8 71l-.2 2.2-.2 2.1-.1 2.2-.2 2.2-.2 2.1 2.7.2 2.6.2 2.6.2 2.7.2 2.6.2 2.6.2 2.7.2 2.6.2 2.6.2 2.7.2 2.6.1 2.7.2 2.6.1 2.6.2 2.7.1 2.6.2 2.7.1 2.6.2 2.6.1 2.7.1 2.6.2h2.6l2.7.2 2.6.1 2.7.1 2.6.1 2.7.1 2.6.1h2.6l2.7.2h2.6l2.7.1H86l1.7.1h3.5l1.7.1h3.5l1.7.1V80.3l.1-1.6v-6.5l.1-1.6v-4.9l.1-1.6V59.3l.1-1.7V52.8l.1-1.6v-4.9l.1-1.6v-4.9l.1-1.6v-5.4l.1-1V27.5l.1-1V22.1l.1-1.2V18l-1.2-.1h-3.2l-1.6-.1h-3.1l-1.6-.1h-1.6l-1.6-.1h-3.2l-1.6-.1H79l-1.6-.1-1.5-.1h-1.6l-1.6-.1h-2.1l-2.1-.2h-2.1l-2.1-.1-2.1-.1-2.1-.1-2.1-.1-2-.1-2.2-.1-2-.1-2.2-.1-2-.1-2.2-.2h-2l-2.2-.2-2-.1-2.1-.1-2.1-.2h-2.1l-2.1-.2-2.1-.2-2.1-.1-2.1-.1-2.1-.2-2.1-.1-2-.2-2.2-.2-2-.1-2.2-.2-2-.1-2.2-.2-2-.2z" fill="white" fill-rule="evenodd"/></svg>