<svg xmlns="http://www.w3.org/2000/svg" width="100" height="100"><path d="m83.3 4.5-7.8 1.9-7.9 1.8-7.8 1.9-7.9 1.8-2.6.6-.9.8H48l-.7.1h-1.4L38.6 15l.1 1.6-2.2.8-.5-1.7-3 .5-3.4.7-3.6.7-6.5 1.4-6.5 1.3-6.5 1.4L0 23.2l.5 3.2.6 3.2.6 3.2.5 3.2.6 3.3.6 3.2.5 3.3.6 3.2.6 3.2.6 3.2.6 3.3.5 3.2.6 3.2.6 3.3.5 3.2L9 75l.2 1.3 1.4 1.5 1 1 1 1 1.1 1-.7.8-2.2 2.2-2.7 2.8L5.6 89l-2 2-.6.7.4.4 1.7 1.7L7 95.5l.3.2h.3l.1.1.2.2.5.6.3.4 1-1 .6-.4.2-.1.1-.3 1.4.6 1-.4.8-.9.7-1.2.5.5.7-2 1 .2.5-.2 1.7-1.7.6-.5 2-2.2.4-.2.2-.8.9-.8 1-.6.6-.2.4-.3.4-.8.4-.3h.5l.9.2h.5l.2-.4.5-1.1.2-.3h.1V81l.2-.3h.1l.2.2.3.2h.2l1.5-1.8.4-.3.7.3.3.4.5.2.9-.4.6-.5.2-.3.1-.5.4-.8.3-.6 1-.7.5-.7.4-.5 1.5-.5.7-.3.4-.7.8-2.2 1.6-2.4v-.3l.3-.8.4-.6.3.2.5 1.6.6.7.7.1 3.2-1 .6.2h.4l.7-.8.5-.3 2-.7h.8l.6.1.5.3.6.1.7-.1.4-.4.3-.6.3-.6 3-1.4H61l2.5.5.4-.6h.5l.2.2.1.1h.3l.3.3.5-1 .9-1 1-.9 1-.4 2.5.3 1.2-.2.7-1.2H73l-.6-.3.1-1.8-.8-1-1-.6-1-1 1-.1 1 .3.6.4.5.7.1.6V59l.2.5.5.1.8.2.4.2 2 .3 2.7-2.7 1.6.6-.1-2 1.4-.2 2 .2 1.3-.2.3-1-.1-1.6.5-.6 3.1 1.7 3-2.7.4-.2 3.5-1h.7l.8.2.6.3.2.4-.8.3v.5l1.8-.7v-1.4l-.5-3.6.1-1 .2-.7.6-.3-.8-4.3-.6-2.9-.5-2-1-4-1.2-4-1-3.9-1-4-1.1-3.9-1-4-1.1-3.9-1-3.9-.3-.7z" fill="white" fill-rule="evenodd"/></svg>