<svg xmlns="http://www.w3.org/2000/svg" width="100" height="100"><path d="M30.4.2 28 1l-1.2.4-1.6 1-1 .7-1 1-.8 1.2-.8 2.5-.8 2.2L20 12v.2h-.5l1.4 5 1.4 5.2 1.3 5 1.4 5.1 1.4 5 1.4 5.1 1.4 5.1 1.4 5L32 58l1.4 5 1.4 5.1 1.3 5 1.4 5.2 1.4 5 1.4 5.1 1.4 5 .9 3.4 1 3.2 4.3-1 4.4-1 4.3-.9 4.3-1 4.4-1 4.3-.9 4.3-1 3-.7 1.4-.3-.2-.5.5-.1h.8l.3.2.8-.1v-1.8l-.8-1.7-.9-1.6-.7-1.7-.3-3-.2-.6-.5-.8-.4.2v.5l.2.6-.3 1-.8 1.6-.4.2-.6-.5-.6-.6-.4-.3-1.5.4-1.8 2h-1l.3-.2.2-.4.2-.4.1-.6-1 .2.6-1.4 3.6-1.9 1-1.5-1 .3-.8-.1-.8-.4-.7-.4.1-.2h.2v-.2H73L71.4 76v-.5L74 75l1 .9 1 3.2.1-1-.1-1.7-2.4-7.4-.6-.7h-1l-1.5.5h-2.3l-1.8-1-3.7-3.3-3.6-1.7-.6-.6-.4-1.8-.5-1.3-.6-1-2.5-3.4-1.2-1-1.7-.7-.4-.8v-1.7l-.4-.6-.6-1-.4-.6-.5-1.5-.5-4.6-.6-1.7-.8-1.3-1.8-2.6-2-1.7-.6-.2-1 .2h-.3l-.2-.5-3.2-4-1-1-1-.5-1.2-1-.8-1.4v-1.6l.6-1.4V22l-.2-1.3-.9-1-.6-.6-2-1.2-.2-.6v-.8l.2-.8V15l.2-.5 1.8-1.2.2-.3 1.8-3.7.5-1.4V5l.5-1 1.6-1.7.4-.7v-.1L37 .8 35.2.2 33.1 0z" fill="white" fill-rule="evenodd"/></svg>