<svg xmlns="http://www.w3.org/2000/svg" width="100" height="100"><path d="M66.9 12h-.1l-.1.1h-.2l-.1.1h-.1v.5h-.4l-.1.1V13.1l-.1.2V14.8l.1.2h.1l.3.4v.1l.1.1V18.4l-.4.2h-.3l-.6.1H64.7l-.1-.2-.3-.4V17.2l-.1-.1-.1-.1-.3-.3-.1-.1v-.4h-1.5l-.7.2H60l-1 .2h-1l-1 .2h-1.2l-1.2.2h-1.3l-1.3.2h-1.3l-1.3.2-1.3.1-1.4.1-1.3.1-1.3.1-1.2.1-1.2.1h-1.2l-1.2.2h-1l-1 .1h-1l-.7.1h-.7l-.6.1h-.9l-.2.1h-.5l-.6-.4-.3-.9-.1-.6-.2-.3-.2-.3-.2-.5-.1-.1-.3-.2-.1-.2-1.8.2-1.9.3-1.8.2-1.9.2-1.8.3-1.9.2-1.9.3-1.8.2-1.9.2-1.8.3-1.9.2-1.8.2-1.9.2-1.8.2-2 .3-1.8.2H.3V19.7l-.2.6v.4l.1.1.1.2.2.1.6.5.1.1.3.4.2.3h.2l1 .5v.1H3v1.2l-.2.4v.4l.3.7h.3v.1h.4l.2.1v.2l.1.2H4l-.3.2-.2.2-.3.4v.1l.2.1V27.6l-.2.1h-.4l-.1.2H3l-.4.2h-.2v.1l-.1.1-.1.1h-.1v.2l.1-.1.2-.1h.1l.2-.1 1.7-.6.2-.1v-.3h.4v-.8l.2-.1h.3l.2-.2V26H6l.3-.5v-.2l-.1-.2-.3-.3v-.2l-.1-.4v-.2H6.1v.2h.4V24.5h.2l.1.3.1.2.1.2v.5h.2l.1-.1V25l.2-.4.1-.7v-.5l.2.1.2.3.1.2.2-.2.1.1-.4.3-.1.2V24.7H8.2v.1l.2.2H8.7l.3.1.2.1.2.2v.1h-.2l-.2-.1h-.2l-.7.7H8l-.6.1-.7.3-.4.2H6v.1L6 27l.6-.1 1.1-.5 1.8-.5h.7l.3-.2.2-.1h.3l1-.2h.9V25h.5l.1-.3H13.8l.1-.1.1-.1.1-.1v-.6.1l.2.2.1-.2h.1l.1-.1h.3l-.2.3v.3l.2.1h.2l.1-.1.1-.2h.2l.2-.1.5-.2h1l.1-.3.2.4h.4l.3-.2V24.1l-.1.1v.2l.5.3v.1l.1.1V25.2l-.3-.1h-.1l-.6-.2-.4-.2h-.5v.1h.4V25.2h-.8v-.2l-.1-.2h-.1v.2l-.1.2v.1l-.2.1H14l.3.3h1.4l2.1.3 1.6.2 1.4.6 1 .3 1.6 1h.3l-.1-.2h.2v-.2l-.2-.1-.2-.1-.1-.2.1-.3h-.1l-.2-.2-.1-.1h-.5l-.1.1h-.2l-.2-.1v-.4l.2-.2h.2l.4-.1v-.2l.2-.2.2.2.1.2.2.2v.3h.2V26h.2l.2-.2h.1l.2-.1v.2l.2-.2.2-.5.1-.2h.2l.1.2.2.3H25l-.4.7-.3-.1h-.2l-.4.7-.2.2.1.1.1.1h.1l.5.2.2.2h.5l.2.2h.2v-.2h.5l.1-.1h.3l-.2.2v.2H26.5v.2l.1.4.2.2.1.1.1-.1.1-.4h.1l.1.1H27.6l.2.2h-.2l-.2.1v.1l-.2.2-.4-.2-.5-.2-.2-.3-.3-.1-.7-.2V28h-.9l.1.1.7.5h.2l1.6 1.1h-.5l-.3-.3-.2-.2v.2h.1v.1l.5.3 1.4.5.2.1.2.2.2.2.1.3.2.1.4.5.1.3.1 1 .1.1v.2l-.2.1-.2.1h-.1l-.4-.5-.2-.2-.1-.3V32l-.2-1V31l-.2.3.2.7.3 1.1.2.2.2.2h.3l.4-.2h.8l1.3-.7h.5l1-.1v-.1l.3-.4h.2l.2-.5h.1l.2-.2.2-.1.1-.1h.2l-.3.7v.3h.2l.2-.2.1-.1.2-.1.2-.1.3-.3h.1l.3-.2h.2l.5-.7.3-.3.6-.3.4-.4.6-.5.1.1h.2l.2-.1.3-.1h.9v.4l.2-.3.1-.3-.1-.3-.4-.1H39V27.9h-.2v-.2h.3l.2.1h.4l.3.2h.2l-.2-.3-.1-.1-.1.1h-.1v-.2l-.1-.2v-.1h.2V27l.4-.3h.5v-.1l.1-.1v-.2l.2-.1h.4v-.2H41.8l.1.1.1.2h.2l.2-.2.9-.2.3-.2h.2l1 .6 1.2.5.6.1h.2l.3.2.2.1h.4l.5.4.2.1.1.2.5.4.2.2v.1h.1l.2.1v.2l.1.3v.1l.2.2.2.3.2.2.3.1.4.1.2.2h.2l.2.1h.5l.1.2.1.3V32l.1.2.3.3H52.8l.7.6.4.2h.3l.2.1.3.2.4.4.3.4v.3l.1.1v.1l.2.1.2.1h.4l.2.1.1.2.2.2v.4H57.2v.2l.1.2h.4l.3-.1h.1l.4-.2H58.7l.3.1h.3l.2-.2.2.2h.2l.2-.2v.5l.2.1.2.1-.2.2.2.2.5.3v.8l.2.1h.2v.5l.6.5.1.1h.4l.2.2V40.6l.2.4-.3-.3-.2-.1-.2.2.1.1.3.3v.2H63v.1l.1.5v.1l.1.1V43.1l.1 1.2v1.3l-.1.5v.1l-.1.3-.3 1.2h.1v-.1l.1.1v.2l-.2.5v.5l-.2.2h-.1V49.7l.1.4.1.2.2.1-.1.2v1.8l-.3 1.1-.1-.2V53l.1-.2v.1l-.2.2v.8l.2.3v.2l.2.3 1 .6.1.4.1.3.2.2.1.3h.2v-.2L64 56l-.2-.4-.2-.2-.8-.7-.2-.2v-.2l.3.2.5.3.3.2.3.3h.4v.4l.1.1v.1h.4l.2-.1v-1.3l.2-.3V53.8l-.1-.2v-.2l.3-.3h-.9l-.5-.2-.5-.2.2-.2.5-.3.1-.2-.4.1H64V51.4l-.1-.2.5.3v-.1h.1l.2.1.4.2-.3.2v.1h.8l.2.1.1.3v.7l.1.3.2.3h.6V53.4l-.1-.2-.1-.5v-.4l.3-.2h.2l.2.1.2.6.3.5.1.3v.2l-.4.5v.2l-.3.3-.2.5h-.2V55.8l-.1.1-.3.4-.1.3v.3l-.1.2-.3.2.1.2v.2l.3-.1v.1l-.2.2-.4.1-.1.2h.4l.2.1-.3.1-.3-.1h-.3l-.2.2h.1v.1H65.6v.4h-.2l-.4-.2-.2-.1-.2-.5h-.1v.3l.4.5.2.2H65.6l.6.3.2.1.2.2.2.6.4.5v.3H67L67 61v.3l.2.2.2.2.2.3h.1v-.2h.1l.1.2.1.2v.2-.1l-.2-.1.1.3.4.5.2.4 1.5 2v.3h.2l.2.1-.1-.2-.2-.3-.1-.2.4.3.5 1.1.4.2h.5l.1.2h.2v-.1h.1l.2.1.2-.1v-.1h.2v.4h.2v-.5l-.2-.5-.3-.5h-.1v-.2L72 65h-.4l-.4-.5-.2-.2h.2l.2.1.3.4h.2l.1-.1h.2v.2l.2.2h.2V65h.2l.2-.1v-.3h.5l.2-.1.4-.2.3-.3.2-.1-.1.4v.1l-.2.1-.2.1-.6.5-.2.2v.2l.3.1.2.1v.1l.2.3v2.3l.1.2.3.4v.2l.1.4V69.9l.1.3.3.1h.1l.2-.1.2-.2v.2h.1l.3-.2.1-.1.2-1.1.1-.3.3-.5.2-.2.2-.1h.3l.2-.3.2-.1V67.6l-.2.1v.1H77.1l-.1.2v.1l-.5.6-.1.2.1.4-.2.4-.2.3-.3.3-.1.1h-.4v.5h.4l.7.2h.5v-.6.1l.4.4v.2l.2.3.2.8h-.2v.2l.5.6v.6l.3 1 .4 1h.1V75l.4.9.2.3.4.2V76.8l.1.2H80.7V77.2l-.1.2H80.3l-.1-.1h-.4l.2.4v.1l.2.1h.2v-.1l.1-.2h.1l.2.1H81v-.2l.1-.2h.2l.2.2h.2v.2h.1l.2-.2H82.4l.3.1.1.2h.2l.1-.2h.2l.2.3h.1l.2.1h.5l.4.2.3.2.3.3v.1l-.2.3v.2l.2.1.2.3v.1H86.2v.2l.1.2h.1v.2l.4.5.2.6h.1l.1.1.3-.1h.1V82l-.2.2.2.3.4.3.3.5v.2l.2.2v.2h.1l.7.4h.5l.3.2H90.6l.9.7v.5l-.2.2-.2.1h-.5v-.1l.1-.1h.1v-.1l-1-.3h-.2l-.3-.4-.1-.1-.2-.1H88.7v-.3l-.1.2-.2.5v1l.3.4.2.4.7.4h.2l.6-.2.4-.1.4-.2h.5l.2-.2.2-.3h.1l.3-.3.2.1h.4v.2h.2v-.1h.1l.1.1h.1v-.1h.8l.2-.3h.4v-.4l.4-.3v.1h.1l.1-.1v-.3l.1-.3h.2l.5-.2h.2v.2h-.1v.2h.1l.1.1v.1l.2-.2h.3l.2.2.1.2V85l-.2-.2-.2-.1h-.3l.1-.2.2-.1h.2v.1h.2l.4.4h.2l-.2-.2-.2-.2v-.4l.1-.2v-.4l.5-.7.4-.5V82h-.1l-.2-.1-.1-.1v-.3l.1-.2h-.1l-.1-.2-.1-.2v-.5l.2-.4V80l-.1-.7V79l.3-.5.1-.6v-.4l.1-.2h.2l.2-.1.1-.3v-1.5l.3-.6h.1l.1.1v.4l.1.6.1.6-.4-4-.3-.3.2-.3v-2.4l-.1-.3v-.5l-.1-.4v-.7l-.2-1.8h.2v-.5l-.4-1.7-.1-.4-.2-.2.1-.3v-.4l-.6-1.2V61h-.2l-.3-.1h-.2v-.1l.1-.1h.2l.1-.1v-.4l-.3-.4-.4-.7-.4-.5v-.2l-.2-.2-.3-.1-.2-.2-.5-.4-.4.1h-.3l-.4-.4h-.1l.1-.1h.2l.1.1.3.1h.5l.2.2.1.2v-.2l-2.5-4-.8-2-5.4-7.7-.1-.4-.5-.6-.4-.8-.1-.2-.5-1.3-.2-.5v-.3l-.6-.6.1-.1v-.1l-.2-.3-.4-1.2h.2l.5.4h.5l.1.3v.5h-.2V39.4l.3.1h1.3l-.1-.3h.7v.1l.2.2.2.6v2.3l.4 2.3.2.5.6 1 .9 1.2.2.5.4.3.1.2.4.5v-.6l-1.3-1.3-.4-.5v-.2L89 46l-.5-1.3-.2-.7v-.6l-.3-1.3.2-.1v-.4h.2l.2-.3V41l-.2-.2-.4-.9-1-1-.7-.9-1-1.2-2-2.3-.2-.2-.1-.3h-.3l-.1-.2v-.3L81 31.7l-1.1-2-1-1.5-.7-.9v-.2l-.2-.3v-.2l-.1-.3-.5-.6-.3-.7-.2-.1v-.2l-.2-.6-.1-.2v-.1l-.2-.1V23.4h-.2v-.5l-.7-1.4-.3-1v-.3l-.4-.4-.1-.3-.7-1.4V17l-.2-.2-.1-.1-.1-.5V16l-.2-.1-.2-.1v-.1l-.2-.2v-.1l-.4-.2-.2-.1-.2-.2V14h.2l.1.2v.1l.1.3v.3l.2.1.2.2v-.4l-.2-1.2V13h-.1v-.1l-.1-.1H72.3l-.1.1H72v-.2H71.7l-.4.2h-.7l-.2-.1h-1.1l-.1-.2h-.6l-1.2-.3h-.1l-.1-.1-.2-.1z" fill="white" fill-rule="evenodd"/></svg>