<svg xmlns="http://www.w3.org/2000/svg" width="100" height="100"><path d="m45 .2-1.4.3-1.4.2-1.3.2-1.4.3-1.4.2-1.4.2-1.3.2L34 2l-2.8.5-1.4.2-1.3.2-1.4.2-1.4.3-1.4.2-1.6.1L21 4H19.6l-.7.1-2.3.4-2.3.3L12 5l-2.3.3-2.3.3-2.3.3-2.3.3-2.2.3V7l.3.6.2.8.3 1 .4 1.2.4 1.3.5 1.5.5 1.6.5 1.7.5 1.8.6 1.9.6 2 .7 2 .6 2 .6 2 .7 2.1.6 2 .6 2 .6 2 .6 1.9.6 1.8.5 1.7.5 1.6.5 1.5.4 1.3.4 1.2.3 1 .3.8.1.6.2.3v.2l.3.8v.2l.8 1.5V53.8l.1.1.1.2.2.1.4.4.1.1v.4l.2.2.2.3.2.7.3.5v.7l.2.2h.2l.2.2v.3l1.4 1.5.3.4.1.3.2.7.2.3.2.3.2.3.1.3v-.1.2-.1.5l-.1.3.1.2-.3.5v.4l.5.3 1 .4.2.1.1.3h.1l.2.2v.1l-.2.2h-.1l-.2.1.1.3v.2l-.1.2-.2.1H21v.2l.3.2-.2.2-.3.2-.3.1h-.2l-.2.2v.2l-.3.8v.2l.1.5v.3l-.1.4v.5l.2.5v.6l-.1.4-.1.1-.4 1-.3.9v1.3l-.1.5.2.4.8 2.4.2.4.8.8.2.4v.3l.2.6v.1l.3.5v.8l-.1.5-.1.4.3.6-.3.6V87.6l-.2.4v.4l.3.4v1l.1.4.3.2.4.2.6.6.6.9.4 1 .2.2V93.9H24v.5l.4.2.2.1.1.3.3.6.1.1.4.5.2.5.1 1 .5 1.4 1 .8h.2l.6-.1h1.1l.7-.1 1-.1h1.2l1.3-.2H35l1.6-.2 1.7-.1 1.9-.2 2-.1 2-.1 2-.2 2.1-.2 2.2-.2 2.1-.1 2.2-.2 2.2-.2 2-.2 2.2-.1 2-.2 2-.2 2-.1 1.7-.2 1.7-.1 1.5-.2 1.5-.1 1.2-.1 1.1-.1h1l.6-.1.8-.1V96.5l.2.2.5.5.1.2.1.1v.1l.1.1V99l.5.8.1.2h.2l.2.1h.2l.8-.3h.7l.5-.2h.1v-5l-.2-.2-.4-.5-.1-.2-.1-.2-.1-.1V92l-.2-.5V91l.3-.3v-.5l.1-.1H82.4v-.7l.1-.1.1-.1h.2l.1-.1h1l.2.1.3.1 1.8.5H87.1v.1l.3.1.3.1 1 .1h.8l.2.1h1l.6-.3h.5v-1.3l-.2-.2-.3-.3-.1-.2v-.3l-.1-.2-.2-.2-.2-.1V87h.7V87l-.1-.2H91V85.5l.5-.8.2-.4h-1.4v-.2l.9-.3.2-.3v-.4l-.2-.4-.9-.7-.3-.3h.5l.6.4.4.4.3.4h.2v-2.2l-.4.4v.7h-.2l-.5-.5-.6-.1v-.5l.8.3v-.8l-.4-.9v-.3l.2-.3.4-.1.1.2.2 1v.3l.2.1h.4l.4-.3.3-.7.5-1.2.4.1.2-.3V77l-.4-.3-1-.4h-1l-.8-.1-.9-.2-.5-.4.2-.1h.2l.4.1.4.2h2.8l.2-.3-.2-.4-.2-.3-.7-.5-.2-.3v-.3l.1-.2.2-.1.2.3v.2l.1.2.2.2.1.1h.4V73.8l1-2.2.2-.8-.6.2-.6.3-1 1 .2-.4.1-.3v-.2l-.1-.2H92L92 71l-.2-.1.3-.2.3-.2h.8l.3.1.4-.3.4-.6-.3-.3-.5-.3-.3-.3h.8l.3.3.2.2.3.8h.2l.1-.2.2-1.5v-.6l-.1-.5-.3-.2-.3.1-.1.3.3.2v.2l-1.2.3h-.3l.6-.8v-.5l-.7-.3h-.6l-.2-.2-.2-.3.1-.1h.6l.2.2.5.2h.7l1-.1.2-.2.2-.3.4-.9.2-.6V64h-.3l-.5-.2h-1.2l.2-.4.7-.3v-.2l-.4-.2-.2-.2.2-.3h.2l.2.2.2.2v.2h1.4l.3.2h.3l.3-.4.5-.8h-.5l-.3-.3v-.7h.2v-.3l.1-.1.3-.1.1.3.2.1.2.1.8-.8.2-.6-.3-.3h-.8V59h-.8l-.3-.2-.2-.3-.1-.2-.8-.2h-.5l-1 .3h-.2l-.7-.7-.3-.1-.1-.1v-.2h-.1V57l-.4-.7-.1-.1V56l.1-.4v-.1l-.1-.6v-.5l.1-.3v-.3l-.1-.4-.2-.4-.3-.2h-.3L91 51l-.1-.7-.1-.3-.3-.1h-.3l-.1-.3-.1-.2-.1-.2h-.1l-.5-.2H89l-.3-.3-.2-.2h-.1l-.2-.1h-.6l-.4-.1-.4-.2-.3-.2-.2-.4V46.3l-.2-.2-.1-.1H86V44.9l-.2-.4-.2-.2-.2-.4v-.3l-.2-.3-.2-.6-1.3-1.5-.2-.2V39.8l-.2-.3-.2-.5-.3-.3-.3-.1H82l-.3-.1-.6-.5-.9-.3-1.7-.4-.8-.4-.1-.3-.3-.9-.1-.1h-.8l-.3-.3-.4-.4.2-.3v-.2l-.1-.2-.4-.2.3-.2v-.2H75v.2l-.3-.1-.9-.8-.2-.3.3-.2-.3-.5v-.2l.3-.1-.3-.3v-.6l-.3-.4-.9-.4-.4-.3-1-.8-.4-.3-.4-.1-1-.1-.3-.1-.5-.3-.4-.3-.4-.6-.3-.5-.3-.4-.4-1-.6-.4-1-.7-1-.5-.7-.4-.6-.2-.7-.3-.5-.4-.4-.4-.3-.3-.4.1h-.3l-.3-.3-.2-.5-.3-.5-.3-.6-.2-.2-.4-.2-.2-.3-.3-.6-.2-.2-.3-.2-.2-.2h-.5l-.4-.4-.1-.1-.2-.3-.6-1.8-.2-.5-1.3-1.5-.2-.1-.4-.7-.2-.6-.3-.6-.8-.3-1.3.2-.8.1-.7-.2-.3-.3-.4-.5-.4-.2-.5-.4-.7-.3-.2-.3v-.3h-.2L46 9l-.6-.2-1.8-.8-.7-.7v-1l.2-.4.1-.2V4.9l.1-.3.3-.3.2-.2.2-.3.1-.3.2-.8.1-.3.2-.3.6-.6.3-.2.4-.2.2-.2.1-.3.1-.3V0L45 .2zm47.3 84v.7l-.9 1v.7l.2.5.1.2v.2l.1.5.5 1.7h.2V89.1l-.2-.7v-.3l.2-.7V84.6l-.1-.4h-.1z" fill="white" fill-rule="evenodd"/></svg>