<svg width="83" height="101" xmlns="http://www.w3.org/2000/svg"><path d="M58.2727281.2976544c-.4687828.302715-1.8360686 1.8457266-1.8360686 2.0605788 0 .1172036-.1366473.4882423-.3025557.8202981-.595788 1.1816151-1.2598996 2.1093792-2.5489008 3.6035745l-.4591248.5273847-.1561068 1.6601196c-.0880861.9082249-.1758693 1.7188012-.1953289 1.8067279-.0294204.0780454.0390626.4101012.1561069.7323555.1271645.3515951.2345508.9668267.2834149 1.5722568.0389032.5468442.1172036 1.0644911.1855113 1.1426162.0877833.1073863.0681643.2637322-.0977441.712896-.1172036.3124369-.2343914.7030945-.2540103.8690826-.0292611.2051303-.2244305.4785046-.5760256.8301794l-.5274643.5175034v.9083045c0 .5760893-.0390626.9081452-.1072428.9081452-.058825 0-.3224774.0976644-.5861299.2148521-.4002998.1659881-.6054301.3515154-1.0742129.9668267-.4687828.6151678-.576169.8300199-.576169 1.1328147 0 .2538509-.0975847.488322-.2929135.7518948-.1562663.2149318-.3221747.5371861-.3515951.7324353-.0877832.4687828-.4297202.9766281-.6933727 1.0450315-.1172037.0291814-.322334.1854476-.4591407.3417776-.1366473.1562662-.3025556.2831917-.3514357.2831917-.0585221 0-.0975847.1660678-.0975847.3613169 0 .204971-.068483.4589813-.1466082.5566457-.0779817.1073862-.1463053.3515951-.1463053.5370268 0 .2441929-.0782845.4297999-.2736134.6445723-.1562662.1562663-.3319761.4785046-.4002997.712896-.0781252.273454-.3125166.6348506-.6446521.9960878-.7322759.7910371-.7812993.9082248-.6543101 1.5039331.0586815.2735336.1270052.9863659.1464488 1.5918757.039222 1.0546895.0586815 1.1132914.3517385 1.4843301l.3027151.3808402-.6932134 1.2696214c-.6837146 1.2402806-.7033335 1.269462-1.4455703 1.7481419-.6738334.4490204-.8104807.5076223-1.455069.5564863l-.7030945.0586019-.4297999-.4492436c-.4100375-.419839-.4588219-.4492435-.8104808-.3906576-.2049709.0294204-.7422367.0978238-1.2010586.1466082-.459061.0488003-.9374859.1366473-1.0840941.1854476-.4784409.185607-1.1132914 1.4356892-.9472237 1.8751312.0488004.1365676.0779817.3613806.0488004.5077657-.0390626.2930729.0684033.3710387.5175831.3710387.439442 0 .7616963.3613965.7909574.8790434.0293408.3904983-.0292611.5370268-.4882424 1.2401372-.4785046.7422368-.5760893.8398215-1.4257282 1.3380247-1.1230929.6737538-1.9727159.9081452-2.5488212.7029352-.3418573-.1170443-.3809996-.1560272-.3515951-.4198391.0193799-.1757895-.0294204-.3418573-.1270051-.419839-.1270052-.1074659-.1856071-.0976644-.3515154.0584425-.1075456.0977441-.2637322.322334-.3321355.4982032-.1074659.2441929-.2050507.3221746-.4882424.3807765-.2148521.0390625-.459061.0194595-.6152475-.0586019-.6055098-.2733743-2.9784617-.4882423-3.3398583-.2929932-.1660677.0880063-.253851.0684033-.4980439-.1368067-.3223977-.2733743-.6055097-.3416342-.5176468-.1268458.0488003.1464488-.3417777.3614763-.6444927.3614763-.1073862 0-.3417776.1072428-.5371861.2440495-.8984234.60543-1.9921755.8104169-3.1542513.5859864-.3222543-.0586018-.4297999-.1270052-.4687828-.3027947-.0684033-.2636525-.1366473-.2831917-.3515951-.1073862-.0976644.0684033-.1757098.3222543-.1952491.6738334-.0294204.4101809-.1172037.6444289-.3125962.8984233-.2440495.3222543-.3026354.3516588-.7616964.3516588-.4100375 0-.6444926.0877832-1.4745286.5370268-1.2696214.693293-1.5918757.7128322-1.9923348.1172036-.3417776-.5078453-.6347709-.5664472-1.1328147-.2245898-.1952492.1365676-.7030945.4100375-1.1132914.5956285-.6835712.3222543-.8202982.3515951-1.2988028.2929933-.2929932-.0391423-.8690826-.1757896-1.2695417-.3125963-.527305-.165988-.83002-.2244305-1.0742926-.1756461-.1855273.0390626-1.62105708.0976644-3.19331384.1366473-3.22273429.0684033-2.84179847-.0294204-4.03329471.9960877-.29291354.2441929-.73243526.546908-.97654848.6544536-.63469116.2927542-1.09375214.7128323-.97654847.8983436.07812515.1172037.14652849.0879426.41018096-.2149318.17578956-.1951694.48832205-.4101013.7030945-.4882424.21493183-.0683236.54690795-.3123731.7812356-.5760893.73251495-.8106401 1.04495181-.9571845 2.22664655-1.0254285.85936075-.0586018 1.08403033-.0389829 1.27934321.0878629.15618656.0975847.27337429.1172037.37111839.0587612.07804546-.0490234.30271504-.0684033.50768599-.0294204.24411322.0390626.36139657.0194595.36139657-.0586019 0-.0782048.1366473-.0975847.46870311-.0586018 1.33794504.1659881 1.58207422.1757896 1.58207422.068244 0-.2050507.1953288-.1072428.3418573.185607.146385.2929932.146385.3027947-.1465285.5566457-.2050506.1661474-.2733743.2831917-.2050506.351595.0683236.0684034.2538509-.0098015.5859067-.2147883.4004592-.2540104.5273847-.293073.6836509-.2148522.1073862.0586018.7519745.1073862 1.4745924.1073862 1.2500183 0 1.2792794 0 1.3672061-.2343914.1269255-.351595.5859864-.625049 1.3281435-.8006792.6249694-.1368067.6738334-.1368067.7910371.0194596.2147884.2929932.1464488.4199984-.3711184.6836509-.4296405.2147883-.4882423.2831917-.4492435.4784408.0879426.4687828-.117124.5176469-2.1484417.5567254-1.0254285.0194596-1.8945908.0585222-1.9238518.0877832-.0293408.0294205-.0683237.2638119-.0781252.5274643-.0292611.3904983 0 .4882424.1368067.5175035.1464488.0292611.1757099-.0389032.1757099-.3125166 0-.4199187.0879425-.4297202.6347708-.1073862.4003795.2245899.4199187.2245899.7128323.0683237.1563459-.0877833.4102606-.253851.5567254-.3515951.1465284-.1073862.4882423-.204971.7812993-.234232.5175034-.039222.5175034-.039222.6249693.2930729.0586019.1853679.087863.4099578.0488004.507686-.0292611.0879426.0098015.2634931.0976644.4002997.1953288.293073.2051303.9862863.019603 1.3185652-.0684033.1364879-.2539307.4589813-.4004591.7322759-.136727.2638118-.3027151.5273049-.3417777.576169-.1269255.1270052-.3710387-.1073862-.5371064-.4982032-.0781252-.1755665-.2051303-.3221746-.2832555-.3221746-.0781251 0-.2147884-.0975848-.2929135-.2147884-.1270052-.1855273-.1855274-.1953288-.4004592-.0975847-.1366473.0681642-.3710387.1172036-.5273049.1172036-.2441132 0-.2637322.0292611-.2245899.2927542.0390626.2834148.0292611.2932163-.3124369.2932163h-.3614762l.0294204.7518949c.0194596.6055894.0585222.7616963.1757099.7518948.0781251 0 .4101013-.0389032.7324353-.0683236.5566457-.0586816.5957879-.0488641.7909574.2051303.1465285.1853679.2344711.4785843.2832554.9666673.0586019.6153909.0488004.7031742-.1073862.7325946-.1074659.019603-.3222543.4002998-.625049 1.103474l-.4589813 1.0740694.2245899.0784439c.3124368.1073863.4004591.3806968.1074659.3515951-.1172037-.0101203-.4003795.0389032-.6347709.1070834-.2245899.068483-.4297202.1073862-.4492435.088086-.1073862-.1368066-1.1328147-2.0410395-1.1328147-2.1093791 0-.0586815.0878629-.1758692.1952491-.273454.1075456-.0977441.1953288-.2051303.1953288-.2443522 0-.0390626-.2245102-.204971-.4980438-.3805374l-.4980439-.3030338.3320558-.4002998c.6445724-.8007589.6445724-.7714978.185607-.7714978-.3711184 0-.59570827-.1951695-.2246696-.1951695.0879426 0 .2929933-.1172037.4491798-.2540103.2344711-.204971.2637322-.2929136.2149318-.556566-.1073862-.5371065-.302715-.7033336-.7910371-.6935321-.24411317 0-.43944199-.0294205-.43944199-.0779817 0-.2051303-.36131688-.039222-.57616902.2634931-.19532882.2930729-.21485214.3809995-.11720367.6444926.23431171.6740725.04880034.781156-.34177762.1856708-.22466958-.3417776-.24411321-.4199187-.14652849-.6933727.05860183-.1757099.10738623-.341937.10738623-.3806968 0-.0784439-.7812356-.0294204-1.55273344.1070835-.34177762.0586815-.56636752.048864-.64449267-.0094987-.07812515-.0686424-.16606775-.039222-.29291354.0975847-.14652849.1561069-.26373216.1757099-.82037786.1368067-1.05476926-.0880861-1.83598892-.3319762-2.5195601-.7911168-.76177603-.5271456-1.56253494-.7227932-1.94337514-.4687828-.16598806.1073862-.34177762.1368067-.53710644.0975847-.27345398-.0583628-.28325548-.0488641-.19532883.1757099.04880033.1270052.136727.4202215.19532883.6350099.05860183.2147884.31251655.6444927.5468442.9372628.35159506.4202215.51764687.5567254.81056041.6055894.19532882.039222.51758313.1463054.71289601.2441929.19532882.0977441.57616902.2634931.84963893.3612372.27345397.107705.7030945.3711981.96682666.5859865.51750344.4393623.44917979.2638118.94728741 2.5294413.08778322.4101013.19524913.5760256.53710644.8690826.39057796.3417776.43944204.3613965.72263376.2540103.26365247-.0975847.33205581-.088086.49804387.0683236.09766441.1073863.18552732.3123732.19532882.4687828l.0098015.2732946.7812356-.0291017.79095741-.0392219.4785843.3809996c.71283226.5662081 1.04495183 1.1034739 1.10347393 1.7479825.0390626.4199187.0976644.5761691.2929933.7224744.2147884.1760286.2343914.2441929.185607.6837146-.0294205.273454-.1660678.7420934-.3027948 1.0547693-.1269255.302715-.2636524.7224744-.302715.9276047-.0390626.2636525-.2246696.5470673-.63477087.9962471-.31251655.3514357-.77149784.9862863-1.01569074 1.4160065-.43936235.7616963-.44917979.7911168-.44917979 1.6405804 0 .6639522-.04880033.9764847-.19532882 1.2986434-.10738623.2343914-.19532882.5668297-.19532882.7423961 0 .2245899-.05860183.322334-.20505064.3711981-.1366473.0487206-.17578956.1172037-.12700517.2245899.03914227.0977441.0879426.322334.11726742.5175034.02926107.2929136-.00972182.3904983-.18552732.507686-.25393065.1760287-.67391312.9865891-.67391312 1.2991216 0 .1073862-.0878629.2829526-.18552731.371198-.11720367.1073863-.20505064.3708794-.25385097.7028714-.03914226.3711981-.11726742.556566-.2441929.6252084-.10746592.0583628-.2441929.2732946-.30279474.488083-.11712398.3809996-.60543009.9179626-1.15227429 1.2795026l-.23439139.146146.29299323.2149318c.3808402.2636525 1.08395064.5372658 1.42572826.5372658.19532882 0 .28319173.0585222.32233399.2245899.03898289.1270052.10738623.2345508.17570988.2345508.29299323 0 .7910371.576169.93756559 1.083871.10738622.3806967.20505063.536947.34177762.5663675.43944204.0781251.59570828.507686.25393066.6837146-.2343914.1364879-.31251655.7420933-.13672699 1.1618367.16598806.4006185.66411161.8592811 1.08395064.9960878.2343914.088086.31251655.1760286.31251655.3417776 0 .2345508-.16606775.341937-.52738463.341937-.1366473 0-.26357278.088086-.33197612.2343914-.08794259.2049709-.05860183.351595.20505064.9375656.28325548.6150881.35159506.6932133.68357118.7911168.19532883.0485612.36131689.1172036.36131689.1463053 0 .0292611-.08778322.1856708-.20497095.3417776l-.19532882.2834149.19532882.2536916c.11720366.1464488.20497095.3613966.20497095.4785843 0 .1856707.04894376.2147884.42972021.2049709.50784537-.0098015.58598647.0488641.50784537.3711981-.0390626.1564097-.1757896.2831121-.3808402.3613966-.3808402.1368067-.75197452.6248896-.75197452.9862862 0 .2831121.36139657 1.2206776.56636752 1.4648705.1074659.12700521.1953288.14660822.3809199.06832369.3222543-.11720369.3417776-.11720369.2441132.08778322-.0488003.08808603-.1172037.40061852-.1562662.69337269-.0586019.46878279-.0488004.54690794.165988.78129934.3418573.36139657.3906577.83017936.1465285 1.43545008l-.2050506.49820325.419839.56652689c.2246696.30255567.6152475.69337269.8593607.85928106.2441929.17556644.6348506.4785843.869242.67375374.2343914.20513033.4979642.37119807.576169.37119807.0975847 0 .136727.12700517.136727.48808299 0 .43984047.0389829.5374252.3710387.89850302.3320558.35159506.4395217.41042002.9082248.44917978.3418573.02942045.6543101-.00933931.8789638-.10738622.439442-.18536795.5957083-.09758473.8104807.44932322.1464488.38099958.2050506.43936235.5273846.49820324.1952492.02926108.5273847.05836278.7323556.05836278.4297202 0 1.1231726.37119807 1.474672.78129934.2245899.27361335.2735337.28341485 1.4160862.35159506 1.1522743.06848303 1.201218.05882496 1.3378653-.14660817.1171878-.165749.2440336-.20497095.664032-.20497095.4590609 0 .5664472-.0389032.8790434-.34177763.4491001-.41991871.9568658-.47828148 1.1424728-.11720366.2344711.45898129.4980439.65445354.8788841.65445354.5566457 0 .6738334-.07828452.6738334-.43936234 0-.28341485.0488641-.34177763.3906576-.4785843.2148522-.08794259.4785843-.15640968.5664472-.15640968.2636525 0 .5566457-.36139657.849639-1.07406945.1464488-.341937.3418573-.68371462.439442-.75189484.0975847-.06864239.1757896-.23439139.1757896-.37119807 0-.13680667.0878629-.36139657.2148521-.48840174.2343914-.25369159.5858271-.38069676.5858271-.21493182 0 .05882495.1073862 0 .2441929-.12700517.1368067-.12668643.2441929-.33197612.2441929-.46847999 0-.2150912-.0293408-.23439139-.3515951-.16606774-.2636524.04886408-.4004591.01945957-.5370267-.10754561-.0976644-.08778322-.185607-.19516944-.185607-.23439139 0-.03906258.2733743-.12700517.6152475-.19516945.410181-.08808603.7324353-.22458989 1.0058096-.44917979.2440494-.19532882.5762487-.3517385.8106401-.39080107.2147087-.03890321.439442-.11720367.4882423-.17570988.1170443-.14660818.0292611-.54676451-.1270051-.54676451-.0586019-.00980151-.2343914-.16622712-.3807765-.37119807l-.273454-.36139657.2147087-.17570988c.2247493-.17570987.2247493-.17570987.6445724.26381185.2245899.2441929.4980439.44917979.6055895.44917979.1073065 0 .4882423-.2245899.8397418-.50800475.6347708-.507686.7715775-.78115591.5175831-1.03515031-.1659881-.16590837-.0291814-.25369159.1952491-.12668642.1172037.05836277.2638119.10738622.3418573.10738622.1953289 0 .4589813-.79111678.4589813-1.35748429 0-.4202215.0488004-.4982033.7422368-1.2697011.4101013-.4491798.8300997-1.0156907.9276844-1.2598996.2832555-.6443492.4785843-1.6502384.4785843-2.3630548 0-.351595-.0097218-1.0158501-.0097218-1.4942909 0-.5761691.0488003-.9959284.1561865-1.2891607.1172037-.2929135.1464488-.5469079.0975848-.8005995-.0389829-.204971-.0779818-.7031742-.0877833-1.1037927-.0098015-.5565661-.0586018-.8102577-.2245899-1.0740695-.1172674-.1855273-.2441929-.556566-.2734539-.8105604-.0684034-.4297202-.0975848-.4686234-.2929933-.4199187-.1464488.0392219-.2440494.0098015-.2832554-.0877833-.0389829-.1073862-.1954085-.1466081-.5370268-.1466081-.4396014 0-.4785843-.019603-.5273846-.2536916-.0488641-.2834149-.185607-.2736134 1.2304791-.0782845.3809199.0586815.4687828.029261.7812356-.2540104.3809996-.3321355.4492435-.488083.2147884-.488083-.0779817 0-.1463851-.0686424-.1463851-.1466082 0-.0781251.0488004-.1466081.0975848-.1466081.0684033 0 .0586018-.0779818-.0195393-.2147884-.0878629-.1561069-.1366473-.9276047-.1561069-2.5683445-.0391422-2.1093792-.0587612-2.3728723-.2245899-2.6072636-.2540103-.341937-.2343914-.7423962.0488004-1.1623149.1757895-.2540103.2440494-.5175034.2830323-1.0255082.019603-.3708793.1660678-1.0936724.3125963-1.6013744.1464488-.5080047.3124368-1.1034739.3710387-1.3185651.0976644-.3123732.1660677-.4002998.3809995-.4199188.3124369-.0387597.4589016-.3123731.1659881-.3123731-.3125166 0-.5469876-.1662271-.615391-.4491798-.0975847-.3904982-.3514357-.7226337-.5564863-.7226337-.2149318 0-.2441929-.2150912-.0587612-.3809996.0782048-.0586815.3222543-.1758692.5568051-.253851.3710387-.1270051.6444926-.3321355 1.5331941-1.1134348.1854477-.165749.2245899-.2927542.2147884-.7420933-.0098015-.4393624.0294205-.6055895.2441929-.9081452.1366473-.2049709.253851-.4884017.253851-.6252084 0-.2049709.0977441-.3125165.5371861-.5567254.3320558-.1853679.5371065-.3708793.5371065-.4782815 0-.390801-.1270052-.6055894-.4297999-.7031742-.3318965-.1073862-.8397418-.8009182-.8397418-1.1623148 0-.1755664.0390625-.204971.1952491-.1559475.1270052.0390626.1954085.0194596.1954085-.0686424 0-.1561069.4296405-.5856677.7518948-.7518948.1172037-.0583628.4003795-.1073863.6347709-.1073863.253851 0 .5566457-.0779817.7520542-.2049709.273454-.1659084.4296405-.1953288.8300997-.1463054 1.7283636.1951695 1.6991025.1951695 2.1093791-.0782845.2147884-.1368067.3906577-.322334.3906577-.4002998 0-.4982032 1.0448083-1.9630738 1.9823739-2.8027359.4101013-.3615559.4199187-.3615559 1.2890013-.371198.4882424 0 .9279235-.039222.9962471-.0781252.0585222-.0390626.1464488-.1951694.1757099-.3417776.0390626-.1466082.1659084-.3221746.283112-.3908011.3224775-.1755664 1.3282233-1.3086043 1.3282233-1.4939722 0-.0880861.1368066-.2930729.302715-.4591407.1562663-.1755664.5763284-.6054301.9277641-.9764847.5078454-.5175831.7031742-.6543898.9276047-.6543898.1856708 0 .2834149-.0488003.2834149-.1463851 0-.2148521.5273049-.439442 1.0448083-.439442h.4785843l.7909574-.9083045c.4297203-.4882424.9668267-1.0058096 1.191576-1.1424728.2929135-.185607.4002997-.3125962.4002997-.4884017 0-.2440495.4297203-.6834915 1.0840304-1.103474.351595-.2343914 1.2206776-1.3281435 1.4258079-1.8065685.1562663-.3613965.273454-.459061.9570252-.8008386.5763284-.3027947.9862862-.4297999 1.5626146-.5078453 1.0448084-.1366473 1.5135912-.3319762 1.5135912-.6348506 0-.165988.1660677-.3417776.6346912-.6835712.6544535-.4687031.7422367-.6346911.4882423-.9667469-.0877832-.1172037-.1366473-.410181-.1464488-.7812356 0-.5372659.019603-.6054301.2930729-.8008386.1660678-.1270052.4297203-.2148522.6346912-.2148522.302715 0 .3417776-.0291814.3417776-.2441929 0-.1464488.0586815-.2440494.1368067-.2440494s.4393623-.2441929.8105604-.5371862c.5078454-.4101013.7422368-.5371064.9960878-.5371064.2051303 0 .4297202-.0877832.6248896-.2539307.2638119-.2245102.3710387-.2538509.8497824-.2148521.4978845.0489437.5663675.0294204.9276047-.2733743.4395217-.3613169.9766282-.5760893 1.6114787-.6739131.7518948-.1073862 1.0448084-.3710387 1.5137346-1.357325 1.083871-2.304692 1.1229335-2.4121738 1.1229335-2.94936 0-.439442.0585222-.6248896.3904983-1.1620757.2150912-.3515951.3906577-.6836509.3906577-.7324353 0-.0586018.1758692-.2929136.3906576-.527305.2638118-.2929932.4200621-.5566457.4589813-.8106401.0294204-.2049709.1172037-.4100375.1954882-.4491797.1757099-.107466.1562662-.4394421-.068483-1.3379451-.1953289-.7518151-.1953289-.7616166-.0098015-1.4745923.2930729-1.1327351.4493232-1.425808.8107197-1.5527335.527305-.1757099 1.083871-.7714181 1.5721134-1.6699211.4006185-.7422368.4687828-.9374859.5567254-1.7871249.1172036-.9863659.1855273-1.1718773.7422367-1.86525.322334-.4101809.6250491-1.1621554.6250491-1.5527334 0-.1562662-.1270052-.3125166-.4102607-.4980439l-.4102606-.2734539-1.3182624.0586018c-.7420933.0391423-1.9334939.0097218-2.7050077-.0488641-1.1817585-.0975847-1.4356095-.0878629-1.8068075.0390626-.4099579.136727-.5271456.136727-1.3671265-.0194596-1.474672-.2832555-2.9980647-.7519745-3.6915968-1.1328944-.3514356-.1953288-.6639522-.3710387-.6834118-.3906576-.0194595-.0194596-.1562662-.5370268-.3028744-1.1620758-.2732946-1.1718773-.283112-1.1816948-1.1325756-2.0996414-.2248927-.2441132-.5861299-.7226338-.8009183-1.0742129-.2245899-.3515951-.6933727-.8984233-1.0449518-1.2109399-.3808402-.3320558-.7422368-.761776-.8885422-1.0449518-.1368067-.273454-.5078454-.8495592-.8301793-1.2792795-.322334-.439442-.6444927-.927764-.7129757-1.1034739-.1464488-.3418573-.8983437-.8691623-1.3867454-.9766282-.1757099-.0292611-.3904983-.1464488-.4882424-.2636525C61.5440715.9127903 59.7862874.121769 58.9268469.121769c-.2147565 0-.5078134.078221-.6541188.1758854Z" fill="#FFF" fill-rule="nonzero"/></svg>