<svg xmlns="http://www.w3.org/2000/svg" width="100" height="100"><path d="M15.3 19.7v.1H15l-1.4.3h-.1l-.3-.2-.3-.1h-.3l-.2.1-.3.1-1 .5-1.5.9h-.1v.4l-.1.1-.8.9-.2.1V23.5l.3.4H9v.4l.3.1.3.1.3.2.3.1h.9l.2.5.5.5.2.1h1.4l.8.2.4.3 1-.6 1-.9v-.2H16.8v-1l-.1-.3.6-1 .2-.8v-.2l-.1-.1h-.2V21l-.1-.2v-.2l-.2-.3-.2-.2-.3-.2-.5-.2h-.2l-.2-.2-.2.1zM2.7 23.8l-.2.3-.4.5-.2.2-.3.1v.3l-.6.1-.7.9-.2.5-.1.5.1.4.5.2H.9l.1-.2.1-.5.2-.3.6-.7h.7l.4-.3.2-.1-.1-.5v-.5l.3-.4.3-.2-.2-.3h-.8zm37.9 6-.3.3-.2.3-.1.2-.1.1h-.2l-.5.4-.1.2v.2h-2.7l-.2.4.7.6v.3l-.2.4.2.3.3.3.2.2.2.2.4.7.2.3h.2l.3.2v.1l.2.1.3 1.3h.2l.1.1.2-.1.2-.1.9-.1h.8v-.5l-.2-.3-.4-.1-.3-.3h.3l.5.1h.2l-.3-.5.3.2h.5l.1.2v.2l-.2.1H42V36.5l.4.1.4-.1.2-.3.4.2.2.1.2.2-.1.2.2.2.5.3.3.2h.4l.4-.1.5-.2h.4l.3.3.3-.2 1-.7-.3-.2-.9-.5v-.7l-.1-.2-.3-.1-.3-.2v-.3l.2-.3.1-.2h-.8l-.3.1.5.4h-.3l-.2.1H45l-.4-.5-.3-.2-.2-.2-.3-.7h.2v-.8l-.5-.3-.4-.4-.2-.5v-.3l-.3-.4-.2-.2-.2-.3-.4-.1v-.1h-.1v-.2l-1.1.6zm14.2 8.7.1.3v.2l-.4.4-.2.1-.2.3-.1.3v.3l.2.3.4.1h.4l.3-.2.3-.1h1.2l1.5-.1h.4l1.8.8.7.2h.8l.7-.1.7-.3.7-.3.5-.6.3-.7h-.2l-.5-.1h-.5l-.1-.1H63.3l-.3.2H61.2l-.2-.2-.5-.4-.3-.3v.3l-.2.2h-.2l-.7-.2h-.3l-2.4-.2-.2-.1-.2-.2-.2-.1h-.9v.3zm11.9 3.1-.2.1H66.2l-.1.3v.2H66l-.2-.1h-.1l-.1.4-.7 1.3 1.3 1.7h.2l.4.3.4.2.5.2h.4l.2-.1h.8l.1.1v.4l.1.2.1.1.2.2v.3l.1 1.6.2.6.5.3h.8l.4-.1h1.2l1-.7.4-.1h.4l.3.1h.7l1.3-.7.5-.4.5-.6.3-.7-.3-.6-1-.6h-.3l-.9-.2-.1-.2-.1-.4-.1-.2h-.7l-.4-.2-.2-.2-.1-.2-.3-.2-.2-.2H73l-.3-.2H71.8l-.2.1-.6.4h-.8l-.2.1-.3.1-.3.2h-.2L69 44l-.6-1.1-.1-.2-.2-.2-.7-.7-.2-.1-.3-.3h-.1l-.1.2zM59 43.8l-.5.3.4.6.6.3.2.2v.8l.1.5.2.3.3.3h.7l.8-.2.7-.4.4-.6.2-.3v-.2l-.1-.2-.5-.5h-.1l-.3-.2-1-.8-2 .1zm8 5.8-.3.2-.5.4-.7.3-.3.1-.1.3.5.4h.3l.4-.2h1.4l.2-.3-.2-.1v-.9l-.2-.2H67zm13.1 6.5-.3.7v.6l.1.7.3.6 1 1v.1l.2.4v.3l-.2.3-.6.4v.1l-.8 1-.2.2-.3.7-.8.2-.3.2v.4l-.2.1-.4.3-.4.3-.2.5v.7l.5.6.4.6.5.6.1.3.2.4v1l.3.7h.4v.3l.4 1.5.3.5V72.7l-.4 3v1.9l.3.1.2.1v.3l.1.2.1.2h.7l.7.2.8.3.6.4.4.3.4.6h.2l.3-.4h.2l.3-.2.8-1 .3-1.1.1-.3.8-.7.3-.1 1-.5.2-.2.4-.5.3-.1.3-.1h.2l.6-.6.5-.4h.2l.3-.1h1.5l.3-.1 1.2-.3.7-.3.3-.2h.5l.3-.1 1.6-1.4.2-.2 1.5-.8.2-.3.2-.4.1-.4.1-.4-1.4-.8-1-.5-.7-.7v-.2l-.2-1-.1-.3-.2-.2h-.5l-.7.1H95l-.2-.5V63.2l-.2-.3-1.5-1.7-.7-.5-2.3-1.1-2-.8-.9-.1-.6-.4-.4-.2H86l-.2.2h-.2l-.3-.1-.2-.2-.1-.1-.4-.1-.5-.4-1-.4-.2-.2v-.4l-.2-.1-.5-.1-1-.5h-.7l-.4.4z" fill="white" fill-rule="evenodd"/></svg>