<svg xmlns="http://www.w3.org/2000/svg" width="100" height="100"><path d="m75.2 16.5-4.8.4-4.9.4-4.8.3-4.9.3-4.8.3-4.9.3-4.8.3-4.9.3-4.8.2-4.9.3-4.8.2-4.9.2-4.8.2-4.9.2-4.8.1-2.2.1V21l.1.1V22l.2.1.2.3.2.2.2.3h.1v1.8l-.1.1H.8l-.1.2.1.3H1V25.6l-.1.2V26h.2l.1.1h1v.1l.1.1v.2l.2.9v.2l.1.1v1.1l-.1.2-.6.5v.4H2V30.5l-.1.1v.8l-.4.4V32.7l-.1.1v.1h-.1v.6H1l-.2.2-.1.2-.1.2v.2H.5l-.2.4-.2.3v.8l.3.4.2.1v.1l1 .6v.1l.2.1V37.5l-.2.1v.2l.3.2.1.1.2.3v.4l.1.2h.1l.1.3v.7h.7l.4.2.2.2.3.8-.2.9v.8l.5.6v.3l.2.2.2.2v.4l.1.4v.4l-.1.3v.9l.3.3.5.3.3.2.2.4v.8l.1.4.4.6.7.3.5.4.3.8v.2l-.2.4v.4l.3.5v.2l1 .9.2.4v.4l-.2.4V55.7L9 56l-.1.2v1.4l.2.4.2.1v1l.3.2h.2l.3-.2H10.5l.2.1.1.2v.1l-.2.3V60.3l.3.2h.7l.1.1.1.2V62l-.4 1.2.3.2.7.2h.2l.2.2-.2.4-.4.4h-.1l-.1 1v.2l.2.3.7.2.2.1-.3.2v.3l.1.7.1.2-.2.6V68.6l.1.1v.1l.2.2-.2.2v.4l.2.2.3.2.1.2v.8l.2.5v.9l-.1.4v.7l.2.3v.1l-.3.5-.2.3-.1.3v.4l.2.1v.2l.2.4.9.3.2.1.2.5v.8l3.8-.2 3.8-.2 3.7-.2L30 77l3.8-.2 3.7-.2 3.8-.3 3.7-.2 3.8-.2 3.7-.3 3.8-.3 3.7-.2 3.8-.3 3.7-.3 3.8-.3 3.7-.3 1.5-.1h.6l.2.2v.1l.3.2.1.1v.3l.1.1v.2l.2.1.2.1h.3l.4.3.1.3v.1h.2v.1h.2l.1.1v.1l.1.1.2.1.3.1.1.1.1.1v.2l.1.1v.2l.1.1.6.5.2.2.5.1.2.2.9-.4v-1l-.1-.3v-1l-.2-.3-.4-.4V74.2l.3-.4.6-.4.7-.4.5-.1.6-.2.6-.2.5-.4.3-.6.2-.9.1-.4V69l.2-.3.2-.5 1.4-1.8.2-.8v-.9l-.2-.9-.3-.8-.5-.6-.8-.5h-.3l-.3-.2-.2-.4-.1-.5v-1.3l.2-.9.2-.8.3-.6.6-.5 4.4-.7.6-.3.3-.3.5-.7.3-.2 1.5-.4.6-.3.3-.2.1-.3.1-.1.7-.5.2-.2v-1l-.1-.1.1-.5v-.5l.2-.4.2-.4.1-.3.2-.3.6-.5.3-.1.2-.3.2-.4.1-.9v-1.2l.2-.7v-1.1l-.4-.9v-.6l-.1-.2-.1-.1h-.3l-.1-.1-.5-.4-.1-.2-1.4-.6H96l-.2-.1-.4-.5-.5-.2-.2-.5v-1l-.4-.6-.5-.4-1.4-.7-.5-.4-.3-.3-.2-.2-.5-.2-.2-.2.2-.5.1-.4v-.3l-.1-.2-.4-.6-.2-.2-.3-.8-.3-.2-.4-.1H89l-.7-.2-2.6-.3-.7-.3-.4-.2-.2-.2-.6-1v-.3l-.2-.9v-.3l-.3-.3-.4-.5-.2-.3-.1-.4-.1-1-.1-.1v-.3l-.1-.7-.2-.7-.2-1.3.1-.7.7-1.2.3-.6-.1-.7-.4-.4-1.3-.5h-.2l-.1-.3-.2-.5v-.2l-.1-.2-.2-.4-.1-.2-.1-.2v-.5z" fill="white" fill-rule="evenodd"/></svg>