<svg xmlns="http://www.w3.org/2000/svg" width="100" height="100"><path d="m32.3 2.1-.3 2-.3 2.1-.3 2-.4 2-.3 2.1-.3 2-.3 2.1-.3 2-.3 2.1-.3 2-.3 2.1-.3 2.1-.3 2-.4 2.1-.3 2.1v.4l-.2.4-.1.2v.2l.4.6.2.6.1.3v.6l.2.4v.3l-.2.3-.1.1-.4.3v.1l.5.7.1.7v.4l.3.8.5.7v.4l.8.2v.1l.2.3.5.4.4.1.2.2v.2l.2.2v.6l.3.7v.5l-.1.3-.2.2-.3.2v.1l-.3.4-.1.3v.1l-.6.5-.2.4-.4.4-.2.2v.2l-.2.6-.1.2-.2.2-.3.8-.3.4-1.3 1.4v.1l-.1.2V52.7l-.2.6-.1.2-.3.5-.7.7-.1.2H25l-.7.4-.2.2-.1.1-.4.7-.4.4-.1.2-.2.5-.1.3-.2.2-.1.1h-.2l-.2.1v.2l-.2.1v.5l-.1.2-.2.2v1.8l.4.4.1-.1.1-.1.1-.1H22.6v.1l.1.2.3.2H23.6l.1.1v.5l.3.2.1.2.2.2v.2h-.1V63.5l-.1.1v.2l-.2.1h-.4l-.1.1v.2l.2.5V65.2h-.1l-.1.2-.2.5-.2.4v.3l-.2.3-.2.2-.2.1-.2.2V68l-.1 1.2-.1.6-.3 1.3-.2 1.4-.2 1.4-.2 1.3-.2 1.4-.2 1.4-.2 1.3-.2 1.4-.2 1.4-.2 1.4-.3 1.3-.2 1.4-.2 1.4-.2 1.3-.2 1.4-.2 1.4 1.9.3 2 .3 1.8.3 2 .3 1.9.2 1.9.3 1.9.3 2 .3 1.8.2 2 .3 1.9.3 1.9.2 2 .3 1.8.2 2 .3 1.9.2 1.9.3 2 .2 1.9.2 1.9.3 2 .2 1.9.2 1.9.3 2 .2 1.9.2 1.9.2 2 .2 1.9.2 1.9.2 2 .3 1.9.1 2 .2.1-2 .2-2.1.2-2.1.3-2.1.2-2.1.2-2.1.2-2 .2-2.2.2-2 .2-2.1.2-2.1.2-2 .2-2.2.2-2 .2-2.1.2-2-.4-.3H83l-.3-.5-.1-.3-.2-.1V65l-.2-.1-.1-.1V64.1L82 64h-.1l-.1-.1-.1-.3-.3-.6-.1-.3h-.1l-.4-.3h-.2l-.1.2H80l-.2.1v.1h-.1v.7l-.3.1-.1.1v.2l-.2.2v.5h.1v.1l.3.1v.2h-.4L79 65l-.3-.2h-.2l-1-.1h-.2l-.5.2h-.5l-.2.1h-.2v-.1h-.1v-.2h-.1l-.1-.1-.2-.1h-2.5l-.3-.2H72L72 64h-.8l-.2.1-.1.1-.1.1-.1.3-.3.5h-.1l-.2.1h-.2v-.1h-.1l-.1-.2H69l-.2-.2-1.3-.3-.3-.2H67l-.2.1h-.4v.1l-.7.5v.1l-.1.1v.1l.1.4v.1H65.4l-.3-.3v-.1l-.5-.2-.1-.1-.1-.2v-.1h-.2l-.1-.2H64V64.3l-.1-.2v-.2l.2-.2v-.1l-.1-.1-.2-.1V63l-.3-.4v-.2l.2-.1V61.6h-.1v-.3l-.1-.1v-.1h-.1v-.4h-.1l-.1-.2-.2-.3-.2-.3-.2-.2-.2-.2h-.6l-.3.1-.1.1H61v-.4H61l-.2-.2-.4-.2-.1-.1-.1-.2-.1-.5v-.1L60 58l-.1-.1V57.6h.3v-.1l.1-.1.1-.4v-.8l-.1-.1-.3-.5v-.3h-.1v-.1h-.4V55h-.1v-.4l-.1-.1v-.4h-.1V54L59 54l-.1-.2-.2-.2-.1-.2V53l-.1-.1-.3-.3v-.1H58V52l.1-.3V51.4l-.3-.3v-.7h.1V49.7l-.4-.2V49h.1v-.2h.1V48.4l-.1-.1h-.1L57 48H57v-.4l-.3-.3-.3-.3h-.2L56 47H56l-.1.1v.5h-.4v.1h-.1v.1l-.2.2v.1H55l-.2.2h-.1v.1h-.1v.1h-.1l-.4.2h-.3v.1h-.5v.1h-.1l-.2.3v.1l-.3.1H52v-.2l-.3-.3h-.1v-.1h-.1v-.2l-.4-.3-.5-.2H50.4V47.7h.1v-.6l.3-.2.1-.1v-.1l.1-.1V46l-.2-.3V45.4l-.2-.1v-.2h.1l.1-.1.1-.1.1-.2.2-.1v-.2h.2v-.1h.7l.3-.2V44l-.1-.4v-.4l.1-.2V42.6l-.3-.1-.2-.1V42l-.1-.2V41.6l.3-.3V41l-.3-.5V40.2h.5l.1-.1h.1V38.8l.1-.2v-.1l.1-.2.3-.3v-.4l.1-.2v-.1l.1-.2.3-.4v-.5l-.1-.2v-.2h.4v-.1h.1v-.1h.1v-.4l.1-.2V34.8l.1-.2.1-.2v-.6H53.3l-.3.1H51.8l-.2-.1-.2-.2-.1-.2v-.2l.2-.2v-.2h-.1v-.2l-.3-.2h-.5l-.3.3h-.2V31.9l-.3-.2h-.2v-.2l-.2-.1v-.1l-.3-.3H49v-.1l-.1-.2v-.9l-.2-.2h-.1v-.2l-.3-.3V29h-.1l-.2-.1-.1-.1-.1-.1v-.3l-.8-1.1-.1-.3-.2-.4-.1-.1-.3-.2v-.1l-.1-.2h-.1l-.1-.2H46v-.4h-.1v-.1l-.1-.2-.1-.2-.2-.1-.8-.5-.5-.1V24H44V23.7l-.1-.2-.2-.3-.2-.3-.1-.1-.7-.6-.3-.1-.2-.1V21.8h.7l.1-.1v-.2l-.2-.1V21l-.2-.1v-.1l-.3-.2v-.2h.1l.3-.1v-.1h.1l.1-.2V19.6l-.2-.4v-.7l-.1-.1-.3-.3V17.9l-.2-.1-.2-.2v-.2l-.2-.6v-.2h-.1l-.2-.2-.1-.1V16H41v-.2H41v-.1l-.1-.2-.2-.3-.1-.2-.2-.4-.2-.2v-.2H40v-.7l.3-1.5.2-1.5L41 9l.2-1.5.2-1.6.2-1.5.2-1.5.3-1.5h-.1l-2.1-.3-2.1-.3-2-.3-2.2-.3-1-.2z" fill="white" fill-rule="evenodd"/></svg>