<svg xmlns="http://www.w3.org/2000/svg" width="100" height="100"><path d="M64.4.2 62 .5l-2.5.2-2.4.2-2.4.3-2.4.2-2.4.2-2.4.2-2.4.2-2.4.2-2.4.2-2.4.2-2.4.2L33 3l-2.4.2-2.5.2-.2.4.2.2.5.2.2.2.2.2.5.4 1.2.6.5.4.3.6v-.2 1l.2.4.5.3.3.3.2.1h.2l1.2.6.2.1.4.4h.1l.2.1.1.1v.5l.1.3.5.7v1l-.3.6V14l-.1.8-.1.4-.3.2-.2.1-.5.5-.2.2-.1.3-.2.4-.1.4v.4l-.2.3v.1h.1v1l-.2.2-.6.4v.1l-.2.3-.2.2-.6.3-1.3.3-.3.2-.4.6-.3.3-.6.2-3.9.7-.5.4-.3.5-.2.8-.2.8v1.1l.1.4.2.4.3.1.2.1.7.5.5.5.3.7.1.8v.8l-.1.7-1.3 1.7-.2.3-.1.3V35l-.1.4-.2.7-.3.6-.5.3-.5.3h-.6l-.4.2-.6.4-.5.3-.2.4-.2.3V39l.5.3.1.3v1.2l.1.4v.5l-.8.3-.4.4-.3.8-.1 1v1.5l.6 3v.2l.3.3.2.2.1.2.1.2v.2l.1.4V51.4l.2.2.1.2.5.3v.2l.1.2v.4l.3.6.3.4 3.8 2.9.2.2.2.4.1.3.1.3.2.2 3.5 2 .3.3.4.5.4.6.2.3.1.4v.7l.1.3.1.2.3.4V64.5l-.1.2.1.2.1.2.1.3v.5l.8 1.3.5.5.6.2.6-.4.7-1.2.7-.2h.3l.5.4h.6l.8.1 1.4.7.7.4.2.5v.3l-.3.5-.2.4-.2.2-.1.2v.4l.1.7v.8l-.1.6-.6 1.2-.6 2-.6 1.2-.2.6v.7l.2.8.1.2.2.2v.2l.2.2.8.6.1.1.5.4.1.2.1.2.3.2.5.3.5.3.3.4.5.4.5.1.8.6.3.1h1.1l.6.4.9.8.3.2 1 .3.3.2.4.5.5.9.4.3 1.4.6.4.2v.6l.2.3v1.6l.4.6.5.5.4.6.2.7-.2.7-.5.6-.3.5v.7h.1l.3.2h.1l.3.2v.5l.2.3.4.5.6.8.3.5v.5l.2.2.8.6.6.2h.2v-.5L56 99H56l-.1-.2-.2-.4v-.2h.7l.2.5v.1l.2.1.3.2h.1v.3l.1.2.1.1.2.2H57.9l.2-.1.1-.1.3.1-.6-.5-.3-.4v-.5l.2-.6.5-.6.4-1v-.1l.5-.5.6-.3.7-.2h.7l4.1 1.6 1.1.5.6.2.6-.2.3-.5.3-.7v-.6l-.4-.5-.5-.6-.4-.5-.2-.7v-.7l.2-.8.1-.2.2-.2.2-.2h.3l.7-.1.2-.1.8-.6 2.6-.7.4-.4v-.5l-.3-.7-.5-.4v-.1l-.4-.5-.1-.3v-.5l.2-.4.1-.2.8-.8.2-.3v-1h-.6v-.1h-.1v-.2h.7v-.4l-.8-.5-.3-.3H72.1l.2-.1V81.3L72 81v-.3h.1V80l-.1-.2.1-.2-.2-.5h.2l.2-.1.2-.2.3-.1.1-.2-.2-.2h-.7l.3-.3.3-.3.1-.1.3-.1.2-.1V77l-.1-.1-.3-.2-.2-.1v-.1l-.1-.1-.2-.2v-.5l.2-.1.1-.2v-.3l.1-.3.1-.2.3-.1.2.3h.2v-.3l.1-.1.1-.2h.1l.1.2.1.1.1.1h.1v-.7l.1-.2.1-.4.1-.2.1-.1.3-.2.3-.3.1-.4v-.4l-.2-.2v-.1l.4-.2.5-.3.2-.3H76.7l.2-.2v-.2l-.3-.4-.1-.3v-.2l.1-.2.2-.2.2-.1h-.1v-.1l.1-.1v-.8l.2-.4.2-.2h.5V67l.4-1.4-.3-.7-.4-.6-.2-.7v-.2l.2-.3V62.2l-.2-.2-.5-.3-.1-.2-.1-.3-.2-.7-.2-.3-.5-.3-.2-.2h-.1l-.1-.2V59l.7-1V57l-.4-.6-.1-.3V56l.3-.3.8-.5V54.3l-.3-2.6-.3-2.5-.3-2.6-.5-5.2-.3-2.5-.3-2.6-.3-2.6-.2-2.5-.3-2.6-.3-2.6-.3-2.5-.3-2.6-.2-2.5-.3-2.6-.3-2.6v-.1l-1-1-.2-.6-.5-1.2-.5-.9-.3-1.5-.2-.3-.1-.4h-.1l-.1-.2-.5-.2h-.1v-.1l-.2-.2-.1-.1-.1-.2V6l-.2-.2-.5-.8-.3-.5-.2-.7-.2-1.3V2l.1-.2V0z" fill="white" fill-rule="evenodd"/></svg>