<svg xmlns="http://www.w3.org/2000/svg" width="100" height="100"><path d="m68.8.2-1.4.2-1.4.2-1.4.1-1.4.2-1.4.2-1.4.2-1.4.2-1.3.2-1.4.2-1.4.1-1.4.2-1.4.2-2.8.4-1.4.1-1.4.2-1.4.2-1.4.2-2.8.3-1.3.2L38 4l-1.3.2-1.4.2-1.4.1-.6.1-3.1 2.2-3 1.5-1.6.3H24l-.4-.2-.3-.1L23 8v-.5l-.5.3-.7-.4-.6-.6V7l.4 3.4.4 3.3.4 3.4.3 3.4.4 3.4.4 3.3.3 3.4.4 3.4.4 3.4.4 3.4.3 3.3.8 6.8.3 3.4.4 3.4.4 3.4v.9l-1 .7-.3.4-.2.5.2.4.5.8v1l-1 1.3v.9l.2.1v.1l.4.2.6.5.3.4.2.8.2.4.2.3.6.4.2.2v1.3l-.2.4v.3l.3.8.5.9.3.9-.3 1.7-.1.2h-.2l-.3.1h-.2l-.3.4-.2.4V80h-.2.2l-.3.2-.2.3-.1.3-.1.3.1.4.4.4v.3l-.1.3-.2-.1H27l-.1.1-.2.3-.1.2-.6.3-.5.3v.1l.3.3v.5l-.3.5-.2.4h-.1l-.4.2-.1.2-.2.3v.5l-.2.3v.8l-.1.1H24l-.1-.3v-.2l-.2-.1-.2.3-.1.2-.1.4H23l-.3-.3v-.2l-.3.2-.2.3v.4l-.1.3-.2.3-.1.1-.2.2v.3l.1.2.2.2.1.1v.2l.3.2.4.2.2.2-.1.4-.2.1-.4.2-.1.2-.4.4-.4.3.3.2.6-.2.3.3-.2.2-.3.3-.4.1-.3.1-.2.2.3.5-.2.3.2.2v.4l.1.4v.1l-.2.2v.3l.2.4v.4l.1.2v.2l-.3.1h-1l.3.4 1 .7.2.3-.2.1h-.8l-.1.1v.2H21.5l.4.2h.8l.7.4h.4v-.2l.8-1-.7-1.4-.1-.3v-.5l.4-.2h.4l.4.3.3.3.3.3h.4l.4.1h.4l.7-.4h.2l.2-.2.2-.2h.6v1.6l.5.2.5-.3.5-.6.1-.7-.2-.4-.4-.7-.1-.5V95l.1-.1H30l.2.1V95.5l.8.6.7-.3.7-.5.8-.3.4.1.5.2.4.2.4.2.4.2 1.3.4.7.4h.9l.2.1.1.2v.3l.2.2.3.4h.2l.2.2.6-.5.2-.6.4-1.5.1-.4.2-.3.3-.2.3-.2 1-.2.3-.2.4-.5.6-.6.7-.3.3.4.3.6.5.5.6.4h.7l.8-.2h.3l-.1.6-.1.4.3.2h.4l.4-.3v-1l.1-.4 1-.3.2-.3V93l-.2-1.6v-.5l.2-.2.4-.1.4-.2.3-.3v-.5l-.1-.3-.4-.3v-.5h.4l.1.2.2.2H52l.8-.5.3-.4-.2-.2h-.4l-.4-.2-.3-.4.2-.2h.4l.4.1 1 .6.2.3v1l.2.4.2.3.3.2.8.3.3.2.4.2 1-.1h.4l.8.7.5.3.1-.2.2-.4.4-.2.9-.3.2-.2.1-.2.1-.2.1-.2.1-.6v-3.3l.3-.5.3-.2.1-.2.3-1 .2-.4h.5l.2.1h.1l.1.3h.2l.7-.3.4-.3.6-.6.3-.9.1-2 .5-.8.4-.2.8-.2.2-.2.2-.5.3-.3.9-.8.2-.4v-.5l-.5-.8-.4-1.5-.1-.3-.2-.4-.1-.5.3-.2 2.1-.5 1.2-.1.4.1.7.7.4.1.7-.2 2.5-2 1.1-.7.6-.2h1.6l.2-.2-.3-.7v-.5l.2-.4.2-.4v-.4H78.1l-.3-.3.1-.3.6-.7.1-.5-.1-.3-.3-.4-.6-.4-.2-.8.5-.7.3-.2-.2-2-.3-1.8-.2-2-.3-1.8-.2-2-.3-1.8-.2-2-.3-1.8-.2-2-.2-1.8-.3-2-.2-1.8-.3-2-.2-1.8-.3-2-.2-1.8-.3-1.9-.2-1.9-.3-1.9-.2-1.9-.2-1.9-.3-1.9-.2-1.9-.3-1.8-.2-2-.3-1.8-.2-2-.3-1.8-.5-3.8-.2-1.9-.2-1.8-.2-1.4z" fill="white" fill-rule="evenodd"/></svg>