<svg xmlns="http://www.w3.org/2000/svg" width="100" height="100"><path d="m85.7 23.7-2.7.1-2.8.2h-2.7l-2.7.1-2.7.1-2.8.1h-2.7l-2.7.2h-5.4l-2.8.1H53l-2.7.1h-2.7l-2.7.1h-8.2L34 25H9.4l-2.7-.1H4l-2.7-.1v4.6L1.1 31v4.6L1 37.1v4.7L1 43.3V48l-.1 1.5V55.8l-.1 1.5V62l-.1 1.6V69.8l-.1 1.6v3.1h6.1l3.1.1H16l3.2.1H47l3.1-.1h3.1l3.1-.2h6.2l3.2-.2h3L72 74l3-.1 3.2-.1 3-.1 3.2-.1 3-.2 3.2-.1 3.1-.1 3.1-.2 3.1-.1-.1-2.2-.1-2-.1-2.2-.1-2.1-.1-2.1-.1-2.2-.1-2L99 56l-.1-2.1-.1-2.1-.1-2.2-.1-2-.1-2.2-.1-2.1-.1-2.1-.1-2.1-.1-1.3v-.2H98l.2-.2v-.2h-.6V37h-.9l-.3-.1-.6-.4h-.3l-.3-.2v-.7l-.2-.1-.5-.3-.3-.7-.1-.6.1-.3-.6-.1v-.1l-.1-.3-.7-.4-.2-.1-.1-.1-.1-.2-.4-.6-.3-.2-.2-.2-.2-.3v-.4h.5l.1-.2V29.7l.1-.2.2-.3.4-.5h.1l.1-.1.1-.1V27.9l.1-.1.1-.1.7.1h.3l.2-.2v-.1l-.1-.2h-.1v-1l-.1-.1-.6-.3-.2-.3v-.5L93 25h-.5l-.2.2-.4.3-.3.2-.3.1-.2-.1-.4-.4-.2-.1h-.4V25L90 25v-.1l-.1-.1-.1-.2h-.4l-.2-.3-.8-.7z" fill="white" fill-rule="evenodd"/></svg>