<svg xmlns="http://www.w3.org/2000/svg" width="100" height="100"><path d="m59.4 24.3-.1.1-.2.3-.7.5-.2.2-.4.5.1.5.4.3.3.3V27.6l-.4.5-.1.1.2.2.2.1H59.4v.3l-.1.3-.2.2v.4l.2.5-.2.1h-1l-.5.2-.8.4-1.7 1.5-.6.1h-.2l-.6-.5-.2-.1h-.8l-1.5.4-.3.2v.3l.2.3.2.2.2 1 .4.6v.4l-.2.2-.6.7-.2.2-.2.3-.2.2-.5.1-.3.1-.3.5-.1 1.5-.2.7-.5.4-.2.2-.5.2h-.1l-.1-.2h-.5l-.2.2-.2.7-.1.2-.3.1v.3l-.2.4v.4l.1 1.6v.4l-.2.2v.1l-.2.2-.7.3-.3.1-.1.3-.1.2-.3-.2-.6-.5h-1l-.3-.1-.2-.2-.6-.2-.2-.1-.2-.3V43.6l-.2-.2-.7-.5h-.6l-.1.1.2.3.3.1h.2l.2.2-.2.3-.6.3h-.4l-.1-.1-.1-.1H38.9V44.2l.3.2v.5l-.1.3-.3.1h-.3l-.2.2v.4l.2 1.1v.3l-.2.1-.7.3V48.7l-.3.2h-.6l.1-.4.1-.3h-.2l-.6.1h-.5l-.4-.3-.4-.4-.1-.4-.3-.3-.4.2-.5.5-.3.3-.1.1-.8.2-.2.1-.2.2-.1.2-.2.3-.2 1-.2.5-.4.3h-.1l-.1-.2-.3-.2v-.2l-.1-.2-.1-.1H29.5l-.1-.1-.6-.3-.9-.2-.3-.2-.2-.1-.3-.2-.4-.1h-.3l-.5.2-.5.3-.5.2-.6-.4v-.4l-.1-.2H24l-.1.2v.5l.3.5.2.3-.1.5-.3.4-.4.2-.3-.2v-1l-.3-.1h-.2l-.2.2v.1h-.2l-.5.3H21l-.3-.3-.2-.2-.3-.2H20l-.2.2v.5l.5 1-.5.7v.2h-.3l-.5-.3h-.6V52.8l-.2.3-.7.7-.2.2v.4l-.1.4v.3l.4.5.5.4.3.7v.5l-.4.3-2.4.7-.8.6h-.2l-.6.1h-.3l-.2.2-.1.2-.1.3-.2.7v.7l.2.5.3.6.5.5.3.5v.5l-.2.7-.3.5h-1.1l-1-.5-3.9-1.4H6.6l-.5.4-.4.4-.1.2-.4.9-.4.5-.3.6.1.4.3.4.5.5.1.3V69l-.1.2-.1.2v.5l.3.6v.8l-.4 1.2-.3 1-.2.5-.4.2-.4-.1-.4-.3-.4-.3-.3-.3-.2.1v.1l-.1.3-.2.6v.3l-.1.8v.2l2.3-.2 2.3-.2 2.3-.3 2.4-.2 2.3-.3 2.4-.2 2.3-.2 2.3-.3v-1.3l-.3-.8-.4-.8v-.2h3v.2l.2.1h1.4l.7-.2 1-.1 1.3-.2 1.4-.1 1.4-.2 1.5-.2 1.5-.2 1.5-.2 1.4-.2 1.2-.2h1l.8-.2h.7l.6-.2.4-.1h.2l.6-.1h.4l1.1-.1 1.8-.2 2.3-.2 2.8-.3 3-.3 3.4-.3 3.3-.3 3.4-.4 3.3-.3 3-.3 2.8-.3 2.4-.3 1.8-.2 1.1-.1h.4l.7-.1.4-.2.4-.2.5-.6.2-.2h.1l1.1-.6 1.3-.4h.2v-.1l.2-.2.5-.3 1.3-.7 1.3-.4.1-.1h.1v-.5l.1-.2v-.2l.3-.6.2-.3h.1l.6-.2.8-.4.7-.5.2-.1.1-.2v-1.2l.1-.1.3-.3 1-.8h.2V55l.1-.1V54.3l-.2-.2v-.2l.1-.1.2-.3.6-.6 1.3-.9 1-.7.9-.6.3-.2 1-1.2 1-1.3.8-.8 1-1.1.6-.8h-2l-.3-.1V44.9h-.1v-.2h-.1l-.1-.1-.5-.3h-.2l-.4-.3-.1-.1H96l-.1-.1-.6-.1h-.1l-.1-.2-.1-.2-.3-.5v-.1l-.1-.2-.2-.2-1-.8-.1-.1v-.2l-.2-.5-.1-.2-.2-.1v-.1h-.1l-.6-.4H92v-.2l.1-.3V39L92 39l-.8-.6H91v-.2l-.2-.3-1.3-1.3v-.4l.2-.3v-.1l.1-.1V35l.2-.1v-1.3l-.1-.2-.4-.5V32.4l-.1-.2V32l-.2-.2-.3-.5-.1-.2-1.1-.8-.6-.3h-.6l-.7-.3-.4-.6-.5-1-.1-.3v-.4l-.1-.2H84l-.7.6h-.3l-.3.2-.2.2-.1.3-.2.2-.3.2-.1.2-.1.4-.1.1-.2.2H80.6l-.3.1-.2.2-.1.1-.5.2-.3-.2-.4-.4v-.1l-.3-.1-.4-.1h-.8l-.2-.2-.3-.1h-.6l-.8.4-.2.1v.3l-.1.3-.2.2-.3.2H74l-.5-.4-1-.7-.3-.3-.2-.2-.3-.2-.5-.1-.6-.2h-.3l-1.2.4h-.3l-1.5-.3-.3-.2-.2-.2V28l-.1-.4-.2-.3-.1-.2-.2-.1-.2-.2-.2-.1v-.3l-.1-.3-.2-.2-.1-.3-.3-.2-.6-.2H64l-.1-.2-.2-.3-.2-.3H63l-.6.1-1 .7h-.6l-.8-.6H60v-.1l-.3-.2h-.3zM0 74.8l-.1.6.1.2.2.2.9-.2v-.2l-.2-.6-.5-.2-.4.2z" fill="white" fill-rule="evenodd"/></svg>