<svg xmlns="http://www.w3.org/2000/svg" width="100" height="100"><path d="m52.2 7.2-3.3.2-3.2.3-3.3.2-3.3.3-3.2.2-3.3.3-3.2.2L26 9l-3.3.2-3.2.2-3.3.2-3.2.2-3.3.2-3.3.2-3.2.2-3.3.2.1 2.6.3 5L.5 21l.2 2.6V26l.2 2.6.2 2.5v1.6l.1.2h.1l.3.2h.1l.2.3H2l.4.7.1.1.2.1.6.3.2.1.4.4.2.3.2.3.1.2v.2l.2.3.5.6.1.2.2.9v.2l.1.2h.1v.1l.1.1v1.7l-.2.2v.7l.1.1.2.2.2.3.5.5.1.1h.1l.2.1.4.1h.1l.1.1v.1l.1.1v.2h-.1l-.2.2V44h.2l.3.1H8v.4l.2.3v.2l.1.2.2.2.3.3.3.2-.2.4-.1.3v.6l.1.1.5.4.2.2h.1v.2l.1.1v.2l.1.1v.2l.2.1v.1l.1.6v.1h.1v.1h1l.1.4v1.2l-.2.3v.2l.6.8.2.2.1.2v.2l-.2.1-.5.2h-.2l-.2.3.2.5.3.4.1.2.2.2v.1l-.1.3-.3.2-.1.2v1.2l.1.2v.2l-.1.4-.6 1.3-.1 1-.2.3-.6.6-.1.3-.2 1.1v.3H9l-.3.4-.1.4v.5H9v.2l.1.4.3.7v.5l-.1.4-.5.6-.2.5v1.4l.2.3.3.2.3.3.1.5v.2l-.2.4v.5l.3.3V72.1l.2.3v.3l-.1.5-.2.5v.2l.1.2-1 1.3-.4.7h.2l.3.2.1.3V78L8 79.6h-.3l-1.2.2-.1.3v.5l.3.8.5.7.4.2H8l.3-.3.5-.4.3-.2.6-.4.9-.2 1.5-.1h2l.4-.3h1.6l.4-.2 1-.2 1-.1h1.1l2.1.5 1.3.5 2.3.6 1 .7.8.4 2 .7 3.2.5.7-.2H33.3l.5.2 3 .3.5-.1.5-.2 1.3-.8.6-.2h1.7l.2-.3h-.4l.1-.3.2-.2.6-.1-.2-.2h-.5l-.4.2-.3.2h-.1l-.2-.3-.6-1.1.2-.1.6-.4H40l-.5.1-.2.2-.2.1-.2-.2-.2-.4-.2-.5v-.4l.4.3h.2V79h.5l.1.2v.3l-.2.2h.3l.2-.2.4-.5.2-.2 1.6-.7.2-.1v-.6H43.1l.2.1.2.1.5-.4h1.2l.2.1.1.2v.7h-.1l-.2-.3-.2-.1-.1.2-.2.4v.4l.1.2v.1l.1.4.2.2.5-.2.6-.4.4-.2 1.7-.2h.5l.4.2.2.2v1.5l-.1.4v.2h.6l.2-.1.4-.2H50.8l.1.2v.3l.1.2.2.4.1.5v.4l-.3.3h.5l.8-.2.7-.3.5-.3.2.1v.2l-.1.3V83.3h.7l.5.1.8.3.5.3v-.3l.2-.4v-.5l-.1-.2v-.2l.6-.5v-.3l-.2-.5h.6l.2.2v.7l-.1.2-.3.2-.1.2-.2.5v1.1l.4.5h.1l.3.1v.1l.1.1V85.6l.3.1.7.3 1 .8.3.5-.3.6v.1h.1l.1.2.1.1-.1.2-.2.1-.4.2v-.2l-.1-.2-.1-.1h-.3l.2-.4v-1l-.5.2-.5-.2-.3-.4V86h-.4l-.2.3-.1.4-.2.4-.3.2-.3.1h-.3l-.3-.3.3 1 1 .6 1 .4 2 .2h.3l.4.4h.8l.1-.2v-.3l.2-.1h.6l.2.3h-.2l-.1.1v.5l.5-.3.5.1.5.3 1 .7h.1v-.2l.1-.1.4-.3.1-.2-.1-.3.3.1.3.2h.7l.2.3-.2.2h-.3l-.2.3h.3l.7.2h.1l.1-.3h.6l.1.1h.2v-.1l.1-.1.3-.2V90l.2-.1h.2l.1.2.1.3V88.5l.1-.2.1-.2.2.2.2.2.2.1.1-.2-.2-.3v-.3l.2-.2v-.4h-.4l-.1-.1v-.4h.4v-.2h.1l.2-.1h.2v.2l-.3.1h.2l.7.2h.2l.2-.3h.2l.2.3.4-.6.2-.3v-.6h.4v.2l.2.1.4.6.1.3.1 1.2.4-.7v-.5l.2-.2.1-.1.2-.1v.4l.9.7.2.4.2-.2.1-.4V87h.2l.1.3.1.2v1.3l-.1.3-.1.2.1.2.4.3.2.2v.8l.3.2.5-.3 1-.7.2-.2.3-.3.3-.3.2-.2.1-.2.4-.9v-.3l-.6.1-.3-.6v-.6h.6l-.3-.4.2-.2h.3l.3.3.4-.2v-.1l-.4-.1-.3-.3-.2-.3v-.4h.2l.1.2v.2-.9L80 84l-.2-.1V83.4l.2-.1.3-.2-.5-.3-.5-.3-.4-.1H78l-.2-.1-.8-.7-.2-.1-.1.1h-.2l-.1-.2h.2l.1-.1.3-.1V81h-.5v-.3l.3-.4.1-.2.3.2.5.7.3.2.2-.2H78v-.2l.3-.1h.3l.4.2 2.2 1.2.6.1.6-.3.6.5.3.1.1-.5v-.3H84.1v.5H84v.2h-.1V82.8h.1v.2l.2.1v.1h.2l.4-.2h.2l.1.1v.2l-.1.1v.4l.1-.1.2-.2.1.3.1.2v.3l-.1.3-.2.1-.3.3-.6.2H87l.5-.6.2-.1.3.1v.2l-.3.6.4.2.1.4.2.2.5.1h.5l1.2.3-.3-.4.2-.2h.8l-.3.3h-.2l1.2 1.8.4.1.2.1v.4l.2.6.2.2.4-.2.5-.2.2-.4v-.3L94 88v-.7h.2v.2l.1.6v.2l.2.2.2-.1v-.7h.3v.4l-.1.5-.1.3-.3.8h-.2l-.4.2-.1.2v.8l-.4.5v.2l-.4.3-.1.2V92.9l.4-.2.3-.3.7-1.4.1-.3v-.3l.2-.3.4-.2.4-.1.3-.2V88.7l.3.1.1.2.6.8.1.2.1.2.7.7.2.1.2-.1-.4-.7v-.4l.5-.6.2-.3v-.3l.2.2.3.2v-.2l-.1-.3-.1-.2-.2-.1H99l.1.3v.3l.3-.3.4-1h-1.4v-.2l.2-.3.3-.3.3-.1v.4h.2v-.2H100l-.2-.2h-.2v-.2h.4l-.3-.3-.2-.2h-.6v.3l.1.1h-.5l-.3-.2-.1-.2-.8-.2v-.1l.2-.1.1-.1.2-.2V85h-.1l-.1-.2-.1-.2-.2-.2-.3.1v-.2l-.2-.2h-.1l-.1-.3v.1l-.3.1v-.5h-.1v-.1l-.1-.1H96l-.1.4-.3.3-.3.2H95V84l-.2-.4-.1-.2h-.5l-.4.1-.3.2h-.4l-.3-.2h-.1l-.1-.1V83.1l.3-.1h.4v-.2l-.2-.1h-.4l-.2.2-.2-.1h-.4l-.4-.2H91L90 83h-.5l-.1-.3h.3l.2-.2V82l-.3.2-.1-.2v-.3l.2-.3v-.2h-.4l-.5-.2h-.3v-.2l-.2-.2-.5.1-.4-.2-.6-.1-.2-.1-.1-.3-.2-.4v-.3l-.7-.6-.1-.2h.2l-.1-.2-.2-.1h-.5l.7-.3 1.6.3.3-.2-.5-.4V77.4l-.5-.1.2-.1-.2-.3-.5-.2-.2-.2h.6l1 .6h1l.6.1.2.1.3.3.3.1h.3v-.1l-.7-.5-.3-.2H89.4l-.2-.3H89l-.5.1H88l-.2-.2-.2-.4v-.4l.3-.3H88.5l.2-.1.2-.1.1-.1.2-.5.2-.3.3-.2.1-.3-.1-.4h.5l.2.1.2.2.2.3.2.2h.2V74.8l.1-.2.1-.4.2-.2h.8-.3l-.2-.3-.1-.3-.2-.2.1-.1.1-.2.2-.1h.2v-.2l-.1-.1h-.2l.2-.1.3-.3-.5-.2h-.2v.1l-.2.1-.2.1v-.1l.3-.3.1-.2v-.3h-.2l-.2.1-.2.2-.1.2h-.2v-.1l-.1-.1-.3-.4v-.1l.5-.3.1.3.4-.1.2-.4-.4-.3H90v-.1l.2-.1.2-.2v-.2l-.2-.1v-.4l.3-.2h.6l.2-.1.2-.2v-.2l-.1-.1h-.4l-.4.3v.1H90v-.2h.2v-.2H90l-.4-.2h-.2l-.2-.1H89v.8l-.2.1v.1l-.1.2-.2.1-.4.2H88l-.2.3v1.5l-.2.5-.3.5-.3.2-.4.2h-.4l-.5-.1-.3-.3-.5-.5v-.2l.2-.4V71l-.7.3-.3.1h-.8l-.3-.2-.2-.4-.1-.4-.1-.3v-.4l.3-.3.4-.3h.5l.5.2.4.3.1-.2V68.9l.1-.2.6-.2v-.6l.2-.3.2-.2.2-.4-.2-.1-.4-.3-.2-.1-.5.2v.2h.2l.1-.1h.1l.1.1v.2l-.1.1-.2.2h-.5v.1l-.3.6V68l-.1-.1-.1-.1v-.2l.2-.6.2-.3-.2-.3h-.1v.3l-.1.3-.2.3-.3.6v.2H82.8l-.3-.1-.2-.2-.2-.2v-.3l-.2-.1h-.4l-.3.6-.5.7-1.2 1-.4.2-.4.2-1.2.2-.8.3h-.4l-1.2-.2-.7-.4H73l-.8-.2-.7-.5-.4-.8v-1l.4-.7 1.3-1.3.4-.7.6-1.1.4-.5.4-.3.6-.2h.9l.9.2.7.3 1 .6.1.1.1.2.5.8.2.2h1l.4-.1H81.7l.7.6h.4l.6-.3h.4l.2.4v.6l.2.1.4.1H86l.3-.1.3-.2h.2l.2.2-.2.1h-.2l.3.3.5-.2.6-.4.1-.3-.1-.2h-.2l-.3.1-.1.2-.5-.4-.7-1.3-.4-.6v-.9l-.1-.3-.6-.8-.2-.4v-.7l-.2-.2-.3-.5-.6-.3-.3-.7-.3-.2-.6-.2-.3-.2-.6-1 .2-.5-.2-.4-.3-.3-.2-.3v-.8l.3-.9-.1-.4v-.3l.5-.6.2-1.3.3-.9.2-.8v-1.1l-.7.1H81l-.4.1-1 .1-1.7.2-2.1.2-2.5.2-2.9.2-3 .3-3 .3-3.2.2-3 .3-2.8.2-2.5.2-2.2.2h-1.6l-1 .2H46.7l1.4-1.3-.2-.5-.6-.7-.3-.6v-.2l.2-.4v-.2l.1-.3V47l-.3-.2-.4-.4-.2-.4v-.3l.3-.2h.4l1-.1.3-.1.2-.3.1-.3.1-1.5.2-.2V42.3l-.3-.5-.2-.2v-.1l-.3-1 .4-.7 1.3-1V38l.2-2v-.7l.5-1.1.2-.8.2-.4.2-.4.3-.3.8-.2.3-.2.4-.3.7-1 .1-.2.2-.5.1-.2h.2l.5-.3.7-.6.3-.7v-.8l-.7-.6V26l.2-.2h1l.6-1.2.4-1.4.8-1 .1-.2v-.3l-.1-.3-.4-.1H57l-.3-.2-.1-.1-.3-.9-.4-.3-.6-.2-.6-.4-.3-.2v-.4l-.1-.9v-.4l.1-.3v-.3l-.2-.1-.5-.3-.2-.1-.2-.3-.2-.3-.1-.4v-.8l.5-.2h.5l.4-.1.2-.5v-.4l-.4-.2-1-.1-.2-.2v-1.2l.2-1 .2-.3.2-.1.2-.3.3-.5.1-.3-.4-.4-.2-.3h-.5l-.4-.1-.2-.2-.1-.2v-.7h-.3zm42.2 58.5-.3.2-.3.5-.4.4-.3.2-.2.1.1.4-.1.1h-.3l-.2.2-.1.2H92l-.2.1.1.3h.5v-.1l.1-.1.1-.1h.5V68l.1-.1h.4v.2l.1.1.3.4h.2v-.3h.3l.2-.1v-.7h-.1v.2l-.1.1-.1.1-.2.1-.1-.3v-.3h-.3l-.3-.2.2-.5.5-.6.2-.2.3-.2v-.1h-.3zM43.9 81.3v.1l-.3.3-.5.3h-.4l-.3.2-.5.4v.3l.4.2 2 .8.2.1.2.1 1.1.7.7-.2h.3l.1-.1V84l.1-.4.2-.2.7-.4.2-.4-.2-.1-.2-.1h-1.1v-.1L46 82l-.5-.5-.3-.2-1-.1h-.3z" fill="white" fill-rule="evenodd"/></svg>