<svg xmlns="http://www.w3.org/2000/svg" width="100" height="100"><path d="M62.5 22.4h-.6l-1-.1h-.3l-.2.1-2.2 1.7-.3.3v.2l-.3.5-.2.3-.2.3-.3.1-.3.1h-.3l-.4.1-.3.1-.1.2-.2.1v.1l-.2.4v.2l-.2.4v.7l-.1.2-.2.4-.3.2-.4.3-.3.2-.1.2-.3.5-.3.4-.2.4-.2.2h-.3l-.6.2-1.9.5-1.8.4-1.9.4-1.8.4-1.9.4-1.8.5-1.9.4-1.8.4-1.9.4-3.7.9-1.8.4-1.9.4-1.9.4-1.8.4-1.9.4-1.3.3-1.3.3-1.3.3-1.3.3-1.2.2-1.3.3-1.3.3-1.3.2-1.3.3-1.3.3-1.3.3-1.3.2-1.3.3-3.8.8-.3.7v.8l-.1 2.6v2.6l-.2 2.6v2.6l-.1 2.7-.2 5.2v2.6l-.1 1.4v.6l.9.7 3.2-.7 3.2-.7 3.2-.6 3.2-.7 1.8-.4 1.7-.3 1.5-.3.2.9 1.1-.4v-.8l3.6-.9H25l.4-.4 1.3-.3 4-.9 3.8-1 3.9-.8 3.9-1 3-.7v.4l2.4-.7 2.4-.7 2.3-.6 2.4-.7 1.3-.4.2.5.3 1 .7 2.1v.3l.2.1h.2l.5-.1H58.6l.2.4v.8l.1.2.2.3.1 1.2.1.1v.2l.3.2.4.4.5.2h.7l.5.3 1.2 1.2.1-.5v-.2l.1-.2h1l.2-.1.2-.3.4-1.8.2-.5.3-.3-.3 1.6-.8 2.7V67l.3.8.4 1.5.7 1.2V71l.2.4.5.6 1.3-1.9.5-.5-.1-.1-.4-.5 1-.1.3-.3-.2-.6.4.3.3.4v.5l-.5.4.9.1.6-.3 1-1.2v.2h.3l.2-.3.5-.7-.4-.9v-.7l.3-.7-.2-.8.8.2.2.1.2.3.3.5.2.2.3-.1V65l-.4-.9h.2l.5-.3.3-.4V62.9l.3-.2.5.4.3-.6v-.7l.2-.4h.7l-.3-.5-.2-.4-.2-1.1.2-.1h.6l1 .5h.2v-.5l.1-.3h.3l.3.3h-.1l-.2.3.2.3-.1.4-.2.4-.1.3.1.5.3.5.7 2.6v1l-.4.8.8-.3 1.3-1 .7-.5 1-.2.6-.4.6-.5.3-.8.5-1.5.2-.4h.3l.5.5.3-.2.3-.4.3-.2 1-.1.3-.2.6-.5.4-.2v1.3l.2-.3.2-.7.2-.4.2-.1.3-.2.8-.6L92 58l4-1.9h1l-.4-2.3-.5-1.7-.3-.4h-.4l-.6.6v-.5l-.1-1v-.5l.4.3.5.2h.1v-.1h.2v-.2l-.6-.6-2.2-3.6-1-.8-1.8-1.2-.6-.2-1.3-.3-.5-.2h-.4l-1.1.4h-.7l-.2.2-.2.4v.3l.1.2h.2l.2.1h.2l.8.7.4.2.5-.3-.1-.2h-.5l.3-.9.9-.3 1 .4.7 1 .2.3.8 1.5.2.5.4 1.6.2-.5-.1-1 .3-.4h.3l.3.3.4.1h.5v.2l-.3.3-.2.1h-.3l.8.8.5 1 .1 1.2-.3 1-.3.3-1 .4-.5.7-2.2 1.3-1.2 1.1-.7.6-1 .2h-.6l-.2-.1.3-.3 1-.3.3-.2-3.4.6-1-.1-2-.7-1-.7-.3-.9v-1l-.5-1.2-.7-1-.7-.4-1 .4h-.5l-.6-.2-1.9-1 .2-.3h.7l-.2-1.7.1-.3.3.2.4.4.6.8-.2.1-.2.2.2.2h.3l.3-.1.2-.3v-.3l-.2-.1-1-1-.4-.5V47l-.8-.4-1-1-.6-.6-.4-.2h-.1l-.3-1-.2-.2-.8-.7-.7-.3-.6-.2h-1.4l-.7-.3-1.5-.9.1.4.4.5.4.4.4.1V43.3l-.3.3-.5-.4-.2.3-.3.3-.4.3h-.2v.1h-.5V44l.2-.4v-.1L65 43l-.5.1h-.5v-1l-.6.6h-.2l-.4-.1-.4-.4v-.4l.3-.3.4-.1-.2-.3-.2-.1h-.3L62 41l.1-.5h.5l.5.3.5-.2h-.4l-.2-.3-.1-.2.2-.2h.4l.6.5h.4l-.3-.3-.2-.3-.3-.8-.3-.4V37.7l.5-.4 1 .7.5-.4-.4-.1-.4-.2-.3-.3v-.4l.1-.2.5-.1h.1l.2-.2.4-.7v-.1l.2-.2.2-.1.2-.2-.2-.1-.3-.3-.2-.3-.2.3-.3.4-.3.3V34.5l.2-.3.1-.2-.2-.2.3-.4 1.2-1 2.8-1.4.2-.2v-.4l.2-.3.2-.3h.2l.1.1h.5l.1-.2.2-.3.2-.3v-.3l.2-.2.3-.1v-.2l-.2-.3v-.5H70.3l-.2-.3-.1-.5-.6.6-.3.3v.3l.2 1v.3l-.6-.2-.1-.4-1.5.2-.6-.4h.2l.2-.2.4-.3-1.7-.3-.7-.4-.4-1 .4.2 1 .9.2-.3-1.3-2-.4-.3-.2-.3h-1.1l-.3-.2-.4-.2 1.2-.2.2-.2v-.3l-.5-1.1v-.3l-1 .5zm34 35.7-.3 2.9.4-.3.2-2.1.2-.8v-.3l-.2-.2-.1-.1h-.2v.9zm.4 8.2.5.8v.8l-.4 1.6.3-.3.6-1 .4-.3v.5l-.2.5-.3.4-.6.4-.2.4-.2.2H96l-.8.1-2.1.9v.2l3.1.2 1.6-.2 1.4-.4 1-1-.5-1-1.2-1.2-.8-1.4-.2-.2-.2-.1H97zm-14.6 1.6v.4l-.4.3v-.8h-.3l-1.3 1-.5 1-.3.2-.3.4-.4 1.4-.2.5-.4.3-1.7.4v.3l.5.1.6.6.4.2.5.1h.3l.4-.7.5-.6.6-.5.8-.4 3.7-1 .4-.3-.7-1.6-1 .2h-.3l-.4-.3.4-.4.2-.4V68l-.5-.4h-.4l-.2.3zm3.3.7-.2.7-.3.4.2.4.5.3.5.2h.4v-.9l-.4-1-.4-.5-.3.4z" fill="white" fill-rule="evenodd"/></svg>