<svg xmlns="http://www.w3.org/2000/svg" width="100" height="100"><path d="m74.4 26.8-2.4.5-2.4.5-2.4.5-2.4.6-2.4.5-2.4.5-2.4.5-2.4.5-2.4.5-2.4.5-2.4.5-2.4.5-2.4.5-2.4.5-2.4.5-2.4.5-2.4.5-2.4.5-2.4.5-2.4.4-2.4.5-2.4.5-2.4.5-2.4.4-2.4.5-2.4.5-2.4.4-2.4.5-2.4.4-2.4.5-2.4.4 2.3 13.7h.2l.2-.1.2-.3 2-2.5H5l.8-.4H6V52l.2-.6v-.3l.3-.3.5-.5.9-.8.1-.2.2-.3.4-.4v-.1l.1-.1v-.2l.2-.7v-.2l.1-.1.1-.1.7-.5.2-.1h.5l.4.2.5.3H12l.2-.1.1-.1v-.2l.2-.3 1-1.5.2-.4.1-.4V44l.2-.1v-.1l.1-.1h.1l.4-.2.1-.2-.1-.2v-.4l.2-.6v-.3l.1-.2.1-.2H15.4l.1.2.3.1.2.2v.1l-.2.2v.4l.2.2.1.1.8.2.4.2h.1l.2.1.5.1h1.7v-.2l.7-.3 1.6-.1.5-.6v-.4H22v-.5l.3-.1.4-.1.3-.2-.8-.7.2-.1.2-.1H23.2l.5-.4.4-.2h1.3l.1-.3.3-.5.2-.2.5-1h.1l.2-.2.2-.1 1.1-.2 1 .5 2 1.2.5.2.4.1h.5l.3-.3.2-.1h.6l.1-.1v-.2l.3-.1h.5l.4.4v.4l-.3.4-.5.2.2.3.5 1 .1-.1v-.6l.2-.2h.2l.2.3v.2l-.1.2v.2l.3.2h.3l.3-.2.4-.1v.2l-.2.1-.1.3v.2l.2.3-.3.5.3.2 1 .2.3.4v1.5l.4.5h.5l1-.1h.5l1 .1h1l.2.2.6.6.4.2h.5l.5.1.3.4v.5l-.2.5-.6.8v.4l.2.4.3.3.4.2.9.6.5.2 2-.2h.6l.7.3.6.3.2.4.1.4.2.3h.7l.7.2h.7l.3.1.3.3 1.2-2 3 2.7-1.4 2.6.1.4.5.6v.2l-.1.2v.2h-.2l.3.6-.2.3-.8.4-.2.3-.2.1v.2l-.2.3v1.4l-.2.2h-.2l-.4.2h-.2l-.1.2H54l-.1.2v.7h.1l.2-.2.2.1-.5.4-.2.2-.5.2v.6l-.1.6-.1.3-.1.3.1.7.3.8.2.5.4.4.4.5.6.2.4-.3.2-.2.4-.3.2-.3.3-1-.3-.3h-.2l-.1-.1.2-.3.3-.2.2.1v.7l.3.3h.5l.2-.3.2-.6v-.2l.1-.2v-.5l.4.3.5.6 1 1.8.4.5 1.7 1.2.7.2h.4v-.7l-.4-.8-.3-.6-.8-1 .8.3.6.4.4.6.2 1 .2.3.2.3.5.5.4.2h.3l2-.6.7-.1.7.3.3.2.4.1.3.2.3.4.2.3.3.7v.2l.4.1.1-.2v-.8l.6.5.3.1v-.4l.2-.2v-.7l-.3-.3v-.3l.5.4.4.8.2.8.4.4h.6l1.8 1.1v-.3l-.3-.2-.2-.2-.2-.2v-1.5l-.2-.5-.8-.8-.7-.4-.2-.2-.2-.5v-.4l.1-.4v-.5l-.3-.4-.5.1-.5.3-.5.1-.5-.2-.4-.3-.4-.5-.2-.5H69l-1.5-.4-.8-.5-.7-.6-.6-.9-.3-1v-.1l-.2-.1.1-.3-.2-.4-.2-.5-.6-2V57.9l.3.6 1.5 3.9.1.2h.3l1.8 1.6.4.2H69.4l.4.2.2.1v.2l.1.1.2.3.4.3h.4l.7-.1.4-.3v-.6l-.3-.5-.3-.5-.8-.8-1.8-1.3-.6-1-.2-.5-.2-1.7-.2-.5-.2-.5-.2-.5v-.6l-.7-.5-.3-.4-.2-.5.2-.5.6-.6.2-.5v-.6H67l-.5.6-.3-.2.1-.9-.2-.2h-.2v-.2l.4-.2h.3l.1.1.3-.4-.3-.3-.8-.3-.3-.2-.2-.4v-.3l.3-.1.5.1.9.7h.4v-.2l-.3-.6-1.2-1.2-.6-.4-.2-.1-.5-.1-.2-.1-.2-.3v-.5l.2-.1h.2l.3.3.4.4 1.5 1h.1l.1-.3.1-.1.5-.2.4-.2v-.2l-.4-.4-.4-.3-1.2-.3h-.7l-.2-.2v-.4h.2l.8.3.2-.2h.3l.3.2.1.2h.2v-.6l-.4-.5-.4-.5-.5-1-.3.1-.4.4h-.2l-.4-.5h-.2v-.2l-.2-.3-.3-.2-.6-.1-.2-.2-.1-.2-.3-.2h-.5l-.3-.1.1-.1.5-.2.2-.1.2-.3.2.2 1.2.3.3.2.3.3.3.1.1-.1.2.2.1-.2h.4l.2.2.8-.7v-.2h-.8l-.6-.3-.6-.6-.5-.7h.7l.2.2.5.5.3.2.3.2.2-.3v-.2l-1-.7-.1-.3v-.2H67l-.2-.4.2-.2.2-.1.2-.1.1-.3h-.1V38l-.6-.1h-.6l-.3-.2 1.5-.8.3.1.6 1.1.4 1.2.5-1h.2V38l-.3-.3-.4-.4-.1-2v-.1l.2-.3v-.2h.5v2l.3.5.4.2.4-.5 1.2-1 .7-1.3.1-.3v-.3h-.2l-.8-.2-.3-.2.3-1.6.1-.2.2-.2h.3l1.4-.4.2-.1.2-.7.2-.4.3-.1v1.6l-.2.4-.4.9v.5l.1.5.3-.5 1.2-1.6.3-.5.2-.5.3-.5.5-.3v.7l-.1.6-.3.6-.5.4.3.4.4.2.7.3v.1h-1.5l-.5.1-.3.3-.4.5-.6 1.1v.5h.6l2.3-.4h.6l.4.3-.6.1H77l-1 .3-2.3.4-1.8.6v.8l-.1.2-.2.2-.4.1-.2.3v1l-.6 2.1-.1 1-.1.2v.6l.6.1.2.2.1.3.1.2.2 1.2.1.4.3.2.3-.4v-2l.6-.6v.2l-.2.2h.6l.4-.2.3-.4.5-.3-.2.5-.7 1.1-.3.7.2.2h-.2l-.5.3.2.2.1.2.2.1.1.1v.6l-.2.4-.5.3-.4.1h-.6l-.4-.1-.7-.5h-.2l-.3-.1h-.2v.7l-.1.6V51l.2.5h.3l.4-.4.2-.3-.2-.2-.2-.2-.2-.2v-.3l.1-.2h.2l.6-.3h.2l.2-.2v-.4l.2-.2.1-.5.4.1.8.4v.8l.2.4h.3l.1-.7v-.2h.3v.8h.2l1 .2-.4.4-.5.4-.4.4v.8l.5.5h.4l.4-.4.2-.4.2.4-.1.4-.3.4-.2.2H74l-.4-.2-.3-.3-.3-.5v-.1h-.5l-.3-.4H72l-.3.2-.5.6v2.1l-.2.5v.4l.1.7h.4l.3-.3.1-.2-.1-.3-.1-.7v-1l.3-.4.1.2v1.1l.3.3.3-.5.5-1h.4v.5l-.2 1h.3l.3.6.2.1.3-.2v-.7l.1-.3.2.2v.5l-.1.2.3.3.3-.1.5-.2.4-.1v.2l-.2.1-.5.4-.2.2v.2h.8l.2-.3.3-.2v.6l.5.4.7.2h.5l.5-.3.2-.4.2-1H79.4v1.3l-.2.5-.2.3-.3.1-.6.3-2.3-.4-.4.2-.3-.1-.2-.2h.1l.2-.4H75l-.5.4-.3.2h-1.4l.3.4h.1l.2.1v.2l-.3.7v.4H74l.2-.2.2-.2v-.5h.3l.2-.1H75.2l.2.3-.3.5.2.2-.3.3-.5.2-.3.3v1.2l-.2.4h-.2l-.2-.6-.2-.2H73l-.3.3.1.5.2.2h.2l.2.2.3.6.2.3.2.2.2.1.8.9.6.5.2.7h.1v-.6l-.6-1.1.2-.3.4.2 1.6 1.3.3.4.2.2h.6l.2.2 1 1 .3.1.1-.3v-1.1l-.1-.3-.2-.2-.3-.1.3-.8.4-.8.5-.4.3.5v.4l-.6.4v.4l.1.2.2.2.3.2.1.1.1.2v.6h.2l.1-.2.2-1.7.1-.2.8-1.5V61.3h.2l.3-.1v.8l-.1.5-.4 1.3-.2.6v.6l.4.5.4.1 1-.1h.4l-.7.6-.8.5-.6.5v1.6l.2.2H83.2v-.7l.4-.2 1-.1.5-.3h.3l.3-.1h.3l.2.2-.2.2-.6.3-.2.1.2.2v.2l-.2.3-.2.2-.2.1v.2h.2v.1l.3-.1.3-.1.5-.1.3-.3.2-.3.2-.2h.3l-.2.5-.8 1.1-.1.4-.1.1-.6.3v.2l-.1.3-.3.8-.1.2h.1v.2h.2v-.3h.2l.1-.2h.2v.3l-.2.3-.1.2v.5l.1.1v.2h.3l.4-.3.5-.7.4-.5.4-.1 2-.3h.7v-.3l.1-.5.1-.1.5-.2 1-.3.6-.3 1-.4 1-.3.5-.2.4-.2v-.2l.2-1.4-.1-.2V67l.3-.5.2-.2H96.6l.1-.3v-.9l.1-.2.2-.2v-2l.3-.3.6-.5-.2.6.2.2.6-.2.2-.2.2-1.4.2-.3.2-.6v-1l-.2-.2H99l-.3.2h-.3v-.1l.1-.1.1-.1v-.2h-.2v-.2l.1-.4-.4-.1-1-.1.4-.3h.4l.4.1h.3l.4-.1v-.2l-.6-.6H99v-.2h-.5l-1.1.3-1.7.4-1.6.3-1.6.4-1.7.4-1.6.3-1.6.4-1.7.3-.3-1.2-.4-1.2-.5-2L84 53l-.6-2-.5-1.9-.5-1.9-.5-1.9-1-3.8-.6-2-.5-1.8-.5-2-.6-1.8-.5-2-.5-1.9-.5-1.9-.5-1.9-2.4.5zm25 29.4.2.8v1.6l.1.8.3-.6V58l-.1-1-.2-.8h-.3zm.1 4.2-.2.6-.4 2.1-.3 1.2V66l-.5 1-.2 1h.1l.2-.1.1-.3.5-1 .4-2.3v-1.6l.4-1.6v-.9zm-19.7 7-.3.5.3.5h1l.2-.3v-.2l-.1-.3-.3-.2-.3-.2-.5.3zm1.4 4.2v.4l.1.2.7.2.2.2-.2.1-.7.1v.2l.1.2.7.1.2.3V73l.2-.6-.2-.5-.4-.2-.3-.1-.2-.1h-.2z" fill="white" fill-rule="evenodd"/></svg>