<svg xmlns="http://www.w3.org/2000/svg" width="100" height="100"><path d="m47.5 0-.7.5-.4.8v.2l.1.2v.1l-.3.2-.2.2H45l-.4.2-.3.2-.6.5-.3.4-.1.4-.3.2-.3.2-.8.2-.6.3-1.7 1.6h-.2l-2.4-.6-.4-.3-.2-.4-.1-.2-.2-.6-.2-1.3-.2-.6-.3-.2h-2.5l-.2.2-.2.2-.1.3-1 2.2-.7 2.3-1 2.2-.8 2.2-.9 2.3-.8 2.2-.9 2.3-.9 2.2-.1.4v1l.1 1 .3 2.2.2 1.4v.6l-1 1.3-.2.2-.3.3v.4l.1.5v.2l-.3.2-.1.3v.8l-.3 1 .1.4.4.1.3.4.2.4v.4l-.1.4-.5.5-.1.3v.1l.2.1.2.1v.1l.1.1v.1l-.1.2v.8l.1.4.3.2.4.1h.3l.1.1v1.4l-.4.5-1 1.3-.2.4v.5h.2l.1.3.2.4v.4l-.1.3-.3.4H24l-.4.1-.1.2-.4.5-.8.6-.2.3-1 2-.4 1.6v.4l.4.4.3.2.7.2.3.2.3.3-.1.3-.4.3h-.7l-.7-.4h-.7l-.2.2-.1.4v.8l.3.9V53.9l-.2.3-.1.2v.2l.1.4v.2l-.2.3-.3-.2-1.2-1.6-.3-.2h-.4l-.3.3-.2.2v.3l-.3.3-.1.1-.3.2.4 1 .3 1.2.4 1 .3 1.2.4 1 .7 2.3.4 1 .3 1.2.4 1 .4 1.2.3 1 .4 1.2.3 1.1.4 1.1.4 1.1.3 1.1.4 1.1.4 1.1.3 1.1.4 1.1.4 1.2.3 1 .4 1.2.3 1 .4 1.2.4 1 .3 1.2.4 1.1.4 1.1.3 1.1.4 1.1.2.6.1.7v.3l.1.4v.4l.2.3.1.3v1.1l.1.2.2.2.1.1.2.2.6.4.7.6.7.6.7.2.2.1v.1l.2.3v.2l.1.2V98.6l.1.1.4.5.8.4.6.4V99.2l.2-.1.3.2.3.3h.3l.1-.2.2-1.2.2-.7.1-.2.3-.2-.3-.1.1-.4.1-.4-.3-.4-.1-.5v-.6l.1-.5.4-.8.1-.2h.2l.4-.2.4-.3.2-.3.2-.4.2-.3.1-.1.2-.1V91l.1-.2.2-.4.1-.2.2-.2v-.1h-.2l-.1.1-.3.3-.2-.4-.1-.4-.1-.4v-.5l.2-.4.2-.3h.3l.1.4.2-.2.2-.5.3-.2V87.7l.2-.1.3-.3.3-.1V87l-.1-.6V86l-.4-.4h-.8l-.5.1v-.1l.4-.2.2-.1.1-.3V85l-.2-.3v-.3l.3-.4.2-1 .3-.3.6-1.1.1-.1h.2l.2-.2.3-.3.2-.2.1-.4.1-.3.2-.1.2-.1v.5l-.2.2-.1.1h.2l.4-.5.4-.2v.6L42 82l-.1.6h.3l.1-.4.1-.3V81l.1-.5.2-.5V80l.3.4-.5 2.5h.1l.1-.2V82l.2-.1v-.1l.5-1 .2.2h.1l.1-.4V80l-.2-.2-.2-.1h-.2v-.2l.2-.2h.5v.4l.1.2.3.1v.2l.1.2V81.6l.2.1.2.1.3.6.2.2v-.5l.2-.2.2-.2V81l-.1-.2-.3-.4-.3-.7-.2-.7-.7-1.6-.5-.8-.2.5v.2H43l-.1-.3V77l.7-1.3.2-.3h.1l.1-.4.2-.1h.1v.3l-.3.5v.9l.3.5v.3l.2.3.1.2v.2l.2.3v.2l.3.3.1.2.4 1h.2v.5l.4.5h.2l.1-.4V79l-.1-.2-.2.2v.5l-.2.2v-1.2h-.2l-.3-.1V78l.8-2.7.1-.3.2-.1.3-.1v.2l-.2.3-.1.9v.3l.2.3h.2l.2.1.2.2h-.5v.4l.2.2-.2.6.3.2.4.2h.5l.1-.3.2.7.1.2.1-.4v-.4l-.1-.3-.2-.3-.3-.2v-.5h-.1v-.8l-.1-.1v-.2l.1-.4.1-.6v-.3l.2-.2.2.3-.3 1v.5l.1.1.2.1V77.7l.1.2.4.2-.1.2.3.2-.2-.7v-.6l.2.2.2.3.2.2.1.5.2-.5.1-.7V75l.1-.3h.1l.3-.2.1-.2-.2-.5.1-.1.2-.2V73h.4v.4l-.2.4v.1h.4v.9h.2l.3-.4.2-.1h.2v.7l.1.2.1-.2.7-1.5.3-.1v.4l-.4.9.1.5h.1l.3-.1.2-.1.5-.6h-.3v-.8h.2v-.4h.6V72.3l.5-.2.2-.3v-.3l.1-.6-.5.3v-.7l-.3-.3.1-.3v-.3l.2-.6v-1.5l.2-1 .2-.3.2-.2.3-.3v-.3l-.2-.4-.7-.6V64l-.3-.1-.1-.2.3-.3.6-.4.2-.2.3-.6.2-.2h.3v.4h.1l.3-.2.2-.4H56.7v-1.3l-.1-.5.3-.1h.6l.2.3-.2 1.2V62l-.2.2v1l.2.2h.2l.1-.3.2-.6v-.1l.6-.5v.3l.5.3v.2h-.2l-.4-.1h-.1l-.1.3-.2.2.2.1.1.3.1.2-.1.1h-.2l-.2-.2H58l-.2.3V65.2l.5-.2.5-.5h.4l.6.3.4.2.2-.2h.5l1.8.7.4-.3h-.2l-.1-.1-.2-.1-.1-.2H62.7v-.3l-.1-.3H62l-.1-.3V62.8l-.3-.2-.3-.4-.2-.2h.8l.3-.3.2-.5.1.2.1.2.1.5h.1l.1-.1.1-.3v-.4h-.1l-.1-.1-.1-.2v-.2l-.1-.4-.5-.5.4-.1h.4l.2.3.3 1.1.1.3h.2l.4-.3-.1-.3.2-.6V60l.3.1h.4l.7-.2-.1-.1-.1-.1h-.1l.1-.5-.2-.3h-.6v-.4h.5l.3-.1v.3l.2.2.7.4v-.4l-.1-.3V58l.2.1.2.5.2.5v.2h.4l.1-.1V59l-.1-.2V58.1h.1l.1.2h.6l.1.4v.5l.3.5.4.5.2.3.3-.2v.6l.1.2.3.2.1-.3.2-1V59.9l.1-.1h.1l.1.1.1.1h.2v-.7l-.4-.5v-.1l-.6-.2h-.3l.2-.2h.5v-.8l.6 1.3v.2h.2l.2.2h.2V59l-.2-.4v-1.1l.2-.2v1.2l.2.5.4.2-.1-.5v-1l-.3-.4h.5l.1-.1v-.3l-.1-.3-.5-.3-.1-.2V56l.2-.1.2-.2V55h.5v-.5l.2-.1.1.3v1l.2.2v-.2l.2-1.2.1-.2.1.2.2 1 .1.4.2.2h.5l.2-1 .1-.4.1-.2H74.8l.1.2v.1l.1.2v.2h.5l.2-.1V55l.1-.1.2-.1.1-.1v-.1l-.1-.2V53.8l-.3-.6-.1-.1h-.3l.4-.7.2-.1.3.4.2-.3h.1l.2.2v.3h.5l.3-.1.3-.2-.3-.2-.1-.2v-.3l-.3-.4h.4l.2.4.3.5.3.3V52.4l.2-.4h.2V52l-.2-.2v-.4l-.2-.3-.2-.2-.2-.3.2.1.2.1h.2l.2-.3h-.3l.4-.4.3.1.2.4-.1.4v.2h.3l.3.2h.6l-.2-.3v-.2l.2-.1.3.1H81.3l-.1-.3v-.2l.3-.2.7-1.3v-.7l.2.1v-.6l.2-.1h.4l.1-.1.2-.3.3-.7V46l-.3-.5v-.2h-.4l-.5-.4-.3-.2H82l.5.8.1.5-.3.3-.1-.5-.3-.5-.3-.3-.3.2.1.1.2.2-.1.3h.1l-.2.2-.3-.3-.2.1v.2l.2.6v.2l-.6-1-.2-.1-.4-.2-.2-.3V45h.2l.6.3h.3l.2-.1v-.5l-.3-.1V44h.2l.3.2.2.1.3-.2V43.2l-.2-.2-.5-.5v-.2h-.3l-.3-.2-.2-.3v-.4l-.3-.3-.3-.2-.2-.1H79l-.1-.1-.2-.3-.1-.1-.1-.2h-.1l-.2-.1-.3.1-.2-.2h-.3l-.4-.1h-.4l-.1.3v.5l-.4.5h-.7l-.7-.4-.8-.7-.9-.5-.1-.3v-.8l.2-.8-.2-.8-1.2-1.1-.4-.7.3-.5.3-.4.1-.3-.1-.7-.3-.6-.4-.2-.4.1-.5.2-.7.2H68l-.6-.2-.3-.2-.2-.2-.1-.2H66.4v.2l-.2.1H65.6l-.3-.2-.2-.2-.4-1.1V30l.2-.4v-.2l-.1-.3-.4-.3-.2-.3.1-.4.2-.3V27.2l-.2-.1h-.1l-.2-.2v-.2l-1-2.8-.8-2.7-.9-2.8-.9-2.7-.8-2.8-.9-2.7-.8-2.8-.9-2.7-.3-.8-.1-.1-.7-.2-.3-.1-.7-.5-.8-.3-.1-.2-.2-.2-.2-.2-.6-.4-.9-.3L51 1h-.3l-.5-.1H50l-.6-.5-.3-.1-.8-.2h-.8zM65 60.4l-.5.4-.2.6h.2v.3l-.1.2-.2.1-.1.1-.1.3V63.7h.4l.1.2v.1l-.2.2.3.3h.6l.2.3h.1l.2-.2.2.3.3-.2.1-.3.2-.3v-.2l-.4-.2-.2-.2V63l.5.2.7-.3.6-.5.2-.5-.3-.6-1.2-.7-.2-.4-.5-.1-.7.2zm-4.7 5.2-.1.2v.5l.1.2.1.2h-.1l-.3.1H60l.3.3v.7h.1l.7.2.3-.2.5-.5-.4-.1-.2-.1-.1-.2.1-.1.4-.2.2-.2-.2-.2-.1-.3-.2-.2-.4-.1-.4-.1h-.2zm-2.6 4.2v.5h.4l.4.1.2.2v.4l.6.2h.3v-.2l.1-.2.2-.2.2-.3-.1-.4h-1.3l-.7-.1h-.3z" fill="white" fill-rule="evenodd"/></svg>