<svg xmlns="http://www.w3.org/2000/svg" width="100" height="100"><path d="m25.5 6.8-1 .3-.7.4-.2.1-.1.2-.1.1h-.5l-.3.3-.9.5-.3.3-1 1.5-.1.2-.5.3-.2.2V12.5l.2.2h1.1l.3.3.5-.1.2-.2v-.2l-.2-.2-.3.2.1-.2.2-.3.2-.3h.1V13l-.2.1-.3.3-.1.1-.1.2v.2l.8.9.1-.1.2-.2.2-.5.2-.8.1-.2.4-.2.1-.2v-.3h.2l.2-.1h.2V12l-.2-.1v-.3l.2-.3.1-.2h.1l.2-.1h.1l.2-.2.4-.5v-.1l.3-.1.2-.1.1-.4.3-.2.2-.1.7-.6-.2-.2-.4-.1h-.4L26 8h.8l.6-.3h1.4l.4-.3h.2v-.2h-.1l-.3-.4-.2-.1-.4-.2H28l-2.6.2zM19 11.3l-.2.2-1.8 1.7-.3.2-.2.5-.1.2-.4.7-.1.2h-.2l-.3.1-.5.3H14l-.2.2-.8 1-.8.7-1 .5-4.5 1-.4.2-2 2-.4.3-2 .8-.5.4h-.2l-.4.1-.3.1-.2.2-.3.2v.3l.1.2h.1l.2.1h.1l.3-.2H1l.2.3h.3l.2.2h.5v.1l.3.2.1.2.1.2.3.4.3.6.3.5v.2l.1.1h.1l.3.1h.2l.3.1.5.1.7.1.9.2 1 .1.9.2 1 .1 1 .2 1 .1 1 .2.8.1.7.1.6.1h.4l.4.2h.3l.7.4.7.3.8.2.7.3.3.2h.4v-.1h.2l.2.1.3-.1h.5l.2.1.5.2h.2l.2-.3h.4l.2-.1h.4l.3.2h.4l.5.1h.6l.3.2h1.1l.2.1H26.6l.3.2h.3v.1l.2.1.3.6V31.7l-.2.4v.4l.1.2H28l.2.1H28.9l.2.1.1.1h.9v.1h.2l.2.3.3.2h.2l.1.2.2.2v.4h-.1v.2l.1.2.2.2v.1l.1.1v.5h-.2v.2l.1.4.2.5v.1l-.1.3v.1h-.1v.1l-.4.4V38.3l-.1.4v.2l.3.2h.2l.1-.1h.7l.8-.6H33.4v.1l.1.1.1.1V39l-.1.2-.1.2-.2.6-.2.7v.7l.1.2.2.2.3.2.1.2h.1v.1l.3.2.6.1-.1-.7v-.3l.4-.3 2.1-3.9V37l.1-.2.2-.3.1-.1.1-.8.1-.2.4-.6.2-.3.4-1 .1-.2.5-.2.2-.2.1-.5v-.7l.1-.7.2-.3.1-.1.1-.2.1-.8.1-.2H40.6v.7l-.2.4V31l.2.2v.2l.1.2v1l.2.2h.1v-.2h.1l.5-.3h.3l.1-.2h.2v-.2l.1-.3.3-.5V30.8l.2-.1V29.9l.3-.1h.2l.5.2h.5l.1-.3.2-.2.2-.1.2-.2h.4l.2.3-.2 1v.2h.1v.1H44.8V31.2l-.1.2v.1h-.2v.1l-.1.5v.1l-.4.4v.2l.1.3.2.1.4.2.2.2h.4v-.2l-.1-.1V33H45v-.4h.1l.2-.7.1-.2.4-.2V31h.2l.3-.1.4-.3.2-.3.2-.1.4-.1.2-.1v-.2l.2-1 .3-.7.4-.5 2-.5h.4l.8.1.7.3V27l.2-.1 1.2-.3 1.5-.2.1-.1.2-.3.1-.5.7-1 .2-.2h1l.2-.2h.2l.2.1H58.7l.2-.2h.3l.4.4H61l.7.2 1.1.2.2.1.5.5h.2l.1.1.3.4.1.1h.5l.3.2.1.3.3.2.5.2h.6l.3-.3h-.3v-.3l-.1-.4.2-.2-.2-.1v-.5l.1-.2h.2v-1l.2-.1h.4l.4.1.2-.1h.2l.2.2.1.3v.2h.2l.2-.2h.1l.4.2v-.4h.7l.3.1h.2l.2-.1h4.1l.2-.1.6-.2h.1V23.5l.1-.3h-.2l-.2-.1-.1-.2h-.8l-.2-.2-.5-.5v-.1l-.1-.2v-.2l.2-.2v-.2H73.5l-.2-.1h-.4l-.2-.2H72l-.2.1v.2l-.4-.3-.2-.3v-.1l.2-.2.3-.3.3-.1-.2-.2-.3-.4-.1-.3-.2-.6v-.3h-.2l-.4-.8-.2-.4-.5-.5-.3-.1h-.8l-.1.2-.4.6-.3.3-.4.4-.5.1-.4-.1.1-.4-.3-.3-.5-.2-.4.1-.2.3-.4.3-.4.1-.4.1H64l-.5-.2H63l-.1-.1-.2-.2H62.4l-.3.2H61.5l-.1-.3-.1-.2.2-.4.1-.2-.2-.5v-2.1l.1-.2.2-.1.2-.2V13h-.2l-.5.3H60l-.9.3-1 .4-2 1.3-.4.1-4 .2h-.3l-.4.2-1.8.6H49l-.3-.2-1.5 1.3-1.2.7-.4.4-.4.1-.2.1-.5.5v.2l-.5.8-.4.4-.3.1v-.2h-.6l-.2-.2-.2-.2-.3-.2-.2.1-.3.4-.2.2-.3.1h-.3l-.2-.2v-.1H40l-.4-.5V20l-.1-.1v-.1l-.2-.1h-.5v.1l-.2.1h-.4v.1l-.2.3-.1.1H37l-.5.3h-1.4l-.3-.2-.2-.3-.2-.7v-.1h-.2l-.6-.3h-.1v-.3l-.3-.1-.2-.2-.2-.3-.1-.2-.2-.2-.5-.4-.2-.2-.3-.7-.2-.2h-.2l-.1.1-.1-.1-.2-.3h-.5l-.2-.3-.1-.1H29.7l-.1-.1-.2-.1-1.3-.2h-1.8l-.6.2-.9.3-.2.2v.3l-.3.4-.2.3-.3.1v-.1l.2-.3.1-.5.2-.4.6-.3.3-.4.1-.3H25l-.2.1-.5.5-.4.5-.4.2-.3.3-.1.1-.4.1-.1.1.2.2-.6.9-.3.4h-.2V18l.1-.1h.1l.1-.1v-.2l-.3-.4V16l.2-.4v-1l-.3-.2-.2-.3h-.5V13l-.3-.1H20l-.3-.1-.2-.2-.1-.3v-1H19zm52 4.3-.5.5-.2.2v.4h.3l.1.2v.2l.3.6v.2l.3.1.2.1.2.2v.2h.4l.2.2V18.4l-.1-.1-.6-.8-.1-.3v-.4l.2-.6.1-.3v-.1h.1l-.2-.1h-.5l-.2-.1zm.6 3.2V19.4l.2.3.3.3.2.2.3-.2v-.4l-.2-.4-.3-.3-.2-.2h-.3zm-29 .2-.1.2v.5l.1.1h.1l.1.2V20.3l.1.1h.1l.1-.1h.2v.1h.4V20h-.4V19.7l.2-.3-.2-.3h-.1l-.1-.1h-.5zm35.2 2.4h-.3v.3H77.8l.2.1v.5h-.2l-.2.2-.3.2H77v.2l-.2.3h-.3l-.3-.2h-.3l-.1.3V23.6h.1l.1-.2h.1l.2.2.2.2h.3v.3h.1l.1-.1.5-.1H77.8l.1.1h.1l.2-.3h.3l.5.2H79.9l.2-.2.2-.6.1-.3v-.2l-.2-.2h-.6l-.2-.4v-.3l-.3-.2-.6-.2h-.7zm-8.2 3v.1h.2l-.1.2.2.1h.7v-.2h-.2l-.1-.1H70v-.2l-.4-.1-.1.1zM70 27V27.3h-.5l-.7-.2h-.4l-.2.3.2.1.6.4.4.4H70.5l.1-.2.2-.5v-.2h-.3l-.2-.1V27l-.3-.2zm-4 .9v.1l-.1.2-.2.2h-.2l-1.5.2h-.5l.2.2.5.3-.1.2-.4.7-.6.6-.3.3-.2.5v.6l.2.6.2.4.3.4.4.3h.2l1.1.1h.2l-.2.5-.5.3-.7.1-1 .1-.5.2-1.7 1.2-.4.4-.2.4v.6l.5 2v1.3l-.2 1.3-.4 1.2-.6 1.4v.1H59v-1.1l.3-.4.1-.3V42l.2-.2v-.2l-.1-.2H59v1l-.1.2-.2.3h.3v.2l-.3.2V44.1l-.2.2v.4l-.3-.1-.1-.1-.3-.5v-.7l.3-1v-.7h-.2l-.3.1v-.3l.2-.3.2-.4.2-.1v-.4l-.3-.5-.1-.5.2-.2h.1l.1-.2v-.2l.2-.3V38h-.3l-.3.3h-.4l-.1.2-.5 1.2-.1.2-.5.6v.1l-.1.3-.4 1.3-.2.2H55.2l-.4-.2H54.5l-.2-.1H54V42.5l-.3.7-.2.1h-.7l-.1.1V45.5l.2.2-.1.2-.1.2H52l-.2.2-.4.2-.3.3-.2.4.2.4.3.4.1.4V50l-.1.2v.7l.2.5v.6l-.2.7-.5 1-.3 1.2-.3.6-.8.9-.3.5v.6l.2.2.4.5.2.3.1.1.1.1v.8l.5 1.3v.6l-.3.6-.5.8-.2.6v.6l.2.3.3.5.2.5 2.3 4.1.2.2.2-.2.7-.3v.2l-.1.2-.3.2-.1.1-.2.1v.3l.9 1.5.1.6.2.4.2.3.2.2v.2l.1.4.6 4-.2 3.7-.2 1.2-.7 2.4-1 2-1 3.2-.6 1-.7 1-.6.5-.1.1-.1.2-.5.4h.3l1-.2 1-.1.8-.1 1-.1 1-.1 1.8-.3h1l.9-.2 1-.1.8-.2 2-.2.9-.1.9-.1 1-.2h.9l.9-.2 1-.1.9-.2h.9l1-.2.9-.1 1-.2h.8l1-.2.1.9 1-.2 1-.2 1-.1 1-.2 1-.2 1-.2 1-.1 1-.2 1-.2 1-.2 1-.2 1-.2 1-.2 1-.1 1-.2 1-.2v-.5h.4v-1l.4-.8.1-.3h.3v-.4l.2-.3.2-.2h.4V84.6l-.1-.2-.1-.2h.3l.2-.2.2-.8v.2l.2.1v-.1L93 83l-.2-.2v-1.1l.2-1.7.2-.6.4-.7.2-.3.2-.2.7-.4.4-.2.2-.2.2-.2.2-.3V75.8l-.1-.2v-.1l-.1-.3v-.4l.1-.3.1-.2.5-.3h.2l.2-.1v-.2l-.3-.2-.3-.3V73l.2-.1.3-.2.2-.2.2-.2.2-.2h.2l.5.2h.3V72.7l.1.2.1.1-.1.3.3.2-.2.3-.1.1h.4l.4-.3.3-.3.2-.5v-.5l.2-1.1V70l-.2-.4v-1.6l.3-.5v-1.1h-.1l-.1-.3-.5-.6-.1-.1-.1-.2-1-2.6-.7-2.6-.6-1.1-1.3-4.3-.6-.8-.1-.2-.1-.4-.1-.2-.8-.8-.4-.3-.5-.3-1.4-.5H91l-.3.1-.5.3-.2.1-.3.5-.2.2-.4.1h-.1l-.3.3-.1.1-.9.2-.1.1-.1.1-.3.5v.2l-.2.1-1 .3h.7l.1.2-.3.5-.2.3v.7l-.5.8-.2.7-.1.3h-.3v-.1l-.1-.2H85l-.6 1.3-.4.5-.4.3H83l-.5-.2-.7-.1-.2-.2-.6-.1-.3-.1-.3-.3-.3-.4-.1-.4v-1.5l.2-.2v-.1l-.2-.2.2-1.2.2-.6.5-.2H81.6l.3-.2v-.1H82.6V53l.3-.2h.6l.2-.2v-.4l-.1-.2h.1v-.1l.1-.2-.1-1.1v-.7l.2-.6.4-.3h.1l.4-.1v.3l-.1.1.1-.1.5-.8v-.2l.4-.1h.1l.2-.3v-1l-.4-3.4v-.3l.1-.6V42l-.3-.6-.1-.8-.1-.3-.2-.2-.1-.3-.1-.2-.2-.1-.2-.1-.2-.2-.4-.2h-.1l-.2-.2v-.1l-.1-.1v-.3l-.1-.1H83L83 38v-1.1l.3-.2.4-.1h.1l.3.3.2.1h.8l-.2-.3-.4-.1-.2-.3h.1l.1-.1V35.8l-.1-.2-.2-.4-.2-.1H83.7V35l-.4-.4-.3-.4v-.4l.2-.3-.6-.4-.5-.3-.6-.3H79.8l-.2-.1-.4-.4h-.9l-.4-.1h-.4l-.3-.2-.4-.4-.6-.2-1.7.2h-.3L74 31l-.2-.3v-.2l-.1-.2-.2-.3-.4-.3-.4-.3-.6-.2-.6-.1H71l-1 .3-.6-.2-1-.6-1.6-.5-.4-.3H66zm-8.6.8.2.2.3.1H58.2V28.7h-.4l-.2-.2h-.1v-.1.3zm-.3 1V30.3l-.2.1v.4l-.1.6-.2.4v.2l.3.3h.4l.4-.2.3-.3.1-.3v-.2l-.2-.4V30l-.1-.1v-.4l-.1-.1h-.4l-.2-.1v.3zm-3.1 5v.1l.5.8h.1v-.5l-.3-.2-.2-.2H54zm-1.3 4.8-.1.1-.1.3.5.8.3.2.3-.3h-.2v-.3l.1-.2v-.4h-.2l-.2-.1-.2-.1h-.2zm-.8 1.9-.2.2v.5h.3l.2-.1.2-.3.1-.3H52.2l-.1-.1h-.2zm41.3 39.3v1.4l.1.1.1-.2v-.5l-.2-.9v.1z" fill="white" fill-rule="evenodd"/></svg>