<svg xmlns="http://www.w3.org/2000/svg" width="100" height="100"><path d="M29.2 1v1.4l.2 2v1.8h-.2l-2.7.2-2.7.1-2.7.1-2.7.1-2.7.1H13l-2.7.2H7.6l-2.7.1H4v.4l.1.3.1.3v.2l.2.3v.2l.1.1v.2l.2.5.4 1v.6l.2.2.3.6.1.8-.2.7-.3.6-.1.7.3 1v.5l.1.2v.4l-.1.3-.1.2.2 1.1.1.2.1.3-.2 1.2v.7l.2.6.2.6.6 1.2.1.6.2.6.5.4-.2.5v.3l.4.8v.4h.1v.1l.4.3v.3l.2.5.2.4.2.2.1.3.1.6.2.5.2.1v1.5l.1.3v.2l-.1.9v.4l.1.1.2.2v2.7l.3.8v1l.1.7v1.8l.3.2v.4h.2l.1.1h.2v.7l-.2.2v1l-.2.3v.5l.3.6v.7l-.1.6v.4l.1.2.4.5.1.4.1.6V49l.3.2V49.8l.2.2.8 1 .4.5.2.3v1.4l.1.4v.2l.1.1.3.5v.5l.2.6v.7l-.2.4v.4l.3 1.3-.1.2v.1l-.1.1-.1 1v.3l-.3.5-.4.8v.1l-.1.2h-.1l-.4.4-.9.5-.1.1-.3.3-.5.4-.2.2-.1.3v.4l.3.4.6.7.3.4.5 1 .3.5.3.2h1l.5.2.4.3.2.1.3.2.1.2.4.6v.2h.1v.7l.2 3.7v3.8l.2 3.8.1 3.7.2 3.8v3.8l.2 3.7.1 3.8 4.3-.1 4.3-.2 4.2-.2 4.3-.1 4.3-.2 4.3-.2 4.2-.3 4.3-.2 4.3-.2 4.2-.3 4.3-.3 4.3-.2 4.2-.3 4.3-.4 4.3-.3 4.2-.3v-.4l.1-.2v-.3l-.2-.4V94l-.1-.5V91.8l-.1-.2-.1-.1-.2-.2v-.1L84 91V90.7l-.1-.5v-.4l-.1-.4-.1-.2-.1-.1-.1-.1-.2-.1-.6-.2-.1-.2-.4-.4V88l-.1-.1v-.1l-.1-.1-.1-.1h-.8v-.1l-.8-.6h-.1L79 87H79l-.2-.1-1.6-1.2-.5-.2-.3-.3-1.1-1.7-.6-.8-2-1.6-.8-.2-1.5-.1-.2-.1-.1-.1-.2-.2-.4-.7-.4-.5-.4-.3-.5-.1-2-.2-.6-.3-.1-.2-.1-.2-.3-.1-1-.8-.8-.5-.3-.2.4-1.1v-1.4l.1-.3V72.5l-.2-.7-.4-.8v-.5l.3-.1.2-.3v-.7L63 69V67l.1-.2.2-.3.2-.1.1-.2.1-.4v-.4l.4-.6v-.6l-.3-.3-.2-.2-.2-.2-.2-.3-.2-.6-.2-.3-.4-.1H61l-.2-.6V60l.1-.2 1-1.1.4-.5-.1-.5.4-1 .4-.4.3-.2h.3l.6-.5.4-.1.1-.2.1-.2.2-.2.2-.1h.5l.2-.1.2-.5.2-.2H67.3V54l.1-.2.1-.3.2-.2.2-.1h.2V52.2l-.1-1-.1-1.1v-1l-.2-1.2v-1l-.1-1v-1.2l-.1-1v-.4H68.1l.2-.1.1-.1V43l.1-.5v-.2h.1l.1-.1h.2l.1-.1V42l.1-.3.1-.2.2-.1.2-.1.1-.6.6-.6 1-.8.8-.6.5-.2.7-.6.6-.7.4-.2.7-.6v-.1l.2-.3.1-.1.2-.1.2-.1v-.2l.1-.2.9-.5 5.7-6.8.8-.4 1.8-1.9 3.1-1.8 1.7-.7.6-.1h.2l.5-.4 2.4-1 4.1-2.4.2-.2.4-.4.3-.2.2-.4H99.5h-.1l-.8-.2h-.3l-.4.2h-.2l-.3-.2H97l-.3.1-1.2.6h-.2l-.8-.3-.2-.2-.1-.1-.8-1-.2-.1-.6-.2H92l-3.6.8-.1-.1H88l-.4.2h-.4l-.2-.2h-.4l-1.1.4h-.6l-.5-.2-.1-.2-.2-.5-.1-.3h-.1l-.2-.1h-.1l-.1-.3v-.1l.1-.3v-.1l-.5-.2-.6.1-1 .7-.2.2-.5.2-1.6 1.2-.4.5-.4.3-1.1.2-.8.4h-.2l-.2-.1h-1.6v-.1l.1-.2v-.2h-.1l-.1-.1H73l-.2-.3.2-.4-.4-.5-.3-.2h-.2l-1.1-.1-1.4-.5-.2-.1-.2-.2-.2-.2-.2-.4-.2-.4-.2-.4-.3-.2h-1l-1.3.3-.3.2-.3.3v.4l.2.3v.5l-.4.2-.3.2h-.2l-.2-.2-.4-.8-.5-.5-.1-.2-.1-.4v-.7l-.2-.3-.2-.3-.5-.2H62l-1 .2h-.7l-.2-.3.1-.4.2-.1.6-.2h.2v-.4l-.3-.2-1-.2-2-.4-.9-.4-.3-.1H53.2l-1.6.3-.4.2-.4.2v.7l-.4.2-1 .1-.3.3h-.2l-1.8.2H47l-.4-.4-.4-1.2-.5-.3h-4.7v-.5l-.1-.1-.1-.1-.1-.1-.1-.1H40l-2 .3h-.5l-1-.4-1.2-.8-.2-.2V9l-.1-.3V7.3l-.7-1.8-.5-1.6-.2-.4-.1-.3V2l-.2-.3-.1-.7-.2-.3-.2-.1-.8-.4-.8-.2-1.4.1-.7-.2z" fill="white" fill-rule="evenodd"/></svg>