<svg xmlns="http://www.w3.org/2000/svg" width="100" height="100"><path d="M55.6 9.2h-1.4l-3.3.4-3.4.2-3.4.3-3.3.2-3.4.3-3.4.2-3.4.2-3.3.2-3.4.2-3.4.3-3.3.1-3.4.2-3.4.2-3.4.2-3.3.1-3.4.2H.1v.9l.2.2h.3l.3.1.2.2v.7l.2.2.2.3.2.3v.6l.3.4.2.5v.2l-.2.1-.2.2.1.2h.8l.3.1.1.2.1.3.2.2.2.1h.8l.1.3v.2l-.2.5.4.4.2.3.1.3.5.4v.2l-.2.4v.7l.2.2h.7l.2.2.4.3.8.7.2.3h.4l.2.2v.2l.1.1.1.1h.4l.2.1.2.1.4.4.3.2.3-.1.3-.2.4-.4.2-.1.2-.1h.5l.1.3v.4l.1.2.7.4.1.2V27l.1.1.1.1v.2l-.2.3h-.3l-.7-.2H12l-.1.2V28.3l-.1.1-.2.1-.1.1-.4.5-.2.3-.1.3V30.4l-.2.1h-.4v.5l.1.4.3.2.2.1.1.2.4.6.1.2h.1l.3.1.6.4v.1l.1.3.1.1.6.1V35l.4.6.5.4.1.1v.4l.2.4.2.1h.3l.7.5H16.7l.1.1v.1h.4l.3.2v.1l-.2.2v.1l.1.1V39.7l.2 2.3.1 2.3.1 2.3.1 2.2.2 2.3v2.3l.2 2.3V58l.2 2.2.1 2.3.1 2.3.1 2.3.1 2.3.1 2.3.2 2.2v2.3l.2 2.3v2.2l.2 2.3.1 2.2 4-.2 4-.2 4-.2 4-.3 4-.2 3.9-.2 4-.3 4-.3 4-.2 4-.3 3.9-.3 4-.3 4-.4 4-.3 3.9-.3 4-.4h1l.1.2.2.3.1.1.1.1v.2l.1.3v.1l.1.1.6.3.1.1.1.1v.2h.1V84.2l.1.1v.2l-.1.2h-.1l-.1.1-.4.2v.1h-.1v.6l-.1.1H85l-.4.4-.3.1-.2.1H84l-.1.2-.1.1v.4l-.1.2-.1.1-.1.1h-.1l-.3.2H83l-.1.1v.2l-.2.2-.2.4-.2.2-.4 1V90.1h1.1l2.1-.3 2.1-.2 2-.3 2.1-.2h.1l.1-.6.4-.8v-.3l.1-.2.2-.2.3-.2h.2l.1-.4-.4-.7-1-1 .3-.2 1.4-.2h.1l.2-.1V84l-.1-.1-.4-.1-.3-.3-.3-.3v-.3l.2-.2h.4l.4-.1.2-.2.1-.4v-.4l-.5-.7v-.3l.1-.4-.1-.2H93l-.2-.2-.1-.2v-.7l.5-.2.5.2.3.7v.4l-.2.3v.3H94.6l.2-.3.3-.4v-.1l.1-.3.2-.8v-.3l.1-.7.1-.3.1-.1.2-.1.3.3.4.3.4.4h.5l.4-.2.2-.5.3-1 .4-1.3.1-.5v-.4l-.3-.6-.1-.4v-.2l.1-.2.2-.2v-1.6l-.1-.3-.3-.1H98l-.1.1h-.4l-.1-.1v-.2l-.1-.2-.1-.2H97l-.3-.2-.1-.1v-.2l-.2-.4V69h-.7v.3l.1.4.2.1.1.1.1.1.1.3v.2h-.2l-.6-.2-.8-.5-.3-.2V69l-.2-.5-.6-.7-.4-.6-.2-.2v-.6l-.3-.1h-.1l-.3-.2-.2-.7.4-.6.5-.5.2-.7-.2-.7-.4-.6-.5-.5-.4-.6v-1.6l-.2-.3v-.6l-.4-.2-1.4-.6-.4-.3-.5-1-.4-.4-.4-.2-.9-.3-.3-.2-1-.8-.4-.3H85l-.2-.1H84l-.8-.7-.5-.1-.4-.3-.4-.5-.4-.3-.6-.3-.3-.1v-.3l-.2-.2-.4-.3-.1-.2-.9-.6-.1-.2-.1-.1-.1-.2-.1-.3-.2-.8v-.7l.1-.6.6-1.1.6-2 .6-1.3.2-.6V42l-.2-.7v-.4l.2-.3.1-.1.3-.5.2-.4V39l-.2-.4-.6-.4-1.5-.7-.7-.1H77.5L77 37h-.3l-.7.2-.8 1.2-.6.3-.6-.1-.5-.5-.7-1.3v-.5l-.1-.3-.1-.2-.2-.2v-.3l.2-.2v-.4l-.3-.3-.1-.3v-.7l-.1-.2-.1-.4-.2-.3-.5-.7-.3-.4-.3-.2-3.5-2.1-.2-.2-.1-.2-.1-.4-.2-.3-.3-.3-3.7-2.9-.3-.4-.2-.6-.1-.4v-.2l-.2-.2-.4-.3v-.2l-.3-.2V21l-.1-.2v-.1l-.2-.1-.2-.3-.3-.3v-.2l-.6-3v-2.5l.4-.7.4-.4-.2-.2-.4-.1-.2-.1-.5-.5-.2-.1v-.4l-.1-.1h-.1l-.3-.2h-.1v-.2h-.1v-.1H58l-.1-.1-.1-.1v-.2l-.1-.1-.4-.2H57l-.1-.1-.1-.1V10l-.1-.1v-.3h-.1l-.3-.2v-.1L56 9z" fill="white" fill-rule="evenodd"/></svg>