<svg width="57" height="100" xmlns="http://www.w3.org/2000/svg"><path d="M8 93.6666667c.29626633.0370415.59262256.0740695.88888889.1111111.50557793.2418213.56311035.4793565.77777778 1C9.32033284 97.8902656 2.36804369 101.44498 0 99.1111111c.02197773-3.7420451 5.64002142-3.9818454 8-5.4444444Zm11.2222222-50.7777778c1.481954.262892 3.0484891 2.8737115 3.3333334 4.3333333L22 50.4444444c-.0563117 1.4341126.9844225 2.1317139.6666667 3.1111112-.4874912 1.195265-1.7027351 2.0243598-2.5555556 2.8888888-.0433994 2.2911988 1.1393772 5.7292481 2.6666667 6.4444445.6665988.0740695 1.3333977.1481594 2 .2222222.4482218.9304674.9659084 1.9830458 1.5555555 2.7777778-.4444003 1.962755-.8889329 3.9261135-1.3333333 5.8888889L24.1111111 73c.1111111.5184665.2222222 1.037089.3333333 1.5555556-.2101338.8839314-1.0731777 1.7719116-1 3l1 2.4444444c-.0370246.0370212-.0740661.0740696-.1111111.1111111-4.7967122-.0742255-2.5795796 6.8587307-7.2222222 6.1111111-2.7834896-2.6830648.5178426-7.5985989-2.3333333-10.3333333-.5373569.1567315-1.0523122.1270887-1.6666667.2222222-.0162675-1.4085083-.5850898-.9258626-1-1.6666667C11.6656223 73.6490478 12.2770877 72.8267144 12 72l-1.4444444-2.4444444c-1.58644447-.6013523-2.41224504.7864447-3.88888893.1111111-.27653334-.7135756-.93402269-.731954-1.33333334-1.3333334C5.681466 67.447069 5.83926731 65.9573568 6.22222222 65l-1.33333333-1.4444444c-.26751031-1.3837959 1.05515544-3.5450643 1.44444444-5.1111112.8645562-.2476874 1.31711156-.4218885 1.88888889-.8888888.33988954-1.4006687.03319974-2.5239326.11111111-3.3333334 2.11006677-.8814629 3.36857777-3.2552863 4.55555557-5.1111111.7003326-1.0949537 2.5505541-1.9105326 3.5555555-2.7777778.2221985-.4443969.4444648-.8889329.6666667-1.3333333l2.1111111-2.1111111ZM51.6666667.00000253c2.5293782.2496889 3.5334405 2.74755563 4.8888889 4.22222223.034729 1.24024455-.263421 2.60188886-1.1111112 3-.9075588.48908911-1.8504706-.01480018-2.6666666-.22222223-.2962714.25922225-.5926243.51853349-.8888889.77777778.063619 1.44799973-.5174018 1.92239973-.4444445 2.66666579-.3565131.7000902.0281305.753379.4444445 1.2222223-.4584893.7756008-1.4727783.9216444-1.8888889 1.5555555-.3974677.6054891-.200514 1.1597341-.7777778 1.5555556l-1.5555555.5555555c-1.0369331 1.3702223-2.0741781 2.7408668-3.1111111 4.1111111.1439073.7786679.7734239 1.2603557.5555555 2.2222223-.2310045 1.0198889-1.2199809 1.4393344-.7777778 2.7777777.3148431.781757.9655559.9671343 1.3333334 1.5555564.0740627.5554886.1481526 1.1111561.2222222 1.6666675.3646647.9584215 1.906779 1.648953 2.7777778 2.1111112-.2479994.8000657-.7540216.4592658-1.1111111 1-.396776.6008199-.780599 2.4717542-1 3.2222213h-.1111112c-.9002482-.1904017-2.4151136.1165102-3.3333333-.4444436-1.7818909-1.0885586-1.1476237-4.2717115-5.3333333-1.8888889C36.7059089 34.9428474 34.2178209 36.5552673 37 39.8888889c.4917976.589291 1.6693319.3716227 2.1111111 1 .2377319.6460028-1.1913791 6.9905802-1.5555555 7.3333333-.185157.0370246-.3703783.0740696-.5555556.1111111-.5234239-.8721991-.6162008-2.4249098-1.4444444-3-1.7820028-1.2373318-6.0121121.5032451-7.8888889-.6666667-.6680671-.5759989-.9346009-1.5746663-1.6666667-2.1111111-.7630446-.5591329-2.1271803-.5480211-2.7777778-1.2222222.3503995-.8077528.1377564-1.9682651.5555556-3 .3998447-.9874437 1.3718668-2.115665 1.6666666-3.3333308.3514439-1.4516898.0948419-2.7843111.5555556-4 .5555115-.7036226 1.1111755-1.4074902 1.6666667-2.1111102l1.5555555-4.6666684c.5118883-1.9256439-1.3007134-6.9346432 1.5555556-7.2222214.2474196.2600666.1874423.3701554.5555555.5555547.0740662-.3703325.1481561-.7407769.2222223-1.1111111.6829088.1220449.5390421.2011567.4444444.7777778.2221985-.0370432.4444648-.0740882.6666667-.1111111 2.0932651-5.209866 6.1877305-5.1768002 10.6666666-7.77777693 1.4264866-.82837763 1.5913968-2.47991096 2.5555556-3.77777778 1.5692003-2.11235553 4.1806437-3.42691125 5.7777778-5.55555556Z" fill="#FFF" fill-rule="nonzero"/></svg>