<svg xmlns="http://www.w3.org/2000/svg" width="100" height="100"><path d="M72.3.2h-.6l-2.1.2-2.2.3-2 .2-2.2.2-2.1.2-2.2.2-2 .2-2.2.2-2.1.2-2.1.2-2.2.2-2 .2L44 3l-2.1.2-2.2.2-2 .2.5.6V5l-.4.7-.7.6-1.8.8-.2.3.1.3.3.4v.4l-.1.3-.2.2H35l-.4.1-.3-.2-.2.1-.2.4-.2.8-.1.8.4 1.4v2.9l-.5.6-.6.4-.4.2-.6.1h-.4l-.2-.2V17l.2.4v.4l-.2.4v.2H30.3v.1l-.5 1.5-.2.2-.3.1-.8.6-.2.2.1.6 1.3.5v.7l-.1.4-.3.2h-.3l-.4.1h-.4l-.9.6-.8.3-.2.2.1.2.2.2h.2l.3.1.3.6-.2.5-.3.4.2.7.2.3.1.4-.2.4-.1.1h-.5l-.1.1-.2.2-.3.3-.1.1-.2.2-.5.9-.3.2-.3.2v.2l.4.3.7.3.2.2.2.5-.2.4-.2.3H25l-.2.3v.3l.3.3.3.1.3.1.4.3.6.5v.3l.1.6v1l-.6.9-.2.4.3.4h.2l.5.1.3.2v.2l.2 1 .2.7v.7l-.2.1-.4.1-.3.2v3l.1.2.3.1.2.1h.5l.3.3.3.3-.1.4-.2.4-.3.3h-.2l-.1.3-.2 1v1.1l.2.1.9.1.3.2v.4l-.2.4-.3.1H28l-.4.2-.2.3v.4l.2.4.2.3.2.3.2.1.4.2.1.2v2l.3.3.6.3.5.1.5.4.2.8.4.2h.6l.4.1.1.3v.3H32v.2l-.6.9-.5 1.3-.5 1h-.9l-.1.2V62l.5.5v.7l-.2.8-.6.5-.5.2h-.2l-.1.3-.1.4-.1.2-.7 1-.3.2-.4.2-.7.2-.2.2-.3.3-.1.4-.2.8-.4 1v.7l-.2 1.8v.7l-1.2 1-.4.7.2.8v.2l.3.2.2.4v.7l-.1.1-.1 1.4-.1.3-.2.2-.4.1H22l-.4.1-.2.2v.3l.2.4.3.3.2.1.1.1v.5H22v.3l-.2.3v.2l.3.6.5.6.2.5-1.3 1.2h.9l.4-.1 1-.1 1.4-.1 2-.2 2.3-.1 2.6-.2 2.7-.3 2.9-.2 2.8-.2 2.8-.3 2.6-.2 2.3-.2 2-.2 1.4-.1 1-.1h.3l.8-.1h.6V83l-.1.7-.3.8-.2 1.2-.4.5-.1.4.1.4-.2.7-.1.4v.4l.2.3.3.3.2.3-.2.4.5 1 .3.2.6.2.3.1.2.6.6.3.3.5V93.1l.1.4v.1l.2.4.5.7.1.3v.8l.5.6.6 1.1.4.5.1-.3h.5l.1.1h.8l.2-.3.1.1v.2l.1.1.2-.2V97.4l.1-.2.3-.4v-.2l-.1-.2 1.4-1.1.2-.2V94.5H62v-.2l.2-.3.2-.2h.5l.6.4.3.1-.2.2-.1.2v.1h.6l1-.4 1-.4 1.2-.6h.3l.2-.1.5-.3.3-.1h1l.6-.2.2-.3h-2.1v-.2h.3l.2-.1.4-.2 1.4.2 2 1.2h.5l.8-.2.7-.3.3-.6h.1l.1.2.3.2.1.4h.2l.2.1h.7l.3.2.4.1.3-.2.1-.1v-.2l.2-.1h.2l.2-.2V92l-.6-3.8-.3-1.8-.2-1.9-.3-1.8-.3-1.9-.3-1.9-.3-1.8-.6-3.7-.2-1.9-.3-1.8-.3-1.9-.3-1.8-.3-1.9-.3-1.8v-5.5L74 55V40.9L74 38V1.8h-.2l-.6-.3-.4-.6-.4-.7h-.1zm.7 95-.4.2 3.5.3.2-.1h.1l-.4-.2-1 .1-.4-.1-.4-.2H73zm4 .4h1.2l.1-.1H77v.1zm-6.6.2h-.1l-.2.3h.2l.3-.3h-.2zm-3.1 0-.2.3-.4.2h-.9v.2l.6-.1h.2l.2.2v-.1l.2.1v.1l-.1.1v.2h.2l.2-.6V96l.1-.1v-.2h-.1zm2.2.5-.4.2h.4l.2-.2h-.2zm-8.3 2.3-.1.2h.1l.1-.1v-.2l-.1.1z" fill="white" fill-rule="evenodd"/></svg>