<svg xmlns="http://www.w3.org/2000/svg" width="100" height="100"><path d="m1.8 23.9-.2 1.3-.2 1.2-.2 1.3L1 29l-.2 1.3-.2 1.3L.5 33l-.1.6v.1l.2.2.2.3v.2l.2.3v.1h.1v.1l.2.1v.1l.1.2.2.2h.1v.2l.1.6.1.1.2.1v.1l.1.1v.2l.3.2v.2h.1v.5l.2.4V38.4h-.1v.1h-.1l-.2.1h-.1v.2l.2.2.1.2V39.5h.2v.1l.1.1v.1H2.1V40.2h.1l.3.2.6.5.3.4v.2l.1.2.1.1.1.1.1.1.4.1.7.4.1.1.1.2v.2h.1v.1l.1.2v.1h.2v.1l.1.2.3.3.3.4v.3l.7.8v.4h.1l.1.1h.2v.1l.3.4v.1l.3.2v.9l.1.2.2.2h.1l.1.2h.1l.1.1.3.1v.8h.2l.2-.2h.2v-.1h.2l.3.2v.5H10V50h.1l.2.2h.1l.1.1H11.7l.6-.1h.2v.7h-.1v.4l-.2.1v.4l-.1.1h-.3v.1h-.1v.1l.1.2v.4l-.2.4v.2h-.1v.5h-.1l-.2.3-.1.2v.1l-.2.1v1.1h-.5V55.9l.2.4V56.5l-.2.3v.7l.2.1.2.1h.1v.2l-.1.2v.8l-.2.2H10l-.2.1v.2h-.2v.2h-.1v.1l-.2.1v.5h.1l.2.3v.6h-.1l-.1.2-.2.1v.5l-.2.2H9.4l.4.2.3.3v.1l.1.2h.1l.3.2v.1l.1.1h.7v-.1l.2-.3h.1v-.1h.4l.3-.1.3-.1h.1v-.1l.1-.1.2-.1.1-.1v-.1l.1-.1.1-.1h.4v-.6h.4l.3.3.2.2V62.2l.2.1.4.2.1.1v.1h.1v.2l-.1.1-.1.2V63.5l.3.2v1.1l.2.3V66.2l.2.2v.4h.1l.1.2.2.2.1.1.1.2v.1l.1.1V68h.1V68.3l.1.1h.3l.1.2v.2l.3.4v.1l.1.4V70.2h-.1v.1h-.1l-.2.1-.1.1v.1l.1.1v.2l.2.4v.2h.2l.3.3h.2v.4h.7V72h.5l.2.2.1.2.2.1.1.3.1.2.1.1v.2l.1.1v.1l.1.2.1.2v.4h-.1v.1h-.1v.2l.2.3v.2l.1.1.2.1v.2l-.1.2v.5l.1.1h.2v.2l.2.2.4.2.1.1.2.3H22.2V77H22v-.1l.1-.1.6-.5h.3l.2-.1h.5l1 .3.2.2h.5v.1h.1v.1h.5l.3-.4v-.3h.1l.2-.1h.1l.2-.1h.1l.1-.1H27.5l.1.2h.5l.3.1.2.1H30.6l.1.1.1.2.1.1H31.7l.5-.3h.1l1 .1.3.2h.1v.1h.4v-.1l-.2-.1-.1-.1v-.8h.1l.3-.1v-.1h.1V75H34V75l.1-.1h.2v-.1h.3l.2-.2h.2l.3.2.1.3.3.5v.2h.2v.1h.1v.6h.1v.1l.2.1.2.2.1.3.2.3.2.1.3.1v-.6l.1-.4V76l.1-.3v-.4l.1-.3v-.7l.1-.3v-.7l.1-.4v-.6l.1-.2h.4l1 .1.9.1h1l.8.2h1l.9.2h1l.9.1.9.1h1l.8.2h1l.9.1 1 .1.9.1h.9l1 .2h.8l1 .1h.9l1 .2h.9l.9.1h1l.8.1 1 .1h1l.8.1 1 .1h.9l1 .1.9.1h.9l1 .1h.8l1 .1 1 .1h.8l1 .1h.9l1 .1h.9l.9.1 1 .1h.9l.9.1h1l.9.1H85l.8.1h1l.9.1h1l.9.1h.9l1 .1h1.8l1 .1H96l1 .1h1.1v-.8l.1-1.2v-2.5l.1-1.2V68l.1-1.3v-1.2l.1-2.1.1-2.2v-2.1l.1-2.2.1-2.1v-2.1l.1-2.2v-2.1l.2-2.1V42l.2-2.2v-4.2l.1-2.1.1-2.1-1.3-.1h-1.8l-1.8-.1-1.7-.1-1.8-.1h-1.8l-1.8-.2h-1.8l-1.8-.2h-1.8l-1.8-.2h-1.8l-1.8-.2H75l-1.8-.2-1.8-.1-1.7-.1-1.8-.2-1.8-.1-1.8-.1-1.8-.2-1.8-.1L59 29l-1.8-.1-1.8-.2-1.7-.1-1.8-.2H51l-1-.1-1.8-.2-1.8-.2-1.8-.1-1.8-.2-1.8-.2-1.7-.2-1.8-.2-1.8-.2-1.8-.2-1.8-.1-1.8-.3-1.7-.2-1.8-.2-1.8-.2-1.8-.2-1.8-.2-1.8-.2-1.6-.2h-.1l-1.8-.3-1.8-.2-1.8-.3-1.8-.2-1.7-.2-1.8-.3-1.8-.2-1.8-.3-1.7-.2z" fill="white" fill-rule="evenodd"/></svg>