<svg xmlns="http://www.w3.org/2000/svg" width="100" height="100"><path d="m92.7 27.9-1.7.4-2 .4-2 .4-2 .4-2 .4-2 .4-2.1.4-2 .4-2 .4-2 .4-2 .4-2 .4-2.1.4-2 .3-2 .4-2 .4-2 .4-2.1.3-2 .4-2 .3-2 .4-2.1.4-2 .3-2 .4-2 .3-2.1.3-2 .4-2 .3-2 .3-2.1.4-2 .3-2 .3H28l-.2-.1-.4 1v.3l.2.4v.6l-.2.7v.2l.1.3.2.2.1.1v.1h-1.1l-.9.7-.3.3-.8 2.5v.1l-.2.2-.3.2v.1H24l-.1.1h-.5v-.1l-.1-.1v-.2h-.1v-.1h-.5l-.2-.1h-.2l-.4.4h-.4l-.3.3-.4.1v.1l-.2.1-.2.2-.4.5v.2l-.2.4-.2.4v.1h-.1v.1l-.6.5h-.5v-.1l-.2-.2v-.6l-.2-.3h-.2l-.6.4-.3.1-.7.6v.4l-.1.2v.2l-.1.2H15.8l-.3-.1H15v.1l-.1.1v.5l.2.2v.1l-.2.2v.5l-.3.4-.2.4v.1h-1l-.7.5-.4.2H12l-.2.4-.2.1-.2.2h-.1l-.1.2-.2.2-.2.4h-.4v.1h-.2l-.1.3-.1.1-.2.2-.6.3v.1l-.1.1-.1.2-.2.3h-.1l-.8.4h-.2l-.1-.1H7v.1h-.4v.1H6l-.3.2h-.2l-.2.3-.2.2h-.2l-.4.2-.2.1v.1h-.1L4 60v.2h-.1l-.5.3h-.1v.1L3 61v.7l-.2.3V63l-.3.2v.2H2l-.6.2H.9v-.1H.6l-.2.1-.1.1-.2.3-.1.2V67l.1.7.9-.1.9-.2.9-.1.9-.2.9-.1 1.8-.3.8-.1 1-.2.8-.1 1-.2.8-.1.9-.2h.9l.9-.2.9-.2h.2l3.3-1.7.3-.2.1.1.2.1h.1l.1-.2.3-.2.2-.2V62.8h.4l.1-.2.4-.2.6-.3.5-.1h.1v-.2h.1v-.1h.5l.1-.1v-.3h.1l.1-.2.1-.1h.4v.1h.1l.9-.2h.9l.4-.1h.5l.6-.2h.8l1-.1 1-.2h1l1-.2 1.2-.1 1-.1 1-.2h1l1-.2h.7l.6-.1.7-.1H38.5l.1.1v.1l.1.1v.5h-.1v.2l.1.1.1.1h.1l1-.9h.1l.6.5.8.8.6.6v.1l.3 1.5v.2h1.2l.6-.2h.7l1-.2 1-.2 1-.2 1.1-.1 1.1-.2 1-.2 1-.1 1-.2h.7l.6-.2h.5l.4-.1h.7l.4.3 1 .7.9.6.9.7 1.8 1.3 1.9 1.2 1 .7.8.6 1 .7.9.6 1 .7.9.6.9.6 1 .7.9.6.3-.2v.2l-.1.2 1-.6.6-.4.3-.2v-.4h.1l.1.2v.2h.4l1-.3h.4l.7-.2h.2l1.2.1H77.7l.1-.2.3-.8.1-.6v-.7l-.1-.2v-.2l-.2-.3-.3-1v-.4l.3.5.4.5v.5l.3 1-.1.5V69.8l.3-.4v-2.7l.2-.6v-.5l.2-.2.3-.5.4-1 .6-1 1.3-1.7.8-.7.6-.3.2-.2v-.4l-.1-.1-.2-.1h-.3l-.2-.2-.2-.1V58.8h.4l.2-.1.1-.2V58l-.2-.1-.1-.2-.2-.1-.1.1-.1-.2-.3-.7.2.1h.5l.1.1v.1h-.2v.2h.3l.5.6.1.1v.3l-.5.5-.1.2h.5l.3.3.3-.1.2-.3h.1l.3-.3.5-1 .3-.2-.1-.3V57h.1l.1.1h.2l.1-.2v-.5l-.2-.3V56h.2l.1.4.4.3-.2.2v.2h.2l.2-.2 1.6-.8.3-.3 2.3-.3v-.2l-.4-.3h-.1v.1H90l-.2.1.1-.3.3-.2.2-.2.3-.2.2.2.1.3.1.3.1.3.4.1v-.3l-.1-1.2.3.2.3.1-.2.3.1.2.3.1h.6l.1-.1V54.2l.1-.1.4-.7.1-.2.1-.2v-.5l.2.2.4-.3h.1v-.5l-.1-.2v-.2h.4l.1-.2.2-.2V50.8h-.3l-.2-.3-.2-.2H94l.1.2.3.2V51H94l-.2.2v.3h-.2l-.5.3H93v-.4h.1l.3-.3v-.2l-.3-.2v-.5l-.2-.2v-.1h-.1l-.1.2-.1.3v1l-.2-.2h-.5l-.2.1v.2l.4.3v.3H92l-.3-.1-.3-.1v-.2H91l-.1-.2h-.2v.1l-.3.2-.1.3-.2.2-.1.3-.3.2-.1.1H89.3l-.5-.3h-1.1l-.5-.2-.6-.4-.4-.6-.2-.2h-.3V51l-.7-.7h.5l.7.7.4.1h.2l.7.6.3.2.5.1h.4l.5-.1.4-.3.1-.4.2-.2.5-.4.3-.4V50l.3-.2.2-.4v-.3l-.3-.4-.2.1v.1h.1l.1.1-.1.1h-1.1v-.2l.2-.1.2-.1h.2v-.1l.2-.2v-.1h.8V48l-.2-.1-.3-.1h.6l.2-.1.1-.2V47l-.2-.2-.1-.1v-.2H89l-.8-.4h-1l-.4-.3-.5-.2h-.5l-.3.3-.2-.4-.2-.2h-.4l-.1-.2-.3-.4.5.3.3.1h.5l.6.2h1.3l.3.3h.3l.5-.3h.4l.1-.1.2-.1v.3l.3.2h.4l.2-.2-.2-.2h-.2v-.1l.1-.1V45l-.2-.1-.2-.2.1-.4-.1-.1-.1-.1H89l.5-.5.2-.1H90.6l.2-.1.3-.1v.4l-.2.1h-.6l-.3.2v.2l.1.1.3.2-.1.2.1.1.6.1v.1l-.1.1h-.1l.2.3h.2l.4.2-.1-.2h-.2v-.2h.5l.1-.6-.1-.2v-.2h.3l.1.3.1.5.1.2h.2v.2l-.5.1.1.1h.2l.3.1v.2l.2-.2v-.4h-.1V45l-.1-.2h.4v.1l.3.3.4.2h.2V45.2h.2l.1.2h.3l.8-.2.1-.3.2-.1.4-.3h.1l-.2-.3V44l.2-.3.2.1v.2h.2v-.5l.1-.2-.1-.2.2-.2h.1v-.5l.1-.1.6-1v-.3l-.1-.2v-.3l.2.3.2.3h.2l.3-.1v.1l-.1.2h.5l.1-.2v-.4h.1l.1-.1.1-.4V40l-.4-.4-.1-.2v-.1h.2l.3-.1v-.5l-.1-.1-.3-.3v-1.1l-.3-.2v-.2l-.8-.8-.4-.3-.5-.2v.5h.4l.1.1-.2.2h-.8.1l.2.3h.1l.3.1v.2h-.4l-.3-.3-.2-.1H96v.2l-.4.3v.2l.3 1.7v1.7h-.2l-.1-.1v-.1l-.3.1h-.6l-.3-.3h1l.2-.2-.3-.2v-.2l.1-.2v-.1l-.2-.2h-.6l-.2-.2h-.1l.1-.1h.3l.4-.1v-.4l-.3-.4-.3-.2.2-.2.2-.2v-.4l.1-.3H95l-.4.3v-.6h.4v-.2l-.3-.2h-.7l-1 .3-1 .5-.2.3.4.2.1.1H91v.2h-.2V37l-.1-.2h-.4l-.6.3-.6.4-.3.3h-.4l-1.6.3V38l.3-.7v-.2h-.2v-.3l-.2-.1v-.1h-.2l-.1-.2-.2-.4-.2-.3v-.1l-.3-1v-.5l.2-.4.2-.2v-.4l-.3-.2-.2-.2h.3l.3.2.1.2V33.8l-.2.2v.8l.1.4.4.6.4.7.2.2h.3l.1-.4h.2l.4.5h.8l.2-.2.4-.3.3-.3.2-.3h-.2v-.1l.2-.1 1-.5v-.1h-.5l-.4-.2-.1-.1-.1-.1-.5-.2-.2-.2-.2-.3.2.1.3.2h.4l.2.2.4.2 1.3.2h.6v-.2l-.3-.1-.5-.5h-.2v-.1h-.2l-.1-.2-.1-.1v-.2l.2.1.4.2h.1l.1.1.3.3.4.1H93.2V34l-.1-.1.4-.2h.1l.2-.2v-.2h-.2l-.2-.3-.3-.1-.2-.2-.2-.3h-.2l-.3-.2-.3-.1h-.3v-.5H92v.1l-.1.1h.6l.3.1.2.2.3.2h.4l.4.5.2.1h.6l.8.1-.2-.1-.2-.1-.3-.2v-.4l-.1-.2-.2-.5-.2-.1-.1-.1-.2-.2h.5l.3.2v.4h.2l.2.2.1.3h.1l.3.3.2.1.1.2v.5l.2.1.3.4.3.2h.2l.2-.1-.1-.3-.2-.2-.2-.3v-.2l-1-1.5-.2-.2V31l-.6-.5-.1-.2-.1-.6-.1-.4h-.2v.7l.1.1.2.1h-.3l-.4-.4-.2-.3.2-.1-.3-.1-.3-.2-.3-.3-.1-.2v-.7h-.4zm5.9 7.7h-.1l-.1.1v.1h.1l.1.1.1.1.5.3.1.2.1.3.1.2h.5v-.5l-.5-.4-.2-.2v-.1h-.1l-.1-.1h-.2l-.1-.1h-.2z" fill="white" fill-rule="evenodd"/></svg>