<svg xmlns="http://www.w3.org/2000/svg" width="100" height="100"><path d="m1.3 24.5-.1 3.3-.1 3.3-.1 3.4-.1 3.3-.1 3.4-.1 3.4-.1 3.3-.1 3.4-.1 3.4L.3 58l-.1 3.4-.2 3.4v3.4l-.2 3.4V75l3 .1 3.2.1 3.1.1h3.1l3.1.2h3.1l3.2.1 3 .1H31l3.1.1h3.2l3 .1h34.4l3.1-.1H81l3-.1 3.2-.1h3.1l3.1-.2h3.1l3.2-.1-.3-1.4v-.4l.1-.4V71.2l-.4-.5v-.2l-.1-.1v-1.6l-.1-.3-.3-.3-.4-.5-.8-1.1-.1-.2v-.5l-.2-.1-.2-.3v-.8l-.1-.7-.1-.3-.4-.6-.2-.2v-.4l.1-.6V61l-.2-.6v-.8h.1V58.5l.2-.2V58h.1v-.2l-.1-.1h-.1l-.2-.2h-.2v-.4l-.2-.3v-.1l-.1-.3V55l-.2-.7v-.4l.1-.2v-.5l-.3-.8v-2.8l-.2-.2v-.1l-.2-.1v-.4l.2-.9v-.2l-.1-.3v-1.5l-.3-.2-.1-.5-.1-.6-.2-.3-.1-.3-.2-.3-.2-.7-.1-.2-.3-.3-.1-.1-.1-.1V42l-.3-.9-.1-.4.2-.4-.5-.5-.2-.6-.2-.6-.6-1.3-.2-.6-.1-.7v-.7L91 34v-.3l-.2-.2-.2-1.2v-.2l.2-.3v-.7l-.1-.5-.3-1v-.8l.4-.6.2-.7-.1-.8-.3-.6-.1-.3-.1-.7-.5-1v-.5l-.1-.2-.1-.1-.1-.2v-.4l-.1-.2-.2-.2v-.8h-2l-2.8.2H78.8L76 22H70.3l-2.8.1H56l-2.8.1H39l-2.9-.1h-2.8l-2.8-.1H24.9l-2.8-.2H16.4l-2.8-.2h-2.9L8 21.3 5 21.3l-2.8-.1h-.8z" fill="white" fill-rule="evenodd"/></svg>