<svg xmlns="http://www.w3.org/2000/svg" width="100" height="100"><path d="m1.5 29.4-.1 1.8V33l-.1 1.8v1.8l-.1 1.8-.1 1.8V42L1 43.8v1.8l-.1 1.8-.1 1.8V51l-.1 1.8v1.8l-.1 1.8h2.6l1.4.1h1.3l1.3.1H10l1.4.1h1.3l1.3.1h4l1.4.1H23V62.5l-.1 1v4.4l-.1 1v2.7h9.5l2.4.1H63.3l2.4-.1H70.4l2.4-.1h2.4l2.4-.1 2.4-.1h2.4l2.3-.2h2.4l2.4-.1H92l2.4-.2h2.4l2.3-.2-.3-.2-.2-.1-.5-.1-.2-.2V69.3l.2-.2v-.2l-.4-.4v-.2l-.3-.2-.3-.4.2-.4v-.1L97 67H96.5l-.2-.2-.2-.1v-.2l-.2-.2-.2-.1H95.1L95 66l.1-.1.1-.1.1-.1-.2-.5-.2-.3v-.4l-.1-.3-.3-.3v-.7l-.2-.1-.3-.1h-.2l-.2-.2v-1.3l-.1-.3-.2-.2-.6-.2-.2-.2v-.2l-.1-.2V60l.2-.3.2-.3v-.1l-.1-.2v-1.5l-.1-.3v-.6l-.1-.2-.2-.1-.1-.1V55.5H92V55.1l.1-.4v-.7L92 54l.2-.1-.1-.1-.5-.2-.2-.1V52.5h.2l.2-.3.1-.3v-.1h-.3l-.5-.2-.2-.1.3-1V49.8H91l-.4-.2h-.2v-.7h.1v-.2l-.2-.1h-.2l-.3.1h-.1l-.3-.1V47.7l-.2-.3V46.3l.2-.2V45.1l.1-.3-.1-.3-.7-.6v-.1l-.2-.4v-1.3L88 42l-.5-.2-.3-.4V40.4L87 40l-.2-.1-.4-.3-.2-.2v-1.7l-.1-.2-.2-.1v-.2l-.4-.5v-.6l.2-.6-.2-.6-.2-.1-.3-.1h-.5l-1.4-.3H83l-.1-.3V34l-.2-.3-.4-.3-.2-.2V33l.1-.2v-.2h-.1l-.2-.1h-.7l-.1-.1H81v-.2l-.1-.1-.1-.2-.2-.1-.2-.1h-1l-.2-.1-.1-.1v-.1l-.2-.1h-.3l-.2-.2h-1l-.2-.2-.3-.1-.4-.4-.3-.4-.2-.2h-.3l-.2-.1-2.2.4H73l-.8-.1h-.3l-.4.3h-.4L71 30h-.1l-.5.1-.7-.2-.3.1h-.1l-.2.2v.3l-.2.3v.1h-.1l-.2.3h-.8l-.8-.2V31l-.1-.2h-.2l-1.5-.7-.4-.4-.5-.3H64l-1.2-.7-.1-.1-.2-.3H55.7l-1.9.1H29.6l-1.9-.1H24l-1.8-.1h-3.7l-1.9-.1h-1.9l-1.8-.1h-2L9 27.8H7.2l-2-.1-1.8-.1H1.5z" fill="white" fill-rule="evenodd"/></svg>