<svg xmlns="http://www.w3.org/2000/svg" width="100" height="100"><path d="m43.7 0-.2.2-.3.6-.5 1.4-.4.4h-1.4L38.4 2h-.5l-.6.4-.4.5-.5 1.2-.3.4-1 .6-.2.3.7.1.6.3v.7L35.8 8v1.5l-.7 1.8v1.1l.3.8-.4.2-.2.5.2.9.3.8.5.4.4.5v.9l-.7 1.9-.8 2-.4 1.4.2 1 .3.4.5.4.4.6.3.5 1.3 1.8.5.4.2.3.1.3-.1.4-.3.2h-.4l-.2.3v.7l.2.6.2.7-.4.7-.7 1-.3.8v.4l-.7.5-2 2-.3.5-.6 1.3-.4.4-.6.3-1.4.3-1.2.6-.8 1-.3 1.4.3 1.9.8 3 .2 1.4L29 50l-.7 2.3v.6l.2.2.3.2.2.2v.2L28 56.5l-.2.8v.8l.2.8v1.5l-.2.6-1 1.6-.3.6-.6.7v.5l.2 1.2.1 1.5v.8l-.3.7-.7 1-.1.6v1l1.4 6 .4 1.4.2.8-.2.7-.2.4-.1.4v.9l.2.1v.1l.1.2v.4l-.2.3.2 1.5.1.4.4.9.2.8v2.1l.3 1.6-.1.7-.6.4-.4.4v.6l.2 1.6-.1.6-.1.4v.5l.1.6.2.5.2.4.2.3.4.3 1.4.9.8.6.4 1 2-.4 2-.5 1.9-.4 2-.4 1.9-.5 1.9-.4 2-.4 1.9-.5 1.9-.4 2-.5 1.9-.4 2-.5 1.9-.4 2-.4 1.8-.5 2-.4.6-.2.3-.1.2-.1.3-.5.3-.4.2-.6.2-.2.3-.2.5-.2.2-.3.2-.4v-.2l.1-.7.1-.5.1-.2.2-.3.1-.2.1-.1.2-.2h.3l.4-.2h.7l.2-.2.3-.4.1-.2.3-.6.1-.2.3-.3 2.3-1.8h2.2l.9-.5-.1-.5v-.8l.3-1.4.8-2.6v-.6l.1-.2.1-.5v-.5l-.2-.2-.6.2-.6.3.1-1-1-.6-1.2-.7-.7-.8-.1-.2v-1.4l-.1-.4-.1-.3-.3-.5-.1-.2-.3-.1-1.2-.4-1.1-1-1.2-1-1-.7-.4-.2-.2-.3-.2-.4v-.2l-.2-.3V64l-.2-.6-.2-.5v-.7l-.2-.5v-.5l-.3-1.2-.3-1-.6-1.9-.6-1.8-.6-1.9-.6-1.8-.7-1.9-.6-1.8-.6-1.8-.6-1.9-.6-1.9-.6-1.8-.6-1.8-.6-1.9-.6-1.8-.6-1.9-.6-1.8-.6-1.9-.6-1.8-.6-1.8-.7-1.9-.5-1.8-.6-1.9-.6-1.8-.7-1.9-.6-1.8L48 13l-.7-1.9-.6-1.8-.6-1.8-.6-1.9-.6-1.8-.6-1.8-.6-1.9z" fill="white" fill-rule="evenodd"/></svg>