<svg xmlns="http://www.w3.org/2000/svg" width="100" height="100"><path d="m38.3 0-.5.6-.7.2-.3.2-.3.5H36v.2l-.2.2V2.5l-1.4 1.9-.1.6v1.5l-.3 2-1.2 2.4-.3.4-.2.2-.3.2-.2.4-.1.2.1.5-.1.2-.9 1.8-.5.6-.7.4-.4.3-.6.6-.5.8-.2.7.1.3.2.3.5.4.1.1v.4H29.5l.2.3.3.3.7.4.6.6.3.8-.2.7-.4.4-.3.5v1.8l-.4.5-.6.3-.6-.2-.2.8-.1.3-.2.2-.1.2v.3l.3.3V30l.1.5.3.4v.7l.4 1.2v.9l.3.4.5 1 .4.1 1-.4 1.6.2.9 1 .9 3 .5.7.8.7.8.3 1.1-.8.6.6.8 1.5 2 1 .3.4.2.2 1.4 1.2 1.3 1 2 1 1 .7.5.8-.2.9-.8.7-1 .6-.7.3-.3.3-.9 1.2-.2.2-1.2.7-.4.4-1 1.6-.2.4-1 .8-.4.7-.8 2.2-.3-.2-.3.6h-.6v.5l.4.6.6.6-.5.5-.3.6-.4.5h-.5l-.2.2-.8.4-1 .8-.5.2-.7.3-1.3.6-1.6 1.2-1 1-1 1.4-.3 1.3.2 1.2v.2l-.4.2v.3l-.2.4-.3.4v1.5l-.2.3-.5.5-.5.8v.3l.5.5 1.3.9.2.5.1 2 .1.7h-.3l-.2-.2-.2-.2.6 1.1 1 .7 1 .5 4.1 2.8.2.2.2.1.3.2h.2l.1-.3.2-.1h.3l.5.3.4.6.4.5.6.1 1.2-.2h.3l.4.8.3.1.5.1 1.4.7.3.2.1.2v.5l.2.4.3.3.5.2v.1l.6-.1.3-.3.3-.4.3-.4 1-.4.7-.2h.4l.2.3v.3l.2.2h.6l.5-.3.2-.1L51 89h.6l.6.3 1 1.2v1.6l-.8 3.8v.8l.1.8.1.9v.5l-.1.4v.3l.5.3h.4l.3-.1 1.7-1.2 1-1 .9-1.3.4-1.3-.2-.2-.2-.3v-.4l.7-.4.3-.2.2-.3.1-.7.6-1v-.8l-.3-.2h-.3l-.3.3v-.2H57.8l.2-.5.3-.2h.4l.4.1.8-3.5.2-.5.6-.6 1-2.1.7-.8v-.3l-1.7 1h-.4L60 83l-.5-.1-.6.1.4-.8.9-.5 2-.4v-.2l-.3-.5.2-.8.8-1.5 1 .3-.6 1-.3.7-.2.7v.2l.9-.5 1.6-1.6.9-.7-.5-.6-.5-.7-.7-.4-.5.4V75.5l.2-.4.4-.4h1.3l.1-1V73l-.4-.2-.4-.2-.4-.7-.3-1.5.3.2.5.2.4-.1.4-.4 1.4.5.1.2.2.4.2.3.4-.2.1-.6-.6-.6-.6-.8.3-.7.1-.7.3-.3.4-.3.3-.5.3-.4v-.5l.3-.5.8-.5.2-.7.3-1.3.1-.3.3-.6v-.7l-.5-.1-.6-.4-.1-1.3.2-1.4.2-1 .4-.8v-.3l-.2-.8v-1.2l.7-.8-.4-.2h-1.1l.5-.9.1-1-.2-.5-.7.3v-.6l.4-.3.5-.2.4-.3.3-.5.1-.7-.2-.3h-.5V48l.3-.6.5.2.3.7.3 1 .1.9v.6l-.3 1.6 1 6.7.3-1-.5-4.2.1-1.5-.2-.2v-.7l-.2-1.8.3-1.7-.2-1-.5-.7-.7-.2.4-1.2.3-3.6-.4-1 .2-1.1.3-1v-1L70.2 32l-.5-1-.6-.4-.4.3.4.9.5.8.5.4-.5.2-1.4-.4-3-.3h-.9l-1.5.7h-.3l-.6-.2h-1.2l-.4-.6v-.8l.2-.7-.3-.2-.3-1.3v-.1l.2-.4.4-.6.2-.4.2-.8v-1.7l.2-.8.2-.3.5-.5.2-.3v-.3l.1-.8.2-.4.5-.5.2.3-.1 1.8h.5l.3-.3.3-.3.4-.9.6-.7.5-.8.1-.3v-1l-.1-.4V18l.1-1.1.8-2.4.5-3.2-.1-1.7-.2-.8-3.5-1-3.5-1.2-3.6-1-3.5-1.2-3.6-1-3.5-1.2-3.5-1L38.3 0zm33.8 60.4-.1.5-.3 1v1l-2 5.8v1l-.1.5v.5l.5-1.2.8-3.4 1-1.6.3-1.6.2-1.7V60l-.3.4zm-5 13-.5.4.5.7-.3.5-.2 1.3-.4.4h-.5l-.3-.5-.4-.3-.5.4 1 .8h1l1-.8.7-1.2.1-1.2.1-.1.3-.2v-.3l-1.6.2z" fill="white" fill-rule="evenodd"/></svg>