<svg xmlns="http://www.w3.org/2000/svg" width="100" height="100"><path d="m11.9 3.3-.3 3-.2 3.2-.3 3-.2 3.1-.3 3.1-.2 3.1-.3 3L10 28l-.3 3-.3 3.2-.2 3-.3 3.2-.2 3-.3 3.1-.2 3.1-.3 3.1-.2 3.1-.3 3.1-.2 3.1-.3 3.1-.2 3-.3 3.2-.3 3-.2 3.2-.3 3-.2 3.2-.3 3-.2 3.2-.3 3-.2 3.2-.3 3v.1h.3l.6.1h.7l.6.1H7l.6.1h.6l.7.1h.6l.7.1h.6l.6.1h.7l.6.1h.6l.7.1h.6l.7.1h.6l.6.1V99.5l.1-.1v-1.2l.1-.2V96.6h.1v-1.1l.1-.2V94l.1-.2v-1.3l.1-.1v-.2h.4l.4.1h.7l.4.1H20.1l.4.1h1.1l.4.1h.8l.4.1h1.1l.4.1h.8l.4.1H27l.4.1h.8l.4.1h1.1l.4.1H31.3l.3.1H32.8l.4.1h1.1l.4.1h.8l.4.1h1.5l.4.1h.8l.4.1h1.5l.4.1h.7l.7.1h.1l.2.3-.8-1-.2-.1h-.2l-.2-.2-.1-.2v-.2l-.3-.6v-.4l-.1-.4V91l-.3-.7V90H41l3.3.3 3.3.1 3.3.2 3.3.2 3.3.2 3.3.1 3.3.2 3.3.1 3.3.2H74l3.3.2 3.3.1 3.3.1 3.3.2h3.3l3.3.1.1-2.4.1-2.4V85l.2-2.4v-2.4l.1-2.5v-2.4l.2-2.5v-2.4l.1-2.4.1-2.5v-2.4l.2-2.4v-2.5l.1-2.4v-2.4l.2-2.5v-2.4l.1-2.4.1-2.5v-2.4l.2-2.4v-2.5l.1-2.4.1-2.4V29l.2-2.4v-2.4l.1-2.5v-2.4l.2-2.4v-3.3h.7V9.2l.1-2.2V5l-2.6-.1H92l-2.7-.2h-2.7L84 4.3h-2.7l-2.7-.2H76L73.2 4h-2.6l-2.7-.2-2.7-.1-2.6-.2-2.7-.1-2.6-.1-2.7-.2L52 3l-2.6-.2-2.7-.1-2.6-.2-2.7-.2-2.6-.1L36 2l-2.7-.2-2.6-.2-2.7-.1-2.6-.2-2.7-.2-2.6-.2-2.7-.2-2.6-.3L12 .2z" fill="white" fill-rule="evenodd"/></svg>