<svg xmlns="http://www.w3.org/2000/svg" width="100" height="100"><path d="m23.7 2.4-.4 2.4-.5 2.3-.4 2.3-.4 2.4-.4 2.3-.5 2.4-.4 2.3-.4 2.3-.5 2.4-.4 2.3-.4 2.4-.5 2.3-.4 2.4-.4 2.3-.4 2.4-.2.7v.2l2 2.5 2 2.5 2 2.6 2 2.5 2.1 2.5 2 2.6 2.1 2.5 2.1 2.5 1.6 2 1.6 2.2 1.7 2 1.6 2.1 1.6 2.1 1.7 2.1 1.6 2.1 1.7 2 1.4 2 1.5 1.9 1.4 1.9 1.5 1.9 1.4 1.8 1.5 2 1.5 1.8 1.4 1.9 1.7 2.1 1.8 2.2 1.8 2.2 1.7 2v-.5l.3-.3V97.9l-.2-.3V97.3h.6l.2-.6V95l.1-.3v-.3l-.3-.8-.1-.6-.1-.6.3-.6v-.5l.1-.3v-.2l-.3-1V89l.1-.7.1-.2.2-.3.1-.1V87.4l-.4-.6-.1-.3v-.7l.2-.2V84.9l.1-.1v-.1h.1v-.1h.1l.4-.2.4-.2h1l.5.2h.1l.1.1v.1H69l.1.1h.1l.3-.1h.5l.1.2.1.1v.2l.3.5v.2l.2.2.1.2.3.1h.8l.4-.1.2-.5.2-.5.2-.4.2-.2.3-.3v-.8l.1-.1V83l.1-.5V82l.2-.7v-.9l.2-.8.1-1 .1-.8.1-.9.1-.8.1-.7.1-.7v-.4l.1-.3v-.2l.3-2 .2-2 .3-2 .3-2 .2-2.1.3-2 .2-2 .3-2 .3-2.1.2-2 .3-2 .2-2.1.3-2 .2-2 .3-2 .3-2 .2-2.1.3-2 .2-2 .3-2 .2-2 .3-2 .3-2.1.2-2 .3-2 .2-2 .3-2 .2-2 .3-2 .2-2 .3-2 .3-2L81 9l-1.8-.3-1.9-.2-1.8-.3-1.9-.2-1.8-.2-1.8-.3-1.9-.3-1.8-.2-1.9-.3-1.8-.3-1.8-.2-1.9-.3-1.8-.3-1.8-.3-1.9-.2-1.8-.3-1.9-.3-1.8-.3-1.8-.3-1.9-.3-1.8-.3-1.9-.3-1.8-.3-1.8-.3L35 2l-1.8-.3-1.8-.3-1.9-.3-1.8-.3-1.9-.4-1.8-.3z" fill="white" fill-rule="evenodd"/></svg>