<svg xmlns="http://www.w3.org/2000/svg" width="100" height="100"><path d="m66.4 14.9-1.2.3-1.1.3-1.2.3-1.1.2-1.2.3-1.2.3-1.1.3-1.2.3-1.1.3-1.2.3-1.1.2-1.2.3-1.2.3h-.1l-.4.1-1.5.2h-.2l-.2.1-.4.4-.6.4-.2.1-.4.5-.2.2-.5.3-1.5 1.3-.6 1-1.1 1.4-1.2 1.5-1.1 1.6-.5 1-.3.5.2.2.1.3.1.3v.2l-.7.6v.4l-.6.4v.1l-.1.2-1.3 1.6-1.4 1-1.7 1.9v.5l.3.1h.2l.2.2.1.1V37.6l.2.1h.1v-.2l.1-.3.7-.5.1.2.5-.2.2.1v.4-.2h.2v-.1.4l-.2.2-.3.3-.1.2-.1.2.8-.1.2-.1.3-.4h.4v.4l-.2.2-.3.1-.2.2V39.1l-.1.3-.4.6-.1.2-.4-.1v-.2l.1-.3-.5.4-.2.2v.3h.2l.3.2.2.2h.1v.2l.1.2.3.2.2.4v.5l.1.4.1.3.2.4v-.2l.1-.2H38.7l-.3.8v.3l.3.2-.1.2-.4.7-.2.2-.8.3h-1l-.5.7-.2.3-1.1.8-.4.4-.3.5-.4 1h-.5v.2l-.8.5-1.1.5v.1l-.1.1v.5h-.1l-.1.1h-.2l-.1-.1V51l-4.6.8-.5.2-1.4.8-.6.1h-.5l-1-.6h-.4v-.2L21 52h-4.5l-1.4.6h-1.8l-3.6 1.4-.7.5-1.3.4-1.4 1-.8.2.1.3.3 1.4v1l.6.2h1.3l.4.3v.3l-.3.5v.5l.3.2.3.8.1.1.3.4.2.2v.5l.1.4v.3l-.2.2-.2.3-.9.5-.4.4-.2.5-.2.6-.1.3-.2.2-.2.5-.1.3-.2.1-.8.4-.1.4-.6.5-.6.4-.1.2-.1.2-.1.1-.3.3-.5.8-.6.5-.1.3-.2.2-.8.5-.8.8-.3.2-.2.3H0l.1.5v.5l.2.5v.4l.1.5.1.4.1.5v.4l.2.6.4-.1 1.7-.3 1.6-.3 1.7-.3 1.6-.3 1.7-.3 1.7-.4 1.6-.3 1.7-.3L16 75l1.7-.4 1.6-.3 1.7-.3 1.6-.3 1.7-.4L26 73l1.7-.3 1.6-.4L31 72l1.6-.4 1.7-.3 1.6-.4 1.7-.3 1.6-.4L41 70l1.6-.4 1.7-.3 1.6-.4 1.6-.3 1.7-.4 1.6-.4 1.7-.3L54 67h.3l.1-.1v.2l.4.2h.4l.3.2.2.2v.4l.2.3.3.2.6-.3h.2l.3.2h.3l.3.3H58.2v.2l-.3.4h.6l.1.2.2.3v.2l-.2.1v.2l.3.5.1.4.1.8v.2h.3l.9 1.2.2.2.2.1h.6l.2.2.2.1.2.1h.3l.6-.2.2.1.2.1H63.5V74h.2v.1l.2.2.2.1.2.3.2.3 1.3.5 1.4.4 1.4.4 1.4.5 1.3.4 1.4.4 1.4.4 1.4.5-.1-.4-.5-1.3-.1-.7-.1-.3-.2-.2-.2-.2-.3-.1-.2-.2-.2-.5v-.1l-.1-.2V74l.3-.2v.8l.3.3.5.3.2.1.2.2.2.5.2.6.3 1.3v1l.1.7-.1.7v.6l-.5 1.4v.6l.1.4.3-.3.1-1 .2-.5.3-.2.4-.2.5-.1h.3v-.2l-.3-.3v-.2h.1l.1-.1.1-.1v-.3l.1-.3.4-.7v-.1h.2l.3-.1v-.1l.2-.4v-.2l-.2-.1.1-.2v-.1l-.1-.1-.1-.1h-.1l-.4-.4-.4-.4-.1-.1.1-.2.5-.4.6-.6.6-.6.5-.5.1-.2-.2-.2-.2-.3-.3-.2-.3-.3v-.3l-.2-.8V71l-.2-.7-.2-.8v-.7l-.2-.7-.1-.8-.2-.7-.1-.7-.1-.8-.2-.7v-.7l-.2-.8-.1-.7-.2-.7-.1-.8-.4-.3V58.3l.1-2.4v-1.2l.1-1.2v-2.4l.1-1.2v-.4l.2-.3-.3-.3-.3-.5V47.3l-.2-.4v-.5l-.2-.6-.2-.8-.2-.9-.2-.9-.4-1.9-.2-1-.2-.8-.2-.7-.1-.7-.2-.5v-.4l-.1-.4h-.1l-.2-.2h-.2L73 36l-.1-.1h-.5l-.1.1-.1.1v.6H72l-.1.2h-.1v.1h-.1l-.2-.2v-.1l-.1-.2-.1-.3v-.4l.2-1.6V34v.1l-.2-.5v-.1l-.1-.1-.4-.2V32.3l-.1-.1-.1-.2-.2-.2-.2-.3-.1-.2-.2-.8V30l-.2-.1-.2.2v.1l-.2-.6v-1.7l-.3-.5.3-.2.6-1.1-.2-.2v-.1l-.2-.2-.1-.5-.2-.5-.1-.1-.1-.1-.2-.9v-.1h-.2V24.3l-.1-.2v-.8l-.1-.2-.3-.3.1-.3v-.4h-.4v-.2l-.2-.3-.2-.3v-.2l-.1-.2v-.2H67l.2-.3v-.2l-.2-.4v-.5h.2l.2.2v.1h.2V19.3h-.1l-.1-.1-.2-.2h-.1v-.4h.2v-.2l.1-.3V18l-.2-.1-.2-.1v-.2l-.1-.3v-.7l-.1-.6v-.2l.1-.1V15l-.2-.2v-.1h-.4zm28.2 56h-.2l-.6.5-.1.2-.2.5-.2.1-.5.3-.2.2-.1.5-.7.5-.5.9-.3.2-1.5.7-1.9.4-2 .5V76.7h-.2v-.3h-.2l-.3.1-.2.2.1.2v.3l-.2.2-.5.3H83.2l-1.2-.1h-.2l-.1.2.3.2v-.2h.3l.1.2v.3H81.9v.2l-.3-.1-.1-.1V78l-.2-.2-.3.1-.1.3v.2l.3.2v.1H80.5v-.1H80l-.6.3-.3.6.3.8h-.1l-.3-.1-.3-.3-.3-.2-.1.2-.1.2v.2h.4l.1.2v.2l-.1.1h-.1l-.2-.2-.1-.2-.2.1v.8l-.3-.2h-.4l-.3.2v.4h-.7l-.3.3-.2 1v.2h-.2v.4l-.3.5v.5l.5.3v.3h.2l.7-.3.1-.2h.1l.2-.1h.2l.1-.2-.2-.2h-.2V84l.3-.3h.1l.3-.2H78.2l.3.1V84h.1l-.2.1-1.5 1-.2.2h.4l1.6-1 2.3-.5h-.4l-1 .3-.2-.1v-.3l.3-.1.7-.2 1.2-.8 1.3-.4.2-.1.4-.4.7-.4h.2v-.3h.2l.2-.2H85.8v-.5l.1-.1h.6l.5-.3.1-.2h.2l.7-.2.3-.2.2-.2.2-.1h.7l.1-.2v-.2l-.1-.3h.4l1.3-.6h.3v.1l-.3.2-.6.3v.2h.1v-.1h.1l.2-.1 1-.8.8-.4.4-.4.1-.1v-.2l-.1-.1-.1-.2V76h.1l.4-.1h.1v.5l.2-.1.4-.4.3-.2.6-.4 1-1 .7-.4.8-.7.7-.4 1.3-1.3h.2l.1-.2V71h-.5l-.2.1v.2h.1l-.2.1h-.4v.4h-.2l-.2.1-.4.5-.4.4H97l-.1-.1-.5-.5h-.2l-.1.2v.6l-.5-.4h-.2l-.1.3-.1.1-.3.3h-.2l-.1-.2-.2-.1-.1.1.2.3-.2.2-.3.2-.5.7-.2.3v.2l.1.2-.1.2-.3.1-.2.2H92l-.2.2H91.3l.1-.2.2-.3.2-.2.3-.2.2-.3v-.3l.1-.1h.2l.3-.4h.1l.2.2h.1v-.3l-.1-.1v-.4h.1l.3-.1.1-.1h-.2v-.2h-.2l.6-1 .5-.5.2.3.2-.1.1-.2.1-.2V71h-.4z" fill="white" fill-rule="evenodd"/></svg>