<svg xmlns="http://www.w3.org/2000/svg" width="100" height="100"><path d="m84.3 2.6-.6.5-.7.3-.4.2-.1.1-.2.4-.1.1-.7.3-.5.4-1.3.4-6 4.1-5.5 6.5-.7.4-.6.5-.5.1-.7-.2h-.2l-.2.1-.3.5h-.3l-.5.1-2.5-.1-.9.1-2.5 1.2-1.5 1-.8.5-1.4.2-.3.3-.2.3-.8.7-.4.2-1 .1-.8-.2-1.6-1h-.2l-.4-.1-.2-.1-.2-.2-.2-.2-.1-.1h-.3l.4.4 1 .6.5.4-1.1-.5-.6-.2h-.8l-.3.2h-.2l-.2.1h-.2l-.4-.3-.9.3-.9.8-.8.5-.8-.5-.2.3H42V22h-1.5l.3-.1.7-.2.3-.2.3.1h.1l.1-.3.1-.3h.2l.2-.2h.5l1-.4.4-.1.5.1.4-.4.6-.2 1.4-.3-.2-.4-.2-.2-.2-.1h-1l-.3.3-.2-.1-.1-.2h-.1l-.3-.4-.3-.3h-.4v1l-.3.3-.2.2-.7.2h-1.5l-.6-.2-1.2-1.1-.6-.4H37.9l-1.3-.3-.6-.3-1-.8-.6-.3h-.2l-.5.3h-.3l-.3.1-1.6-.3-.2-.1V16l-1.7.3-1.6.4-1.7.3-1.6.3-1.7.3-1.7.3-1.6.3-1.7.3-1.7.3-1.6.3-1.7.3-1.7.3-1.6.3-1.7.3-1.7.3-1.6.3L5 23l.2 2.1.6 4.2.2 2.2.3 2 .3 2.2.3 2.1.3 2.2.2 2 .3 2.2.3 2.1.2 2.2.3 2 .3 2.2.3 2.1.2 2.2.3 2 .3 2.2.3 2.1.3 2.2.2 2 .3 2.2.3 2.2.2 2 .3 2.2.3 2.1.3 2.2.3 2.1.2 2.1.3 2.2.3 2.1 1-.9.3-.4.2-.2h.4l.4.4.4.2 1.2.9h1l1.6-1 .8-.4.5.2.4.4.3.5.2.2h1l1 .4.3.3.3.4.2.5v.4l.2.4.3.2.3.3.3.2.3.4.2.4.1.6.1.6.3.4.5.3 2.4.5h.5l1.8-.6h.5l.9.2 1 .2.3.3.3.4.4.4 1.6 1.2 1 .4h.9l.4-.1.3-.4.2-.4v-.5l.2-.2 1.4-.7h.9l.5.2.4.3.2.1.7-.1h.3l.7.2.3.1.1.2.7.7.2.3h.2l.7-.3.3-.2.3-.3h1.4l.4-.1.4-.3v-.3l.2-.6.1-.2.2-.2.5-.3.2-.3.3-.4.3-.3.4-.2.5-.2 1.1-.8.6-.2.2.1.2.4v.5l.2.5.8 1.7.7.9 1 .3 1 .2.9.4 1.8 1.3.2.3.5.8.3.3.8.2.9-.2 1.6-1 1.6-.3.3-.2.2-.5.1-.5.1-2.4.2-.6.2-.3h1l.5-.2.2-.4V93l-.1-.3-.2-.4-.2-.4v-.7l-.1-.6-.3-.4-.2-.3-.2-.5V89l.2-.4.4-.3.1-.6.2-.5v-1.3l.2-1 .5-1 .5-1 .6-.7h.5l.4.2.4.2.7.2.3.2.3.4.1.4.1.1.1.2V84.3l-.2.1v.6l-.1.2.2.2.4.2.4-.3.4-.5.1-.4.1-.7v-.3l.3-.2h.2l.5.4h.2l.4-.2v-.2l-.3-.4-.2-.4v-1l-.2-.4-.3-.2h-.1l-.2-.1-.2-.2v-.2l-.3-.3.2-.1 1-.6V78.4l-.2-1v-.7l.8-1.3.2-1 .4-.1.5-.1.5-.3.1.2.2-.2h.2l.2.1.2-.4v-1.5l1.4-1.7.3-.2.8-.2.3.2.2.4.4.5.4.2.5-.2.6-.7.4-.3h.4l.4-.3.4-.2.3-.3.5-.7.3-.4.8-.4.2-.5.3-1 .6-.8 2-2.1 1.2-1V62l.1-.8v-.7l.3-.3v-.5l-.1-.3-.3-.3-.4-.3-.1-.3v-.3l.5-.3v-1.1l.1-.3.1-.3.3-.5v-.5L93 55l-.1-.2v-.5h.2l.3.1h.3v-.5l-.1-.2-.1-.2V53l.2-.3v-1l-.2-1.1v-.5l.1-.7.3-1 .1-.5v-1.6l.3-1 .2-.3.4-.5.1-.2.1-.8V43l-.3-.6v-.5l-.2-.1H94.3v-.6l.1-1.1v-1l-.4-.4-.6-.8-.8-.8-.2-.4.1-.6.3-.3.5-.3h.9l.8-.7.3-.2-.5-2.7-.5-2.7-.4-2.7-.5-2.7-.5-2.8-.5-2.7-.5-2.7-.5-2.7-1-5.4-.9-5.4-.3-2.1z" fill="white" fill-rule="evenodd"/></svg>