<svg xmlns="http://www.w3.org/2000/svg" width="100" height="100"><path d="m93.1 26.2-2.6.1-2.6.2h-2.7l-2.6.2H80l-2.7.2h-2.6L72 27l-2.7.1h-2.6l-2.7.1-2.6.1H59l-2.6.1h-2.7l-2.6.1H37.8l-2.6.1H19.3l-2.6-.1h-2.6l-2.7-.1H7.2l-1.4-.1H3l-1.4-.1H.2v1.7L0 30.7v1.7L0 34.2H3l2.1.1 2.6.1h2.8l3 .1H20l3 .1H34.5V62H35.4l.3.1 2 2 .3.3.1.2h.3l.7.1h.2v-.1l.2-.2h.8l.4.3h.3l.3.1.1-.1.1-.2v-.7l.2-.2h.2l.2.2v.2h.1l.1.2h.5l.2.1.1.3.1.2.1.2.4.4.2.2v1.3l.2.1h1l.5.2h.7l.2-.1h.2l1 .6.2.1 1.4.3h.2l.8-.3h.7l.2.1.2.4.2.2.4.4.2.1H53v-.2l.2-.2.1-.3.2-.2h.3l1.6.1h.3l.6-.3h.3l.2.2v1.5l.5.2.6.1.4.2h.1l.1.2v1l-.1.2.1.1.3.2.5.1h.5l.5-.4 1-1 .4-.3.4-.2.5.2v.8l.2.2.2.1h1.2v.3l.1.3v.3l.3.1h.8V72h.2V72l.1-.1h.1v-.1l.1-.2.2-.2h.1l.4.4v-.1l.2-.4v-.1h.1V71h.2l.1-.1h.2l.1.2v.2l.1.1v.3l-.2.3v.6l.2.4.2.3.3.2h.4l.2-.3v-.8l.1-.1.2-.2h.1V72H69v-.4l.4.1h.2l.2-.3.2-.4v-.6h.1v-.1H71l.1.1v.2l.1.4h.1v.2l.2.2H72.5l.3.3H73.3l.2-.1v-.1l.1-.2.2-.4v-.1l.1-.1H74.2l.3.1.1.1v.7l.2.2.5.1.2.1h.1V72.4l.1.1h1.1l.3.4.4.5.3.3.3-.2.1-.3v-.4h1.1l.2-.2.1-.2.2-.4.1-.2h.1l.3-.1h.7l.2-.1.4-.2.2-.2h.2v-.2l.2-.1.1-.1h.2l.1.2.7.4h.4l.1-.2H84.2v.1l.2-.1v-.4h.4l.2-.1h.1v-.1l.2-.1h.1l.2-.1.2-.2h.3l.2-.2.1-.1h.2l.1.1.2.1.1.1.1.2v.2h.4v.1l.1.1h.5l.1.2H89.3v-.1h.1v-.4h.5l.1-.1v-.1h.2v-.1l.1-.2v-.3l.3-.2h.2l.8.2.1.1v.1l.1.1.5.2h.2l.4.5h.2l.1.1h.5l.1.1h.1v.4h.2l.2.2.2.3.5.5h.8l.3.1h.1l.2.1.2.3.2.1.1.2h.2l.1-.1h.4l.2.1v.1H98.5v.1l.1.1.6.2v-.1h.5v-3l-.1-3-.1-3.2v-3l-.2-3.1V55l-.1-3.1-.1-3-.4-2-.4-2-.3-2-.4-1.9-.3-2-.4-2-.3-1.9-.4-2v-1.7l-.2-1.8V28l-.1-1.8z" fill="white" fill-rule="evenodd"/></svg>