<svg xmlns="http://www.w3.org/2000/svg" width="100" height="100"><path d="M17.7 11.3v.4l.2 1.3v1.2l-.1.4-.1.3-.1.2h-.1l-.3.2H17v.1l-.2.1.2.4v.7l-.3.8-.1.3-.4.5.2.2.2.3v.5l-.1.4v-.1h.2l.1-.2h.1l.2.1h.2l-.1.1H16.9l-.1.2h-.1l-.3.3-.2.3-.2.5V21l.3.2h.3l-.1.3v.5l.3.1v.1l-.2.1-.1.2h-.1l-.2-.2h-.1l-.2-.3v-.4l.1-.5v.2l-.2.4-.2.3-.2.6.2.4.3.3-.2.1-.2.2-.2.1.2-.4h-.1l-.1.2-.1.2v.3l-.2.1h-.3v.2h.2l.1.1.1.1v.4l-.1.4v.1l-.1.1h-.1l-.2.6v.4l-.1.3v.2l-.2.4-.2.3-.2.3-.2.3V28.7l-.2.7-.1.4-.2.3v.4l-.1.1H13v.2l-.2.3-.1.2-.2.3-.2.2-.1.9v.3l-.1.3-.2.6V34.8H12.2l.1.2v.3l-.3-.1-.2-.2h-.1l-.7 1.8-.1.4v.2l.2.2h.4v.5l-.4-.3H11l-.1.1v.3l-.5.9-.2.1v.4l-.2.6-.2 1-.4 1.2-.2.4V43.1l-.1.2V43.9h-.2v.2l-.2.6v.3l-.3.6-.7 1.7-.3.6v.6l.1-.2.2-.3.2-.3H8l.3.2.2.2.1.2H8V48h-.2l-.2.3-.1.2-.2.1-.3.2-.2.2-.1.2-.2.7-.2.3v.1L5 52.2l-.2.3v.1l.4-.3.4-.4.5-.3.5-.2-.2.3v.8l.4.7h-.5l-.2-.2v-.2l-.1-.3V52.2h-.4l-.4.3-.2.3.2.2-.1.1H4.8v.8h-.2l-.1-.2.1-.9h-.2L4 53 4 53l-.1.1v.1l-.1.3-.2.6-.9 2-.2.6v.3l-.2.3-.2.2-.2.2-.2.2-.5.8L.3 60 0 60l.2.2.1.2v1l.1.2h.2v.1l.1.5.1.3.2.2.1.1.1.2v1.5l-.3.4v.2l-.5.5v.9l-.2.5v.4l-.2.2-.1.1-.1.1v.1l.1.2V69.3l.1.2v2.1l.2.2.4.7.6.6v.4h.4l3 .7 3 .7 3.1.7 3 .6 3.1.7 3 .6 3 .6 3.1.6 3 .6 3.1.6 3 .7 3.1.5 3 .6 3 .6 3.1.6 3.1.5 2.2.4 2.2.4 2.1.4 2.2.4 2.2.4 2.2.3 2.2.4 2.1.4 2.2.4 2.2.3 2.2.4 2.2.3 2.2.4 2.1.3 2.2.4 2.2.3.2-1.5.3-1.6.2-1.6.3-1.5.2-1.6.2-1.6.3-1.5.2-1.6.3-1.5.2-1.6.2-1.6.3-1.5.2-1.6.3-1.5.2-1.6.2-1.6.1-.6.3-1.4V61.6l.1-.2.3-.1.2-.2.2-.3v-.4l.3-.4.2-.7v-.1l.1-.1V59l.1-.2v-.3l-.3-.6v-.2l.2-.2h.5l.1-.3v-.1l.1-.2.2-.2v-.2l-.2-.3-.2-.1-.2-.2-.1-.3v-.5h-1l-.1-.2v-.2l-.1-.1h-.5v.2H89l-.4-.3-.1-.2v-1.8l.2-.3.1-.3v-.4l.2-.2.1-.2h.1l.2-.1h.1l.2-.2.2-.2.1-.3.2-.6.2-.3.4-.4.4-.8.2-.2.2-.2.8-.3.2-.1.2-.2.7-.9.4-.4.1-.3.2-.7.1-.3V43.9l1.5-1.6.4-.5.3-.9.2-.2.1-.3.2-.6v-.3l.3-.2.4-.4.2-.5.7-.6v-.1l.1-.3.3-.5h.1l.4-.4.2-.2.1-.2v-.7l-.3-.8V34l-.2-.3-.1-.2-.2-.2-.4-.1-.6-.5-.2-.3v-.1L97 32v-.2l-.1-.3-.6-.7-.2-.9v-.5l-1.5-.3L93 29l-1.4-.2-1.5-.2-1.4-.3-1.4-.2-1.5-.2-1.4-.3-1.5-.2-1.4-.2-1.4-.3-1.5-.2-1.4-.3-1.5-.2-1.4-.2-1.4-.3h-.7l-.5.3-.6.2-2.8-.5h-1.6l-.7-.1h-.5l-.4.3-.5.3h-3.2l-1.7.3H59l-.4.3-.3.2h-.8l-.2-.1h-.1l-.5.2h-.4l-.6-.2h-.4l-1.7-.6h-.1l-.4.2-.1.1-.6.1h-.9l-.6.3h-1.1l-.2-.2h-.5l-.2-.2h-.2l-1.1.2h-.3l-.2-.2V26l-.2-.2-.1-.3-.5-.2-3.3-1h-1.7l-.8-.3h-.8l-1 .5-.4.2-2.2.3-.8.1h-.5l-.8-.4-1-.2-.2-.3-.6-.2-.3-.3h-.7l-.8-.3-.2-.2-.3-.3-.1-.2v-1.4l.2-.3V20.6l-.2-.5v-.3l.2-.3v-1.7l-.1-.3-.2-.1v-.8l-.1-.4-.2-.3-.1-.3-.3-.3-.3-.2-.3-.3h-.3l-.2-.2-.3-.4-.1-.1-.2-.1h-1l-.3.4h-.2l-.7-.1-1-.5-.2-.2v-.1l-.5-1-.2-.1h-.4l-.4.1h-.7.1l.1.2h-1.5l-.2-.4V12h-.3l-.2.1H19.1v.1l.1.1h.1l.2.1v.1l.2.3.1.1v.1h-.2v.1l-.1.2v.2l-.2-.2v-.2l.1-.2v-.3h-.1l-.4-.1-.2-.2-.2-.2-.2-.3-.3-.3h-.2v-.2z" fill="white" fill-rule="evenodd"/></svg>