<svg xmlns="http://www.w3.org/2000/svg" width="100" height="100"><path d="m81.5 18.3-.3.1-2.1.5-2.2.5-2.1.5-2.2.4-2.1.5-2.1.5-2.2.4-2.1.5-2.2.4-2.1.5-2.1.5-2.2.4-2.1.5-2.2.4-2.1.4-2.2.5-2.1.4-2.2.5-2.1.4-2.2.4-2.1.4-2.2.5-2.1.4-2.2.4-2.1.4-2.2.4-2.1.5-2.2.4-2.1.4-2.2.4-2.1.4-2.2.4-.6.1v-.7l-.2-.6-.1-.6-.1-.6-.1-.6-.1-.6-.2-.6v-.6l-.2-.6-1.8 1.1-.6.7-.6.3-.6.7-.7.4-.7.6-.3.2v-.2l.2-.4.4-.1.2-.2.1-.2h-.4l-.2.2-.3.3-.3.3-.1.5-.2.2H5l-.4.5-2.4 1.9-1 .4-.1.1-.3.3-.7.4.3 1.6L1 41l.8 4.3.4 2.2.4 2.1.4 2.2.3 2.2.4 2.1.4 2.2.4 2.1.4 2.2v.1l.6 3.3.3 1.7.3 1.6.3 1.7.3 1.6.3 1.7.3 1.7.2 1.4.3 1.4.2 1.5.3 1.4 2.1-.4 2.1-.4 2.2-.3 2-.4 2.2-.4 2.1-.4 2.1-.4 2.2-.4 1.8-.3 1.9-.4 1.9-.4 1.8-.3 2-.4 1.8-.3 1.9-.4 1.8-.4 2-.3L44 75l1.9-.4 1.8-.3 1.9-.4 1.9-.4 1.8-.4 1.9-.4 1.9-.4 1.8-.3 2-.4 1.8-.4 1.8-.4 2-.4 1.8-.4 1.8-.4 2-.4 1.8-.4 1.8-.4 2-.4 1.8-.4 1.8-.4 1.9-.4 1.9-.4.1-.1.2-.7.3-.6.2-.7.2-.4.3-.3.3-.2.5-.3.4-.1.7-.2h1.4l.5.2.3.1.3-.6.3-.2h.2l1-.8h.7l.6-.6.9-.6.2-.2-.2-.4v-.5l.1-.4.2-.3.4-.1.4-.6.3-.3.6-.4.1-.1.5-.9.2-.2.6-.3.1-.1.5-.7h.1l.4-.2.5-.3.4-.4v-.5l-.2-.4-.5-.3-1-.5-.7-.5-.7-.6V51l-.2-.2-1-.5-.5-.8-.2-.3-.6.4-.4-.2-.4-.3-.3-.4-.4-1.5-.4-.5h-1l-.4.1h-.2l-.2-.5-.2-.2v-.5l-.2-.6v-.4l-.1-.2-.1-.2V43.3l-.1-.1v-.4l.2-.2v-.4l.4.1.3-.1.2-.3V41l.1-.2.2-.2v-.8l-.4-.3-.3-.2-.1-.1-.1-.2H90v-.2l-.3-.3-.2-.1v-.5l.4-.4.3-.4.2-.1.3-.2.3-.3.4-1v-.3l.2-.2.1-.2h.1l.2-.3.6-1.2.1-1v-1.1l.8-1V29.9h.1l.2-.1.2-.3h.1l.3-.2.3-.2-.2-.5-.3-.4-.2-.1-.2-.3-.1-.2H93.5l-.2.2h-.1l-.3-.1-.3-.1-.8.2h-.4l-.3-.1-.2-.2-.2-.2h-.8l-.3-.1-.3-.3-1.1-1.5-.3-.1V25l-.2-1.1-.1-.4-.4-.7v-.2l.2-.3v-.2l-.2-.4-.2-.1h-.3l-.4-.2.3-.5v-.2h-.4l-.3-.4h-.5L85 20h-.2l-.8.3-.3-.1-.2-.4-.2-.5-.2-.4-.3-.1-.6-.1-.4-.2v-.3z" fill="white" fill-rule="evenodd"/></svg>