<svg width="100" height="36" xmlns="http://www.w3.org/2000/svg"><path d="M9.08953434.1870693c-.80962068.1268621-1.00475862.1951379-1.4437931.517069-.28294827.2145862-.56581034.4487069-.63408621.5462931-.05851724.0878103-.26341379.2245172-.44870689.3024827-.48777586.1950518-.64394828.6340862-.44879311 1.2877242.07803449.2731034.23412069.6439483.33168966.8194655.23412069.3902069.3902069 1.2291207.33168965 1.7168965-.05851724.4098276-.33168965.6633966-1.16093103 1.0828104-.27310345.1367241-.62432759.3902931-.78041379.5561379-.31215518.3414655-1.49262069.9267242-2.0682069 1.034138-.19505172.0390689-.65362069.1949827-1.01462069.3512241-.36091379.1463103-.85844828.3023965-1.10234483.3414655-.61456896.0779483-.70236207.2145-.48777586.7706379.08781035.2340345.2634138.5559656.3902931.7022759.11701725.1463103.47801725.7608793.79017242 1.3756034.64386207 1.2388794.91696552 1.4730863 1.75596552 1.4730863.91703448 0 1.64870689.6145689 1.84375862 1.5608103.03906896.1853793.21467241.5561379.40005172.8292414.21458621.321931.36091379.6926896.42918966 1.0732069.1267931.7315862.25365517 1.0242069.4195 1.0242069.17562069 0 .47801724.3316896.39020689.4293448-.03898276.0292931.02929311.1267931.14631035.2145.14631034.0974828.21467241.2537414.21467241.4584828 0 .2439655-.11710345.4195862-.60487931.8976034-.82924138.799931-1.25841379 1.3656724-1.19013793 1.5512241.0292069.0877242.11701724.1559138.19513793.1559138.21458621 0 .16575862.6829138-.06836207 1.0634483-.14631034.2439655-.17553448.3902931-.10734483.5366035.04882759.1170172.06836207.4973793.03906897.858362-.04874138.6926897-.14631035.878069-.74143103 1.2779483-.19505173.13672414-.24389656.2342069-.19505173.40005173.0292069.1267931.00975862.26332759-.04882759.29263793-.22436206.14631035-.08772413.33168966.39029311.52684483.55596552.2342069.58525862.40005172.08772414.56574138-.43894828.14631034-.61456897.40005172-.54629311.81946552.04874138.28303448.00975862.3902931-.25365517.65362069l-.30239655.31232758.28294827.05843104c.15608621.0292931.46824138.14631034.70236207.25356896.22436207.09765517.49753449.18537931.59503449.18537931.22444827 0 .69268965.361.69268965.53660345 0 .22427586-.58534483.62432759-1.15117241.79017241-.71213793.2049138-1.12186207.51706897-1.2584138.95601725-.1560862.51706896.13655173 1.38520689.65362069 1.91203448.23412069.24396552.29263794.38051724.29263794.72198276 0 .3998793.01953448.43894827.39020689.62432758.45856897.22444828.50731035.11701724.19513793-.3902931-.27318965-.4487069-.24389655-.77063793.08781035-1.10234483.25365517-.23403448.35113793-.26332758.69260345-.2145.22436206.02912069.56581034.16584483.77072413.30239655.21458621.15608621.49753449.25356897.70236207.25356897.17562069 0 .50731035.05858621.72189655.13672414.21467242.07794827.82924138.16567241 1.36575863.20474138.90727584.0585862.99508624.04882758 1.24874134-.14631035.1463104-.11701724.2634138-.27310345.2634138-.34146552 0-.07794827.1267931-.14631034.3218449-.16584482.2342069-.01953449.3220172-.07794828.3414655-.23403449.0488276-.37075862.3317758-.52684482.9560172-.52684482 2.1462414 0 2.7608104.04882758 2.9852586.25356896.3805173.35122414.5366035.35122414.6047931.02929311.0488276-.25356897.0878966-.28286207.2732759-.23403449.5266724.14631035.6632241.27310345.6632241.58525862 0 .38051725.0781207.4487069.9950862.91712069.517069.26317242.7122242.4194138.7122242.55596552 0 .1560862.0877241.19498276.5366034.24381035.292638.03906896.6632242.11718965.8292414.17562068.3217586.13655173.7315862.06836207.7315862-.11701724 0-.1853793-.2049138-.361-.4098276-.361-.3901207 0-.1559138-.28286207.3512242-.42918965.7219827-.21467242.7512758-.37075862.1560862-.9657931-.2633276-.2635-.4877759-.52684483-.4877759-.56589656 0-.14631034.1756207-.09748276.4586552.14648276.1560862.12679311.3901207.25356897.5168965.27310345.2049138.01953448.2439656.08772414.2439656.34146552 0 .49737931.1365517.56574138.9169655.43894827 1.3072414-.22444827 1.5512241-.14631034 1.2681896.38036207-.0974827.18537931-.0877241.18537931.0976552.08789655.1072586-.05843103.2731034-.23420689.3512241-.3902931.1754483-.34146552.4487069-.38036207.9657931-.1267931.4389483.20491379.8778966.08772414 1.9120345-.50731035.4000517-.22427586.8976035-.46824138 1.092569-.53643103.4098276-.12694828.6633965-.41958621.6633965-.75127586 0-.27310345-.0390689-.27310345-.3707586-.02929311-.3705862.27327586-.897431.37075862-.897431.16601724 0-.08789655.0974827-.16601724.2242758-.18555172.1367242-.01953448.2244483-.09748276.2244483-.22427586.0097586-.10725862.0195345-.24396552.0292931-.30239655.0097586-.05858621.1756207-.13655173.3902931-.17562069.2047414-.02929311.4291897-.11701725.4975345-.2049138.058431-.07794827.3023966-.24381034.536431-.38051724.4195863-.22427586.4293449-.22427586.5950345-.04865517.1074138.1267931.2342069.16584483.3902931.1267931.3023966-.07812069.3023966.08772414 0 .25356897-.2145.10741379-.2244482.14648276-.0976551.2635.1757758.18520689.1757758.40982758-.0193621.62432758-.0974828.10725863-.1269483.22444828-.0683621.32193104.0976552.17562069.2244483.09765517.4195862-.26332759.2242759-.44887931.6047931-.58543103 1.4340345-.53660345.5852586.03889656.7511035.08772414.8681379.25356897.1658449.2342069 1.2781207.79993103 1.5902759.79993103.1170172 0 .3707586.06836207.5755.15608621.4877759.21467242.8878276.17577586 1.1902241-.10725862.4780173-.45848276 1.7950173-.69251724 2.2046725-.39987931.1269482.09748276.1853793.26332759.1853793.51689655 0 .32193104.0292931.37075862.2535689.40005173.1367242.01953448.302569-.03906897.3805173-.11718966.1560862-.19498276.839-.20474138 1.2097586-.00960345.1463103.07794828.3707586.14631035.4877759.14631035.2438103 0 1.4145-.361 1.5608103-.47801724.0585862-.04882759.3316897-.11701725.5950345-.15608621.2732758-.03906897.946431-.2342069 1.5121552-.43912069 1.4145-.52684483 1.9218103-.62432759 2.1853103-.45848276.1267931.08789655.2828621.10741379.3998793.05858621.4195862-.16584483.8876552-.09748276 1.2097586.17562069.5366035.46824138.8292414.77063793 1.1607587 1.1802931.3025689.38051724.361.40982759.8097069.40982759.2635 0 .4781724.03906896.4781724.09748276 0 .04882758.1463103.16584482.321931.24396551.1658448.08789655.536431.28286207.799931.43894828.2731035.15608621.5268449.29263793.5657414.29263793.0488276 0 .2926379-.22427586.5561379-.48777586.2633276-.27310345.5168966-.48777586.5755-.48777586.0586035 0 .1074138-.13655173.1074138-.29263794 0-.29263793.0584311-.33168965.4487069-.30239655.1072587.00975862.3608276-.11701724.5658966-.28286207.3315345-.25356896.4583103-.29263793.9949138-.29263793.5561379 0 .6340862.02912069.839.28286207.1267931.15608621.4682414.46824138.7608793.70227586.2927931.22444828.6049655.4977069.6926896.60496552.1267931.15608621.2244483.17562069.517069.1267931.2926379-.0585862.517069-.00975862 1.1121035.2342069.9853103.4194138 1.5121551.3705862 2.0974138-.19513793.2242758-.21467241.4488793-.3902931.5073103-.3902931.058431 0 .2146724-.10725862.3414655-.24381035.1267931-.13672414.2633276-.24396552.3121552-.24396552.0488276 0 .3707586.12679311.7122241.29263794.3412931.1560862.7413449.2927931.8778966.2927931.361 0 .4098276.24381034.0878965.51689655-.2342069.2049138-.3221034.22444828-.6147241.14631035-.1951379-.04865518-.5462069-.11701725-.7804138-.14631035-.3803621-.04865517-.4291897-.03889655-.3707586.1074138.0390689.09748275.068362.34146551.068362.55596551 0 .2049138.039069.38051724.0779483.38051724.0488276 0 .2830345-.12694827.517069-.29263793.4975345-.33168965.9950862-.37075862 1.8438448-.14631034.7708104.20474138 1.0243793.1853793 1.3853793-.13687931.4389483-.38036207.8974311-.59503449 1.5510517-.75094828.3414656-.07812069.8487759-.31215517 1.2779483-.59503448.6438621-.41958621.7608793-.45881035 1.2291207-.43929311.321931.00993104.6245.08805173.780569.19513794.7315862.50731034 1.1023448.56589655 1.2877241.20491379.0584311-.09748276.1560862-.15608621.2340345-.1267931.0683621.0292931.2342069-.11701725.3805172-.34146552.1463104-.22444828.4487069-.48777586.6731552-.60479311.3707586-.18537931.4487069-.19513793.9950862-.08789655.9071897.17562069.9364828.19513793 1.0339828.4487069.1171896.29263793.3902931.30256896.643862.0292931.1560863-.17562069.2537414-.19498276.7024483-.13655172.3316897.03906896.9169655 0 1.5608104-.09748276 1.4633276-.22444828 1.4048965-.20491379 1.9122069-.58543103.3705862-.29263794.5266724-.35105173.8388276-.33168966.361.0292931.4098275 0 .6536206-.35105172.361-.53660345.4975345-.6245.9950862-.63425862.2537414 0 .556138-.07794828.7610518-.20474138.2145-.13655173.4291896-.19513793.6243276-.16584483.3512241.05843103.5266724-.18537931.4389482-.61439655-.0292931-.1564138-.0097586-.2832069.0585862-.30274138.0779483-.02896552.0681897-.10725862-.009931-.26332759-.1656724-.31215517-.0486552-.92672414.2537414-1.28772414.3707586-.43877586.5658965-.50713793.8878276-.34146551.5559655.29263793.858362-.00975862.9657931-.96579311.068362-.57567241.1756207-.82924138.3705862-.82924138.0976552 0 .1269483-.07794827.0878965-.2731034-.0390689-.2049138.0292931-.3707587.3023966-.7317414.2439655-.3219311.3316896-.5168966.2830345-.6340862-.1660173-.3803621.0388965-.839.79-1.7852587.4000517-.4973793.6049655-.6633965.9268965-.7608793.3219311-.0976551.4389483-.1951379.5657414-.4780172.4780172-1.0535172 1.1804655-1.424431 1.8926724-1.0048448.1658448.1074138.3510517.1757758.3901207.1463103.0488276-.039069.1756207.0195345.2732759.1072586.2047413.1855518.3412931.0585862.2438103-.2535689-.0974827-.292638.2633276-.6340862.8876552-.8292414.2926379-.0877241.5756724-.2244483.6340862-.2926379.1562586-.195138.5172414-.1658449.8878276.0585862.4291896.2633276.4780172.2535689.8976034-.1464828.3023966-.2828621.3414655-.3705862.253569-.536431-.058431-.1072586-.1756207-.195138-.253569-.195138-.1463103 0-.1367241-.0974827.0681897-.643862.1074138-.292638.5268448-.3512242.8194655-.1170173.1367241.1072587.2439655.253569.2439655.3315345 0 .0781207.0681897.1367242.1463104.1367242.0877241 0 .1463103.0877241.1463103.2342068 0 .3023966.1560862.4096552.3510517.2439656.1074138-.0880518.1367242-.2148449.0976552-.4294311-.0781207-.4096551 0-.4584827.4096552-.282862.2732758.1170172.361.1170172.4293448.0195344.1072586-.1852069.0974828-.2731034-.039069-.2731034-.361-.0097586-1.0339827-1.0732069-.9267241-1.4633276.0585862-.2146724.039069-.2146724-.4098276-.1658448-.4389483.0486552-.5755.0097586-.9657931-.2828621-.0195345-.0097586.0195345-.1269483.0878966-.2439655.0681896-.1267931.1267931-.3707586.1463103-.5559655.0195345-.2830345-.0097586-.3219311-.2633276-.3805173-.1562586-.0292931-.2830345-.068362-.2830345-.0976551 0-.1072587.292638-.5950345.4293449-.7022759.2242758-.1853793.1656724-2.039-.0683621-2.1755517-.0878966-.0488276-.1658448-.195138-.1658448-.3219311 0-.1267931-.0584311-.2438103-.1170173-.2731034-.0781207-.0292931.0291207-.2049138.292638-.4780172.2242758-.2340345.4096551-.4682414.4096551-.517069 0-.039069.0683621-.1560862.1560862-.253569.0878966-.0976551.1853793-.3121551.2342069-.4975345.039069-.1756206.1072587-.3902931.1365518-.4780172.0488275-.1171897-.0097587-.1951379-.2244483-.2830345-.3608276-.1463103-.5950345-.0096034-.5950345.3414655 0 .4293449-.614569.7317414-.7120517.3414656-.0781207-.2828621-.4098276-.2438104-.6731552.0878965-.4098276.5071379-1.2779483.7901724-1.4047414.4487069-.0392241-.0976552-.2049138-.1367241-.6049655-.1267931-.7218103.0195345-1.6387759-.3707586-1.736431-.7415172-.0292931-.1267931-.1170173-.2633276-.195138-.292638-.0781207-.0293103-.1365517-.1170172-.1365517-.2049138 0-.2047413-.361-.1853793-.4780172.039069-.0585862.0976552-.2246035.2340345-.3805173.2926379-.361.1560862-.6731551.0292931-1.160931-.4487069-.2047414-.2049138-.5073103-.4194138-.6633966-.4682413-.2535689-.0878966-.2927931-.1560863-.321931-.5268449-.0291207-.4096551-.0388965-.4194138-.3217586-.361-.1658448.0292931-.4195862.1464828-.5758276.2537414-.3023965.2146724-.5851034.253569-.5851034.0877241 0-.0585862.1072586-.2438103.2535689-.4291896.2826897-.3805173.1463104-.5756724-.1853793-.2635-.1170172.1074138-.361.2635-.527.3512241-.2826896.1464828-.3508965.1464828-.6633965.0195345-.1853794-.0779483-.3412931-.2146724-.3412931-.2926379 0-.0877242-.0584311-.1560862-.1367242-.1560862-.0681896 0-.2828621-.1658449-.4682414-.3707587-.3414655-.3805172-.4973793-.4291896-2.3216896-.7022758-.3512242-.0488276-.7610517-.2146724-1.1902242-.4780862-.6731551-.4097414-1.0536724-.5073104-1.0536724-.2634138 0 .3316896-2.0095345.2146724-3.1606896-.1852931-.9169655-.3122414-1.8534483-.3414655-2.0097069-.0488276-.1559138.2927241-.6438621.4975345-1.1217069.4780172-.2439655-.0194482-.4684138 0-.4975345.039069-.0779483.0780345-.7022759-.1756207-.9267241-.380431-.1072587-.0877242-.4096552-.1561724-.839-.1755345-.517069-.0195345-.780569-.0878966-1.1218621-.2927931-.5462069-.3219311-1.6389483-.5950345-2.6924483-.6827586l-.8097069-.0683621.1756207.2438965c.2828621.3804311.5168966.4877759.6827586.3220173.0781207-.0781207.2439655-.1171035.361-.097569.1756207.0389828.2146724.097569.1853793.2731035-.0388965.165931.039069.2829482.292638.4877758.1951379.136638.4293448.2438966.5366034.2243621.2146724-.0389828.5073104.1756897.5073104.3707586 0 .0779483-.0781207.1365517-.1853793.1365517-.0976552 0-.3805173.1074138-.6340863.2439656-.5950344.321931-.6829137.3121551-.8194655-.0878966-.1170172-.3121552-.1463103-.3316034-.5366034-.321931-.5268448.0195345-.9853104-.2439655-.8974311-.5169828.0291207-.1073448.0096035-.2731896-.0488275-.3902069-.1267931-.2439655-.6340862-.2634138-.8876552-.0390689-.0878966.0779482-.4488793.1950517-.7903448.2535689-.770638.1365517-1.0632759-.0096896-1.2388793-.6145689-.0976552-.3023966-.1463104-.3706725-.2439656-.292638-.0877241.0779483-.5755.0779483-1.629.0195345-1.6000517-.0976552-1.6291724-.1074138-2.3999827-.4684138-.5266724-.253569-.9853104-.2438965-1.2974828.0195345-.2633276.2244483-.5657414.2537414-.9267241.0976552-.2047414-.0780345-.5657414-.1463104-.8194655-.1463104-.2439656 0-.7317414-.0878103-1.0828104-.2049138-.3707586-.1170172-.7512758-.1756207-.9171207-.1463103-.1560862.039069-.3315345.0195345-.3901207-.0292069-.3316896-.2536552-2.6437931-.4292586-3.9119827-.2927241-1.5412931.1756206-1.4828621.1561724-1.8145517.6244137-.1658449.2341207-.4195863.4682414-.5658966.5169828-.2926379.097569-1.2875517 0-1.7168965-.1756207-.1560863-.0683621-.6438621-.1561724-1.0730345-.2049138-.4293449-.0488276-.9560173-.1853793-1.1804655-.282862-.2146725-.1073449-.5950345-.1950518-.8487759-.1950518-.2438104 0-.6926897-.0878103-.9755517-.1951379-.4780173-.1755345-.5559656-.1852931-.7999311-.0585172-.4487069.2341206-1.1998276.3023965-1.3949655.1267931-.0878965-.0878966-.5366034-.2438966-.9950862-.3707587-.9755517-.2535689-2.1267241-.224362-2.4486379.0683621-.1560862.1365517-.3121552.1560862-.9657931.1073448-.770638-.0487413-.7901724-.0487413-1.0730345.2341207-.2635.2633276-.3123276.2828621-.8196379.2243621-.507138-.0585172-.5266725-.0487414-.5657414.1658448l-.0292931.2341207-1.2193621-.0389827c-.9560172-.0292932-1.2681896-.0683621-1.4633276-.2049138-.1365517-.0878104-.3316896-.1950518-.4389483-.2243621-.1074137-.0292931-.4781724-.1658448-.8194655-.3121552-.6049655-.2536552-.6633965-.2634138-1.999931-.2049138-1.8047931.0878104-1.9608621.0878104-3.2778793.0488276-.8778966-.0292931-1.2193621 0-1.5901207.1365517-.7315862.2633276-1.3656724.2145-3.0436724-.2145862-.1560862-.0390689-.5366035-.0488276-.8292414-.0195345-.6536207.0682759-1.6194138-.0780344-1.9511034-.3024827-.1365518-.0877242-.4194138-.1950517-.6340863-.2341207-.2146724-.0389828-.5951896-.1657586-.8487758-.2926379s-.5852586-.2341207-.7413448-.2341207c-.1560863 0-.4684138-.0585862-.7122242-.1365517-.6633965-.2146035-3.8826896-.253569-5.06315516-.0585173Z" fill="#FFF" fill-rule="nonzero"/></svg>