<svg width="100" height="100" xmlns="http://www.w3.org/2000/svg"><path d="m46.3 2.3-7.7 2.4-7.5 2.5-7.7 2.5-7.5 2.4 1.6 7.2 1.7 7.2 1.7 7.3 1.7 7.2 1.7 7.3 1.7 7.1 1.7 7.2 1.7 7.3.8 3.8 1 5.3 1.3 7.8-1 .7-.3 1.2-.2 1.8.7 6.6v2.6l7.5-3.5L52 86l4-1.3h1l2.2.5h.8l.7-.8.2-1.3-.1-1.2.2-.7 2.2-10.7-.2-2.3-1.7-6.5-.8-1.8-1.8-2.2.1-1.4 1-1.6.4-2.6-.4-2.6-.9-2.4-1.3-1.7-2.2-.5.3-1 .7-1.1 1-.8 1-.2.8.3.7.7.9.9v-1.3l.6-2.8v-1.1l-.6-1.5-1-.6-.8-.4-.8-.7-.7-2-.9-3-.5-2.8v-1.7l1.4 1.4 1 1.4.9 1.7.6 2.1 1.1 1.6 2 1 2 .6.8.1v-1l-.4-2.8.2-.7h.8l.7.5.5 1-.5 3L67 38v2.4l.2 1.8 1 1.2 1.3-.4 1.4-1.3 1.5-2.3.3-.2v-.5l-.4-1.7-.2-1.2v-.3l-3.7-4.3-1.9-.8-1-.1-1-.3-1.6-.8-1.3-1.2-.8-.8-.3-.8-.2-.5-.5-4.5-.5-1.1-.1-.7v-1l-.1-.9-.2-1-.5-1.2-.4-.4h-.7l-1.6.6H55l-.5-.6-.2-.8-2.1-7.7-1.2-4-.4-1.6-4.4 1.3Zm28 40.2-1.8 2.1L72 46l-.1 1.6.2 3.7-.1 1.6-.4.5-1 1.2-.2.6.5 1.8.1 1v.6l-.7 1.6.1 1.4.7 1.3 1.4 1.3-.7 1.2-2.4 2.1-.4 1 .7 1.6.8.2.8-.8.8-1.6 1.7-.2 1-2.3 1.4-2.4H79l-.7-1.1-.2-1.2v-1.3l-.3-1.5-2-9.4v-4.6l-.7-2.6-.8 1.3Zm-10.1 13-.3 4.9.3 2 1.2 1-.2.6v.5l-.2.5-.4.5.6 1.4.2 3 .4.8.4-.3.5-1.1.5-1 .3-.9v-4.3l-.4-2.8-.7-2.7-.4-1-.4-.7-.6-.3h-.8Z" fill="white" fill-rule="evenodd"/></svg>