<svg xmlns="http://www.w3.org/2000/svg" width="100" height="100"><path d="m44 12.3-1.3.2-1 .1-1.3.2-1.5.1-1.6.2-1.7.2-1.9.2-1.8.2-1.8.3-1.8.1-1.7.3-1.5.1-1.4.2h-1.1l-.9.2H21l-1.5.2-1.5.4h-.1v-.1l-.2-.1v-.1h-.4l-.3.3-.1.1v.2l-.1.3-.1.2h-.2l-.7.2h-.1l-.1.2-.1.1h-.1l-.2.1-.7.2h-.1l-1 .5-.6.5h-.2l-.1.1H12l-.2.2v.4l-.2.2-.1.2-.5.3-.2.2-.2.1H10.4l-.1-.2-.6.2L4 22.7h-.4v.7l-.1.3-.2.2-.5.3-.3.2-.7.7-.2.3-.1.3-.2.9-.1.3-.3.3-.2.3-.3.2v.4l-.1.2v.8l-.4.4v1.1l.8.8 2 1 .7.2.5-.3H4l.1.4.2.3.8.3.5.5.5.2.4.5.4.3.7.3 1-.2 1.3-.2 1 .4.3.6.2.6.4.8.2.2 1.4 1.6.3.5.7 2 .2.4h.1l.4.5h.5l.3.3.3.2.2.2.3.7.2.3.6.2.2.2.3.6.3.6.3.6.2.2.4.1h.4l.4.2.4.5.6.5.7.3.7.2.8.3 1 .6 1.1.8.7.5.4 1 .4.5.3.5.4.7.5.4.5.2.5.2h1l.4.2.5.3 1 1 .5.3 1 .4.3.4v.7l.3.3h-.3v.3l.3.5-.3.2.2.4 1 .9.3.1v-.1l.1-.1h.6v.2l-.2.2.4.2.2.3v.2l-.3.3.4.5.4.2.4.1h.5l.1.1.3 1 .2.3.8.5 2 .4.8.4.7.4.3.2h.5l.3.1.3.4.3.4.1.4V68l.4.2 1.3 1.6.3.6.2.4v.4l.2.3.3.3.2.4v.3l-.1.2v.7h.1l.2.2.1.1v.2l.1.5v.7l.3.4.3.2.4.2.4.2H50.1l.2.1.2.2.3.3h.2l.5.2h.1l.1.3.1.2.2.2h.3l.3.2.1.4.2.8 1 1.9h.3l.3.3.2.4.1.5v.6l-.1.3v.2l.2.7v.1l-.2.5v.2l.1.2.5.7v.5h.2l.2.2h.2l.7.7h.2l1.2-.2h.4l1 .2.1.2.2.3.3.2h.9l-.2-.3v-.6l.8-1.3.2-.5v-.8l.4-.5v-1.3l.2-.3.2 1-.5 1.6v1l1.5-1.4.5-1.1.5-.7v-.2l-.4-.5-.2-.2-.3-.1h-.3l-.4.2-.8-1-.2-.2h-.4V80l.1-.7-.3-.5-.5-.9-.4-.8v-.7l-.2-.3-.4-.6-.3-.2v-.1l.3-.1.3.2.1.3.2.2.4.2h.3l-.2.5.1.5.4.9.8 1.3 1.6 1h.5v-.7L64 79l-.1-.2-.3-1.6V77l.2-.4h-.2v-.1h-.2l-.1-.1h.5l.2.3v1.8l.1.1.7-.4v2.2l.3.6h.2l.8-.5h.5l.2-.1 1.5-1.4.1-.4-.4-.1h.2v-.2h.4l.1-.4v-1.1h-.1v.2l-.2.2-.2.4-.2.3-.5.4-.5.3-.4.1v-.2l.2-.5.5-.4.8-.6v-.5l-.3-.4h-.6l-1.9.1.5-.3.5-.2.6-.2h.6v-.2h-.3l-.6-.3h-.5l-.4.2-.2.1h-1.9l-.3.2V75l.2-.1.7-.1h1.5l.5-.2-.2-.2-.2-.2v-.3l-.1-.3h.1l.2.3.2.1.9.6h1l.3.1.2.2.2.2h.4l.3-.2.1-.4v-.5l-.2-.4.4.1v.3l.2.3.1.2.3.1h.2l.1-.2.3-.1 1.2-1.4.2-.1.2-.2.1-.2V72h-.1l-1.1-.7-.3-.3h.7l.8.7.5.3.3-.1.3-.3.4-.3.4-.1 1-.5 1-.4.1-.2-.2-.3-.5-.2v-.1l.2-.2h.7l.5-.1.2-.1 1-1.1.3-.6v-.7h-.2v.2l-.4-.1-.2-.2-.2-.2h-.7l-.4-.2-.2-.3-.2-.3.4.2.3.1h.2v-.4l-.1-.4-.3-.5-.1-.4.9.3V64l.1-.1.4.2-.3.7-.1.4.1.2h.4l.3.3.2.3h.3l.4-.1.6-.4 1-.9.2-.5.2-.6.3-.5.6-.3V62.5l.1-.2.2-.1h.1l1-.8v-.2l.1-.4h-.2l-.2.2v.2l-.2.2-.3-.4-.1-.2v-.3l.3-1.2.2-.4.2-.2.6-.5.4-.2.2.3v.2l.4.4.2.2.2-.2.4-.3.4-.2h.5l.5-.3v-1.2l.4-.4.8-.6.3-.4V55l-.5-.1H88l-.3-.4h.9l.4.2.2.4h.2V55l.1-.2v-.1l-.2-.2-.2-.2V54l.3-.1h.1l.3.4.2.2V54l.3-.2.2-.3.3-.2h-.3l-.2-.2-.2-.4-.1-.3v-.2l-.1-.2-.8-.1-.5-.2-.5-.3-.2-.4v-1.1l.1-.5.7-1.5.3-.5.5-.2v.1l-.2.3-.6 1-.3 1.2v.8l.9-.1h.3l.3.3.2.5.1.8.3.4h.1l-.1-.6v-3l.1-.3h-.2l.3-1.2 1.5-3.2 1.4-3 1.1-1.8 1.8-2.2 1.9-1.7.8-.5.8-.2-.1-.2-.2-.2H99.4v-.2l.4-.3-1.5-1-1.6-1.1-1.6-1.1-1.6-1.1-1.6-1-1.5-1.2-1.6-1-1.6-1.2-1.6-1-3.1-2.2-3.1-2.2-1.6-1.1-1.6-1.1-1.5-1.1-.8-.6h-1l-.8.1H72l-.6.1-1 .2-1.3.2-1.5.3-1.7.2-1.8.3-1.9.3-1.9.3-1.8.3-1.7.2-1.5.3-1.2.2-1 .1-.7.1h-.2l-.8.2h-.2v-.1l-.2-.2v-.2l-.4-2.5v-.1l-.1-.2-1-1-1.4-1.2-1-.9H46.6l-1.4 1.5h-.1l-.1.1-.2-.1-.2-.2v-.5l.1-.5v-.5l-.1-.1-.2-.2H44zM87.9 57l-.2.4v.4l.1.5h.2l.2-1v-.5l-.3.2z" fill="white" fill-rule="evenodd"/></svg>