<svg xmlns="http://www.w3.org/2000/svg" width="100" height="100"><path d="M1.8 22v1.8l-.1 1.8v1.8l-.1 1.9-.1 1.8v1.8l-.1 1.9V36H.8v2.1l-.1 2.1v2.1l-.1 2.2-.1 2v2.2l-.2 2.1V53l-.1 2.2v2l-.1 2.2-.1 2.1v2.2l-.2 2.1v2.1L-.2 70H2l2.3.1 2.2.1h2.2l2.2.1 2.3.1h2.2l2.2.1H20l2.2.1h2.2l2.3.1H31l2.2.1H40l2.3.1h29l1-.1h.2l.3.3v.1l1.5.9h.2l.6.4.6.4 1.8.8.1.1v.2l.2.1 1 .3h.7l.1-.1.3-.2.1-.2.2-.4v-.2l.1-.2h.2l.1-.2h.4l.9.1.5-.1h.2l.2.2h.5l.5-.3h.3l1 .2h.3l2.6-.6h.3l.3.2.2.2.4.5.5.4.3.2.3.1.3.1H91.4l.3.2h.3l.1.1.1.1.2.2h1.4l.2.2.2.2.2.2v.2h.1v.2h1.1l.2.1h.1l.1.2v.2h-.1v.5l.1.2.5.4.2.2v.3l.2.3.2.1 1.7.2v-.8h-.2V77l-.2-.1v-.1h-.2l-.2-.2v-.1l.2-.2V76L98 76l-.2-.1-.7-.5v-.1L97 75l-.2-.3-.1-.1V74l.2-.2.1-.3.1-.2v-.2h.1V73h.1l.2-.2h.1V72.2h.2v-.9l.3-.3.1-.3v-.5l.1-.3v-.2l-.1-.2v-.2l.4-.4.1-.2.2-.7V68l-.1-.2v-.1l-.2-.8v-.2h-.1l-.1-.1h-1l-.1-.2V66l.1-.1v-.2l-.1-.1-.1-.2v-.2h.4v-.1l.1-.5v-1.1l-.3-.3-.1-.1-.3-.2v-.1l-.1-.2V61.9l-.1-.1 1.9-.1-.2-3.8v-3.7l-.2-3.7-.1-3.8-.1-3.7-.1-3.7-.2-3.7v-3.7l-.1-.7-.2-.2-.3-.6-.2-.2-.3-.2-.1-.1-.4-.3-.5-.1-1-.1-.3-.2-.3-.5-.5-1-.3-.4-.6-.7-.4-.4V26l.2-.4.1-.1h.1l.5-.4.3-.3.1-.2 1-.5.3-.3.2-.2.4-1 .2-.4v-.3l.2-1v-.2l.1-.2h-2.9l-3 .1-2.9.1h-3l-2.9.2h-5.9l-3 .1h-5.8l-3 .1H34.3l-3-.1h-2.9l-3-.1h-2.9l-2.9-.1-3-.1h-2.9l-3-.2H7.8l-3-.2H1.9z" fill="white" fill-rule="evenodd"/></svg>