<svg width="100" height="100" xmlns="http://www.w3.org/2000/svg"><path fill="white" d="m98.9 31.9-1 .1-.8.1H97l-.1.1-.2.2-.1.1-.6.1-1.2.2-1.2.2-1.3.1-1.2.2-1.2.2-1.2.2-1.2.2-1.3.2-1.2.2-1.2.2-1.3.1-1.2.2-1.2.2-1.2.2-1.3.2-1.2.1-.3.2-.4.2-.5.1h-.4l-1 .1-1.6.2-2 .2-2.4.3-2.7.3-2.9.3-2.9.3-3 .3-2.9.2-2.7.3-2.4.2-2 .2-1.6.1-1 .1-.3.1h-.7l-.4.2h-.5l-.1.1h-.5l-.7.1-.9.1-1.1.2-1.1.1-1.3.2-1.3.2-1.4.1-1.2.2-1.2.1-1.1.2-.9.1-.7.1h-.4l-.2.1h-.6l-.1-.1-.1-.2v-.1H25l-.6.1h-.1v.1l.1.1.3.7.2.7v.2l.1.6v.3l-2.1.2-2 .2-2.1.3-2 .2-2 .2-2.1.2-2 .2-2.1.2v.1l-.2.3-.2.2-.2.1h-.3v-.3l.1-.3v-.1l-.8.1.1.1.1.2-.1.2v.3l.4.6v.3l-.1.3-.2.2h-.3l-.3.1-.2.1.1.3.2.3.2.1.3.1.2.1-.1.2-.1.1h-.1l-1.1.2-.2.1.7.9.4.5-.1.3h-.2l-.2.2-.2.2-.1.1v.2l-.3.7-.1.5v.1l.3.4.3.3.2.4v.3l-.2-.1-.4-.2h-.2l-.3.2-.1.2-.1.3.3.1.4.2.1.2-.7.7-1.8 1-.1.2v.3l.2.3.4.4v.2l-.2.2-.2.2V59.2l.2.3.2.3-.1.2-.2.1-.3.1-.3.1-.1.2-.1.2.1.4-.1.2-.1.3-.2.2-.6.6-.1.3v.3l.1.7v.3l.3.7.2.6.1.6-.3.4h-.2l-.3-.1h-.3l-.1.3v.3l-.1.2-.1.3-.2.2-.4.3-.2.1-.3.1-.1.1.1.2 1.6-.2 1.5-.1 1.6-.1 1.6-.2 1.6-.1 1.5-.2 1.6-.1 1.5-.2 1.6-.1 1.6-.2 1.5-.1 1.6-.2 1.6-.1 1.5-.2 1.6-.2 1.6-.1.4-.1h.1l-.2-.4H26.1l1.9-.2 1.9-.2 1.9-.2 1.9-.2 1.9-.2 1.9-.2 1.9-.1 1.9-.2 1.9-.3 1.9-.2 1.9-.2 1.9-.2 1.9-.2 1.8-.2 1.9-.2 1.9-.3 1.5-.2 1.5-.2 1.6-.2 1.5-.2 1.5-.2 1.5-.2 1.5-.2 1.5-.2.4-.1.1.1.8-.1 1.2-.1 1-.1v-1.4l-.1-.8V56.6l.2-.2.1-.2.1-.1.1-.1h.2l.1-.1v.1h.2v.1H73.2l.7-.2h.3l.1-.1.1-.1.2-.3.1-.1V54.3l.2-.3V53.7l-.1-.2v-.1l.1-.1.2-.3.1-.1.1-.1.4-.3h.1l.1-.1v-.1l.2-.4v-.1l.1-.1.2-.1.4-.1.1-.1.1-.1.2-.1.2-.2.2-.2.3-.1h.6l.1-.1h.4l.1-.1.2-.1h.2l.1.1H79.9l.8-.2v-.1l.1-.1.2-.3.1-.1.1-.1.1-.1.6-.4.1-.1.1-.2.2-.2h.1l.1-.1h.4l.2-.4.2-.3v-.1h.1v-.1l.3-.2h.1l.3-.4.1-.1.4-.2.6-.4H85.5l.5-.1.2.1v-.1h.1l.3-.4.2-.5v-.4l.1-.1.1-.2v-.1l-.2-.2v-.6h.1l.1-.1.2-.1h.2l.2.1.1.1.2.1.1-.1h.1v-.1l.1-.1v-.2l.1-.1v-.5l.8-.6.3-.1.5-.4h.2l.3.2v.2l-.1.2v.2l.1.1.1.1v.1h.1v.1h.1l.1.1h.1l.1-.1h.1l.5-.5h.1v-.1l.1-.1.2-.4v-.1l.1-.3.1-.2.4-.5.1-.2.2-.1.1-.1.4-.2.3-.2H94l.1-.1.3-.3.2-.1h.1l.1.1h.6v.1l.1.1v.2h.1l.1.1h.1l.2.1h.1l.1-.1h.1l.1-.1.1-.2.2-.1.1-.1v-.2l.8-2.4.1-.1.3-.3.8-.7v-.1h.1l.6.1h.5v-.1h-.1v-.1l-.2-.2-.2-.2V34.8l.2-.7.1-.5v-.2l-.2-.3h-.1l.1-.4.4-1z"/></svg>