<svg xmlns="http://www.w3.org/2000/svg" width="100" height="100"><path d="M27 1.2v4.1l-.1 1.2v1.3L26.7 9v2.5l-.1 1.2v1.3l-.1 1.2v2.5l-.1 1.3v1.3l-.1 1.2v2.5l-.1 1.3v1.3l-.1 1.2v1.3l-.1 1.2V33l-.1 1.2v1.3l-.1 1.2v2.5l-.1 1.3v1.3H24l-1.7-.1h-1.7l-1.7-.1-1.7-.1h-1.7l-1.7-.1-1.7-.1h-1.7L8.7 41H7L5.3 41l-1.8-.1-1.7-.1-1.7-.1-1.7-.1H-1.9v.1l.1.4v.4l.1.1.2.3v.2l.1.1h.1l.1.1.5.5h.5l.2.2.3.3.2.3.1.3.2.6v.2l.4.4V45.4l.1.1.3.2.2.2h.3l.3.3H2.7l.1.1.4.3.1.1v.2h.1l.2.2.2.1.1.2.6.7v.2l.6.5h.2l.2.3.2.1v.1l.2.1v.2l.2.3v.2h.2l.3.4.6.5.3.4v.1h.3l.4.3.1.1.1.1H8.8l.1.1H9v.1h.1v.2h.2l.4.5h.2l.2.2.2.1v.4l.1.1h.1l.3.1v.1l.3.3v.5l.2.1V55.7l.1.2h.2v.4l.2.2.1.2.1.2.1.2.2.1v.1l.2.4.1.1v.7l-.2.4v.4l.1.5V60l.2.1v.2l.1.2.1.4.2.2.1.2.1.1v.4l.2.3V62.5l.1.1.1.1.4.3v.1h.1v.2h.1v.1l.7.4v.2l.2-.1h.4l.2.2.1.2h.1l.2.4.2.3.2.1.3.2.3.4.3.2.7.3.5.1h.6l.1.2v.2l.1.1h.1l.4.4.2.1.7.2H21.2v.2h.1l.4.5.4.2h.1l.2.3H22.7v-.1l.2.2.1-.1v.2h.6l.4.2h.5l.1-.3v-.3h.2v-.2h.1l.4-.3.1-.1.2-.4.1-.1h.3l.4-.3h.2v-.2l-.2-.1V66l.1-.1v-.1H26.9V65.4l.1-.2V64.6l.3-.6h.1v-.2l.1-.1v-.2h.1l.1-.2.1-.3.1-.1.2-.4v-.1l.1-.1v-.1H28.8l.3-.2h.1l.1.1h.1V62l.1-.1h1l.2-.3v-.3l.1-.1h.1l.1-.1V61H31.3l.1.1.1.1h.1v.2h.5l.3.2.1.1.3.2.7-.1h.6l.1.1h.2l.2-.1h.5l.1.1 1.4.3h.4V62l.2-.1v-.2h.1v.4H37.5V62H37.9l.1.1H38.2V62.6l.2.2v.2l.1.2h.1v.1h.4v.6h.2l.2-.2h.2V64.3l.1.1h.2v.1l.2.2.2.1.6.2h.2v.5l.1.1v.1l.1.1h.1v.1l.7.3.2.2.1.2.4.2.2.1.1.2.2.3-.1.2.5.4v.1h.2l.1.1v.1l.1.6.2.3V70h.2v.2l.1.1.2.1V70.7h.2v.2h.1v.1l.3 1v.1l.4.4v.2l.2.1h.1v.4l.1.3h.2l.3.2-.2.1V74.2h.1v.4l.1.3.2.3.2.2v.5l.1.2h.2l.2.1v.2l.1.2h.2l.8.4.1.2.1.2v.1l.1.2h.2v.5l.2.2v.1h.4v.4l.2.2.1.1h.2v.2l-.1.1v.2h.1v.1l.1.1V80.1h.1l.1.2h.2l.1.2.1.1.1.1.2.1.1.1v.2h.1l.2.3h.3l.1.2h.4l.2.1.2.1h.1l.2.2V82.8h.2v.1h.1V84l-.1.1v.1l-.2.2v.1l.2.1v.2h.2l.1.2.1.1V86.5l-.1.3.1.2.2.2h.1l.1.1V87.6l.1.2.4.2v.2l.3.3.1.1.2.2v.1l.2.4.1.4.4 1v.8h.3l.2.1.1.1v.3l.1.1v.2l-.1.1v.1l.1.2h.5l.1.1h.5v.1h.2l.3.1h.8l.1.2.3.1.1.1v.2h.2l.2.1-.1.1.1.1.2.2h.2l.5-.1h.2l.3.1.2.1.2.2v-.1H62.2l.3.2h.2V94.8h.3v.1l.2.3.7.4H65v.2H65.3l.2-.1H67.4v.1H68.3l.1.1h.2l.1.2.1.1v.2h.2l.2.2.4.3.1.2h.5l.1.2v.2h.3v-.1h.1l.1.1h.2V96.9l.2-.2.1.1h.2l.1-.2v-.1H72.3l.5-.1v-.7l-.1-.3h-.2v.5l-.1.1h-.1l-.2.2h-.2V95.4h.2v-.2h-.4l-.1-.1h-.1l-.1-.2v-.7l-.1-.2-.1-.2.1-.2-.1-.1h-.2V93h-.1v.1h-.1V92.7h-.2l-.1-.2v-.1l-.2-.1h-.1v-.6l-.2-.1h.2v-.1l.1-.2v.2h.1v-.3l-.2-.6-.1-.6-.2-.5-.1-.4V89l-.1-.1-.1-.1H69V88h.2l.3.3.1-.2-.4-.2-.1-.1v-.1l-.1-.2v-.5h.5l.1-.2v-.1l-.1-.2v-.4h.2l.1-.2V85l.1-.1v-.4l-.5.2-.1.1-.2.1H68.6l-.2-.2h-.1l-.1-.1h-.8l-.1-.2H68l.1-.1v-.1H67.8v-.1h.1v-.3l-.4-.3h.1v-.2l-.3-.2V83l.2.1.2.2.7 1v.1h.2v-.1l.2-.2H69.2l.1-.1v-.2l.2-.2h.2v.4h.1v.1H69.4v.1h.1v.2l-.3.1.1.1h.1l.2-.2.5-.2h.1v-.3l.3-1h.1V82.5l.2-.4.2-.5v-.3h.1v-.2h.1l.1-.2v-.2l-.7-.4-.2-.1-.2-.3v-.1l.1-.3v-.1h-.1l-.1.1H69.5l-.2-.1-.1-.2h.1v-.1h.1v.1h1l.2-.1v.1h.1l.4-.1H71.4l.2.2v.2H71.8l.6-1 .3-.5.2-.3.1-.1v-.8H73v.1l-.1.2-.4.2v.1l-.1.2v.2h-.1l-.1.1v-.4H72l-.2-.1h-.1l-.1-.1.1-.2.4-.4h-.2v-.2H72.2v.1h.2l.3-.2.3-.2.1-.2h.1v.6l.3.1.1-.2.1-.2V76.1l.1-.3.1-.2h.1v.8l-.1.1-.1.4.1-.1h.3v-.2l.4-.4v-.1l.4-.2v-.1l-.1-.3V75l.1-.1-.1-.3-.2-.2-.2-.3.1-.1h.1l.2.2h.2V74l-.3-.2v-.2h.2l.1.2.1.1.1.2h.2v.1l.1.1v.5H76l.1.1.9-.5h.1l.3-.2h.1l.6-.4v-.2l-.3-.2h-.5l-.2.2h-.1l-.1-.2.5-.2-.1-.2-.1-.1-.2-.1-.3-.2H76.2v-.5l-.2-.3v-.2l-.1-.1v-.3.1h.5l.1.2v.2h.1v.2h.2l.1.1h.2l.1.3.3-.3v.4h-.2l-.2.2h.3l.3-.2.4-.3H78v-.8h-.1l-.2-.1V71l.2.3.1-.1h.2v.5l.2.2v.2h.2l.2-.1.2-.3H79.2l.1-.1H79.6l-.2.4v.1h.7l-.2.1-.4.1h-.1v.2h.2l.3-.1.5-.2h.1l.1-.1.4-.2H81.3V72.2l-.3.1-1 .7-.3.2-.2.2.2-.1.5-.4.5-.1.4-.4.8-.2.6-.3.9-.7H83l-.3.2-1 .6h-.1l-.1.1v-.5l1-.5h1l.4-.2.3-.2.9-.6.5-.4H86l.1-.2.4-.3.4-.6h.2l.6-.6v-1.4h-.2.4v.3l.3-.2.2-.1.5-.7.2-.2h.1v-.2H89.6l.1-.2v-.2l.1-.1h.5l-.3-.2h-.2l-.3-.4v.2h-.1v-.2l-.1-.1-.1-.1V64h.2v-.2h.1l-.6-.2-.2-.2v-.2l.1-.1.1-.2v-.1l-.2-.2V62.4l.1-.1v-.1H88.3l-.2-.2h.7l.3.3h.2l.3-.1v-.3l.2-.3v-.1h.1l.3-.2.2-.1h.1v.1h.1l.2.1V61.7l.1.1v.2l-.1.5-.1.3-.1.3-.1.1h-.1l-.1.1h-.1v.1l.1.1h.5l1.2-.5h.2l.2.2h.2l.1-.1V63.4H92v.1H92l-.2.3h-.1v.1h-.4l-.2.2-.6.7v.2h.4l.3-.6.3-.2 2.5-1.3.9-.4.6-.4.3-.1.3-.1h1.4l.2-.2-.2-.3-.4-.5-.2-.3v-.3l.6-1V59h.5l.2-.3.4-.6v-1l-.1-.2v-.7h-.1l-.2-.2V55.1l.2-.2V54h-.1v-.4l.1-.1.2-.1v-.6l.1-.1.3-.2V51.9l.3-.5v-.9l.2-.1V50l-.2-.2-.1-.2.1-.1.3-.1V49.1l-.3-.4V48H99v-.4h-.1v-.1l-.1-.2-.2-.2-.2-.1v-.4l.1-.2-.1-.1-.1-.1-.1-.1v-.2l-.1-.1v-.1h-.2v-.1h-.1V45h-.2V45h-.1l-.3-.3v-.1H97v-.2h-.1v-.7l.1-.2v-.2h-.1V43l-.1-.3v-.1l-.3-.3V42.1h-.2v-.2l-.2-.2H96l-.3-.1v-.1l-.2-.3-.2-.1-.1-.1H95V40.1l-.1-1v-1l-.1-1.2v-1l-.1-1-.1-2.2v-1l-.2-1.1v-1.1l-.1-1.1v-1l-.1-.7H94l-.2-.2H93l-.1.1-.4-.2h-.1l-.1.2v.1l-.1.1h-.5V26.6h-.5v-.3l-.1-.1h-.4l-.1-.1h-.4v-.2h-.5l-.2-.1H89v-.1l-.2-.2h-.2l-.2-.1H88l-.3-.4-.1-.1v-.1h-.2V24.4h-.2v-.1h-.5v-.1l-.3-.3H86v-.1l-.1-.1-.1-.1-.5-.1h-.1l-.2.1v.4h-.2l-.1.1h-.2v.2h-1.6V24h-.2v-.1h-.2v-.1h-.1l-.1.2H82l-.2.1h-.2v.2h-.5v.3l-.1.1H81v-.1h-.1l-.1.1H80.5l-.4-.2-.1-.1h-.1l-.2.1-.2.2-.3.2h-.6l-.2.1-.1.1-.1.3-.1.2h-.8v.5l-.3.1-.2-.2-.2-.3-.2-.2h-.7v-.2h-.1l-.2-.2H75L75 25v-.5l-.3-.1h-.2v.1l-.2.3v.1h-.1l-.1.1H73.8l-.2-.2H73l-.1-.1v-.2l-.1-.2v-.1h-.1l-.2-.1H72l-.1.1v.4l-.1.2-.1.2h-.5v.1h.1v.1h.1v.2h-.2V26l-.2.2h-.4l-.2-.3v-.2l-.1-.3v-.1l.1-.2v-.4h-.1l-.1-.1H70v.2l-.2.2-.2-.1h-.2v.2h-.2v.1h-.1v.1h-.6l-.1-.2v-.2l-.1-.1-.1-.1H67.5V24l-.2-.1-.2-.1h-.3l-.3.3-.6.6-.3.2-.4.1-.3-.1h-.2V23.8h-.4l-.3-.1-.3-.2v-1H63l-.2.1h-1.2l-.2.1v.2l-.1.1-.1.1H60.6l-.3-.3h-.1v-.1l-.2-.2-.3-.1H59.4l-.5.2-1-.2h-.2l-.5-.4h-1L56 22h-.5l-.1-.1v-.2l-.1-.5V20.8l-.3-.2v-.1l-.1-.2-.1-.1-.1-.1H54.4l-.1-.1V20l-.2-.2H54l-.1.1v.5h-.1l-.1.2h-.2l-.2-.1-.3-.2h-.4l-.1.1-.2.1h-.6l-.1-.2-.2-.2-1.2-1.2H49.9v-.1h-.6V1.4H40l-2-.1h-3.9l-1.8-.1h-3l-1-.1H27z" fill="white" fill-rule="evenodd"/></svg>