<svg xmlns="http://www.w3.org/2000/svg" width="100" height="100"><path d="m22.9 3-.4 2.8-.4 2.8-.3 2.9-.4 2.8-.3 2.8-.4 2.8-.4 2.9-.3 2.8-.4 2.9-.4 2.8L19 34l-.4 2.9-.3 2.8-.4 2.9-.4 2.8-.3 2.9-.4 2.8-.3 2.9-.4 2.8-.4 2.8-.3 2.9-.4 2.9-.4 2.8-.3 2.9-.4 2.8-.3 2.9-.4 2.8-.4 2.9-.3 2.9-.4 2.8-.4 2.9 2.3.3 2.4.3 2.3.3 2.3.2 2.3.3 2.3.3 2.3.3 2.3.3 2.3.2 2.3.3 2.3.2 2.3.3 2.4.3 2.3.2 2.3.3 2.3.2 2.3.2 2.3.3 2.3.2 2.3.3 2.4.2 2.3.2 2.3.2 2.3.3 2.3.2 2.4.2 2.3.2 2.3.2 2.3.2 2.3.2 2.3.2 2.4.2.1-2.3.2-2.3.2-2.3.2-2.3.2-2.3.2-2.3.2-2.3.2-2.3.1-2.3.2-2.3.2-2.3.2-2.3.2-2.3.2-2.3.2-2.3.2-2.3.2-2.3.1-2.2.2-2.3.2-2.3.2-2.3.2-2.3.2-2.3.2-2.3.2-2.3.1-2.2.2-2.3.2-2.3.2-2.3.2-2.3.2-2.2.2-2.3-1.8-.2-1.8-.1-1.8-.2-1.7-.1-1.8-.2-1.8-.1-1.8-.2-1.7-.1-1.8-.2-1.8-.2-1.8-.1-1.8-.2-1.7-.2-1.8-.2-1.8-.1-1.7-.2v-1.2l.2-1v-1.2l.2-1.2.1-1.1.1-1.1.2-1.2V14l.2-1.1v-1.2l.2-1.1.1-1.1.1-1.2.1-1.1L65 6l.2-1.2-2.7-.3-2.6-.2-2.6-.3-2.6-.3-2.6-.3-2.6-.2-2.7-.3-2.6-.3-2.6-.3L39 2l-2.6-.3-2.6-.3L31 1 28.4.8 25.8.5 23.2 0z" fill="white" fill-rule="evenodd"/></svg>