<svg xmlns="http://www.w3.org/2000/svg" width="100" height="100"><path d="m58 22.6-.2.3v.4l.2.4v.7l-.1.3-.3.6v1.2l.1.1v.2l.1.1v.2l-.3.6-.4.5-.4.6-.1.4v.4l-.3.5-.1.2H56l-.1.1h-.1v.1l-.1.2v.3l-.2.1v.1l-.3.3H54.9l-.1-.1h-.2l-.2.4-.3.6-.3.8-.3.6-.1.1-.6-.2-.6-.3-.4-.2v.1l-.5.8v.5h-.1l-.2.4v1.2l-.1.2-.2.1v.1l-.2.2v.4l-.1.5v.2l-.1.6v.1l-.1.2-.2.3-.2.5-.3.7h-.1l-.1.1-.8-.1h-.7l-.6-.2h-.6v-.5l-.7-.7-.1-.1-1.1-.2-.1.1v.1l-.1.3v.7l-.2.3v.3l.1.6v.2l-.2.3v.7l-.2.2h-.2v.2l-.1.2v.1l-.1.2V44l-.1.2-.3.2v.2l-.3.3-.5.7v1.5l-.2.5-.3.9-.3.5-.5.9-.4.7-.4.5-.4.7V52.5l-.3.7-.3.9v.2l.2.2h.2l.4.2.1.2v.2l-.1.1-.3.2-.1.2h-.1v.1l-.2.2v.4l.2.1h.1v.4l-1.4 1.1-.3.4-.1.1H37.5v-.4h-.1l-.1-.1h-.5l-.3.2-.4.3-.6.4-.5.4-.5.5H34.3v-.1h-.4v-.1l-.1-.2H33l-.2.1-.1.2v.5l.2.3v.4l-.1.1-.7.6H31.6l-.3.2h-.1l-1.3.4-.9.7-.1.1h-.1l-.1-.2-.2-.1-.7-.3-.2-.1-.3-.3-.1-.1H26.9l-.1.2-.1.3V62.5l-.2.2-.2.1-.5.1-.1.1h-.1l-.1.2-.5.8h-.1l-.4.2H23.6l-.3-.2-.5-.1h-.1l-.1-.2-.2-.2h-.1l-.1-.1h-1l-.2-.2-.2-.3-.1-.1-.1-.1-.7-.3-.1-.1V62l-.1-.5v-.2l-.1-.1-.1-.1-.5-.2-.1-.1v-.2l.3-.3v-.5H19l-.2-.1-.6.7-.9 1-.6.8-1 1.2-1 1-.3.3-.8.6-.9.7-1.2.8-.5.5-.2.3-.1.1v.4l.1.3v.4l-.2.1-1 .8-.3.2v.2l-.1.1v.5l.1.2v.4h-.1l-.2.2-.7.4-.7.4H7v.1H7l-.2.4-.2.5v.2l-.2.1v.5h-.1l-1.2.5-1.3.6-.4.4-.2.1-.2.1-1.2.3-1 .6-.3.2-.5.5 1.3-.1 1.3-.2 2.6-.4 1.3-.2 1.3-.2 1.3-.2 1.4-.2 1.3-.2 1.3-.2 1.3-.2 1.3-.2L17 75l1.3-.2 1.3-.2 1.3-.2.6-.1.3-.4h.2l.9-.1 1-.2 1.2-.1.1.1h.5l2.1-.3L30 73l2.2-.4 2.2-.4 2.2-.3 2.2-.4 2.1-.4 2.2-.3 2.2-.4 2.2-.4 2.2-.4 2.1-.3 2.2-.4 2.2-.4 2.2-.4 2.2-.4 2.1-.4 2.2-.4 2.2-.4 2.2-.4 2.1-.5 2.2-.4 2.2-.4 2.2-.4 2.1-.5 2.2-.4 2.2-.4 2.1-.5 2.2-.4 2.2-.4 2.1-.5L95 61h.3v-.2H95v-.4l.4.5.6-.1-.3-.9-.2-1.6v-.1h.4l.2.2.5 1v.2l.2.1.1.1V60.3l.2.1H97.5l-.3-.6-1.8-3-.6-1.3-.3-.4h-.3l-.3.3h-1.6l-1.2-.2-.5.1-.2.4.1.2h.2v.6l.1.2.3.3h-.2l-.3-.1-.1-.1v-.2l-.3-.1h-.7l-.3.1-.3.2-.2.3-.2.2h-.3l.2-.4.2-.2v-.1l-.1-.2-.2-.2v-.1l.2-.2v-.1l-.9-.3h-.2l-.1-.1H87V55h-.7l-.3-.1v-.2l-.3-1-.4-.8v-.1H85l-.3.5-.2.1h-.3l-.5-.5h-.2l-1.1.2h-.3l-.5-.3h-.3l-.1-.1-.1-.3-.2-.3h-.4l-.3.4-.1.1H80v-.2h-.2l-1 .2-.9-.1h-.4l-.1-.3.2-.4.3.3h.2l.5-.1h.5l.3-.1h.2v-.1h.2l.1.1v.1l.2.2.2.1V52l.3-.4h.5l.4.6.2.2.2.1h.3l.2-.3v-.2l.1-.1V51.3l.1.2.1.4v.3h.5l.5.2h.2l.2.1v.2l.1.1h.2V52.5l.3-.1.5-.2.1-.1.3.1.3.3.2.4v.5l.3.2.3.2.3.2h.2l1.3.7.2.1.3.6h.2l.1-.1.3-.4.2-.1.2-.1h.3l.2-.2.1-.3v-1.1h-.2l-.5.2h-.2V53l.3-.2.2-.1-.2-.2-.3-.2-.4-.1v.1H89l-.1-.2v-.5l-.2-.2h-.3l-.5.2H87.3l-.5-.3-1-.5-.9-.7-.3-.4-.3-.2-.4-.2-.7-.8h-.4l-.1-.2V48h.1l.8.4.5.6.3.3h.3l.2.2 1 1H86.2l.1.1.2.2h.4l.5.3h.3l1-.4v-.1l-.2-.2-.1-.2H87.8l.3-.3v-.1l-.1-.1h-.1l-.4-.2V49.1l.2-.1h.2V49l-.1-.1-.1-.1h-.2l.1-.4.3.1.5.6h.4l.1-.1.1.2.7.5.1.2v-.5l.1-.9V48l-.2-.2h-.5v-.4l.2-.2h.1v-.2l-.4-.3h-.2V47.3h-.4l-.4-.3h-.5v-.2l.2-.2.6-.2.2-.1.2-.2h-1.6l-.4-.5-.1.2h-1.3l-.2-.2-.2-.3-.2-.3v-.1l-.2-.4-.1-.1-.4-.3h-.8v-.3H83l-.3-.1h-.1l-.2-.3h-.2l-.4-.5v-.2l-.1-.3h-.2l-.4-.1-.2-.1-.2-.1-.2-.2-.2-.3h-.1l-.2-.1H80l-.2-.2-.3-1-.3-.2H79l-.2-.2H78l-.1-.1-.1-.1-.1-.1v-.2l-.1-.2h-.1l-.2.2H76.6l-.1-.2v-.2h1l.2.3.2.2.2.1h.8l.2.2.3.3.6.8.6.3.3.5.8.2.3.4.6.7h.2l.2.1h.2v-.2l.1.2.1.2h.2l.2-.1.1.2h.1l.5.3.2.4.5.4.2.2v.2l.2.3.2.1h.2V44.3l.3.3.2.3H86.9l.2.2.8.2h.4l.1-.3h-.2l-.2-.3-.1-.1v-.1l.1-.1V44.1h.4V43.8l-.4-.2-.2-.2h.2l.1-.3V42.8l-.1-.2-.4-.5-.1-.3v-.1h.3l.4.3h.3V41.4l-.1-.6-.2-.2H88l-.3-.2-1.2-.2-.5-.2h-.6l-.2-.1h.1v-.1h.1v-.2h-.5l-.4.1h-.1v-.2h-.1l.1-.3V39l-.2-.2-.5-.1-.3-.3-.1-.3-.1-.1H82.8l-.2.1H82l-.2.3-.3.1-.2-.1-.1-.2h-1.2l-.7-.1-.5-.2-.2-.3V37.3l-.2-.1h-.1l-.1-.1H78l-.7-.5-.2-.1v-.1h.2l.1-.1v-.1l.1-.2v-.3l-.1-.2-.2-.2H77l-.2.1-.3.3-.6.3-.3.4-.2.1-.8.3h-1.1v-.1l.5-.1.1-.1v-.1l-.2-.2-.1-.1-.6-.4-.1-.1.1-.2h.2l.3.4-.2-.6v-1.7l.3-.3-.2-.1v-.2l.2-.3v-.8l.2-.1h.2l.1.3.1.1h.1l.2-.1.2-.2V31.5h-.2l-.1-.2v-.4h.2v.1l.1.1h.1v-.3H75.2v-.1l.3-.2.2-.1V29.8l-.3-1.6-.1-.2-.4-.4h-.1l-.6-.4-.2-.2h-.5l-.5-.1h-.4v-.3l-.2-.2v-.2L72 26l-.4-.1H69.8l-.5-.4-.3-.1-.2-.2v-.5l.3-.4.1-.3v-.3l-.2-.2h-.5l-.3-.2-.3-.3-.1-.1h-.6l-.6-.1h-.2l-.6.1h-.3v.2l-.2.7v.5l-.2.7-.1.5v.2l-.1.2h-.1l-.2-.1-.8-.4-.8-.4-.7-.4-.8-.4-.8-.4-.8-.4-.8-.5-.8-.4H58zM99.8 36h-.1v.2l-.2.4-.2.4v.7l-.1.2v.1l-.1.1-.2.1H99v.2l.3.2-.1.1-.1.1H98.7v.2l.4-.1.3-.4.2-.5.4-2h-.1zm-1.8.7-.3.1-.6.2-.6.2-.4.2-.5.2h-.3v.4l-.1.2h.1l-.1.3-.2.1-.4.2-.2.2-.3.3v.1l.4-.1h.3l.3.1v.4l.1.2.2.1-.2.1H95v.5l.2.1-.7.3h-.1l-.2-.1H94l-.1.2.3.2v.2l-.1.3-.2.2v.1h.3l-.3.6v.2l.1.2h-.3l-.2.1-.1.2-.1.3.2.2-.3.2-.2.2h.2v.2l-.1.2-.2.1.6.1-.3.3-.2.2v.9l.2-.2h.1v.2l-.2.3-.1.2v.6-.2h.2v.4l-.1.2-.2.1.1.2v.3l-.1.6H93.4l-.1.2-.2.4.1.3.3.2v.4l.4.4.2.3.1.3h.4l.1-.3V50.2h.2l.1.7.1.1.3-.2-.1-.1-.1-.4H95v-.8l-.2-1.4V47.8l.3-.5V47l-.1-.2v-.2l.2-.4V46l.1-.2 1-.4-.2-.1h-.5V45l.2-.3.2-.1v.2l.2.2.1.2h.2l.2.3.2-.3.1-.4.2-.4V44H97v-1l.2-.5V42l.6-2.2.3-.6V39l-.1-.3.1-.2V38l-.2-.4v-.4l.1-.2.2-.1.1-.2v-.2l-.2.1zm-1.5 9.2v.2l-.3.9v.2h.1l.2-.6V46zm-.9 2.8v1l-.2.2h-.1v.1l.4-.1.1-.3v-.4l-.1-.5zm.8 11.6-.2.2.1.1h.4l-.1-.4h-.2z" fill="white" fill-rule="evenodd"/></svg>