<svg xmlns="http://www.w3.org/2000/svg" width="100" height="100"><path d="m72.4.8-2.8.7-3 .8-2.8.8-2.9.7-2.8.8-2.9.8-2.9.7-2.8.8-3 .7-2.8.8-2.9.7-5.7 1.5-3 .7-2.6.7h-.2l-1 .3-.4.1-1.5.4-.4.1-2.5.6-1 .3-.8.5.3.5.2.4v.8l-.2.1H22l-.1.1v.6l.3 1.4V20.1l.1.7.3.4.5.3.3.3.1.5-.2.8-.1.2h-.2l-.2.1-.1.4v.5l.1.1.2.1.5.4.2.2.2.2v.7h-.2l-.2-.1-.4-.6h-.4l-.2.4v.8l.4 1v.6l-.3.5.2.3.2.3.1.3v.3h.2v.5l.4.8.4.7.3.2.7.1.3.5v.7l-.5.6.7.8.3.5v1.6l.1.5.3.4-.1-.6v-1.6l.4-.1.1.4.5 2.1.1.2.2.1.2.3.5 1.3.4 1 .2.6.3.4.4.4L28 45l-.6.7.6 1.2V51l.5 1.5v-.4l.3-.4h.2l.3.1v.1l.1.5v.7l.6 2 .3.7.4.7.5.5.3.3.2.5v.5l-.1.7v.5l.3.4.8.5.3.3.1.3.3 1.2.1-.2v.3l-.6 4.2v.9l.3.8.2.5.2.3.3.4h.2l.4-.2.2-.3.1-.2.1-.2v-1.2l.1-.2.2-.1.1-.2h.2l.2-.1.2-.1h.7l.3.2.1.2.8 1.2.3.3h.2l.3.3.4.2.1.9v.3l.3.8.2 1.2.4 1.7.5 1.9.4 2.1.6 2.3 1 4.7.5 2.3.5 2.2.4 2 .4 1.6.3 1.2.2.8v.3l.1.4V98l.9 1.1.6 1 4.4-1 1.5-.2 1.5-.3 1.4-.3 1.5-.4 1.5-.3 1.5-.3L61 97l1.5-.3 1.5-.3 1.4-.3 1.5-.3 1.5-.4 1.5-.3-.5-1-.8-.7-1.6-1-.4-.3-.2-.4-.3-.4-.2-.6-.1-.7v-.5l.1-.4.1-.6-.2-1.8V86l.5-.4.6-.4.1-.8-.3-1.7v-2.3l-.2-1-.4-1-.1-.4-.3-1.6.2-.3v-.7h-.1l-.1-.1V75l-.1-.5v-.4l.1-.5.2-.4.2-.8-.1-.9-.5-1.4-1.5-6.7V62l.9-1.2.2-.8v-2.5l-.3-1.4v-.4l.7-.8.3-.6 1.1-1.8.2-.7V50l-.1-.8v-.9l.1-.9 1.3-3V44L68 44l-.3-.2-.2-.3v-.7l.7-2.4.1-1.4-.2-1.5-.9-3.3-.3-2 .3-1.6.9-1 1.4-.8 1.4-.3.7-.3.5-.5.6-1.4.4-.5 2.1-2.2.7-.5.2-.4.3-1 .7-1 .4-.8-.2-.7-.2-.7v-.8l.2-.2.4-.1.3-.2.2-.4-.1-.4-.3-.4-.5-.4-1.5-2-.2-.5-.4-.6-.6-.4-.4-.6-.1-1 .3-1.5.9-2.2.8-2.1v-1l-.4-.5-.5-.5-.5-.8-.1-1 .1-.5.5-.3z" fill="white" fill-rule="evenodd"/></svg>