<svg xmlns="http://www.w3.org/2000/svg" width="100" height="100"><path d="M24.1 17.7v.3l.6-.1.1-.1-.7-.2v.1zm4.2 1 .1.4-.5-.2h-.3l-.2.1v.3l.6.1v.4l-.1.1-.2.1V20.6l.5.5v.9-.2l.3.2.2.3V22.6l-.2.1v.1l-.1.2v.2H28.8l.5-.5.2-.2h.5l.3.3.2.2v.3l-.3.5-.1.2.3.2V25.1h.1l.1.1.1.1v1.1H30l-.4-.6h-.5.1l.5.5v.3l.1.2V28l-.2.2H29.3l-.1-.2-.2-.4-.2-.2h-.2v.5l-.2-.3-.1-.5-.2-.3-.4.1h-.5l-.1.2v.1h.2l.2.2v.5h-.2l-.1.2v.3l.2.1.1.1h.5l.3-.4h.2l.2.1v.2h-.1v.4l.2.5.1.1h.2l.2.1.1.2.3.3.3.3.3.4v.1l.1.2v.2l-.2.3v.4H30l-.1-.1v-.2l-.2-.1-.2-.1h-.7l-.3.2-.2.3V33l.2.3 1 1 .2.5v.1h.3l-.1-.5-.2-.3-.1-.2h-.2l-.2-.3-.2-.2v-1l.3-.1V32l.1-.1h.2v.1h.1l.5.4v.9l-.1.6.1.6.3.5.8.8.2-.1h.2l.1.1v.1l-.1.1-.2.3v.2l-.3.1H30.6l-.1.1-.1.1-.3.1-.1.1-.1.1v.2l-.2.2-.1.3-.1.3-.2.3-.5.2-.1.1-.1.2-.2.3V40.7l-.3.3-.1.2-.1.1h-.2v.5h.2l.5.4.1.2v.5l-.1.4-.1-.2-.1-.3-.1-.2h-.2l-.2.2v.1l-.1.2.1.8v.2l.1.2v.2l-.1.7v.2l.3.5v.6l-.1.2-.2.2H27l-.2.2h-.2l-.2.2v.2l.1.1.2.2-.2.2H26l-.4-.5-.4-.4-.2-.2v.6l-.4.6-.4.5-1.3 1.1-.4.3-.6.2v-.4l-.2-.2-.2-.2-.1-.2-.1-.2V49l-.3-.2-.1.3-.1.1h-.4.1v-.2l.1-.1v-.2l-.6.3-.1.2v.4l-.1.2-.2.1v.2l.1.3v.2h-.2l-.1-.2v-.4l-.1-.3.1-.1V49l-.2.3-.3.3h-.6l.3-.1.2-.2.7-.8.1-.3-.5.3-.1.1-1.2.5h-.3l.2-.2h.5l.2-.1v-.3h-.8l.2-.1.4-.1h.7l.3-.3.3-.3.6-1.2h.5l.2-.2.4-.2.2-.3.4-.8.2-.2-.1.3v.2l.1.1v.9l-.1.3-.2.2h-.3v1.3l.2.6.4-.3V48l.2-.2h.1l.1-.1-.2-.6v-.3l.1-.2.3-.3.1-.2V46h.2l.2-.1.1-.1.1-.1.5-.1.2-.1.1-.3v.4l-.2.2-.2.2-.1.3-.2.2-.2.1v.2l.2.2.9.6h.2l.2-.2V47l-.2-.7h.4l.2-.2.1-.2-.1-.4.1-.4.2-.3.2-.4.2-.3.2-.4.1-.2-.3-.2v-1l-.5.1-.3.2-.3.1-.7.2v-.2l.4-.1.1-.2.2-.2h-.1l-.4-.4-.1-.3v-.4l.2-.2h.1l.3 1 .2.4.4-.1v-1.9l-.1-.2h-.1L25 40V39.7l.6.8.2-.1.3-.2.1-.2v-.2h.3l.5.2h.2l.1-.1.1-.2V39.4l-.1-.1-.1-.1h-.1l.2-.3v-.2l-.1-.2v-1.4l-.3-.3-.6-.6v.2l.1.4V38.4l-.3-.1v-.4l-.2-.1H26l-.2.1-1.5 1.4-.2.2-.3.7-.2.2-.1.1-.3.1-1 .2-1 .3H21l-1.2 1-.7 1-.2.2-.4.4-.2.2v.2l.1.5.5.1 1-.2 1-.4h.9l-.5.4-.5.1-2.2.4h-.7l-.4-.4.1-.3.5-.6.3-.6.2-.2.4-.1.2-.2.6-.9.2-.2 1.2-1H21.5l.2-.2.1-.3.3-.2.2-.4.3-.3.3-.2-.2-.5v-.6l.2-.2h.1v.7h.3v-.4l.1-.3.2-.2v.6l-.1.5-.5 1-.2.3v.2l.2.1H23.3l.1-.1v-.2l.2-.2.1-.3.4-.6.2-.3.7-.5.1-.2.2-.3.1-.1h.6v-.2l-.5-.9v-.7l-.2-.3h-.1l-.4-1v-.4l-.1-.2v-.4h.1l.3-.1.2-.1-.2-.5H24l-.2.2-.1.1-.1.3v.2l.4.6v.3l-.2.4-.2.2h-.3v-.2l.3-.1v-.7l-.2-.3h-.2l-.2-.2V33h-.2l-.1-.1H22l-.1.2v.7h-.2l-.2-.2-.2-.3.2-.4-.2-.5-.3-.4-.3-.2-.5-.2v-.2h.4l.2-.1V31l-.5.2-1 .5H19l-2-.5-.2-.1V31h.4l-1-.2H16l-.5-.4h-1.3L14 30l-.4-.2-.9-.1-1.8-.6-1.6-.7-.2-.2-.3-.6-.2-.2-.9-.7h-.2l-.6-.1-.2-.1-.3-.4-.9-.5-.4-.5-1.8-1.3-.5-.3-.7-.2v.5l.2.4.3.3v.2l-.3.2v.2l-.2.6-.2.1v.4l-.2.6-.2.2h-.2v.2l.2.9-.2.6v1.9l.1.6.3.8v.1l.4.1.1.1.1.1.6 1 .1.3v.6l.1.3h.2l.1.2h.1v.7l.2 1v.3l-.1 1.4v.7l-.3 2.6h.1l.3.2V42.4h.2v.2l.2.6.1.7v.7L4 46v1.1l-.4 1.2v.2h-.2V49.2h.1l.5-.5h.1v-1.1l.1-.3h1l.2.3.2.2v.7l.1.3h.4l.6.1v.1l-.1.1.7.1.4.2.3.2H7l-1 .2-.5.2h-.7l-.1.3v.2H5l.1.2v.4h-.2l-.1-.2-.2-.1h-.2v-.3l-.2-.4.1-.1v-.5l-.3.2-.1.2v2.8l.2.1.4.2H4.7l.1.1.1.2H5.2l-.1-.2V53l.6.3H6L6 53h.4l.3.4.2.4.2.3.4.2-.2.1-.3.1H7v-.6l-.3-.1h-.9l-.2.4v.5l.2.5h-.2l-.3-.4-.2-.1v.3l.3.5v.5h.1V56.7h-.1l-.1.1h-.4v.8H5V57.9l.2.3.3.2.2.2-.2.3-.2-.3-.4-.4v-.2h-.2l-.1.4-.3.3-.3.2h-.3l-.1-.3V56.7l.4-1.3V55l-.1-.3v-.3l.2-.3-.4.1-.2.6-.4 2.9-.2.7-.2.5v.4l-.2.3-.2.3-.1.2H2v.2h.5l.1.1h.1V60l.3-.2h.2l.2.2.2.2.5.8.2.2h.4l.2-.1.3-.2h.5l.3.2h.2l.2-.1h.4l.1-.2h.1l.2.2v.4l.8.3 1.6.1.3.1.3.3v.6l.2.3.9 1 .2.1.3.2h.3l.6-.2h.4l.8.1.2.1.2.2.3.4.2.1.4.2.3.2.4.3.3.4.1.3.2.4v1l.2.3.2.2.1.2v2l-.1.4-.1.3.2.6V72.2l-.2.4v.1l-.1.7v.7l.2.3.3.3.3.2 1 .4h.6l.4.3.6.3.4.3 1 .2 1 .6h.2l.3-.1 1-.1 2.4-.4.6-.2 1-.5.6-.1h.4l.9.3 2 .1 3.6 1 .6.4.2.3.1.2v.3l.1.4.2.2h.3l1.3-.2h.3l.1.1h.1l.4.1h.2l.1.2.6.1h.7l.7-.3h1.1l.6-.2.2-.2.4-.1h.1l1.9.7h.5l.7.2h.4l.6-.3H48.4l.4.2H49.4l.3-.2.5-.3.3-.1h.6l2-.4h3.5l.6-.3.5-.3H58.3l.8.1H61l3.2.5.7-.1.6-.5h.1l.6.1 1.6.3 1.7.3 1.6.2 1.7.3 1.6.3 3.3.5 1.6.3 1.7.2 1.6.3 1.7.3 1.6.2 1.7.3 1.6.2 1.6.3 1.8.3-.2-.8-.6-1V80l.4-.3.2-.2.2-.3v-.4l-.1-.5v-.8l-.2-.4-.3-.8-.5-.8v-.6l.3-.5.1-.5.4-2.6.4-2.7.4-2.7.4-2.7.4-2.7.4-2.6.4-2.7.4-2.7.4-2.6.4-2.7.4-2.7.4-2.6.4-2.6.5-2.7.4-2.6.3-2.7-1.4-.2-2.7-.4-2.7-.5-2.7-.4-2.7-.4-2.7-.5-2.7-.4-2.7-.5-2.7-.5-2.7-.4-2.7-.5L67 26l-2.7-.5-2.7-.5-2.7-.5-2.7-.5-2.7-.5L51 23l-2.6-.5-2.7-.5-2.7-.5-2.7-.6-2.7-.5-2.7-.6-2.6-.5-2.7-.6-1.2-.2v.3zm-2.9 3v.4h.2l.2.1-.1-.2h-.1v-.1H26h-.1l-.2-.1h-.2zm-4.1.6v.1l.5.5v-.2h.2v-.1h-.2l-.2-.1v-.2H21.3zm2.5 0-.3.2.1.2v.2h.4l.1-.1v-.4h-.3zm1.3.4-.7.6h-.2l-.4.3h-.1V24.3l.2.2.1-.1.1-.2v-.3h.2l.3.3v.5l.3.1.3.1h.2l.2-.1-.4-1V23l.2-.1h.2v.4l.1.5.2.5v.2h.4v-.1l.1-.1.6-.3h.1l.1-.2-1.2-1-.5-.1h-.4zm2.6.3v.2l.2.1.2.4.2.3v.2l.2.2.2.2V23.8l-.2-.1-.2-.2v-.1l-.3-.6-.2-.1v.2zm-5.7.2h.2v.2l.5.1-.1-.1-.2-.1-.1-.1H22zm7 .2v.1h-.4l.2.3h.2v-.5zm-7 .3-.3.2v1.6l.1.2.1.1.2.2h.1l.1.1h.3l.2.2v.1l.1.2h.1l.2.2h.4l.2.1v-.1l-.2-.2-.2-.1V26h-.1v-.2h.4l.2-.2-.3-.3-.2-.4-.3-.3-.2-.2-.2-.2v-.3l-.3-.2H22zm1.8.9h-.1l.1.1.2.3v.1l.3.2h.1v-.1H24.8l.1-.1V24.8h-.1v.1h-.1v-.1l-.3-.2h-.5zm3.8.2.2.2h.2v-.2h-.3zm-.4.2-.1.2V26h.4V26l.2-.1v-.1l-.1-.3V25l-.2-.1h-.2zm-2 .2-.4.3-.1.2V26h-.2l-.2.3-.2.3v.3l.2.1.3.1.2.2-.2.2.8.3.2-.1.1-.2v-.6l-.3.2h-.2v-.6l.1-.5v-.8H25zm2.9.4v.2l-.2.4.1.2h.6l.1.2h.1V26.3l-.4-.5-.2-.3H28zm-2.4.5h-.1V26.5h.1v.4l.2-.2.2-.2v-.2l-.3-.1h-.1zm2.3 2.6-.1.1H27.3l-.2.3-1.4 1.7-.1.3v.4l.1.2.2.1.1.1.1.1.3.6h.6l.2.2v.4l-.4.8v.3l.2.3-.1.3v.4l.2.3.2.2v.1l.2.1H27.8l.2-.2h.2l.2.2V37.2h.5v.2H29.2v-.2l.3-.3h.1v-1l-.1-.3-.9-.8-.2-.2-.1-.3-.2-.3-.2.2v.8l-.2.3h-.2v-1l.1-.9V32.2l-.1-.3-.3-.1-.1-.1-.3-.2-.1-.1H26L26 31H26.9l.1-.3.1-.3.2.3.1-.2.2-.3h.2l.2.1.2.3h.5l.1-.5-.6-.7v-.8H28zm-2.5 4.7.1.3v.5h-.2v-.5l-.1-.1v1l.2.3h.2l.2-.2V34l-.1-.5H25.4zm.8 6.8v.1l-.1.2v.2l-.4.2V41.9l-.2.2v.1h.3l.1.1.2.4.3.1.2-.1V42l-.2-.3h.2l.2-.1-.2-.2v-1l-.2-.2h-.2zm.3 3.9-.3.1-.2.2-.2.2-.3 1.3-.2.2v.5h.1l.1.1h.1v-.2l.2-.1V46h.1l.1-.1h.3v-.2h.2V46h-.2l-.2.1-.1.2v.4l.2-.1.5-.3.6-.1-.1-.2-.2-.2-.2-.2-.1-.3V44.5l-.1-.2V44h-.1zM21 46.4H21l-.3.1h-.3v.2l-.2.2-.1.3V47.5l.2.2V48.4H20.7l.2-.3V48l.1-.2v-.2l-.2-.3.1-.2v-.2l.1-.1.2-.1.1-.2h-.1zm1.2 2.4v.2H22v.2l.2.3.2.2.2-.1.2-.1v-.3l.1-.1V48.8l-.3-.1h-.2v.1zm-18 7.7h-.1v.5l-.2.2.2.1.2.7v-.2l.2-.2v-.5l-.2-.3v-.4h-.1z" fill="white" fill-rule="evenodd"/></svg>