<svg xmlns="http://www.w3.org/2000/svg" width="100" height="100"><path d="m38.6.5-.3.4-.2.6v.7l.7-.3.3-.4-.1-.7V.5h-.4zm-8 2.4-.5.3v.2l.3.2.3-.1.2-.3v-.3l-.2-.3-.2.3zm5.9.4-.8.3-.2.1-.2.4.1.1.9-.1h.5l.3.2L37 4v-.2l.2-.2.1-.2v-.3h-.2l-.6.2zm-2.7.1v.2l-.1.1-.1.2.5.3.2.2.2-.2.2-.1v-.3l-.3-.3h-.1l-.3-.2h-.2v.1zm-2 .1-.1.1v.2l-.1.1h-.2l-.1.1h-1v.1l-.2.1v.1l-.7.4-.1.1-.1.2v.2H29l-.3.1h-.1l-.2.2-.2.5-.2.1-.3-.1V5.7l-.3.3-.3.2-.3-.1.1-.5-.4.1-.8.7-1.2.9-.7.7-.2-.1-1.2.5-1.2.3-3.5 1.5-2.3.5H15l-1-.4h-.3l-.2-.2-.5-.3-.3-.3-.1-.2h-.2l-.3.3v.2l-.2.3v.1h-.1l-.3.2h-.2v.4l-.1.6v.1l-.1.1H11l-.2.1h-.9v1.9l.2 1.3v1.4l.2 1.3V19l.1 1.3.1 1.4.1 1.3v1.1h-.2l-.2.2-.2.3-.2.2v.3l-.1.2H8.6l-.2.2-.3.6-.3.1h-.6l-.2.1-.1.1-.1.2-.2.4h-.1l-.1.1-.4.1-.9.6h-.3l-.4.4-.5.5-.5 1.2v.6l-.3.7-1.3 1.4-.2.2v2l.3.8h1.6l.6.2.2.3.3.8.1.3.3.3.3.3.3.3v.8l-.4.8v.5l-.1.4-.2.3-.2.2-.2.2-.2.4V43.8l.4.8v.9l-.2.3-.4.1-.2.3.2.4.4 1 .2.9.2.9v.1l-.3.4v.2l.1.7V51.7L4 53l.4.3 1.1.6 1.2 1 .3.2.1.2.1.1.1.2.7.3 2.6.3.6.1.6.4.5.6.5.9.1.2.2.2h.2l2 .2.9.3 2.6 2 .7 1 1.4 2.2.4.4.6.2 2 1.5.3.1H26l1 .6h.9l.2.2h.1l.1.2v.1l.1.2.2.3.4.4.1.3.7.2.3.1.2.2v.2l.2.2v.5l.1.5V71.7l.1.1.1.2.1.1.2.3.2.1v.2l.1.5V75l.1.5v1.2l.2.6V78.9l.1.3.1.2.3.4v.2l.1.3.2.6.1.2.2.1 1.5.4.4.5.1.8-.2.7-.8 1.2-.1.8.2 1.5.2.8v1l.2.2v1l.2.5.2.4.5.5.2.3.2.4v.9l.2.4.6 1 .3.3.4.2.7.3 3 .3.7.2h.4l.4.1.3.3.4.9.1.2.5.6.2.3v.3l-.2.5 3-.3 3-.2 3-.2 3-.3 2.9-.2 3-.3 3-.2 2.9-.3 3-.2 2.9-.3 3-.3 2.9-.3 3-.3 3-.3 2.9-.2 2.9-.3-.3-1.7v-.7l-.1-.4v-.2l-.1-.3v-.2l.1-.5.3-.7v-1.9l-.3-.4-.8-.8-.2-.3v-.2l-.3-1.8-.2-.5-.4-.4h-.4l-.2-.3V83l.3-.9v-.5l-.4-.2-.1-.2v-.9l.1-.3-.2-.5-.2-.4v-.3l-.2-.7.3-1.7v-.7l.9-2.1.1-.9-.2-.7v-.5l.2-.4.8-1.9.3-1-.2-.2.1-.2-.1-.2.1-.3V66.8l-.5-.6v-.1l-.2-.2v-.6l-.1-1.6v-.3l.2-.5v-.7l.1-.5.7-2 .2-.4.2-.2.9-.6.3-.3.2-.4.2-.5V57l-.2-.3-.7-.9-.2-.7v-.7l.1-.3.2-.5v-.7l.2-2.5.2-1 .4-.8.6-1 .1-.5.2-.4V46l.4-1.5v-.4l-.3-.2h-.4l-.4-.4-.5-.6-.6-.4-.3.3-.3.3-.4-.2-.6.7-.2.2v-.4H89l-.4.3-.4.4-.2.4-.5 1-.4 1 .2.3-.2.4-.2.3-.1.3-.2.2-1 .6-.7.6-.4.4v.4l-.2.5-.3.3h-.8l-.3-.1-.4-.3-.2-.3.2-.1v-1.1l.1-.2.1-.2.1-.3h.1v-1.4l.2-.2.3-.4.2-.2v-.5l.1-.3V45l.2-.2.8-1.1.2-.6-.3-.6.4-.7.7-.3L87 41l.4-.2.2-.2.2-.3v-1.4l.3-.7v-.1l-.8-.2-.3-.2v-.1l-.2-.1-.2-.2-.4-.4-.3-.2-.1-.2V35.4l.2-1 .3-.8.1-.2.2-.3.1-.2v-.2l-.2-.1-.1-.2-.1-.1-.1-.1H86l-1.2.8h-.9l-.2.1H83v-.2l-.1-.1v-.1l.1-.5v-1l.5-.4v-.1l.1-.1.1-.2.1-.3V29.7l-.2-.6-.2-.5v-.2l.2-.1.1-.1.1-.2V27.5h-.1l-.4-.5-.1-.2v-.2l.2-.2V26l-.1-.2-.2-.2-.3-.2-.1-.1-.5-.2V25l-.3-.2v-.1h-.1l-.1-.1h-1.2v-.1h-.2v-.1l-.3-.3h-.2l-.3.1H78.7l-.3-.1V24l-.3-.2v-.5l.3-.5v-.1l.1-.1v-.4l-.6-.8-.1-.1-.2-.1h-.2l-.1-.1-.5-.3h-1l-.3-.1H74.3l-.4-.3h-1l-.5-.2h-.7l-.3-.1h-.1L71 20H70.8l-.3.2H70l-.4.3h-.3l-.6-.2h-.3l-.3-.2h-.4l-.3.2H67l-.2-.1H66l-.4-.1-1-.4-1-.4-1-.4-1-.5h-.3l-.6-.2h-.7l-.7-.2-1-.2-1.1-.1-1.3-.3-1.4-.2-1.5-.2-1.4-.2-1.4-.2-1.2-.2-1.2-.2-1-.2-.7-.1h-.5l-.2-.1-.5-.1-.1-.2-.2-.4-.3-.6-.5-.8-.3-.6-.2-.4-.2-.2-.3-.2-.1-.1h-.5L42 12 42 12h-.5v-.1l-.3-.3H41l-.3.1H40v-.3l-.2-.4-.3.2h-.4l-.7-.3-1.1-.1-1.6-.7-1.2-1-.4-.2.1.1.4.3h-.4l-.1.2H34v.2h.6l-.3.4-.4.3-1.8 1h-.5l-.4-.1.2-.5.2-.4 1-1.2v-.3l-.1-.2-.1-.2-.1-.2v-.8l.2-.4.3-.2.2-.3.3-1 .3-.3-.1-.2.3-.3v-.1l-.3-.2h-.1l-.1-.5-.2-.1h-.5l-.1-.1v-.2l-.2-.1h-.5zM36 5.2l-1 .5v.2l-.2.3-1.2.7-.3.5v.4h.3l.7-.5.8-.3.2-.4h-.3l.2-.2.3-.4.4-.1.4-.1.3-.2v-.2l-.3-.3H36zM97.8 30v1.4l-.1.2.1.1h.2l.4-.1h1v-.2l-.1-.1v-.3l.2-.4v-.4l-.3-.2H99l-.2.1-.3.1-.3-.2-.2-.2v.2zM96.1 33v.6h-.2l-.2.1-.2 1v.4l-.1.2-.5.2-.1.2-.1.3h-.8l-.2.1-.2.4V38l-.3.3v.1l.1.3H93l-.8 1.3-.4.8v1l.1.8.6.8.6.4h.7l.2-.3.7-1.1V42l.1-.5v-.2l.2-.1.3-.2.2-.2-.5-.3.2-.7.6-1.2v-.5l.2-.2.1-.1h.4v-.4l.1-.3h.2l.2-.2V37l-.7-.6-.1-.2.2-.1h.2l.5.1-.1-.2-.2-.3V34.4l-.2-.1v-.1l.2-.1h.2l.6.3.2-.4-.1-.2-.1-.2v-.7l-.5.1h-.7l-.2-.2v.2z" fill="white" fill-rule="evenodd"/></svg>