<svg xmlns="http://www.w3.org/2000/svg" width="100" height="100"><path d="m33.8 1.4-.8.8-.4-.2-.5.2-.5.2-.4.4-.1.6.2.4.9.8.6.8.3.5.1.4v.6L33 8v.6h.4l.2.2v.5l.3.6v1.5l-.1.1-.5.6-.2.2-.3 1.1v1.7l-.1.5-.3 1-.1.7v.6l.2 1.1v1l-.2.4v.7l.1.2.1.2v.3H31.5v.4l.1.3.2.3.1.3v.2l-.3.5-.1.3-.1.3v1.2l-.5.3-.1.3.1.3.5.3.2.3.2.4v.5l-.4.3v1.8L30 31l-2 2.3-.6 1-.3.9-.3.5-.8.4-.3.4-.5.8-.3.2-.4.3-.4.2-.5.1-.4.3-.6.8-.5.2-.5-.3-.4-.4-.2-.5-.3-.2-.9.2-.3.2-1.4 1.8v1.5l-.2.5-.2-.1h-.2l-.2.2-.2-.2-.5.2-.5.1-.4.3-.2 1-.8 1.3-.1.4v.4l.3 1v.6l-.1.3-1 .6h-.1v.1l.1.4.1.1.2.2.2.1h.1l.3.2.2.5v1l.2.4.3.4v.3l-.3.2h-.3l-.4-.4h-.3l-.2.1v.4l-.1.7-.2.4-.4.5-.4.3-.4-.1-.3-.3v-.1l.2-.2v-.5l.2-.1V52.7l-.1-.2-.1-.1-.2-.4-.3-.4-.3-.3-.7-.2-.4-.2-.5-.2h-.5l-.6.7-.5 1-.5 1.2-.2.9V55.9l-.2.5-.2.7-.3.3-.3.4v.7l.2.4.3.3.2.5.2.6v.7l.2.5.2.3v.4l.1.3-.3.4-.4.2H6.3l-.2.3-.2.7v2.4l-.2.5-.2.6-.4.2-1.6.4-1.7 1-1 .2L0 69v1.2l.1.1.1.3.6.8v.3l.1.3V73l.2.3v.6l-.4.1-.1.2V75.4l-.1.2-.4.3v.5l.1.2 2 2 .2.3.2.4.1.2.2.2 1.4.8v.1l.2.2.1.2V81.2l-.2.5v.2l.2.2 1 .5h.1l.1.2.3.2v.2l.1.2.3.8v.3l.2.1v.1L8.3 86l.4.3.2.3V86.8l.5.9.2.3.1.2h.2l1 .3h.1l.2.1.2.2.5.5h.5l.7.4.2.2.1.1.1.1v.5l.3.1.3.1 1.8.3h.3l.6-.3h.3l.4.2.2.1.1.1v.1l.1.2v.4l-.4.6-.1.2v.2l.2.1.8.4h.1l.1.1v.1l.1.2v.1l.1.2V95l.1.2.1.1v.1h.2l1.2.6.2.2.2.2.3.5.1.1.3.2.2.1h1.7v.2h.2l.3.4.3.2 1 .3.5.3h1.7l.5-.1.1-.1.2-.2 1-1.4v-.1l.2-.1.3-.2.9-.2.1-.1.2-.2.2-.4v-.2l.1-.2.1-.5v-.1l.1-.1.2-.2h.6l.1.1.6.5.1.2h.1l1.3.6h.2l.1.1v.1l.2.2v.1h.4l1.7-1.3 2.2-.7h.2l.5-.5h.4l.4.2h.2l1.3-1.2.1-.1.1-.2v-.6l-.4-.6V90.3h.1l.2-.2.3-.2h1.2v.3h.1l.1.1h.5l.1.1h.1v.2h.5l1-.8.8-.8 1-.7.8-.6.5-.2.5-.2h.4l.1.1v.2l.1.2v.2l.1.1v.1h.2v.1h.4l.1-.2.6-.7 2.4-2 .1-.3V85l-.1-.2h-.3l-.1-.2-.1-.2v-.5l.2-.3.2-.1v-.1l.4-.3.4-.3.2-.3V82l-.1-.2h-.1l-.7-.3h-.3l-.3-.3-.1-.2v-.3l.6-1.6.4-1.3V77l.1-.1.8-1.2.6-1 .7-1.2 1-1.6.5-1 .5-1.4.3-1.1.2-1.6v-.2l-.1-.3v-.5l.9-1 .3-.7.2-.3.4-.4.3-.4v-.2l.1-.2V62.2L61 62V61.4l.2-.4v-.5l.1-.1.1-.1.4-.3.2-.2v-.1l.1-.9v-.2l.4-.6V57.7l-.1-1.1V56l.2-.7.1-.2v-1.6l.2-.2h.1l2 .3.2.2 1 1.3.2.1v.6l1 .2 1.1.1 1.2.2 1.5.2h.1l.1-.1.1-.2.6-1.2.4-.8.3-.6v-.2l.1-.4.2-1V50.7l.1-.2.1-.3.2-.3.2-.2.3-.3.1-.1.1-.2V47l.3-.6v-.2l.1-.1v-.4l.2-.3.6-1.4.1-.1h.1l.8.3 1 .5.9.3h.2l.1-.2.5-1 .6-1.3.4-1.1.4-.8v-.1H81l.1.2h.1l.1.1h.4l.5-.4.1-.1.1-.2.1-.2.2-.6v-.2l.1-.1.2-.1.2-.1.3-.2.2-.2.1-.1.4-.8.1-.3v-.4l.2-.7.6-1.2.8-.8.5-1V32.5l-.1-.3V32L86 32V30.5l-.1-.1v-.7l.5-1 .2-.6V27l-.4-.7v-.8l.2-.6.3-.2.4.2 1.4.7 1.4.8 1.4.7 1.4.7 1.4.7 1.4.7 1.4.8 1.4.7.2.1.3.1v-.3l.1-.4.2-.9.3-1.3.2-1 .2-1V25.3l-.4-.4v-1.6l-.3-.4-1-.2-.4-.2.4-.5-.2-.3v-.5l.3-.1V21l-.4.1-.3.2h-.4l-.3-.2v-.2l.1-.2v-.2l-.2-.3h-.2l-.1.2v.6h-.2l-.5-1-.2-.2.5-.3.3-.4v-.4l-.3-.4h-.6l-.2.1v.2l-.2.1h-.6l-.2.1-.3.3h-1l-.5-.2-2-1.3-1-.4-1.1.1-.2.1-.2.2-.2.1-.4.9-.3.2-.2.6-.2.2h-1.3l-.4.2-.5.4H83.9l-.2.1-.2.2.8.7-.3.2h-.4l-.3.2v.4h.4l.2.2-.1.3-.6.6-1.5.1-.7.4-1.8.1h-.6l-.1-.1h-.1l-.4-.3-.9-.2-.2-.2-.1-.1V22.5l.2-.2h.1V22l-.3-.2-.2-.1-.1-.1-.2-.1h-.1l-.1.1v.1l-.1.2v.3l-.3.5v.7h.1v.2h-.1l-.4.2-.2.1v.1l-.1.1v.1l-.2.4-.2.4-1 1.6-.2.3v.2h-.2l-.2.2H72.4l-.5-.3-.3-.1-.4-.1h-.4l-.7.6-.1.1v.2h-.1l-.1.8v.1l-.1.1v.1l-.1.1-.4.4-.2.4v.1l-.1.1-1 .7-.5.6-.2.3v.3l-.2.6v.2h-.3l-.8.4h-.2l-2 2.6-.2.3-.2.1h-.1l-2.4-14-2.8.6-2.7.5-2.8.5-2.8.5-2.8.5-2.8.5-2.7.5-2.8.5-.3-1.9-.4-1.9-.3-1.8-.4-2-.3-2.1-.4-2.2-.4-2.2-.4-2.1-.4-2.2-.4-2.2-.4-2.1-.3-2.2v-.1z" fill="white" fill-rule="evenodd"/></svg>