<svg xmlns="http://www.w3.org/2000/svg" width="100" height="100"><path d="M7 11v1l-.1.5-.1.5v.6l-.1.5v.5l-.1.6v.5l-.1.5v.5l-.1.6v.5l-.1.5v.6l-.1.5-.3 2.7-.3 2.7-.3 2.8-.2 2.7-.3 2.7-.3 2.8-.2 2.7-.3 2.8-.3 2.7-.3 2.7-.2 2.8-.3 2.7-.3 2.8-.3 2.7-.2 2.8-.3 2.7-.1 1.1-.1 1.1-.1 1.1-.2 1.1v1.1L1 69.8V71l-.2 1-.1 1.2-.1 1-.1 1.2-.1 1-.2 1.2v1L0 79.9v1.1l1.6.2 1.8.1 1.7.2 1.7.2 1.8.1 1.7.2 1.7.2 1.7.1 1.8.2 1.7.1 1.7.2 1.7.1 1.8.2 1.7.1 1.7.2 1.8.1 2.1.2 2.2.2 2.2.1 2.1.2 2.2.2 2.2.1 2.1.2 2.2.1 2.2.2 2.2.1 2.1.2 2.2.1 2.2.2 2.1.1 2.2.1 2.2.2 2.2.1 2.1.1 2.2.1 2.2.2h2.2l2.1.2h2.2l2.2.2 2.1.1 2.2.1 2.2.1h2.2l2.1.2h2.2l2.2.1 2.2.1v-2.2l.1-2.2v-2.2l.2-2.3v-2.2l.1-2.2V72l.2-2.2v-2.2l.1-2.3v-2.2l.2-2.2v-2.2l.1-2.2v-2.2l.1-2.2.1-2.2v-2.2l.2-2.2v-2.2l.1-2.2v-2.2l.2-2.2v-2.2l.1-2.2V30l.2-2.2v-2.2l.1-2.2v-2.2l.1-2.2.1-2.1-1.4-.1h-1.5l-1.4-.1h-1.4l-1.5-.1H91l-1.4-.1-1.5-.1h-1.4l-1.4-.1-1.5-.1h-1.4l-1.5-.2H78l-1.5-.2h-1.4l-1.4-.1h-1.5l-1.4-.2h-1.5l-1.4-.1-1.4-.1-1.5-.1-1.4-.1h-1.4l-1.5-.2h-1.4l-1.4-.2h-1.5l-1.4-.2h-1.4l-1.5-.1-1.4-.1-1.4-.1-1.5-.1-1.4-.2H45l-1.5-.2h-1.4l-1.5-.2h-1.4l-1.4-.2-1.5-.1-1.4-.1-1.4-.1-1.5-.2h-1.4l-1.4-.2-1.5-.1-1.4-.2h-1.4l-1.5-.2L22 12l-1.4-.2-1.5-.1-1.4-.1-1.4-.2-1.4-.1-1.5-.1L12 11l-1.4-.1-1.5-.1-1.4-.2H7z" fill="white" fill-rule="evenodd"/></svg>