<svg width="40" height="40" xmlns="http://www.w3.org/2000/svg"><g fill="none" fill-rule="evenodd"><path d="m7.3 29 2.3-3.9H14V29h5.8a9 9 0 0 0 6.7-3v3h6.1v-3.9A7 7 0 0 0 33 11h-6.3v3l-.3-.2a9 9 0 0 0-6.2-2.8h-9.5L.2 29h7.1ZM6 26.8H4.1l8-13.6h7.8c3.4 0 6.2 2.6 6.7 5.8h2.3v-5.8h3.8a4.8 4.8 0 1 1 0 9.7h-2.2v3.9h-1.6v-4H26a6.8 6.8 0 0 1-5.8 4h-3.8v-4H8.3l-2.3 4Zm26.7-5.5a3.2 3.2 0 0 0 .2-6.4H30.5V17h2.2a1 1 0 0 1 0 2h-2.2v2.2h2.2Zm-16.3 0v-6.4H14V19h-3.6l-1.3 2.3h7.2ZM18 25h2A5.1 5.1 0 0 0 20 15H18V17h2a2.9 2.9 0 0 1 0 5.8h-2V25h2Z" fill="#000" fill-rule="nonzero"/></g></svg>