<svg width="40" height="40" viewBox="0 0 40 40" xmlns="http://www.w3.org/2000/svg"><g fill="#000" fill-rule="nonzero"><path d="m23.3 13-3 .3c-1.7.3-3.3.6-4.7 1.2a6.9 6.9 0 0 0-4.4 6.7c0 4.3 2.7 6.4 6.1 6.4 1.2 0 2-.1 3-.3a9 9 0 0 0 3.8-2.7c.8 1 1 1.6 2.4 2.7.3.2.7.2 1 0l3.1-2.8c.4-.3.3-.7 0-1-.7-1-1.5-2-1.5-3.8v-6.5c0-2.7.2-5.2-1.8-7A9.6 9.6 0 0 0 21.1 4h-.9c-3.6.2-7.5 1.8-8.3 6.3-.2.6.3.8.5.9l4 .5c.5 0 .7-.4.8-.8.3-1.6 1.6-2.4 3-2.5h.3c.9 0 1.8.4 2.3 1 .6 1 .5 2 .5 3v.7Zm0 4.2c0 1.7 0 3-.8 4.4-.5 1-1.3 1.6-2.3 1.9h-.5c-1.6 0-2.5-1.2-2.5-3 0-2.3 1.3-3.4 3-3.9 1-.2 2-.2 3.1-.2v.8Zm13.2 17a8.4 8.4 0 0 0 2.5-5.5v-.2l-.1-.7c-.4-.4-3-.8-5.2-.2a6 6 0 0 0-1.6.9c-.4.2-.3.6 0 .5.5 0 1 0 1.6-.2 1.4 0 3-.1 3.4.4.5.7-.6 3.5-1.1 4.8-.2.4.2.5.5.3Z"/><path d="M.8 28.7a28 28 0 0 0 34.5 2.5c.7-.5.1-1.3-.6-1l-1 .4a37.5 37.5 0 0 1-32.5-2.5c-.5-.3-.9.2-.4.6Z"/></g></svg>
