<svg width="40" height="40" xmlns="http://www.w3.org/2000/svg"><path d="M22 23.5a11.5 11.5 0 0 0-4.1-14.4c1.9-2 3.9-3.8 6-5.6a52 52 0 0 0-7 5 11.5 11.5 0 0 0-14 17.7C.5 31 0 34.8 2 36c2.1 1.4 6.6-1.1 9.4-5.2 0 0-4.2 3.8-6.5 2.9-1.5-.6-1.5-2.7-.3-5.8a11.5 11.5 0 0 0 14.9-1.1l.4.7c5-.4 20-.8 20-.8 0-.7-10 0-18-3.3ZM3.1 25.3a10.6 10.6 0 0 1 13-16.2 54.8 54.8 0 0 0-13 16.2ZM15.9 20l3.3 6.2A10.6 10.6 0 0 1 5 27C7 22.5 11.3 16 17.3 9.7A10.6 10.6 0 0 1 21 23.2c-1.9-.8-3.7-2-5.2-3.3Z" fill="#000" fill-rule="nonzero"/></svg>