<svg width="40" height="40" xmlns="http://www.w3.org/2000/svg"><path d="M24 27c-1.6.1-1.5-.7-.5-2 2.2-3 6.4-7 6.5-10 .2-3.8-3.6-5-7.5-5-2.6.1-5.1.6-7.5 1.5A25.1 25.1 0 0 0 1.5 21.8c-2.8 4.1-1.9 8 4 8.2 4.6-.2 7.5-1.4 10.6-3 0 0-8.5 2.4-11.6.6-.5-.2-.7-.6-.8-1.1 0-1.5 2.5-3 3.8-3.5v-2.6a9 9 0 0 0 9-1.5c.1.3.2.5.1.8h.6c0-.4 0-.8-.2-1.2-.4-.5-1-.8-1.6-.9l1 .8A8.3 8.3 0 0 1 8.4 20l2-2-.5-1.5A73 73 0 0 1 23 13l-1.2-1 .6-.4c3.4 1 5.6 1.6 5.4 3.4 0 .4-.1.7-.3 1-1 2-3.9 5.2-5 6.5a25 25 0 0 0-2.1 2.6c-.6.7-.9 1.5-1 2.4.1 5.8 17.3-2.7 20.6-5A48.7 48.7 0 0 1 24 27Z" fill="#000" fill-rule="nonzero"/></svg>