<svg width="40" height="40" viewBox="0 0 40 40" xmlns="http://www.w3.org/2000/svg"><path d="m36.8 16.3 3.2 2a84 84 0 0 0-20 12.5l-3.4-2.6a71.7 71.7 0 0 1 20.2-11.9Zm-6-3.1 2.9 1.5a64.6 64.6 0 0 0-20.2 11.2l-3-2c8.6-6.7 16-9.7 20.2-10.7Zm-16.5 1.7 2.8 1.2a66.8 66.8 0 0 0-9.5 6L5 20.7c4-2.8 7-4.5 9.4-5.7Zm-5-1.7 2.5.7a68 68 0 0 0-9.4 5.5L0 18.3c2-1.3 5.7-3.5 9.2-5.1Zm5.5-2.4c2.8.6 6.7 2.1 7.9 2.7l-2.8 1.3c-3.1-1.6-6.8-2.6-7.8-2.9l2.7-1ZM20 9.2c2.7.6 5.6 1.7 8 2.7l-2.6.7c-4-1.8-7-2.4-8-2.7l2.6-.7Z" fill="#000" fill-rule="evenodd"/></svg>
