<svg width="40" height="40" viewBox="0 0 40 40" xmlns="http://www.w3.org/2000/svg"><g fill="#000" fill-rule="nonzero"><path d="M7.6 14.2a1 1 0 0 0-1.1.8c-.1.6.3 1.1.8 1.2.6 0 1.1-.4 1.2-.9 0-.5-.4-1-.9-1.1M7.6 9.6a1 1 0 0 0-1.1.9c-.1.5.3 1 .8 1.1.6.1 1.1-.3 1.2-.8 0-.6-.4-1.1-.9-1.2M7.6 5a1 1 0 0 0-1.1 1c-.1.5.3 1 .8 1 .6.1 1.1-.3 1.2-.8 0-.5-.4-1-.9-1.1M7.6.5a1 1 0 0 0-1.1.9c-.1.5.3 1 .8 1.1.6 0 1.1-.3 1.2-.9 0-.6-.4-1-.9-1M11.2 14.2a1 1 0 0 0-1.2.8c0 .6.4 1.1.9 1.2.5 0 1-.4 1.1-.9 0-.5-.3-1-.8-1.1M11.2 9.6a1 1 0 0 0-1.2.9c0 .5.4 1 .9 1.1.5.1 1-.3 1.1-.8 0-.6-.3-1.1-.8-1.2M11.2 5A1 1 0 0 0 10 6c0 .5.4 1 .9 1 .5.1 1-.3 1.1-.8 0-.5-.3-1-.8-1.1M11.2.5a1 1 0 0 0-1.2.9c0 .5.4 1 .9 1.1.5 0 1-.3 1.1-.9 0-.6-.3-1-.8-1M14.7 14.2a1 1 0 0 0-1.1.8c-.1.6.3 1.1.8 1.2.6 0 1.1-.4 1.2-.9 0-.5-.4-1-.9-1.1M14.7 9.6a1 1 0 0 0-1.1.9c-.1.5.3 1 .8 1.1.6.1 1.1-.3 1.2-.8 0-.6-.4-1.1-.9-1.2M14.7 5a1 1 0 0 0-1.1 1c-.1.5.3 1 .8 1 .6.1 1.1-.3 1.2-.8 0-.5-.4-1-.9-1.1M14.7.5a1 1 0 0 0-1.1.9c-.1.5.3 1 .8 1.1.6 0 1.1-.3 1.2-.9 0-.6-.4-1-.9-1M18.3 14.2a1 1 0 0 0-1.2.8c0 .6.4 1.1.9 1.2.5 0 1-.4 1.1-.9 0-.5-.3-1-.8-1.1M21.8 14.2a1 1 0 0 0-1.1.8c-.1.6.3 1.1.8 1.2.6 0 1.1-.4 1.2-.9 0-.5-.4-1-.9-1.1M21.8 9.6a1 1 0 0 0-1.1.9c-.1.5.3 1 .8 1.1.6.1 1.1-.3 1.2-.8 0-.6-.4-1.1-.9-1.2M21.8 5a1 1 0 0 0-1.1 1c-.1.5.3 1 .8 1 .6.1 1.1-.3 1.2-.8 0-.5-.4-1-.9-1.1M21.8.5a1 1 0 0 0-1.1.9c-.1.5.3 1 .8 1.1.6 0 1.1-.3 1.2-.9 0-.6-.4-1-.9-1M25.4 14.2a1 1 0 0 0-1.2.8c0 .6.4 1.1.9 1.2.5 0 1-.4 1.1-.9.1-.5-.3-1-.8-1.1M25.4 9.6a1 1 0 0 0-1.2.9c0 .5.4 1 .9 1.1.5.1 1-.3 1.1-.8.1-.6-.3-1.1-.8-1.2M25.4 5a1 1 0 0 0-1.2 1c0 .5.4 1 .9 1 .5.1 1-.3 1.1-.8.1-.5-.3-1-.8-1.1M25.4.5a1 1 0 0 0-1.2.9c0 .5.4 1 .9 1.1.5 0 1-.3 1.1-.9.1-.6-.3-1-.8-1M29 14.2a1 1 0 0 0-1.2.8c-.1.6.3 1.1.8 1.2.6 0 1.1-.4 1.2-.9 0-.5-.4-1-.9-1.1M29 9.6a1 1 0 0 0-1.2.9c-.1.5.3 1 .8 1.1.6.1 1.1-.3 1.2-.8 0-.6-.4-1.1-.9-1.2M29 5a1 1 0 0 0-1.2 1c-.1.5.3 1 .8 1 .6.1 1.1-.3 1.2-.8 0-.5-.4-1-.9-1.1M29 .5a1 1 0 0 0-1.2.9c-.1.5.3 1 .8 1.1.6 0 1.1-.3 1.2-.9 0-.6-.4-1-.9-1M32.5 14.2a1 1 0 0 0-1.2.8c0 .6.4 1.1.9 1.2.5 0 1-.4 1.1-.9.1-.5-.3-1-.8-1.1M32.5 9.6a1 1 0 0 0-1.2.9c0 .5.4 1 .9 1.1.5.1 1-.3 1.1-.8.1-.6-.3-1.1-.8-1.2M32.5 5a1 1 0 0 0-1.2 1c0 .5.4 1 .9 1 .5.1 1-.3 1.1-.8.1-.5-.3-1-.8-1.1M18.3 9.6a1 1 0 0 0-1.2.9c0 .5.4 1 .9 1.1.5.1 1-.3 1.1-.8 0-.6-.3-1.1-.8-1.2M18.3 5A1 1 0 0 0 17 6c0 .5.4 1 .9 1 .5.1 1-.3 1.1-.8 0-.5-.3-1-.8-1.1M18.3.5a1 1 0 0 0-1.2.9c0 .5.4 1 .9 1.1.5 0 1-.3 1.1-.9 0-.6-.3-1-.8-1M7.6 20.7a1 1 0 0 1-1.1-.8c-.1-.6.3-1.1.8-1.2.6 0 1.1.4 1.2.9 0 .5-.4 1-.9 1.1M7.6 25.3a1 1 0 0 1-1.1-.9c-.1-.5.3-1 .8-1.1.6 0 1.1.3 1.2.9 0 .5-.4 1-.9 1M7.6 29.9a1 1 0 0 1-1.1-1c-.1-.5.3-1 .8-1 .6-.1 1.1.3 1.2.8 0 .5-.4 1-.9 1.2M7.6 34.4a1 1 0 0 1-1.1-.9c-.1-.5.3-1 .8-1.1.6 0 1.1.3 1.2.9 0 .5-.4 1-.9 1.1M7.6 39a1 1 0 0 1-1.1-1c-.1-.4.3-1 .8-1 .6-.1 1.1.3 1.2.8 0 .6-.4 1-.9 1.2M11.2 20.7A1 1 0 0 1 10 20c0-.6.4-1.1.9-1.2.5 0 1 .4 1.1.9 0 .5-.3 1-.8 1.1M11.2 25.3a1 1 0 0 1-1.2-.9c0-.5.4-1 .9-1.1.5 0 1 .3 1.1.9 0 .5-.3 1-.8 1M11.2 29.9a1 1 0 0 1-1.2-1c0-.5.4-1 .9-1 .5-.1 1 .3 1.1.8 0 .5-.3 1-.8 1.2M11.2 34.4a1 1 0 0 1-1.2-.9c0-.5.4-1 .9-1.1.5 0 1 .3 1.1.9 0 .5-.3 1-.8 1.1M11.2 39a1 1 0 0 1-1.2-1c0-.4.4-1 .9-1 .5-.1 1 .3 1.1.8 0 .6-.3 1-.8 1.2M14.7 20.7a1 1 0 0 1-1.1-.8c-.1-.6.3-1.1.8-1.2.6 0 1.1.4 1.2.9 0 .5-.4 1-.9 1.1M14.7 25.3a1 1 0 0 1-1.1-.9c-.1-.5.3-1 .8-1.1.6 0 1.1.3 1.2.9 0 .5-.4 1-.9 1M14.7 29.9a1 1 0 0 1-1.1-1c-.1-.5.3-1 .8-1 .6-.1 1.1.3 1.2.8 0 .5-.4 1-.9 1.2M14.7 34.4a1 1 0 0 1-1.1-.9c-.1-.5.3-1 .8-1.1.6 0 1.1.3 1.2.9 0 .5-.4 1-.9 1.1M14.7 39a1 1 0 0 1-1.1-1c-.1-.4.3-1 .8-1 .6-.1 1.1.3 1.2.8 0 .6-.4 1-.9 1.2M18.3 20.7A1 1 0 0 1 17 20c0-.6.4-1.1.9-1.2.5 0 1 .4 1.1.9 0 .5-.3 1-.8 1.1M18.3 25.3a1 1 0 0 1-1.2-.9c0-.5.4-1 .9-1.1.5 0 1 .3 1.1.9 0 .5-.3 1-.8 1M21.8 25.3a1 1 0 0 1-1.1-.9c-.1-.5.3-1 .8-1.1.6 0 1.1.3 1.2.9 0 .5-.4 1-.9 1M21.8 29.9a1 1 0 0 1-1.1-1c-.1-.5.3-1 .8-1 .6-.1 1.1.3 1.2.8 0 .5-.4 1-.9 1.2M21.8 34.4a1 1 0 0 1-1.1-.9c-.1-.5.3-1 .8-1.1.6 0 1.1.3 1.2.9 0 .5-.4 1-.9 1.1M21.8 39a1 1 0 0 1-1.1-1c-.1-.4.3-1 .8-1 .6-.1 1.1.3 1.2.8 0 .6-.4 1-.9 1.2M25.4 25.3a1 1 0 0 1-1.2-.9c0-.5.4-1 .9-1.1.5 0 1 .3 1.1.9.1.5-.3 1-.8 1M25.4 29.9a1 1 0 0 1-1.2-1c0-.5.4-1 .9-1 .5-.1 1 .3 1.1.8.1.5-.3 1-.8 1.2M25.4 34.4a1 1 0 0 1-1.2-.9c0-.5.4-1 .9-1.1.5 0 1 .3 1.1.9.1.5-.3 1-.8 1.1M25.4 39a1 1 0 0 1-1.2-1c0-.4.4-1 .9-1 .5-.1 1 .3 1.1.8.1.6-.3 1-.8 1.2M29 25.3a1 1 0 0 1-1.2-.9c-.1-.5.3-1 .8-1.1.6 0 1.1.3 1.2.9 0 .5-.4 1-.9 1M29 29.9a1 1 0 0 1-1.2-1c-.1-.5.3-1 .8-1 .6-.1 1.1.3 1.2.8 0 .5-.4 1-.9 1.2M29 34.4a1 1 0 0 1-1.2-.9c-.1-.5.3-1 .8-1.1.6 0 1.1.3 1.2.9 0 .5-.4 1-.9 1.1M29 39a1 1 0 0 1-1.2-1c-.1-.4.3-1 .8-1 .6-.1 1.1.3 1.2.8 0 .6-.4 1-.9 1.2M32.5 25.3a1 1 0 0 1-1.2-.9c0-.5.4-1 .9-1.1.5 0 1 .3 1.1.9.1.5-.3 1-.8 1M32.5 29.9a1 1 0 0 1-1.2-1c0-.5.4-1 .9-1 .5-.1 1 .3 1.1.8.1.5-.3 1-.8 1.2M21.8 20.7a1 1 0 0 1-1.1-.8c-.1-.6.3-1.1.8-1.2.6 0 1.1.4 1.2.9 0 .5-.4 1-.9 1.1M25.4 20.7a1 1 0 0 1-1.2-.8c0-.6.4-1.1.9-1.2.5 0 1 .4 1.1.9.1.5-.3 1-.8 1.1M29 20.7a1 1 0 0 1-1.2-.8c-.1-.6.3-1.1.8-1.2.6 0 1.1.4 1.2.9 0 .5-.4 1-.9 1.1M32.5 34.4a1 1 0 0 1-1.2-.9c0-.5.4-1 .9-1.1.5 0 1 .3 1.1.9.1.5-.3 1-.8 1.1M18.3 29.9a1 1 0 0 1-1.2-1c0-.5.4-1 .9-1 .5-.1 1 .3 1.1.8 0 .5-.3 1-.8 1.2M18.3 34.4a1 1 0 0 1-1.2-.9c0-.5.4-1 .9-1.1.5 0 1 .3 1.1.9 0 .5-.3 1-.8 1.1M18.3 39a1 1 0 0 1-1.2-1c0-.4.4-1 .9-1 .5-.1 1 .3 1.1.8 0 .6-.3 1-.8 1.2"/></g></svg>
