<svg width="40" height="40" xmlns="http://www.w3.org/2000/svg"><path d="m20 21.1 9.4 16.3H10.6L20 21Zm6.4 14.2 1.5 1V36l-1-1.4-5.8-10-.7-1.6h-.1V31.8l6 3.5Zm-6.8-3.5v-6.9l.1-1.8-.8 1.5L13 34.7c-.3.7-.7 1-1 1.4v.1c.6-.2 1-.5 1.6-1l6-3.4Zm4.7-9-1.6-1 1 1.5 5.9 10.1.7 1.6v-8.7l-6-3.6ZM9.7 26.2v8.6l.7-1.5 6-10.1c.3-.7.6-1 1-1.4l-.1-.1-1.6 1-6 3.5Zm21.3 0v8.6l.7-1.5 5.9-10.1 1-1.4v-.1l-1.6 1-6 3.5ZM3 22.7l-1.5-1v.2l.9 1.4 5.9 10.1L9 35v-8.7l-6-3.6ZM20.4 8.2v6.9l-.1 1.8.8-1.5L27 5.3c.3-.7.7-1 1-1.4v-.1c-.6.2-1 .5-1.6 1l-6 3.4Zm-6.8-3.5-1.5-1V4l1 1.4 5.8 10 .7 1.6h.1V8.2l-6-3.5ZM9.4 3.1l9.3 16.2H0L9.4 3.1Zm6.3 14.2c.7.3 1.1.6 1.6 1V18l-1-1.4-5.9-10.1L9.7 5v8.7l6 3.6ZM9 13.7V5.1l-.7 1.5-5.9 10.1-1 1.4v.1l1.6-1 6-3.5ZM30.6 3.1 40 19.3H21.3l9.3-16.2Zm-.3 10.6V5.1l-.7 1.5-6 10.1c-.3.7-.6 1-1 1.4l.1.1 1.6-1 6-3.5Zm6.7 3.6 1.5 1V18l-.9-1.4-5.9-10.1L31 5v8.7l6 3.6ZM25.6 36.6c.8 0 1.3 0 1.9.2v-.1L26 36l-6-3.5-6 3.5-1.5.7h13.1ZM15 18.6l1.8.1c-.3-.3-1-.4-1.5-.8l-6-3.5-6 3.5c-.4.4-1 .5-1.4.7v.1l1.9-.1H15Zm21.2 0 2 .1-1.6-.8-6-3.5-6 3.5c-.5.4-1 .5-1.4.7v.1l1.8-.1h11.2ZM3.8 21.4l-2-.1 1.6.8 6 3.5 6-3.5c.5-.4 1-.5 1.4-.7v-.1l-1.8.1H3.8ZM0 20.7h18.7L9.4 36.9 0 20.7Zm25 .7-1.8-.1c.3.3 1 .4 1.5.8l6 3.5 6-3.5c.4-.4 1-.5 1.4-.7v-.1l-1.9.1H25Zm-3.7-.7H40l-9.4 16.2-9.3-16.2Zm-10.7-18h18.8L20 18.8 10.6 2.6Zm3.8.7c-.8 0-1.3 0-1.9-.2v.1L14 4l6 3.5L26 4l1.5-.7H14.4Z" fill="#000" fill-rule="nonzero"/></svg>