<svg width="40" height="40" xmlns="http://www.w3.org/2000/svg"><path d="M8.3 16.4h.3c2 0 3.8.9 5.2 2.5l.2.2-1.8 2.3a5.4 5.4 0 0 0-4-1.9H8c-1.3 0-2.4.6-3.3 1.4a5 5 0 0 0-1.4 3.7 5 5 0 0 0 1.4 3.7c.9 1 2 1.4 3.3 1.5h.3c1.3 0 2.5-.6 3.6-1.6l.2-.2h.1l1.9 2.1H14A7 7 0 0 1 8.6 33h-.3c-2.3 0-4.3-.7-5.8-2.2a7.9 7.9 0 0 1-2.5-6c0-2.6.8-4.6 2.5-6.2a8.3 8.3 0 0 1 5.8-2.1Zm19.8-4.7v5h3.4v3H28V28c0 1.2.5 1.8 1.4 1.8h.2c.6 0 1.3-.2 2.1-.6l.3-.2.2-.1-.8 3v.1a5 5 0 0 1-2.4.7h-.5c-1.1 0-2-.4-2.7-1.2-.6-.6-1-1.5-1-2.7v-9.2h-2.7v-3h2.7v-3.3l3.2-1.7Zm-9 5v15.9H16v-16h3.3Zm18.9 0v15.9h-3.3v-16H38ZM26.9 7a16 16 0 0 1 12.7 6.3l.3.4.1.3H36.2a12.7 12.7 0 0 0-8.9-4l-.4-.1a12.5 12.5 0 0 0-9 3.7l-.4.3h-3.8l.2-.2a16 16 0 0 1 13-6.7Z" fill="#000" fill-rule="nonzero"/></svg>