<svg width="40" height="40" viewBox="0 0 40 40" xmlns="http://www.w3.org/2000/svg"><path d="M35.8 20.9c1.8 0 3.4 1.3 4 3 .8 2.6-1 5.4-3.6 5.6h-14l11.2-7.9c.8-.5 1.6-.7 2.4-.7ZM.2 23.7c1-2.7 4-3.7 6.6-2L18 29.4H4.4c-2.9 0-5-2.6-4.2-5.8Zm11.3-9v.1L17.5 28 5.4 20c-3-2-2.3-5.4-.7-7 2.3-1.9 5.5-1.2 6.8 1.7Zm20.9-2.8c1.2 0 2.4.6 3 1.3 1.5 1.5 2 4.5-.5 6.5l-.2.1-12 8.2 5.7-13c.9-2.3 2.5-3 4-3Zm-7.5-5.4c2.3 0 4.8 2.6 3.7 5.7v.2l-6 14.1-1.9-12.7c0-2 1-2 1.5-2.4 0-.3-.5-.3-.6-.3h-1.2c0-3 2.1-4.5 4-4.6h.5Zm-5.4 5v.2l-2.1 14.8-6-14a4.3 4.3 0 0 1 3.6-6c2.1-.2 4.8 1.4 4.5 5Z" fill="#000" fill-rule="nonzero"/></svg>
