<svg width="40" height="40" xmlns="http://www.w3.org/2000/svg"><path d="M7.1 23.4c.6 0 1.2 0 1.7.2H9v1.9A3 3 0 0 0 7 25a1.8 1.8 0 0 0-1.5 1.4v1c.1.4.3.7.6 1 .4.2.8.3 1.3.3s1-.1 1.4-.3v1.8h-.1c-.8.3-1.7.3-2.5.1-.8-.2-1.5-.6-2-1.2-1-1.4-1-3.2 0-4.5.4-.5.8-.8 1.3-1l1.5-.3Zm18.3 0c.6 0 1.2 0 1.7.2h.1v1.9a3 3 0 0 0-1.8-.4 1.8 1.8 0 0 0-1.5 1.4v1c.1.4.3.7.6 1 .4.2.9.3 1.3.3.5 0 1-.1 1.4-.3v1.8h-.1c-.8.3-1.7.3-2.5.1-.8-.2-1.5-.6-2-1.2-1-1.4-1-3.2.1-4.5.3-.5.8-.8 1.2-1l1.5-.3Zm5.6.4a3.7 3.7 0 0 1 5.3 3.8 3.6 3.6 0 0 1-2.8 2.9 3.7 3.7 0 0 1-4.4-3.5c0-1.4.7-2.6 1.9-3.2Zm-13.5-.4h1.2l.9.1h.1V25A6.5 6.5 0 0 0 18 25a1.3 1.3 0 0 0-.5.1l-.1.1v.1c-.2.1-.2.3-.1.4l.3.3 1.2.5a2 2 0 0 1 1.3 1c.2.6.2 1.2 0 1.7a2 2 0 0 1-.6.8l-1 .5-.9.2h-1l-1-.2h-.2v-1.6h.1a8.8 8.8 0 0 0 1.4.2h.7c.2 0 .3 0 .5-.2l.3-.3v-.3l-.2-.2a1 1 0 0 0-.4-.3h-.2l-.3-.1-.8-.3-.5-.4-.5-.7v-1.5l.6-.8c.4-.3.9-.5 1.4-.5Zm-4.4 0v7h-1.8v-7h1.8Zm19.8 1.7a1.8 1.8 0 1 0-.4 3.7A1.8 1.8 0 0 0 33 25ZM10.4 9.4a.9.9 0 0 1 .9.9v9.3a.9.9 0 0 1-1.7 0v-9.3a.9.9 0 0 1 .8-.9Zm19.2 0a.9.9 0 0 1 .8.9v9.3a.9.9 0 0 1-1.7 0v-9.3a.9.9 0 0 1 .9-.9ZM.9 15.1a.9.9 0 0 1 .8.9v1.9a.9.9 0 0 1-1.7 0v-2a.9.9 0 0 1 .9-.8Zm4.8-2.4a.9.9 0 0 1 .8.9v4.3a.9.9 0 0 1-1.7 0v-4.3a.9.9 0 0 1 .9-.9Zm9.5 0a.9.9 0 0 1 .9.9v4.3a.9.9 0 0 1-1.7 0v-4.3a.9.9 0 0 1 .8-.9Zm4.8 2.4a.9.9 0 0 1 .9.9v1.9a.9.9 0 0 1-1.8 0v-2a.9.9 0 0 1 .9-.8Zm4.8-2.4a.9.9 0 0 1 .9.9v4.3a.9.9 0 0 1-1.8 0v-4.3a.9.9 0 0 1 .9-.9Zm9.6 0a.9.9 0 0 1 .8.9v4.3a.9.9 0 0 1-1.7 0v-4.3a.9.9 0 0 1 .9-.9Zm4.7 2.4a.9.9 0 0 1 .9.9v1.9a.9.9 0 0 1-1.7 0v-2a.9.9 0 0 1 .8-.8Z" fill="#000" fill-rule="evenodd"/></svg>