<svg width="40" height="40" xmlns="http://www.w3.org/2000/svg"><g fill="none" fill-rule="evenodd"><g fill="#000" fill-rule="nonzero"><path d="M19.7 33.1c-4.3 0-6.9-.7-6.8-6.2 3.8 1.3 3.1 5.1 6.8 6.2M16 11.9c-3 2.7-6 .1-8.8 2.8 2.2-3.8 4.1-5.6 8.7-2.8"/><path d="M7.3 13.5c.6-4.2-2-6.4 4.2-10.6C14.4 8.2 9.6 9 7.3 13.5M12.1 14.4c-1.2 3.9-5 3.1-6.2 6.9 0-4.4.8-7 6.2-6.9"/><path d="M5.4 20.4C4 16.5.4 15.8 3.8 9c5.1 3.1 1.4 6.3 1.6 11.3M.2 18.3c6 .2 4.4 4.8 7 9-3.2-2.6-6.5-1.5-7-9M1.7 28c5.3-2.8 6.2 2 10.6 4.3-4.1-.5-6.4 2-10.6-4.2M8.1 27.5c-2.1-3.7-2.7-6.3 2-9 .8 4-2.9 5.3-2 9"/><path d="M10.4 23.1c2.7 3 .1 6 2.8 8.8-3.8-2.2-5.6-4.1-2.8-8.8M7.9 35.8c3.2-5.1 6.3-1.4 11.3-1.6-3.9 1.6-4.5 5-11.3 1.6M20.3 33.1c4.4 0 7-.7 6.8-6.2-3.8 1.3-3 5.1-6.8 6.2M24 11.9c3 2.7 6 .1 8.9 2.8-2.2-3.8-4.2-5.6-8.8-2.8"/><path d="M32.8 13.5c-.6-4.2 2-6.4-4.3-10.6-2.9 5.3 2 6.2 4.3 10.6M28 14.4c1.2 3.9 5 3.1 6.1 6.9 0-4.4-.8-7-6.2-6.9"/><path d="M34.6 20.4c1.6-3.9 5-4.6 1.6-11.3-5 3.1-1.4 6.3-1.6 11.3M39.8 18.3c-6 .2-4.4 4.8-7 9 3.3-2.6 6.5-1.5 7-9M38.4 28c-5.4-2.8-6.2 2-10.6 4.3 4-.5 6.3 2 10.6-4.2"/><path d="M31.9 27.5c2.2-3.7 2.8-6.3-2-9-.8 4 2.9 5.3 2 9M29.7 23.1c-2.7 3-.2 6-2.8 8.8 3.7-2.2 5.5-4.1 2.8-8.8M32.2 35.8c-3.2-5.1-6.4-1.4-11.3-1.6 3.8 1.6 4.5 5 11.3 1.6"/></g></g></svg>