<svg width="40" height="40" viewBox="0 0 40 40" xmlns="http://www.w3.org/2000/svg"><path d="M11.5 22.7c-1 .2-2.5.4-3.4 1a1 1 0 0 0-.9 1.2c2 2.6 5 4.2 7.8 5 0-2.6.4-5 .4-7.5l-4 .3-1-2c1.6-.8 3.2-1.2 5-1.3.3-2.5.1-5.2 1.2-7.1 1 .3 1.6 1.4 1.8 2.6l.2 4 .3.1c3.7-.2 7.8.2 10.8 2.8.5.8.9 1.5.7 2.5-.3 1-1.4 1.8-2.3 2.3-.7 0-1.4-.2-2-.3-.1-1 1-1 1.3-1.4.2-.2.5-.6.5-1-2.4-1.2-5.1-1.3-8-1.7-.5 0-.8-.2-1 .2 0 3.3 0 5.6.2 8.8 5.1 1 10.8.7 14.8-2.6 2.2-1.6 2.5-4.8 1.6-7.3-2.6-6.5-9.3-10-15.5-12.5-5.2-2-11-3-16.8-2-.4.2-1 .2-1 .5.6.4 1.3 0 1.8.7.2.6-.7.6-.8.8-1-.2-2.2 0-2.7-1 .5-.8.9-2.2 2-2.6 10.4-3.2 20.8.9 29.1 6.6 3.4 2.8 6.4 6.2 7.7 10 .8 3.8-.8 7.3-3.6 9.6A20.7 20.7 0 0 1 19 33.9c-.2.7 0 1.6-.9 2h-1.8c-.8-1-.8-2.2-1-3.3a21 21 0 0 1-9-7.6c-.2-.7 0-1.2.5-1.7 1.2-1.1 2.5-1.8 3.7-2.3l1 1.7" fill="#000" fill-rule="nonzero"/></svg>
