<svg width="40" height="40" xmlns="http://www.w3.org/2000/svg"><path d="M20.2 16.8c.6 0 1 .4 1 1v9.6a1 1 0 0 1-2 0v-9.6c0-.6.5-1 1-1Zm-5.7 0a.9.9 0 0 1 0 1.8H5.8c-2.4 0-3.8 1.5-3.9 3.7v5.1a1 1 0 0 1-1.9.1V22.6c0-3.4 2.2-5.6 5.5-5.7h9Zm24.1 0a.9.9 0 0 1 .1 1.8H28.3c-.8 0-1.4.8-1.4 1.6 0 .7.6 1.4 1.3 1.5H36.6c1.9 0 3.4 1.4 3.4 3.3 0 1.8-1.4 3.2-3.2 3.3H26.4a.9.9 0 0 1 0-1.8h10.2c.8 0 1.5-.7 1.5-1.5s-.6-1.5-1.3-1.5H28.4a3.3 3.3 0 0 1-3.3-3.3c0-1.8 1.4-3.2 3.1-3.3H38.6ZM3.8 21.8h8.8a.9.9 0 0 1 .1 1.7h-9a.9.9 0 0 1 0-1.7h9Zm16.4-10a1.3 1.3 0 1 1 0 2.5 1.3 1.3 0 0 1 0-2.6Zm-4 0a1.3 1.3 0 1 1 0 2.5 1.3 1.3 0 0 1 0-2.6Zm-4.2 0a1.3 1.3 0 1 1 0 2.5 1.3 1.3 0 0 1 0-2.6Zm-4 0a1.3 1.3 0 1 1 0 2.5 1.3 1.3 0 0 1 0-2.6Zm-4.1 0a1.3 1.3 0 1 1 0 2.5 1.3 1.3 0 0 1 0-2.6Z" fill="#000" fill-rule="nonzero"/></svg>