<svg width="40" height="40" xmlns="http://www.w3.org/2000/svg"><path d="M4.3 14.4v1a11 11 0 0 0-2.7 6.4c0 6.6 5.3 8.7 14.5 8.7 5.7-.1 11.3-1.5 16.5-4.1l.5-.3v3a39 39 0 0 1-17 4.1C3.3 33.2 0 27.8 0 22.8s4.3-8.4 4.3-8.4Zm21.5 1.8c3.4 0 3.5 3.7 3.5 4v.8h-5.4a1.7 1.7 0 0 0 1.9 1.8c.6 0 1.2-.2 1.7-.6l.1-.1 1.4 1.2c-.8.8-1.9 1.3-3 1.3a3.8 3.8 0 0 1-4-4.2c0-.4.2-4.2 3.8-4.2Zm-18 .1v8.3a2 2 0 0 1-2-2.1v-6.2h2Zm6.5 0c1 0 2 .9 2 2v6.1h-2v-5.8c0-.3-.3-.5-.5-.6h-2.1v6.5h-2v-8.2h4.6Zm5.7-2.2v2.2h1.5V18h-1.6v4.3c0 .2.2.4.4.5h1.1v1.7h-1.3a2.2 2.2 0 0 1-2.2-2V14.1h2Zm6-7.3c10 0 14 4.8 14 8.9 0 3.9-2.4 7.4-6 8.8v-2.2c2.4-1.4 4-4 4-6.7 0-4.6-5.7-8.1-14.8-7.4-5 .4-10 1.8-14.5 4v-.7A34 34 0 0 1 26 6.8Zm6.5 6.1v11.5a2 2 0 0 1-2-2v-9.5h2Zm-6.8 5c-1.5 0-1.6 1.5-1.6 1.7h3.1s0-1.7-1.5-1.7ZM7.9 13.2v2H5.8v-2h2Z" fill="#000" fill-rule="nonzero"/></svg>