<svg width="40" height="40" xmlns="http://www.w3.org/2000/svg"><path d="M39.4 15.2c-1 .6-2.4 1.9-3.7 3.5-.3-1.8-.5-3.7-.6-5.8-.3-5-.3-9.2.5-11.3.5-1.2 0-1.5-.8-1.1a14.7 14.7 0 0 0-8.9 13c0 2.4.6 4.6 1.5 6.4-1.2 1-2.7.9-4 1.1-.5-2-1-4.2-3-5.2-3.3-2.5-7.5 0-10.8 2.1l-.5-5c-.3-5-.3-9.2.5-11.3.5-1.2 0-1.5-.8-1.1a14.7 14.7 0 0 0-8.8 13c0 5.2 2.6 9.2 5.7 10.7l-.3.4A26 26 0 0 0 2 32.5c-.8 3.2-.6 6.7 1.5 7.1 2.8.6 5.8-4.4 6.4-9.2.5-4 .3-7.1 0-10.3l.1-.1.8-1.2c1.4-1.2 2.8-2 4.2-2.6a5 5 0 0 1 4.5 1c.6.7 1.4 1.5 1 2.4-1.2-.3-2.2-1.1-3.6-1-1.4-.2-2.7 0-3.4 1.2-.5 1 .3 1.9 1 2.6 1.7 2 7.1-1 7.4 2.6 1-.3.9-1.6 1.3-2.4 1.6-.7 3-.9 5.1-1.3 1 1.3 2.1 2.3 3.3 2.9l-.2.4a26 26 0 0 0-3.5 7.9c-.8 3.2-.5 6.7 1.5 7.1 2.9.6 5.8-4.4 6.5-9.2a40 40 0 0 0 0-10.4c1.3-1.6 3.1-3.2 3.7-3.9.5-.5.7-1.5-.2-1ZM8 32.5c-.5 4.9-2.7 5.3-3.7 5-1.1-.5-1.4-4 .3-8.5.9-2.1 2-4 3-5.6.3 3.3.7 6.5.4 9Zm.6-30.3c-.7 1.5-2 4.3-2.1 9-.1 3 .4 6.8.8 10.5l-1.1 1.7c-2.2-1.5-3.3-4.7-3.4-9.7-.2-7.4 3.4-11 5.3-12 .5-.2.8-.2.5.5ZM20 21.8c-1 .3-2.5.1-3.4-.5-.2-.2-1-.7-.5-1.2 1.5-.9 2.8 0 3.9 1.2v.5ZM34 32.5c-.5 4.9-2.8 5.3-3.7 5-1.2-.5-1.5-4 .3-8.5.8-2.1 1.9-4 2.9-5.6.4 3.3.7 6.5.5 9Zm.5-30.3c-.6 1.5-2 4.3-2 9-.2 3 .3 6.8.8 10.5L32 23.4c-2.1-1.5-3.2-4.7-3.4-9.7-.2-7.4 3.4-11 5.4-12 .5-.2.7-.2.4.5Z" fill="#000" fill-rule="evenodd"/></svg>
