<svg width="40" height="40" xmlns="http://www.w3.org/2000/svg"><path d="M30.5 11.9c5.3 0 9.5 1.8 9.5 4.4 0 1.5-1.5 2.8-4.2 3v-.5c.5-.3 1.2-.8 1.2-2.2 0-1.9-2.1-3.8-6-3.8-3.7 0-5.9 1.8-8.3 4.3L19 21.3c-1 1-2 1.8-3 2.6 4.3.8 8.7 1.8 12.8 1.8 4.3 0 6.2-1 7.2-2l.3.4c-1 2.2-4.3 4-8.4 4-5.3 0-10-1.5-14.1-2.7A17.1 17.1 0 0 1 5.3 28c-3.2 0-5.3-1-5.3-2.4 0-2 3.2-3 7-3 1.6 0 3.3.2 5.1.4l2.1-2.2c1.4-1.5 3.3-3.6 5-4.9A19 19 0 0 1 30.5 12Zm-25 11.8c-1.6 0-2.9.7-2.9 1.8 0 1 1 1.7 2.7 1.7 1.8 0 3.6-1.1 5.4-2.7-1.8-.5-3.5-.8-5.1-.8Z" fill="#000" fill-rule="evenodd"/></svg>