<svg width="40" height="40" xmlns="http://www.w3.org/2000/svg"><path d="m40 18.6-.1-1.9c0-.4-.2-1.3-1.2-1.3-.9 0-1 .9-1.2 1.3 0 .4 0 .4-.4 1l-.3.4A17.2 17.2 0 0 0 21.5 2.5v-.3C21.3 2 21 .8 19.1.8c-1.4 0-2.1.7-2.2 1.8-2.7.4-5.2 1.5-7.4 3-.3-.2-1-.7-1.9-.7-.8 0-1.7.5-2.3 1.2-1 1-1.6 2.5-.1 4-1.3 2-2.2 4.2-2.6 6.6C.6 17 0 18.7 0 20c0 2 1.1 3 2.8 3a17.2 17.2 0 0 0 14.8 13.8v.2l-.2 1.7c0 .1 0 .5.6.5l.8-.1 1.7.2 2.2-.1c.2 0 .3-.4 0-.5l-1-.3c-.3 0-.9-.5-1.3-.7-.3-.2-.7-.4-.9-.8h.2c3.1 0 6-.8 8.6-2.3 0 .5 0 .7.2 1.2.3.8 1 1 1.7.7l1-.4 1.6-.4 1.8-.8c.3-.1 1.1-.6.8-1.5-.3-1-1-.8-1.5-.7l-2-.2c-.1 0-.3 0-.5-.2 2.7-2.5 4.6-5.9 5.2-9.7h.3c.7 0 1.1.3 1.6.3 1 0 1.4-.8 1.4-1.6l-.1-1c0-.3.2-.7.2-1.6Zm-22.9-15a16 16 0 0 0-6.4 2.6c.7.5.7 1 .7 1s.5.7.5 1.3c0 .6-.3.8-.3.8l.1.3c3.4.4 3.2.9 4.8 2a12 12 0 0 1-.2-2c0-2 1.4-3 1.4-4.1 0-.9-.4-1.3-.6-1.8Zm-11 3.2c1.2-1.3 2.3-.8 3.2 0 .4.4.7.2 1 .4 0 .2-.2.3 0 .6.3.2.7.5.4.8-.2.3-1.2.7-1.4.8-.2 0-.3.3-.2.5 0 .2.3.2.5.2l.8-.4c.4.5.3.8 1 1 1.6.3 2.5 0 3.8 1.3.5.4 1 .8 1.6 1 .4 1.2.8 2 .8 2.6v.6l-.9-.8a4.4 4.4 0 0 0-1-.8l-.8-.5-.4-.4C14 12.9 13 12 12.1 12c-.7 0-1 .2-1.2.2a.5.5 0 1 0 .5 1s.3-.2.7-.2c.5 0 1.2.9 1.7 1.4l.4.4 1 .7.5.3.3.3c.3.4.6.7 1.3 1.1-.2.7-.6 1-.7 1.9-1-.7-1-1.1-1.7-1.6-.3-.3-.7-.4-1.7-.9l-1.5-1c-3.4-2.5-2-3.2-3.3-4.9-.7-.8-1.3-.4-2.2-1.2-1-.7-.9-1.8 0-2.7Zm0 4c.6.2 1.2.3 1.5.7.8 1 0 2.5 3.3 5-1.3 0-2 .5-3.8 1.7l-.3-.1c-.2-1.1-.8-1.2-1.6-1.4-.1-.1-.4-.3-.9-.3h-.5c.4-2 1.2-3.9 2.3-5.6Zm-5 9.1c0 1.3.6 2 1.7 2 1.5 0 1.2-.7 2.5-.7 1.4 0 1.7 1.5 4.2 1.5 3 0 4.9-1.1 5.8-1.1.4 0 1.2.3 2.4.3-.2-.4-.7-.6-1-1.5-1.7-1-1.6-1.5-2.5-2.2-.4-.3-.8-.3-1.7-.8l-1.4.1c-2.4.2-3 1.8-4 1.8h-.8c-.4 0-.8-.1-.8-.4l.2-.7c0-.5-.6-.4-1-.4-.3 0-.2-.3-.4-.3-.3 0-.4.3-1 .3-1.2 0-2.2.4-2.2 2.1ZM17 31.7c0 .8.3 2.6.6 3.9-6.8-1-12.3-6.1-13.7-12.7.6-.2 1-.6 1.5-.6.8 0 1.8 1.5 4.2 1.5 3 0 4.9-1 5.8-1l2.4.2v1.5l.1 2.2c0 2.7-1 3.2-1 5Zm2.3-26.4.1.3 1 .6c0 1-.2.6-.2 1 0 .7 1.1 1 1.7 3.2.2.5.2 1 .3 1.7l.2 2.6v1.6c2.4.2 2.8.3 5.3 1.2l1 .2 1.4.5c2 .6.7 0 3.2.4l2.5.3h.1c-.3-8-6.4-14.4-14.2-15.3l.4.7c0 .2-.2.1-.3.2V5l-.2.4c0 .2 0 .6-.4.6-.5 0-1.4-.5-1.5-.6-.2-.2-.3-.2-.4 0ZM18.5 23c-.2-.5-.1-1.3 0-1.3 0-.1 0-.2.2-.2s.3.1.2.3l.1 1c.2.6.5 1.2.7 1.3.1.2.5.3.6.3l-.2-1.2c-.2-.8-.3-1 0-1.3h.3l-.8-1c-.2-.2-.3-.6-.3-1.4l.1-1.4v-2.4l-.1-1.6-.1-1.5v-1.4l.1-1c0-.9-.2-1-.8-1.4a.3.3 0 0 1 .3-.5c.7.5 1 .8 1 2v1l-.1.9V14.1c0 1 .1 1.2.2 1.5l.1 1.3v1.3a42.6 42.6 0 0 0 0 2.3c.7.7.9 1.1 1.1 1.6l.2.4a.3.3 0 0 1-.4.4l-.4-.3.1.4c.3.9.4 1.4.2 1.7l-.3.2c-.3 0-.8 0-1.2-.4-.4-.3-.7-1.3-.8-1.5Zm1.2 12.7c3 0 5.8-.8 8.3-2.2-.6-1.4-2-2.6-2.5-4-1.1-3-.2-3.4-1.2-3.9a11 11 0 0 1-2.6-1.4c-.4 1.4-1 3-1 3.8 0 .3-1 1.8-1 3.7 0 1.1-.4 2.3-.4 4h.4Zm12.2-2.2c-1.2-.2-1.6-1-2-1.7l-1.2-3.6c-.3-1.3-.3-1.6-.3-2.4 0-1.9-1.3-2.6-1.5-2.8-2-2.2-.9-1.8-5-4.2v4.3c.9.6 1.9 1.2 2.9 1.6 1.6.7.7 1.7 1.6 4.3.6 1.6 2 2.7 2.5 4 .7 1.8.3 2.5.7 2.5.4 0 .7-.3 1.3-.5.9-.3.3.3 3.4-1.2.2 0 .2-.2 0-.2-1.3.1-1 .1-2.4-.1Zm-1-2.2c-.4-.8-.8-2.3-1.1-3.4-.4-1.2-.4-1.6-.4-2.4 0-1.5-1-2.6-1.6-3.1 1.1 0 2.2.9 3.9.9.7 0 2.5-.4 3.8-.6-.6 3.3-2.3 6.3-4.7 8.6Zm8-9.7c-.2.4-1-.1-2-.1-.6 0-4.1.7-5.2.7-1.8 0-2.3-1-4.8-1-2-2.2-3.2-2.5-4.8-3.4l.1-.5c2.2.2 2.7.3 5.1 1.2.2.1.6 0 1 .2.5.2.4.3 1.4.5 2 .6.7 0 3.2.5l2.5.2c1 0 1.7 0 2.3-1.1.7-1.2.6-1 1-2.2 0-.3.2-.2.2 0 .2 3.5 0 2.7-.1 3.7 0 .6.2.9 0 1.3Z" fill="#000" fill-rule="evenodd"/></svg>