<svg width="40" height="40" viewBox="0 0 40 40" xmlns="http://www.w3.org/2000/svg"><path d="M35 27.7c-1.2 2.2-3.6 1.1-5-.3-1.6-1.6-2.6-3.7-3.8-5.6-1.3-2.3-2.6-4.5-4.1-6.7a27 27 0 0 1 1.8-2.4c.8-1 1.7-1.9 2.8-2.2 1.1-.4 2.4-.3 3.4.2s2 1.3 2.7 2.1c2 2.4 2.9 5.6 3.2 8.8.1 2 .2 4.3-1 6Zm-21.2-6c-1.2 2-2.2 4.1-3.8 5.7-1.4 1.4-3.8 2.5-5 .3-1.2-1.8-1.1-4.1-1-6.1.3-3.2 1.2-6.4 3.2-8.8.8-.8 1.6-1.6 2.7-2 1-.6 2.3-.7 3.4-.3 1.1.3 2 1.2 2.8 2.2a27 27 0 0 1 1.8 2.4c-1.5 2.2-2.8 4.4-4.1 6.7Zm24.6-7a14 14 0 0 0-4.2-5.9 9.2 9.2 0 0 0-6.8-2c-2.9.5-5 2.6-6.8 4.7l-.6.8-.6-.8c-1.9-2-4-4.2-6.8-4.7h-1.2c-2 0-4 .7-5.6 2a14 14 0 0 0-4.2 6C.1 18.6-.4 22.7.4 27a9 9 0 0 0 1.8 4.3c4.2 5 10.4-.8 13-4.5 1.8-2.6 3.3-5.4 4.8-8.2 1.5 2.8 3 5.6 4.8 8.2 2.6 3.7 8.8 9.5 13 4.5a9 9 0 0 0 1.8-4.3c.8-4.2.3-8.3-1.2-12.3Z" fill="#000" fill-rule="evenodd"/></svg>
