<svg width="40" height="40" xmlns="http://www.w3.org/2000/svg"><g fill="#000" fill-rule="nonzero"><path d="M35.4 27.9H40V15.2h-4.6zM26.8 22.9v5h4.6v-9.2a50.1 50.1 0 0 1-4.6 4.2"/><path d="M31.4 18.7c5.1-5.3 7.2-10.2 5.6-12.5-1.7-2.5-7-1.5-14 2.1l-.8.5c-.3.2-.1.4.1.3.3 0 .6-.2.9-.4 5.2-2.4 9.2-2.9 10.8-1.1 2.4 2.6-2.5 11.1-11 17.5a60 60 0 0 1-4.1 2.7l-.2.2-.8.5c-.2.2-.2.5.2.3l.8-.4.2-.2a100 100 0 0 0 7.7-5.3c1.7-1.4 3.3-2.9 4.6-4.2"/><path d="M8.7 34.5h4.6v-4.8a70.2 70.2 0 0 0 4.5-3c.3-.2.1-.4-.1-.2-.3 0-.5.3-.8.4-7.2 4.6-12 6-13.8 3.6-1.6-2.1 1-6.2 5.6-10.8v10.7a29 29 0 0 0 4.6-2.1v-10l1 2.2a6.2 6.2 0 0 0 5.7 3.9c2.6 0 4.6-1.5 5.8-3.9l1-2.1v2.5c1.6-1.6 3-3.2 4.1-4.8.2-.2.1-.3 0-.5a4.4 4.4 0 0 0-8 0l-1.9 4a1 1 0 0 1-1 .7 1 1 0 0 1-1-.6l-1.9-4.1c-.4-.8-1-1.4-1.6-1.8a41 41 0 0 1 4.9-3.5c.2-.2.2-.5-.2-.3l-.8.4-4.2 2.6-.5.4a4.4 4.4 0 0 0-6 4.1v.6C2 24-1.3 29.7.5 32.3c1.3 1.9 4.4 1.5 8.2-.2v2.4"/></g></svg>