<svg width="40" height="40" xmlns="http://www.w3.org/2000/svg"><path d="M20.6 8.2c0 .2-.3.2-.3.4 0 0-.2 0-.1.2l-4.6 5v.3c-.8.7-1.4 1.6-2.1 2.3 0 .2-.2.2-.2.3l-.5.5v.3a6 6 0 0 1-.6.5l-.1.3-.3.3-1.2 1.7.2.8v1c.2 0 .2.4.4.6l.2.8c.1 0 .1.2.3.1l1.1-1.1.8-.6.1-.2h.2l1-1c.4-.2.8-.7 1.3-.9l.5-.5.7-.5.5-.3v-.2l.2-.1h.2l.1-.2c.2 0 .3-.2.5-.3 0-.2.3 0 .3-.2h-.1c0-.3.3-.3.3-.5h.4l.5-.4h-.1c.1-.2.3-.2.5-.2.2-.2.4-.3.5-.6h.2l.5-.3-.2-.2.2-.2h.3c.1.1.3 0 .4 0l.2-.1v-.2c.3-.1.4-.4.6-.6 0 0 .1-.1 0-.2l.2-.1h.3l.2-.2s.1-.1 0-.2l.4-.2c0-.2.2 0 .2-.1l-.6.7v.3c-1.7 1.6-3 3.4-4.7 5v.2l-1 1.2s-.2 0-.1.2l-1 1.1c-1.6 1.8-2.8 3.8-4.3 5.6v.1c-.4.4-.8.8-1 1.3l-.3.4-.6.9.3.6v.6l.3.3v.1s0 .2.2.3l.1.6.2.3c.7-.6 1.4-1.2 2-2 .1 0 .2 0 .3-.2 0-.2.3-.2.4-.4.3-.1.5-.5.9-.7l1.2-1.1.2-.1 1.9-1.6h.2l.7-.6s.2 0 .3-.2V26h.3l.8-.8c.2 0 .3-.3.5-.3l.2-.3.4-.2 2.2-1.6c0-.2.1-.2.2-.3l.4-.1.1-.2c.2-.1.3 0 .4 0 .2 0 0-.1.2-.2v-.3h.7l.1-.3h.1l.1-.2h.2l.3-.2v-.2l.3-.4h.3c0 .2-.3.1-.3.3v.1c.2 0 .2-.1.3-.2h.2l.3-.3h.3c0-.1 0-.2.2-.3v-.2h-.2c-.1.1-.1 0-.1 0l.2-.1h.7l.4-.4.7-.2.2-.2h.1l.3-.3c.2 0 .2-.2.3-.3l-.2-.1c.2-.2.5 0 .7 0 .2-.1 0-.3.2-.4l.1.1.4-.2V17.4l.5.1.3-.3c0-.2-.2 0-.3-.1l-.1.1H33v-.1h.5c0-.2.2-.2.3-.3l.1.2h.2l.2-.2.1-.3h.2l.3-.2h.5V16h.3v-.2c.2 0 .4-.2.5-.3h.3l.4-.2.1-.2c.1-.2.2 0 .4 0l.1-.3h.2l.2-.2.2-.1v-.2H38.5l.2-.2H39l.1-.1A20 20 0 1 1 .4 24l.2-.1.4-.4 2.6-2.4 6.5-5.4 8.1-6.1h.1l.8-.6.8-.5.2-.2.5-.2ZM20 0a20 20 0 0 1 17.7 10.6l-.2.2s-.2 0-.1.2H37c-.2.2-.4.4-.7.4v.3l-.2.1h-.4c-.1.3-.5.4-.7.6H35c-.2 0-.3.3-.5.3l-.3.4H34c-.5.5-1.2.8-1.8 1.3l-.4.2-1.2 1c-.6.2-1 .7-1.6 1-.2.5-.8.5-1 1-.1-.1-.1 0-.2 0l-.6.5c-1.7 1-3 2.5-4.7 3.6l-.6.6c-.1 0-.1.1-.2 0L16.2 27c-.2 0 0-.1 0-.2.5-1 1.4-1.7 2-2.7l.4-.4c0-.2.2-.3.3-.5l.3-.1.1-.5.4-.3h.2l.1-.2v-.3c.2 0 .3-.3.5-.3l.3-.4.2-.2v-.1l1.1-1a37 37 0 0 1 1.7-2l.7-.7 2.5-3 .2-.2c.2 0 .3-.3.5-.4l.1-.3.3-.1c0-.2.2-.3.3-.5.2 0 .2-.2.3-.3 0-.3.3-.5.6-.7l.2-.4v-.3l.2-.1c-.1-.6 0-1.3-.3-2l.1-.3c-.1-.1 0-.3-.2-.4v-.3c0-.2-.2-.2-.4-.3 0 0 0 .1-.2 0l-.7.7-1.7 1.3-.5.2-2 1.5-.4.4s-.1.1-.2 0l-.9.8-4.7 3.7-3 2.4v-.1l.6-.5c0-.2.2-.2.1-.3l3.7-4.2s.1 0 0-.2l1-1 .4-.4c.2 0 .3-.3.4-.4 0-.2.3-.3.3-.4l.3-.1.1-.3.3-.3.1-.3 3-3.4.1-.4L25 6V4.7c-.2-.3 0-.7 0-1-.3-.4-.5-.8-.4-1.2l-.2-.2c-.4 0-.7.5-1.2.5l-2 1.4-.7.5s-.1.2-.2.1L20 5h-.2c-.3.4-.9.6-1.2 1h-.2c-.3.3-.6.6-1 .7l-.7.7c-.4.1-.6.6-1 .7l-1.1 1c-.1-.1-.1 0-.2 0l-.4.3-.7.5c-.8.9-1.9 1.4-2.7 2.3h-.2c-.5.6-1.2 1-1.8 1.6l-.3.1c-.4.6-1.1 1-1.6 1.6h-.3c-.7.9-1.7 1.5-2.5 2.3h-.2c-1.1 1.1-2.3 2-3.5 3l-.2.3V20C0 9 9 0 20 0Z" fill="#000" fill-rule="nonzero"/></svg>