<svg width="40" height="40" xmlns="http://www.w3.org/2000/svg"><path d="M40 33.3H14.9V6.7H40v26.6ZM19.4 20.7l3.2-3a9.5 9.5 0 0 0-7.7-3.2v2.1c3 0 4.5 4 4.5 4Zm13 .1A24 24 0 0 1 15 28V30c8 .4 15.7-2 22-6.7l-4.4-2.6ZM15 16.6v-2c-3 .3-5.8 1.7-8 3.8 0 0 1.8 6.6 8 7.4V24c-3-.7-4.7-5.1-4.7-5.1a6.3 6.3 0 0 1 4.7-2.2Zm0-4.4v-2C8.1 10.2 0 17.6 0 17.6s4.2 12.1 14.9 12.6V28c-7.7-.5-11-10-11-10s4.4-5.8 11-5.8Zm11.3 5.6C21 24 18 24.6 15 23.8v2c8.6 1 15.7-8.2 15.7-8.2A19.3 19.3 0 0 0 15 10.2v2c8.5 0 11.3 5.6 11.3 5.6Z" fill="#000" fill-rule="nonzero"/></svg>