<svg width="40" height="40" viewBox="0 0 40 40" xmlns="http://www.w3.org/2000/svg"><path d="M24.8 8.4c-2.3 0-4.8.2-7.2.7C7.5 11.3 0 17.1 0 22.8l.1 1.3c.8 3.5 4.4 6 9.5 7l3.6-13.6c.4-2 .7-2.6 1.2-3.4a4 4 0 0 1 3-2.1c.8 0 2 0 2.6.5.5.4.6.8.6 1.3 0 .8-.5 1.3-1.3 1.3-.9 0-1.1-.6-1.1-1 0-.5.3-.6.3-1 0-.2-.2-.5-.7-.5-.7.1-1.2.6-1.6 1.5l-.3 1-.6 2.5h4.2L17.7 24h-2l1.4-5.5h-2l-3.4 12.8c1 .2 2.2.2 3.4.2 2.2 0 4.6-.2 7-.7C32.2 28.8 40 22.8 40 17l-.1-1.2c-1-4.7-7.3-7.5-15.1-7.5M6 14.4h2.4c3.8 0 4.1 1.9 3.8 3.3-.4 1.7-1.4 2.9-5.8 2.9l-1 3.5H3.4l2.7-9.8m19.2 7.5c0-2.4 2-4.4 4.3-4.4 1.2 0 2.2.5 2.2 1.4 0 1-.8 2-1.9 2.3-.7.2-1.4.3-2.6.3v.5c0 .7.6 1.2 1.3 1.2 1 0 2-1 2-1l.4 1-1 .7c-.6.3-1.3.5-2 .5-1.6 0-2.7-1-2.7-2.5M37 17.5c1.2 0 1.4.7 1.4 1.2 0 .6-.5 1-1 1l-.6-.1a.9.9 0 0 1-.3-.6c0-.1 0-.3-.2-.4-.3 0-.6.1-.8.3a4 4 0 0 0-.9 1.3l-.3.8-.8 3h-2.2l1.8-6.5h2l-.3 1.3c.5-.5 1.4-1.3 2.2-1.3m-16.6 0h5.3c-.6 2-3.5 3.7-4.3 5.3H25l-.4 1.3h-5.4c0-2 3.4-4.5 4-5.5h-2.9l.3-1ZM7.9 15.4l-1.1 4.3c1.7 0 2.7-.3 3.3-2 .4-1.4.2-2.3-1.8-2.3H8Zm20.7 3.5c-.6.4-1 1-1.1 1.8 1 0 1.5-.2 2-.6.5-.4.7-.7.7-1.1 0-.2-.2-.5-.7-.5l-1 .4" fill="#000" fill-rule="nonzero"/></svg>
