<svg width="40" height="40" xmlns="http://www.w3.org/2000/svg"><path d="M26.9 15.1c5-5.7 12.1-3.3 13.1-3l-.7 2.2c-.2-.1-2.2-2-4.7-1.5-3 .8-4.8 4.4-5.4 6.5-3 9.3 2.3 8 2.6 8l1.9-6.1c0-.3.1-1-.8-1.5h6.6c-.8.3-1.3.8-1.5 1.5l-1.9 6.2c-.3.1-5 2.5-9.2.4-3.9-1.9-3.1-9.2 0-12.7Zm-3.7 1c.3.3.5.7.6 1.2v.2c0 .5-.2 1.2-1.1 2-1 .9-2.2 1.3-3 1.7.2 1.6.9 2.7 1.5 3.6.4-.4.6-1 .6-1.6 0-.4-.4-.7-.4-.7h2.1a5 5 0 0 1-1.5 3.3c.7.9 2.5 2 3.8 2.6h.3-4.2c-.5-.2-1.3-1-1.6-1.2a8 8 0 0 1-4 1.5c-1.6 0-2.7-.6-3.3-1.6-.4-.5-.5-1.2-.5-1.7 0-.7.2-1.2.3-1.5.9-2 3.3-2.7 4.2-3h.2v-.5c0-1 .2-2.9 1.5-4 .3-.4 1-.8 1.9-1 1-.2 2 0 2.6.7Zm-18-4.6H13c2.4 0 6 1.3 4 6C14.7 23 7.4 22 7.2 22l-1.6 5.1c-.2.6.2 1.1.5 1.2h.1H0c.3 0 1-.6 1.2-1v-.2l4.5-14.3c0-.3.2-.9-.3-1.3h-.1 7.6Zm12.3 10.7c-.9.3-2.4 1.4-2.4 2.8 0 1.7 1.4 2 2.2 2 1-.1 1.9-.6 2.1-.8-.8-1-1.6-2.6-2-4Zm-6.6-9.4H10l-2.5 8s3.4.9 4.9-3.6c1.4-4-.6-4.4-1.5-4.4Zm9.2 4.3c-.7 1-.7 2.2-.6 3 .4-.2 2.2-1.6 2.4-3 0-.3 0-.7-.4-.8-.5-.1-1 .1-1.4.8Z" fill="#000" fill-rule="evenodd"/></svg>