<svg width="40" height="40" xmlns="http://www.w3.org/2000/svg"><path d="M36.8 14.4c.2 1.3.2 2.8-.1 4.6-1.3 6.6-5.5 9.9-12.6 9.9h-1c-.4 0-.7.1-1 .4-.3.2-.5.5-.5.9l-.1.4-1.2 7.7v.4a1.6 1.6 0 0 1-1.6 1.3H13a.9.9 0 0 1-.8-.3 1 1 0 0 1-.2-.8 953.3 953.3 0 0 0 2.4-15c0-.6.4-.8 1-.8h2.9c2 0 3.7-.2 5.3-.5 2.6-.6 4.7-1.7 6.4-3.2 1.5-1.4 2.6-3.3 3.4-5.5a19.6 19.6 0 0 0 .9-3.2l.2.1c1.2.9 1.9 2 2.2 3.6Zm-3.9-6.3c0 1.6-.3 3.4-1 5.3a10.8 10.8 0 0 1-6.7 7c-1.7.6-3.6 1-5.7 1h-4c-1.5 0-2.3.7-2.6 2.1a1737.6 1737.6 0 0 0-2.2 12H4.1a1 1 0 0 1-.8-.3 1 1 0 0 1-.2-.9L8.2 1.5c.1-.4.3-.8.7-1C9.2 0 9.6 0 10 0h13.4l2.1.3c1 .2 1.8.4 2.5.7 1.6.6 2.8 1.5 3.7 2.8A7.5 7.5 0 0 1 32.9 8Z" fill="#000" fill-rule="nonzero"/></svg>