<svg width="40" height="40" xmlns="http://www.w3.org/2000/svg"><path d="m15.9.2 1.3-.2 2 12a8 8 0 0 0-1.3.2l-2-12Zm-.6 13.2a8 8 0 0 1 1.4-.8L10.7 2 9.4 3l6 10.5ZM12 20l.1-1.3H.1a19.5 19.5 0 0 0 0 2.4h12l-.2-1.1Zm16.2 0a8 8 0 0 1-16 1.4l-11.2 4c.2 1 .5 1.8.9 2.6l11.1-4-9 7.7c.5.8 1.1 1.5 1.8 2.2l8.5-7.2-5.5 9.8c.8.6 1.8 1.2 2.7 1.6l5.2-9.1-1.8 10.4c1.1.3 2.3.5 3.5.6l1.7-9.7 1.7 9.7 3.6-.6-1.6-9 4.5 7.9c1.3-.6 2.4-1.3 3.5-2l-4.1-7.4 6.3 5.4c1-1 2-2.1 2.7-3.3L31 26.2l7 2.5c.6-1.3 1.1-2.7 1.5-4.2l-6.1-2.3h6.5a20.6 20.6 0 0 0 0-4.9H27.5c.3.8.5 1.7.5 2.7Zm-16-1.8.8-2L1.7 12a20 20 0 0 0-.7 2L12 18.3ZM35 6.7l-9.1 7.7.6.8 9.1-7.7-.6-.8Zm-4.5-3.9-1-.6-6 10.5 1 .6 6-10.5ZM14.5 14 5.4 6.3 4.2 7.7l9.1 7.8 1.2-1.5Zm6.3-2 1.2.1L24 .2 23 0l-2 12Z" fill="#000" fill-rule="evenodd"/></svg>