<svg width="40" height="40" viewBox="0 0 40 40" xmlns="http://www.w3.org/2000/svg"><path d="M8 35.4a19.5 19.5 0 0 0 24.8-.8C31.3 35.6 27 38 20 38a24.4 24.4 0 0 1-12-2.5m13.3 1a22 22 0 0 0 13.2-4c1-.6 1.7-1.6 2.5-2.8A18.7 18.7 0 0 0 38 27c-3 4.4-11.4 7-20.2 7-6.2 0-12.9-2-15.5-5.7 2.4 5.2 9.8 8 19 8M16 27.8C6 27.8 1.4 23.2.5 20c0 1 .1 2.4.3 3.4a4 4 0 0 0 1 1.7c2.4 2.5 8.4 6 18.8 6 14.3 0 17.5-4.7 18.2-6.3a14.3 14.3 0 0 0 .6-5.9c-.7 3.8-12.8 9-23.3 9M2.4 11.5c-.6 1.2-1.2 3-1.4 4v1c1.3 2.6 7.3 6.6 21.4 6.6 8.7 0 15.3-2 16.4-6 .2-.7.2-1.4 0-2.4a19 19 0 0 0-1.3-3.4c.1 5-14 8.3-21.1 8.3-7.7 0-14.2-3-14.2-7l.2-1m30.5-6.3.1.5c0 2.1-6.6 6-17.2 6-7.7 0-9.2-3-9.2-4.7 0-.7.3-1.4.8-2-1 .8-2 1.7-2.8 2.8L4 9.2c0 3.8 9.5 6.5 18.4 6.5 9.5 0 13.7-3 13.7-5.8 0-1-.4-1.5-1.3-2.6a23 23 0 0 0-2-1.9M30 3.3a19.3 19.3 0 0 0-20.1 0C9 4 8.5 4.3 8.5 5c0 1.6 3.9 3.4 10.7 3.4 6.7 0 12-2 12-3.8 0-.5-.4-.8-1.2-1.2" fill="#000" fill-rule="nonzero"/></svg>
