<svg width="40" height="40" xmlns="http://www.w3.org/2000/svg"><path d="M20.3.9V7l.2.1.2.1.2.2h.3l.3.2h.4l.3.2h.5l-1.2 5h-3l-1.2 4.4h3.3l-1.2 5.4-.2.9v.4l-.1.5v1.8l.1.2.2.3v.3l.3.3.1.3.2.3.2.2.3.2.2.2.2.1.3.1.3.2h.3l.3.1h.3l.3.1H24.5l.6-.2.9-.1.4-.2h.3l.4-.2h.4l.4-.2.5-.2 1-3.8h-.8l-.5.1h-1v-.1h-.2V24l-.1-.3v-.7l1.3-5.8h3.2l1-4.4H29l1-4.5h3.5l1 .2h1l.5.1.4.1.4.1h.4l.6.3-.2 2V14.1l.2.5v.5l.2.4.1.2.1.2.2.3.2.2.2.2.2.2.2.1.1.1.3.2h.1v.3l.1.7v.5l.1.6V20.7l-.1 1v.8l-.2.8-.1.6-.2.5v.6l-1.2.4-.7.3-.8.3-.5.2-.4.2-1 .5-1.1.6-.5.4-.6.4-.4.3-.4.3-.4.4-.4.3-.4.4-.3.4-.4.4-.3.4-.3.4-.2.4-.2.5-.1.2-.1.2-.1.5-.2.5v2.5l.2.5v.5l.2.4.1.4.2.3-.2.1-.2.2h-.4l-.2.2H28l-.5.1H25.7l-.5-.1-.4-.1-.6-.2-.2-.1-.2-.1-.5-.3-.4-.3-.5-.3-.4-.4-.5-.4-.4-.4-.4-.4-.4-.5-.3-.5-.2-.3-.2-.2-.3-.6-.4-.7-.4-.8-.7-1.4-.6-1.5-.3-.7-.4-.6-.3-.6-.1-.3-.3-.2-.3-.5-.1-.2-.2-.2-.2-.2-.2-.1-.2-.1-.3-.1-.1-.2H12.7l-.2.1h-.1l-.2.2h-.1l-.3.3-.2.2-.2.3-.3.2-.1.2-.3.2-.2.2-.2.3h-.1l-.1.1-.3.2H8.3l-.2-.2H8l-.4-.4h-.2l-.1-.2L7 27l-.1-.2-.3-.3-.1-.2-.1-.3-.2-.4-.3-.4-.4-.9-.7-1.5v-.2l-.2-.2-.3-.4-.3-.4-.4-.4-.7-.7-.5-.4-.4-.4-.3-.3-.4-.5-.3-.4-.3-.4-.3-.5-.1-.3-.1-.3-.1-.3v-.3L0 16v-.4h10.5V1h9.8ZM28 10l-3.1 14H21l3-14h4Zm-1-5.4h.3l.2.1h.1l.2.1.2.2h.2v.2l.3.3.2.1v.4l.1.2V7.5l-.1.2-.2.1v.3h-.2l-.1.2h-.2l-.1.2h-.2l-.2.1H26l-.3-.1-.1-.1h-.2l-.1-.2L25 8v-.2l-.2-.2v-.1l-.1-.3v-.1l-.1-.3V6.3l.1-.2V6l.1-.2.1-.2.2-.2.2-.3h.2l.2-.2h.2l.2-.1h.8Z" fill="#000" fill-rule="nonzero"/></svg>