<svg width="40" height="40" xmlns="http://www.w3.org/2000/svg"><g fill="#000" fill-rule="nonzero"><path d="M18.2 29.9c-1.1 4.2-3.2 4.6-4.1 4.6-1.6 0-3-1-3-8V10l7.8-4.2v16c0 2.4-.1 6.2-.7 8.1Z"/><path d="m22.2 4 1.7.4v17c0 4.1-.1 7.8-1.2 10.5-.9 2.3-2.5 4-4.5 4.6l-2.1-.3c3-.4 4.9-3.9 5.3-5.5.6-2.3.8-5.2.8-8.4V4l-3.3 1.8 1.7.3v14.6c0 3.8 0 7.1-.7 9.3-.8 3.1-2.4 4.4-3.5 4.8l-2.3-.3h-.5c.3.8 1 1.5 1.8 1.7.2.7 1 1.3 1.8 1.5a3 3 0 0 0 2.7 1.6 7 7 0 0 0 4-1.4c3.8-2.7 5-8.5 5-16.4V.5L22.2 4Zm5.1 17.3a29 29 0 0 1-1.8 12.3c-1.2 2.6-3.2 4.2-5.2 4.5l-2.5-.3c3.2 0 5.3-3.2 6-4.8A26 26 0 0 0 25.7 22v-20l1.7.5v18.7Z"/></g></svg>