<svg width="40" height="40" xmlns="http://www.w3.org/2000/svg"><g fill="none" fill-rule="evenodd"><path d="M20 0a36 36 0 0 1 16.8 3.7v19.8c0 4.2-1.6 7.7-4.5 10.1-2.7 2.2-11.3 6-12.3 6.4-1-.5-9.6-4.2-12.3-6.4-3-2.4-4.5-5.9-4.5-10V3.6A35.4 35.4 0 0 1 20 0ZM4.8 12.2v11.3a11 11 0 0 0 4 8.9c2.2 1.9 9.2 5 11.2 6 2-1 9-4 11.3-6a11 11 0 0 0 4-9V4.2c-9.8-.9-21.4-.3-30.5 8.1Zm15.7.7c3.5 0 5.3 2.6 5.3 6.9 0 4.2-1.8 7.2-5 7.2l-1.4-.2V33h-3V14c1.2-.7 2.4-1 4-1ZM9.2 13v9.4c0 .8.2 2 1.5 2 .6 0 1-.1 1.4-.3v-11H15v12.6a7.7 7.7 0 0 1-4.5 1.2c-2.8 0-4.2-1.6-4.2-4.7v-9.2h2.9Zm24.4.7v2.5a4.2 4.2 0 0 0-2.6-1.2c-.8 0-1.7.4-1.7 1.4-.1 1 .8 1.5 1.9 2.2C33.6 20 34 21.4 34 23c0 1.9-1.3 3.9-4.2 3.9-1.2 0-2.3-.4-3.2-1v-2.6c.8.6 1.9 1.1 2.8 1.1 1 0 1.8-.6 1.7-1.6 0-.9-.5-1.4-1.8-2.2-2.3-1.3-2.7-2.5-2.8-4 0-2.5 2-3.8 4-3.9 1.5 0 2.6.6 3.1 1Zm-13.1 1.4a3 3 0 0 0-1 .1v.1h-.1v9l1 .1c1.6 0 2.4-1.5 2.4-4.7s-.7-4.6-2.3-4.6Z" fill="#000" fill-rule="nonzero"/></g></svg>