<svg width="40" height="40" viewBox="0 0 40 40" xmlns="http://www.w3.org/2000/svg"><path d="m11.8 13.8-3.4 8.5L7.1 15c-.2-.8-.8-1.2-1.5-1.2H0L0 14c1.1.3 2.4.7 3.2 1.1.5.3.6.5.8 1l2.5 10H10l5.2-12.4h-3.4m4.8 0-2.7 12.5h3.2l2.7-12.5h-3.2M35 17l1 4.7h-2.7l1.7-4.7m-.5-3.3c-.6 0-1.1.3-1.3.9l-4.9 11.6h3.4l.7-1.9h4.1l.4 1.9h3l-2.6-12.5h-2.8m-14 3.9c0 1.8 1.7 2.8 3 3.4 1.2.6 1.6 1 1.6 1.5 0 .9-1 1.2-2 1.2-1.6 0-2.5-.4-3.3-.7l-.5 2.7c.7.3 2.1.6 3.5.7 3.4 0 5.7-1.7 5.7-4.3 0-3.3-4.6-3.5-4.6-5 0-.4.5-.9 1.4-1a6 6 0 0 1 3.2.5l.6-2.6c-.8-.3-1.8-.6-3-.6-3.2 0-5.5 1.7-5.5 4.2" fill="#000" fill-rule="evenodd"/></svg>
