<svg width="40" height="40" viewBox="0 0 40 40" xmlns="http://www.w3.org/2000/svg"><path d="M40 12.6v5.8h-1.6c0-1.2-.2-2.2-.6-3.1-.6-.7-1.6-.9-3.2-.9h-3.7v4.4H32c1.7 0 2-.4 2-2.6h1.5v7.3H34c0-2.5-.3-3-2-3h-1.2v3.8c0 1.2.1 1.3 1.3 1.3H34v1.8h-9v-1.8h.9c1.2 0 1.6-.2 1.6-1.3v-8.6c0-1.2-.7-1.3-1.9-1.3h-.3c-1.3 0-1.6.5-2.2 1.8L19 27.4h-2.7L13 19.3l-3.2 8H7.1l-4.5-11C2.2 15 1.3 14.4.3 14.4H0v-1.8h7.4v1.8h-.6c-1 0-1.4.2-1.2.6 0 .1-.2.3 0 .4 0 0 1.8 4.2 3 8.1h.2l3-7.3c-.2-1.2-.6-1.8-1.8-1.8H9v-1.8h7.8v1.8h-1.2c-.7 0-1 .2-1 .6l.1.6s1.8 4.3 3 8h.2l2.8-7.4.2-1.2c0-.4-.3-.6-1.2-.6h-1v-1.8H40Z" fill="#000" fill-rule="nonzero"/></svg>
