<svg width="40" height="40" xmlns="http://www.w3.org/2000/svg"><path d="M20 26.5c1 0 1.7.5 1.8 1.2l1 10.4c0 1-1.3 1.9-2.8 1.9-1.5 0-2.7-.8-2.7-1.9l.9-10.4c0-.6.8-1.1 1.6-1.2h.2Zm7.5-4.2 9.6 4.4c.9.5 1 2 .2 3.3-.7 1.3-2 2-3 1.4l-8.6-6c-.5-.4-.5-1.3 0-2.1.4-.8 1.2-1.3 1.8-1Zm-13.2 1c.5.8.5 1.7 0 2.1l-8.6 6c-1 .5-2.3 0-3-1.4-.8-1.3-.6-2.8.2-3.3l9.6-4.4c.6-.3 1.4.2 1.8 1ZM5.6 8.5l8.7 6.1c.4.4.5 1.2.1 2v.1c-.5.8-1.2 1.2-1.8 1h-.1l-9.6-4.4c-.8-.5-1-2-.2-3.3.7-1.3 2-1.9 2.9-1.5ZM37.3 10c.7 1.3.7 2.7-.1 3.2l-.1.1-9.6 4.4c-.6.3-1.4-.2-1.8-1-.5-.7-.5-1.6 0-2l8.6-6.1c1-.5 2.3 0 3 1.4ZM20 0c1.5 0 2.6.8 2.7 1.8l-.9 10.5c0 .6-.8 1.1-1.6 1.2h-.4c-.8 0-1.4-.5-1.6-1v-.2L17.2 2C17.3.9 18.6 0 20 0Z" fill="#000" fill-rule="nonzero"/></svg>