<svg width="40" height="40" viewBox="0 0 40 40" xmlns="http://www.w3.org/2000/svg"><path d="M33.3 18.3c-.7.2-1.6.2-2.4.3-.4 0-.9.2-1.4.4V18.7c1-.3 2.2-.4 3.3-.6.2 0 .3-.5.6-.4.1.2.1.5-.1.6Zm-13.9-2.8-2.4.4a.7.7 0 0 1-.8-1l-.6.2a.7.7 0 0 1-.8-1l-.6.1a.7.7 0 0 1-.7-1l-.6.2a.7.7 0 1 1-.3-1.4l1.3-.2h.2l-.1.2-1.3.3c-.3 0-.4.3-.4.5s.3.3.5.3l2.5-.5.2.1-.1.2-1.4.3a.4.4 0 0 0 .2.8l2.5-.5a.1.1 0 0 1 0 .2l-1.3.3c-.2 0-.4.3-.3.5 0 .2.2.3.4.3l2.5-.5.2.1-.1.2-1.4.3a.4.4 0 0 0 .2.8l2.5-.5h.2c0 .2 0 .2-.2.3ZM15 16l-4 1a.1.1 0 1 1 0-.4l4-1v.4Zm-6.7.3-.2-.1.1-.2 5.5-1.2h.1v.3l-5.5 1.2Zm-2.7-.6-.1-.1v-.2l6.8-1.5.2.1s0 .2-.2.2l-6.7 1.5Zm-1.6-1h-.2l.1-.2 7-1.5h.1v.2l-7 1.6ZM23.5 7c-.1 0-.5-.2-.6 0 0 .2-.2.2-.3.3h-.2c0-.3.2-.3.2-.5.2-.2.4-.2.7-.2 0 .2.5.2.2.4Zm-2.3 5-1.3.2-.2-.2 1.4-.3h.2l-.1.2Zm18.4 11.9L39 23l-.2-.6c-.1-.2-.8-.6-1-1a28 28 0 0 1-1.4-2.2l-.5-1a1 1 0 0 0-.5-.3l-.5.1c-.3 0-.4 0-.3-.2.2-.4.1-.8 0-1-.4-.2-.8-.7-1.3-.6l-3 1.5h-.2c-.3-.7-.3-1.4-.5-2-.1-.4-.4-.7-.7-.8l-1.6-.2s-.1-.1 0-.2c0-.2.1 0 .2-.1 0-.5-.3-1-.5-1.4-.7-1.2-2-2-3.1-2.7-.1 0-.3 0-.3-.3h.2l1.6 1a6 6 0 0 1 2.5 3.4c.3.1.6.2.8.1l-.6-1.6c-.7-1.6-2.5-2.4-3.8-3.4l.1-.4c.5-.5 1-.7 1.7-.9.3-.1.6.3 1 0 .1 0 .3 0 .5-.2v-.2c0-.2-.2-.2-.3-.2-.4 0-.6.5-1 .1l.2-.2c.4-.2 1-.2 1.4-.2 0-.3-.2-.4-.3-.6 0-.1 0-.4-.2-.4h-3.7l-.4-.2h-1.8l-.3.2a1 1 0 0 0-.8-.2l-1.8.6h-.2l1.4.6h.5v.3c-.6 0-1.1-.1-1.6-.3-.2.4-.3 1-.3 1.5l1.6-.3.1.1v.1l-1.6.3v1h.1l1.6-.4.1.1v.1l-1.7.4.2.4v.2l.2.1 1.7-.3h.2l-.1.2-1.6.3-.1-.1.3.4.2.2.3.7.2.2.3.6-.1-.2 1.4-.3a.1.1 0 0 1 0 .2l-1.3.3.2.2.4.5 1.5-.3h.2l-.1.2-1.4.3-.2-.2v.1l.3.2.4.3c.7.4 1.5 0 2.2 0 0 .1.2.2.1.3H24c-.9 0-1.9.4-2.6-.2-1.2-.8-1.5-2.2-2.4-3.2-.7-.8-1.9-.9-3-.7l-.5.1L9.8 12 0 14c.3.5.7.7 1.2.7.4.5.9.8 1.5.7.4.6 1 .8 1.7.8.5.5 1.3.7 2 .5.7.6 1.6.8 2.4.5.7.5 1.5.6 2.3.5 1.7-.1 3.2-.6 4.8-.9 1.3.9 3.1.5 4.5 0l.2.2v.2s-1.7.6-3.3.5c-.5 0-1-.2-1.4-.5a5 5 0 0 0-3.7 2c-1 1-2.3 1.2-3.6 1.5-1.7.3-3.6.3-4.8 1.7a2 2 0 0 0-.4 2.3c.4.6 1.2.7 2 .6h.2c-.3-.4-.5-.7-.4-1.1.1-1 1.2-1 2-1.2 1.2-.4 2.2-1.2 3.3-1.9.3-.1.6-.4 1-.4l.1.1.1 3.7v.3c0 .2-.2.3-.4.4-.3.2-.8 0-1 .3l-.3.9c0 .2-.3.2-.5.5-.1.5 0 1-.2 1.5-.1.6-.7.9-1.1 1.2-.1.2.2.5-.1.7-.3.1-.5-.2-.7-.3l-1 1.5c.5.2 1 0 1.4-.2.2-.1.3-.4.6-.4l.1.2c-.1.2-.5.5-.2.9v.3c-.2.1-.6 0-.8 0l-.6 1.5v.1c.6 0 1-.2 1.5-.6.1-.4.6-.6.8-1l.7-3 .2-.6c.3-.4.5-.8.9-1 1.3-.5 2.6-1 3.8-1.9C16 25 16 23.4 17 22.4c.3-.3.5-.5.9-.6l.1.2-.6.5c1.2-.2 2.2.1 3.3.2 2.7.1 5.3-.2 7.3-1.7l-.8-.7c0-.1 0-.2.2-.2.5.1.8.7 1.2 1l3.2-.8 1.3-.5h.2c0 .7-.1 1.3-.7 1.7v.2c.1.1 0 .3 0 .4-.3 0-.5 0-.8-.2l-.7 1.5c.6 0 1.2-.1 1.6-.6.3-.4 1-.5 1-1l.4-2.3.1-.1c0-.1.6-.4.8-.3.3.1 1.2 1.4 1.6 2l1 2c.3.2.7 0 .8.2l-.2.7v.3a44.1 44.1 0 0 1 1.7.8l-.4-1.3Z" fill="#000" fill-rule="evenodd"/></svg>
